<svg xmlns="http://www.w3.org/2000/svg" id="arrow-back" viewBox="0 0 512 512"><path fill="none" stroke-linecap="round" stroke-linejoin="round" stroke-width="48" d="M328 112L184 256l144 144"/></svg>

<svg xmlns="http://www.w3.org/2000/svg" id="arrow-down" viewBox="0 0 512 512"><path fill="none" stroke-linecap="round" stroke-linejoin="round" stroke-width="48" d="M112 184l144 144 144-144"/></svg>

<svg xmlns="http://www.w3.org/2000/svg" id="arrow-down" viewBox="0 0 512 512"><path fill="none" stroke-linecap="round" stroke-linejoin="round" stroke-width="48" d="M184 112l144 144-144 144"/></svg>

<svg xmlns="http://www.w3.org/2000/svg" id="arrow-up" viewBox="0 0 512 512"><path fill="none" stroke-linecap="round" stroke-linejoin="round" stroke-width="48" d="M112 328l144-144 144 144"/></svg>

<svg xmlns="http://www.w3.org/2000/svg" id="location" viewBox="0 0 512 512"><path d="M256 32C167.67 32 96 96.51 96 176c0 128 160 304 160 304s160-176 160-304c0-79.49-71.67-144-160-144zm0 224a64 64 0 1164-64 64.07 64.07 0 01-64 64z"/></svg>

<svg xmlns="http://www.w3.org/2000/svg" id="map" viewBox="0 0 512 512"><path d="M48.17 113.34A32 32 0 0032 141.24V438a32 32 0 0047 28.37c.43-.23.85-.47 1.26-.74l84.14-55.05a8 8 0 003.63-6.72V46.45a8 8 0 00-12.51-6.63zM212.36 39.31A8 8 0 00200 46v357.56a8 8 0 003.63 6.72l96 62.42A8 8 0 00312 466V108.67a8 8 0 00-3.64-6.73zM464.53 46.47a31.64 31.64 0 00-31.5-.88 12.07 12.07 0 00-1.25.74l-84.15 55a8 8 0 00-3.63 6.72v357.46a8 8 0 0012.52 6.63l107.07-73.46a32 32 0 0016.41-28v-296a32.76 32.76 0 00-15.47-28.21z"/></svg>

<svg xmlns="http://www.w3.org/2000/svg" id="musical-note" viewBox="0 0 512 512"><path d="M421.84 37.37a25.86 25.86 0 00-22.6-4.46L199.92 86.49A32.3 32.3 0 00176 118v226c0 6.74-4.36 12.56-11.11 14.83l-.12.05-52 18C92.88 383.53 80 402 80 423.91a55.54 55.54 0 0023.23 45.63A54.78 54.78 0 00135.34 480a55.82 55.82 0 0017.75-2.93l.38-.13 21.84-7.94A47.84 47.84 0 00208 423.91v-212c0-7.29 4.77-13.21 12.16-15.07l.21-.06L395 150.14a4 4 0 015 3.86v141.93c0 6.75-4.25 12.38-11.11 14.68l-.25.09-50.89 18.11A49.09 49.09 0 00304 375.92a55.67 55.67 0 0023.23 45.8 54.63 54.63 0 0049.88 7.35l.36-.12 21.84-7.95A47.83 47.83 0 00432 375.92V58a25.74 25.74 0 00-10.16-20.63z"/></svg>

<svg xmlns="http://www.w3.org/2000/svg" id="play-music" viewBox="0 0 512 512"><path d="M133 440a35.37 35.37 0 01-17.5-4.67c-12-6.8-19.46-20-19.46-34.33V111c0-14.37 7.46-27.53 19.46-34.33a35.13 35.13 0 0135.77.45l247.85 148.36a36 36 0 010 61l-247.89 148.4A35.5 35.5 0 01133 440z"/></svg>

<svg xmlns="http://www.w3.org/2000/svg" id="close-btn" viewBox="0 0 512 512"><path fill="none" stroke-linecap="round" stroke-linejoin="round" stroke-width="32" d="M368 368L144 144M368 144L144 368"/></svg>

<svg xmlns="http://www.w3.org/2000/svg" id="info-pointer" viewBox="0 0 512 512"><path d="M248 64C146.39 64 64 146.39 64 248s82.39 184 184 184 184-82.39 184-184S349.61 64 248 64z" stroke-miterlimit="10" stroke-width="32"/><path stroke-linecap="round" stroke-linejoin="round" stroke-width="32" d="M220 220h32v116"/><path stroke-linecap="round" stroke-miterlimit="10" stroke-width="32" d="M208 340h88"/><path d="M248 130a26 26 0 1026 26 26 26 0 00-26-26z"/></svg>