<svg id="amazon" version="1.1" xmlns="http://www.w3.org/2000/svg" xmlns:xlink="http://www.w3.org/1999/xlink" x="0px" y="0px"
	 viewBox="0 0 130 100" style="enable-background:new 0 0 130 100;" xml:space="preserve">
    <g>
	<path d="M62.56,88.45c-21.2-0.47-41.79-7.62-60.11-21.34c-0.66-0.49-1.8-1.01-1.23-1.91c0.58-0.91,1.53-0.06,2.25,0.31
		c14.34,7.37,29.47,12.42,45.46,14.6c16.13,2.2,32.02,0.44,47.66-3.83c6.01-1.64,11.88-3.65,17.56-6.23c1.12-0.51,2.42-1.14,3.2,0.4
		c0.74,1.47-0.4,2.22-1.46,2.93c-11.05,7.42-23.27,11.74-36.37,13.82C74.47,88.02,69.4,88.34,62.56,88.45z"/>
	<path d="M2.71,36.29c0-3.79,0.06-7.58-0.03-11.36c-0.03-1.39,0.32-2.02,1.8-1.84c0.84,0.1,1.7,0.01,2.56,0.02
		c0.54,0,1.22-0.08,1.13,0.74c-0.25,2.34,1.08,1.65,2.23,1.15c3.78-1.63,7.42-2.16,10.69,1.09c0.56,0.56,1.1,0.23,1.69,0
		c1.87-0.7,3.74-1.41,5.65-1.98c5.29-1.58,10.62,2.08,10.8,7.57c0.18,5.56,0.03,11.13,0.07,16.69c0.01,1-0.3,1.28-1.31,1.33
		c-4.32,0.25-4.32,0.29-4.32-3.88c0-4.56,0.01-9.12-0.01-13.68c-0.01-2.84-1.69-4.13-4.5-3.47c-1.79,0.42-4.24,0.36-5.17,1.51
		c-0.9,1.1-0.24,3.47-0.25,5.28c-0.01,4.1-0.06,8.19,0.03,12.29c0.03,1.48-0.34,2.17-1.93,1.94c-0.68-0.1-1.4-0.09-2.09,0
		c-1.29,0.16-1.53-0.45-1.52-1.6c0.05-5.18,0.03-10.36,0.02-15.53c-0.01-3.31-1.63-4.58-4.86-3.83c-5.22,1.2-5.22,1.2-5.22,6.51
		c0,4.17-0.06,8.35,0.03,12.52c0.03,1.44-0.28,2.19-1.88,1.94c-0.61-0.09-1.25-0.08-1.86,0c-1.47,0.2-1.84-0.43-1.81-1.83
		C2.76,44.02,2.71,40.15,2.71,36.29z"/>
	<path d="M66.31,36.24c0,3.78-0.04,7.57,0.02,11.35c0.02,1.16-0.25,1.79-1.52,1.56c-1.37-0.25-2.88,0.57-4.16-0.59
		c-0.48-0.43-0.94,0.21-1.4,0.38c-7.27,2.8-14.53-1.9-14.01-9.41c0.33-4.84,0.1-9.73,0.04-14.59c-0.02-1.31,0.16-1.89,1.72-1.88
		c3.9,0.05,3.9-0.05,3.9,3.85c0,4.48,0.21,8.97-0.07,13.44c-0.21,3.52,2.56,5.11,5.3,4.77c1.28-0.16,2.5-0.72,3.76-1.05
		c1.2-0.32,0.92-1.27,0.92-2.07c0.02-5.56,0.07-11.12-0.03-16.68c-0.03-1.65,0.29-2.51,2.13-2.21c0.6,0.1,1.24,0.08,1.85,0
		c1.24-0.16,1.58,0.35,1.55,1.56C66.27,28.51,66.31,32.38,66.31,36.24z"/>
	<path d="M71.47,43.17c4.18,1.37,8.13,3.06,12.51,1.87c1.3-0.35,2.59-0.63,2.72-2.32c0.13-1.66-0.81-2.64-2.18-3.18
		c-1.57-0.61-3.22-0.98-4.82-1.51c-1.75-0.58-3.47-1.25-4.83-2.59c-3.26-3.21-2.93-7.78,0.9-10.24c4.36-2.81,9.03-2.64,13.73-0.89
		c1.24,0.46,1.25,0.86,0.81,4.59c-3.08-0.92-6.1-2.21-9.43-1.12c-1.39,0.45-2.84,0.9-2.86,2.54c-0.02,1.58,1.07,2.66,2.59,3.19
		c2.03,0.71,4.09,1.32,6.07,2.14c2.83,1.17,4.67,3.21,4.94,6.39c0.36,4.17-2.11,7.06-6.64,7.54c-3.47,0.37-6.92,0.13-10.26-1.1
		C71.22,47.19,71.21,47.22,71.47,43.17z"/>
	<path d="M125.21,28.68c-0.76,0.15-1.29-0.41-1.92-0.64c-4.29-1.58-8.07,0.08-9.76,4.31c-2.1,5.26,0.31,11.58,5,12.88
		c1.72,0.48,3.51,0.38,5.29,0.24c0.69-0.05,1.8-0.33,1.52,0.97c-0.2,0.95,0.95,2.35-0.98,2.81c-8.41,2.02-15.51-1.95-16.75-10.51
		c-0.79-5.45,0.52-10.08,5.05-13.52c2.69-2.04,5.81-2.46,9.02-1.96C125.3,23.82,125.69,24.54,125.21,28.68z"/>
	<path d="M116.09,66.33c-2.42-0.26-5,0.48-7.63,0.57c-0.66,0.02-1.55,0.58-1.84-0.27c-0.3-0.87,0.67-1.3,1.29-1.66
		c4.75-2.81,9.93-3.86,15.34-3.09c6.43,0.91,7.01,2.02,5.51,8.37c-1.17,4.95-3.12,9.47-6.77,13.13c-0.52,0.52-1.08,1.45-1.9,1
		c-1.02-0.55-0.06-1.42,0.15-2c1.32-3.68,2.71-7.33,3.31-11.22c0.52-3.36-0.36-4.56-3.76-4.81
		C118.64,66.26,117.47,66.33,116.09,66.33z"/>
	<path d="M101.2,36.39c0,3.85-0.07,7.71,0.04,11.55c0.04,1.45-0.4,1.99-1.81,1.75c-0.08-0.01-0.15,0-0.23,0
		c-3.48,0.03-3.48,0.03-3.48-3.34c0-7.01,0.04-14.02-0.03-21.03c-0.02-1.6,0.21-2.34,2.09-2.26c3.42,0.14,3.42,0.01,3.42,3.39
		C101.2,29.76,101.2,33.08,101.2,36.39z"/>
	<path d="M102.12,15.21c-0.01,2.04-1.63,3.76-3.58,3.8c-1.94,0.04-3.8-1.91-3.75-3.92c0.05-2.04,1.69-3.59,3.75-3.56
		C100.62,11.56,102.13,13.12,102.12,15.21z"/>
    </g>
</svg>

<svg id="deezer" xmlns="http://www.w3.org/2000/svg" viewBox="0 0 130 100" style="enable-background:new 0 0 130 100;">
	<g id="Layer_1"></g>
	<g id="Layer_2">
		<rect x="1.14" y="76.58" class="st0" width="27.61" height="16.24"/>
		<rect x="34.71" y="76.58" class="st0" width="27.61" height="16.24"/>
		<rect x="68.74" y="76.58" class="st0" width="5.78" height="16.24"/>
		<rect x="68.74" y="64.79" class="st0" width="5.78" height="5.78"/>
		<rect x="68.74" y="54.61" class="st0" width="5.78" height="4.17"/>
		<rect x="34.71" y="64.79" class="st0" width="27.61" height="5.78"/>
		<rect x="34.71" y="41.05" class="st0" width="27.61" height="5.78"/>
		<rect x="102.39" y="41.05" class="st0" width="27.61" height="5.78"/>
		<rect x="102.39" y="28.59" class="st0" width="27.61" height="5.78"/>
		<rect x="102.39" y="16.13" class="st0" width="27.61" height="5.78"/>
		<rect x="34.71" y="54.61" class="st0" width="27.61" height="4.17"/>
		<rect x="34.71" y="32.28" class="st0" width="27.61" height="2.09"/>
		<rect x="80.77" y="64.79" class="st0" width="5.78" height="5.78"/>
		<rect x="80.77" y="54.61" class="st0" width="5.78" height="4.17"/>
		<rect x="92.76" y="64.79" class="st0" width="5.78" height="5.78"/>
		<rect x="92.76" y="54.61" class="st0" width="5.78" height="4.17"/>
		<rect x="102.64" y="64.79" class="st0" width="27.1" height="5.78"/>
		<rect x="102.64" y="54.61" class="st0" width="27.1" height="4.17"/>
		<rect x="80.77" y="76.58" class="st0" width="5.78" height="16.24"/>
		<rect x="92.76" y="76.58" class="st0" width="5.78" height="16.24"/>
		<rect x="102.64" y="76.58" class="st0" width="27.1" height="16.24"/>
	</g>
</svg>

<svg id="spotify" xmlns="http://www.w3.org/2000/svg" viewBox="0 0 130 100">
	<g>
		<path d="M1.79,20.4c0.52-0.36,0.44-0.98,0.63-1.48c1.03-2.61,2.85-4.38,5.53-5.16c8.7-2.52,17.6-3.95,26.61-4.73
			c10.47-0.91,20.94-0.93,31.4,0.01c20.03,1.79,39.36,6.13,57.15,15.97c2.95,1.63,5.22,3.67,5.59,7.17c0.3,2.8-0.27,5.38-2.88,7
			c-3.12,1.93-6.41,2.24-9.66,0.4c-5.2-2.94-10.59-5.42-16.23-7.37c-11.38-3.93-23.12-6.11-35.1-7.15
			c-10.87-0.94-21.72-0.87-32.56,0.35c-6.32,0.72-12.56,1.82-18.67,3.63c-5.7,1.69-9.47-0.21-11.55-5.78
			c-0.03-0.08-0.16-0.13-0.25-0.19C1.79,22.19,1.79,21.3,1.79,20.4z"/>
		<path d="M98.93,91.97c-8.01-4.76-16.39-8.61-25.52-10.76c-11.35-2.67-22.82-3.15-34.39-2.11
			C31.97,79.73,25,80.9,18.1,82.51c-2.78,0.65-5.73-1.31-6.5-4.19c-0.72-2.68,1.14-5.68,4.18-6.46c4.59-1.18,9.26-1.95,13.95-2.6
			c9.74-1.34,19.52-1.82,29.35-1.08c15.64,1.18,30.27,5.54,43.7,13.72c1.81,1.1,2.57,2.76,2.41,4.79c-0.2,2.45-1.55,4.1-3.89,4.92
			c-0.25,0.09-0.57-0.01-0.69,0.34C100.04,91.97,99.49,91.97,98.93,91.97z"/>
		<path d="M52.59,38.74c18.3,0.25,39.55,4.85,59.14,16.02c2.03,1.16,3.9,2.33,4.43,4.86c0.54,2.54-0.44,5.13-2.77,6.86
			c-2.33,1.72-4.89,1.95-7.18,0.56c-13.48-8.17-28.23-12.45-43.79-14.22c-15.34-1.74-30.47-0.81-45.32,3.68
			c-3.7,1.12-7.6-0.88-8.55-4.15c-1.13-3.93,0.95-7.63,4.99-8.8C24.97,40.25,36.64,38.73,52.59,38.74z"/>
	</g>
</svg>

<svg xmlns="http://www.w3.org/2000/svg" class="apple" viewBox="0 0 512 512">
    <path d="M421.84 37.37a25.86 25.86 0 00-22.6-4.46L199.92 86.49A32.3 32.3 0 00176 118v226c0 6.74-4.36 12.56-11.11 14.83l-.12.05-52 18C92.88 383.53 80 402 80 423.91a55.54 55.54 0 0023.23 45.63A54.78 54.78 0 00135.34 480a55.82 55.82 0 0017.75-2.93l.38-.13 21.84-7.94A47.84 47.84 0 00208 423.91v-212c0-7.29 4.77-13.21 12.16-15.07l.21-.06L395 150.14a4 4 0 015 3.86v141.93c0 6.75-4.25 12.38-11.11 14.68l-.25.09-50.89 18.11A49.09 49.09 0 00304 375.92a55.67 55.67 0 0023.23 45.8 54.63 54.63 0 0049.88 7.35l.36-.12 21.84-7.95A47.83 47.83 0 00432 375.92V58a25.74 25.74 0 00-10.16-20.63z"/>
</svg>
