<svg aria-hidden="true" style="position: absolute; width: 0; height: 0; overflow: hidden;" version="1.1" xmlns="http://www.w3.org/2000/svg" xmlns:xlink="http://www.w3.org/1999/xlink">
<defs>

<symbol id="pause-btn" viewBox="0 0 32 32">
<path stroke-linejoin="round" stroke-linecap="round" stroke-miterlimit="4" stroke-width="2" d="M11 6h1v20h-1zM20 6h1v20h-1z"></path>
</symbol>

<symbol id="arrow-back" viewBox="0 0 32 32">
<path fill="none" stroke-linejoin="round" stroke-linecap="round" stroke-miterlimit="4" stroke-width="3" d="M20.5 7l-9 9 9 9"></path>
</symbol>

<symbol id="arrow-down" viewBox="0 0 32 32">
<path fill="none" stroke-linejoin="round" stroke-linecap="round" stroke-miterlimit="4" stroke-width="3" d="M7 11.5l9 9 9-9"></path>
</symbol>

<symbol id="arrow-forward" viewBox="0 0 32 32">
<path fill="none" stroke-linejoin="round" stroke-linecap="round" stroke-miterlimit="4" stroke-width="3" d="M11.5 7l9 9-9 9"></path>
</symbol>

<symbol id="arrow-up" viewBox="0 0 32 32">
<path fill="none" stroke-linejoin="round" stroke-linecap="round" stroke-miterlimit="4" stroke-width="3" d="M7 20.5l9-9 9 9"></path>
</symbol>

<symbol id="info" viewBox="0 0 32 32">
<path fill="none" stroke-linejoin="miter" stroke-linecap="butt" stroke-miterlimit="10" stroke-width="2" d="M15.5 4c-6.351 0-11.5 5.149-11.5 11.5s5.149 11.5 11.5 11.5 11.5-5.149 11.5-11.5-5.149-11.5-11.5-11.5z"></path>
<path fill="none" stroke-linejoin="round" stroke-linecap="round" stroke-miterlimit="4" stroke-width="2" d="M13.75 13.75h2v7.25"></path>
<path fill="none" stroke-linejoin="miter" stroke-linecap="round" stroke-miterlimit="10" stroke-width="2" d="M13 21.25h5.5"></path>
<path d="M15.5 8.125c-0.897 0-1.625 0.728-1.625 1.625s0.728 1.625 1.625 1.625c0.897 0 1.625-0.728 1.625-1.625v0c0-0.897-0.728-1.625-1.625-1.625v0z"></path>
</symbol>

<symbol id="location" viewBox="0 0 32 32">
<path d="M16 2c-5.521 0-10 4.032-10 9 0 8 10 19 10 19s10-11 10-19c0-4.968-4.479-9-10-9zM16 16c-2.209 0-4-1.791-4-4s1.791-4 4-4c2.209 0 4 1.791 4 4v0c-0.003 2.208-1.792 3.998-4 4h-0z"></path>
</symbol>

<symbol id="map" viewBox="0 0 32 32">
<path d="M3.011 7.084c-0.608 0.351-1.011 0.997-1.011 1.738 0 0.002 0 0.004 0 0.006v-0 18.547c0 0.002 0 0.004 0 0.006 0 1.105 0.895 2 2 2 0.343 0 0.666-0.086 0.948-0.239l-0.011 0.005c0.027-0.014 0.053-0.029 0.079-0.046l5.259-3.441c0.137-0.091 0.227-0.244 0.227-0.419 0-0 0-0.001 0-0.001v0-22.338c0-0 0-0.001 0-0.001 0-0.276-0.224-0.5-0.5-0.5-0.105 0-0.203 0.033-0.284 0.088l0.002-0.001zM13.273 2.457c-0.077-0.051-0.171-0.081-0.273-0.081-0.276 0-0.499 0.223-0.5 0.499v22.348c0 0 0 0.001 0 0.001 0 0.175 0.089 0.328 0.225 0.418l0.002 0.001 6 3.901c0.077 0.051 0.172 0.081 0.273 0.081 0.276 0 0.5-0.224 0.5-0.5v0-22.333c0-0 0-0.001 0-0.001 0-0.175-0.090-0.329-0.226-0.418l-0.002-0.001zM29.033 2.904c-0.294-0.183-0.65-0.291-1.032-0.291-0.343 0-0.666 0.087-0.947 0.241l0.010-0.005c-0.031 0.016-0.056 0.031-0.081 0.048l0.003-0.002-5.259 3.438c-0.137 0.091-0.227 0.244-0.227 0.419 0 0 0 0.001 0 0.001v-0 22.341c0 0.001 0 0.001 0 0.002 0 0.276 0.224 0.5 0.5 0.5 0.106 0 0.203-0.033 0.284-0.089l-0.002 0.001 6.692-4.591c0.616-0.349 1.026-1 1.026-1.747 0-0.001 0-0.002 0-0.004v0-18.5c0-0.007 0-0.016 0-0.024 0-0.731-0.383-1.372-0.959-1.734l-0.009-0.005z"></path>
</symbol>

<symbol id="menu" viewBox="0 0 32 32">
<path stroke-linejoin="miter" stroke-linecap="round" stroke-miterlimit="10" stroke-width="2" d="M5 10h22M5 16h22M5 22h22"></path>
</symbol>

<symbol id="music-note" viewBox="0 0 32 32">
<path d="M26.365 2.336c-0.27-0.21-0.613-0.336-0.986-0.336-0.152 0-0.298 0.021-0.437 0.060l0.011-0.003-12.457 3.349c-0.868 0.239-1.495 1.021-1.495 1.95 0 0.007 0 0.014 0 0.021v-0.001 14.125c0 0.421-0.273 0.785-0.694 0.927l-0.008 0.003-3.25 1.125c-1.243 0.416-2.048 1.57-2.048 2.939-0 0.008-0 0.018-0 0.028 0 1.159 0.568 2.186 1.442 2.816l0.010 0.007c0.556 0.407 1.252 0.653 2.007 0.654h0c0.397-0.001 0.779-0.068 1.134-0.191l-0.025 0.007 0.024-0.008 1.365-0.496c1.192-0.407 2.035-1.513 2.043-2.817v-13.251c0-0.456 0.298-0.826 0.76-0.942l0.013-0.004 10.914-2.915c0.019-0.005 0.040-0.008 0.063-0.008 0.138 0 0.25 0.111 0.25 0.249v8.871c0 0.422-0.266 0.774-0.694 0.918l-0.016 0.006-3.181 1.132c-1.235 0.415-2.11 1.563-2.11 2.915 0 0.011 0 0.021 0 0.031v-0.002c-0 0.010-0 0.023-0 0.035 0 1.161 0.568 2.189 1.442 2.821l0.010 0.007c0.554 0.405 1.249 0.647 2 0.647 0.4 0 0.784-0.069 1.141-0.195l-0.024 0.007 0.023-0.008 1.365-0.497c1.192-0.406 2.035-1.512 2.043-2.817v-19.871c0-0.003 0-0.006 0-0.009 0-0.521-0.247-0.984-0.631-1.278l-0.004-0.003z"></path>
</symbol>

<symbol id="play-btn" viewBox="0 0 32 32">
<path d="M8.313 27.5c-0.403-0.001-0.78-0.109-1.104-0.298l0.011 0.006c-0.75-0.425-1.216-1.25-1.216-2.146v-18.125c0-0.898 0.466-1.721 1.216-2.146 0.314-0.184 0.691-0.292 1.094-0.292 0.422 0 0.816 0.119 1.151 0.326l-0.009-0.005 15.491 9.273c0.638 0.405 1.055 1.107 1.055 1.906s-0.417 1.502-1.046 1.901l-0.009 0.005-15.493 9.275c-0.325 0.2-0.718 0.318-1.139 0.32h-0z"></path>
</symbol>

<symbol id="close-btn" viewBox="0 0 32 32">
<path stroke-linejoin="round" stroke-linecap="round" stroke-miterlimit="4" stroke-width="2" d="M23 23l-14-14M23 9l-14 14"></path>
</symbol>

</defs>
</svg>
