<svg aria-hidden="true" style="position: absolute; width: 0; height: 0; overflow: hidden;" version="1.1" xmlns="http://www.w3.org/2000/svg" xmlns:xlink="http://www.w3.org/1999/xlink">
<defs>

<symbol id="tri-down" viewBox="0 0 32 32">
<path d="M6.125 11.879l8.736 10.195c0.277 0.321 0.684 0.524 1.139 0.524s0.862-0.202 1.137-0.522l0.002-0.002 8.736-10.195c0.834-0.973 0.142-2.476-1.139-2.476h-17.475c-1.281 0-1.973 1.503-1.136 2.476z"></path>
</symbol>

<symbol id="tri-right" viewBox="0 0 32 32">
<path d="M11.879 25.875l10.195-8.736c0.321-0.277 0.524-0.684 0.524-1.139s-0.202-0.862-0.522-1.137l-0.002-0.002-10.195-8.736c-0.973-0.834-2.476-0.143-2.476 1.139v17.475c0 1.281 1.503 1.973 2.476 1.136z"></path>
</symbol>

<symbol id="tri-up" viewBox="0 0 32 32">
<path d="M25.875 20.121l-8.736-10.195c-0.277-0.321-0.684-0.524-1.139-0.524s-0.862 0.202-1.137 0.522l-0.002 0.002-8.736 10.195c-0.834 0.973-0.143 2.476 1.139 2.476h17.475c1.281 0 1.973-1.503 1.136-2.476z"></path>
</symbol>

<symbol id="tri-left" viewBox="0 0 32 32">
<path d="M20.121 6.125l-10.195 8.736c-0.321 0.277-0.524 0.684-0.524 1.139s0.202 0.862 0.522 1.137l0.002 0.002 10.195 8.736c0.973 0.834 2.476 0.142 2.476-1.139v-17.475c0-1.281-1.503-1.973-2.476-1.136z"></path>
</symbol>

<symbol id="pointer" viewBox="0 0 32 32">
<path d="M19.688 2.031c-2.337 0.394-4.269 1.819-5.313 3.938-0.475 0.963-0.681 1.713-0.731 2.669-0.037 0.731-0.037 0.738 0.113 0.787 0.156 0.063 0.35 0.031 0.406-0.063 0.019-0.031 0.063-0.369 0.094-0.744 0.381-4.394 4.9-7.213 8.981-5.588 0.863 0.344 1.481 0.75 2.175 1.438 1.244 1.237 1.85 2.537 1.994 4.294 0.188 2.256-1 4.619-2.981 5.925-0.938 0.613-2.288 1.063-3.206 1.063-0.575 0-0.825 0.188-0.656 0.5 0.056 0.106 0.125 0.125 0.538 0.125 0.544 0 1.531-0.188 2.169-0.406 2.2-0.769 4-2.762 4.569-5.063 0.625-2.531-0.156-5.156-2.063-6.969-1.631-1.55-3.931-2.275-6.087-1.906z"></path>
<path d="M19.938 4.969c-1.156 0.263-2.156 0.969-2.775 1.95-0.181 0.294-0.206 0.525-0.075 0.644 0.188 0.15 0.369 0.044 0.669-0.406 0.512-0.763 1.281-1.313 2.156-1.531 1.275-0.331 2.556 0.025 3.488 0.963 0.512 0.513 0.8 1.013 0.975 1.7 0.356 1.387-0.144 2.862-1.281 3.763-0.4 0.313-0.7 0.463-1.269 0.637-0.469 0.144-0.613 0.275-0.544 0.5 0.169 0.537 2.038-0.281 2.806-1.219 0.381-0.469 0.619-0.906 0.825-1.5 0.156-0.438 0.175-0.594 0.175-1.25 0.006-0.613-0.025-0.838-0.144-1.219-0.238-0.781-0.544-1.287-1.1-1.85-0.831-0.838-1.9-1.281-3.063-1.269-0.275 0.006-0.656 0.044-0.844 0.088z"></path>
<path d="M19.313 7.931c-0.125 0.025-0.35 0.106-0.5 0.181-0.156 0.075-2.512 1.769-5.238 3.762-2.731 1.994-4.969 3.625-4.981 3.625s-0.031-0.694-0.044-1.55c-0.019-1.475-0.025-1.556-0.162-1.825-0.219-0.412-0.606-0.781-1.037-0.981-1.175-0.537-2.713 0.2-3.1 1.481-0.112 0.375-0.131 0.787-0.219 5.469-0.081 4.425-0.081 5.137 0 5.656 0.244 1.606 0.906 2.975 1.975 4.063 2.594 2.637 6.95 2.981 10.269 0.813 0.794-0.519 4.669-3.381 4.931-3.65 0.137-0.131 0.319-0.394 0.413-0.594 0.137-0.3 0.163-0.431 0.163-0.944 0-0.506-0.025-0.637-0.156-0.894-0.256-0.5-0.837-0.962-1.363-1.075l-0.212-0.044 0.313-0.306c0.444-0.438 0.65-0.887 0.688-1.494 0.019-0.35 0-0.575-0.075-0.781-0.225-0.675-0.856-1.212-1.563-1.337-0.206-0.038-0.381-0.075-0.387-0.087-0.012-0.012 0.031-0.169 0.1-0.344 0.156-0.406 0.163-1.006 0.019-1.444-0.175-0.55-0.769-1.1-1.363-1.262-0.119-0.037-0.219-0.081-0.219-0.106 0.006-0.025 0.794-0.619 1.756-1.325 0.969-0.706 1.856-1.387 1.975-1.525 0.119-0.131 0.294-0.4 0.387-0.594 0.137-0.294 0.163-0.438 0.163-0.912 0-0.644-0.131-0.988-0.538-1.406-0.45-0.463-1.325-0.713-1.994-0.569z"></path>
</symbol>

<symbol id="pause-btn" viewBox="0 0 32 32">
<path stroke-linejoin="round" stroke-linecap="round" stroke-miterlimit="4" stroke-width="2" d="M11 6h1v20h-1zM20 6h1v20h-1z"></path>
</symbol>

<symbol id="arrow-back" viewBox="0 0 32 32">
<path fill="none" stroke-linejoin="round" stroke-linecap="round" stroke-miterlimit="4" stroke-width="3" d="M20.5 7l-9 9 9 9"></path>
</symbol>

<symbol id="arrow-down" viewBox="0 0 32 32">
<path fill="none" stroke-linejoin="round" stroke-linecap="round" stroke-miterlimit="4" stroke-width="3" d="M7 11.5l9 9 9-9"></path>
</symbol>

<symbol id="arrow-forward" viewBox="0 0 32 32">
<path fill="none" stroke-linejoin="round" stroke-linecap="round" stroke-miterlimit="4" stroke-width="3" d="M11.5 7l9 9-9 9"></path>
</symbol>

<symbol id="arrow-up" viewBox="0 0 32 32">
<path fill="none" stroke-linejoin="round" stroke-linecap="round" stroke-miterlimit="4" stroke-width="3" d="M7 20.5l9-9 9 9"></path>
</symbol>

<symbol id="info" viewBox="0 0 32 32" width="35" height="35">
<path fill="none" stroke-linejoin="miter" stroke-linecap="butt" stroke-miterlimit="10" stroke-width="2" d="M15.5 4c-6.351 0-11.5 5.149-11.5 11.5s5.149 11.5 11.5 11.5 11.5-5.149 11.5-11.5-5.149-11.5-11.5-11.5z"></path>
<path fill="none" stroke-linejoin="round" stroke-linecap="round" stroke-miterlimit="4" stroke-width="2" d="M13.75 13.75h2v7.25"></path>
<path fill="none" stroke-linejoin="miter" stroke-linecap="round" stroke-miterlimit="10" stroke-width="2" d="M13 21.25h5.5"></path>
<path d="M15.5 8.125c-0.897 0-1.625 0.728-1.625 1.625s0.728 1.625 1.625 1.625c0.897 0 1.625-0.728 1.625-1.625v0c0-0.897-0.728-1.625-1.625-1.625v0z"></path>
</symbol>

<symbol id="location" viewBox="0 0 32 32">
<path d="M16 2c-5.521 0-10 4.032-10 9 0 8 10 19 10 19s10-11 10-19c0-4.968-4.479-9-10-9zM16 16c-2.209 0-4-1.791-4-4s1.791-4 4-4c2.209 0 4 1.791 4 4v0c-0.003 2.208-1.792 3.998-4 4h-0z"></path>
</symbol>

<symbol id="location-stroke" viewBox="0 0 24 32">
<path d="M10.92 3.288c-2.848 0.408-5.392 2.232-6.72 4.8-1.256 2.424-1.368 4.976-0.36 8 1.104 3.288 3.376 7.016 6.248 10.232 0.416 0.464 1.056 1.216 1.432 1.664l0.672 0.832 0.24-0.272c0.128-0.144 0.648-0.728 1.16-1.296 2.464-2.736 2.96-3.352 3.984-4.888 1.664-2.496 2.872-5.16 3.376-7.448 0.56-2.536 0.32-4.752-0.752-6.824-1.752-3.392-5.52-5.344-9.28-4.8zM13.104 8.28c1.872 0.44 3.168 2.080 3.168 4 0 2.264-1.832 4.12-4.072 4.12s-4.072-1.856-4.072-4.12c0-2.632 2.44-4.6 4.976-4z"></path>
</symbol>

<symbol id="map" viewBox="0 0 32 32">
<path d="M3.011 7.084c-0.608 0.351-1.011 0.997-1.011 1.738 0 0.002 0 0.004 0 0.006v-0 18.547c0 0.002 0 0.004 0 0.006 0 1.105 0.895 2 2 2 0.343 0 0.666-0.086 0.948-0.239l-0.011 0.005c0.027-0.014 0.053-0.029 0.079-0.046l5.259-3.441c0.137-0.091 0.227-0.244 0.227-0.419 0-0 0-0.001 0-0.001v0-22.338c0-0 0-0.001 0-0.001 0-0.276-0.224-0.5-0.5-0.5-0.105 0-0.203 0.033-0.284 0.088l0.002-0.001zM13.273 2.457c-0.077-0.051-0.171-0.081-0.273-0.081-0.276 0-0.499 0.223-0.5 0.499v22.348c0 0 0 0.001 0 0.001 0 0.175 0.089 0.328 0.225 0.418l0.002 0.001 6 3.901c0.077 0.051 0.172 0.081 0.273 0.081 0.276 0 0.5-0.224 0.5-0.5v0-22.333c0-0 0-0.001 0-0.001 0-0.175-0.090-0.329-0.226-0.418l-0.002-0.001zM29.033 2.904c-0.294-0.183-0.65-0.291-1.032-0.291-0.343 0-0.666 0.087-0.947 0.241l0.010-0.005c-0.031 0.016-0.056 0.031-0.081 0.048l0.003-0.002-5.259 3.438c-0.137 0.091-0.227 0.244-0.227 0.419 0 0 0 0.001 0 0.001v-0 22.341c0 0.001 0 0.001 0 0.002 0 0.276 0.224 0.5 0.5 0.5 0.106 0 0.203-0.033 0.284-0.089l-0.002 0.001 6.692-4.591c0.616-0.349 1.026-1 1.026-1.747 0-0.001 0-0.002 0-0.004v0-18.5c0-0.007 0-0.016 0-0.024 0-0.731-0.383-1.372-0.959-1.734l-0.009-0.005z"></path>
</symbol>

<symbol id="menu" viewBox="0 0 32 32">
<path stroke-linejoin="miter" stroke-linecap="round" stroke-miterlimit="10" stroke-width="2" d="M5 10h22M5 16h22M5 22h22"></path>
</symbol>

<symbol id="music-note" viewBox="0 0 32 32">
<path d="M26.365 2.336c-0.27-0.21-0.613-0.336-0.986-0.336-0.152 0-0.298 0.021-0.437 0.060l0.011-0.003-12.457 3.349c-0.868 0.239-1.495 1.021-1.495 1.95 0 0.007 0 0.014 0 0.021v-0.001 14.125c0 0.421-0.273 0.785-0.694 0.927l-0.008 0.003-3.25 1.125c-1.243 0.416-2.048 1.57-2.048 2.939-0 0.008-0 0.018-0 0.028 0 1.159 0.568 2.186 1.442 2.816l0.010 0.007c0.556 0.407 1.252 0.653 2.007 0.654h0c0.397-0.001 0.779-0.068 1.134-0.191l-0.025 0.007 0.024-0.008 1.365-0.496c1.192-0.407 2.035-1.513 2.043-2.817v-13.251c0-0.456 0.298-0.826 0.76-0.942l0.013-0.004 10.914-2.915c0.019-0.005 0.040-0.008 0.063-0.008 0.138 0 0.25 0.111 0.25 0.249v8.871c0 0.422-0.266 0.774-0.694 0.918l-0.016 0.006-3.181 1.132c-1.235 0.415-2.11 1.563-2.11 2.915 0 0.011 0 0.021 0 0.031v-0.002c-0 0.010-0 0.023-0 0.035 0 1.161 0.568 2.189 1.442 2.821l0.010 0.007c0.554 0.405 1.249 0.647 2 0.647 0.4 0 0.784-0.069 1.141-0.195l-0.024 0.007 0.023-0.008 1.365-0.497c1.192-0.406 2.035-1.512 2.043-2.817v-19.871c0-0.003 0-0.006 0-0.009 0-0.521-0.247-0.984-0.631-1.278l-0.004-0.003z"></path>
</symbol>

<symbol id="play-btn" viewBox="0 0 32 32">
<path d="M8.313 27.5c-0.403-0.001-0.78-0.109-1.104-0.298l0.011 0.006c-0.75-0.425-1.216-1.25-1.216-2.146v-18.125c0-0.898 0.466-1.721 1.216-2.146 0.314-0.184 0.691-0.292 1.094-0.292 0.422 0 0.816 0.119 1.151 0.326l-0.009-0.005 15.491 9.273c0.638 0.405 1.055 1.107 1.055 1.906s-0.417 1.502-1.046 1.901l-0.009 0.005-15.493 9.275c-0.325 0.2-0.718 0.318-1.139 0.32h-0z"></path>
</symbol>

<symbol id="close-btn" viewBox="0 0 32 32">
<path stroke-linejoin="round" stroke-linecap="round" stroke-miterlimit="4" stroke-width="2" d="M23 23l-14-14M23 9l-14 14"></path>
</symbol>

</defs>
</svg>
