<svg aria-hidden="true" style="position: absolute; width: 0; height: 0; overflow: hidden;" version="1.1" xmlns="http://www.w3.org/2000/svg" xmlns:xlink="http://www.w3.org/1999/xlink">
<defs>
<symbol id="spotify" viewBox="0 0 42 32">
<path d="M0.573 6.528c0.166-0.115 0.141-0.314 0.202-0.474 0.33-0.835 0.912-1.402 1.77-1.651 2.784-0.806 5.632-1.264 8.515-1.514 3.35-0.291 6.701-0.298 10.048 0.003 6.41 0.573 12.595 1.962 18.288 5.11 0.944 0.522 1.67 1.174 1.789 2.294 0.096 0.896-0.086 1.722-0.922 2.24-0.998 0.618-2.051 0.717-3.091 0.128-1.664-0.941-3.389-1.734-5.194-2.358-3.642-1.258-7.398-1.955-11.232-2.288-3.478-0.301-6.95-0.278-10.419 0.112-2.022 0.23-4.019 0.582-5.974 1.162-1.824 0.541-3.030-0.067-3.696-1.85-0.010-0.026-0.051-0.042-0.080-0.061-0.003-0.282-0.003-0.566-0.003-0.854z"></path>
<path d="M31.658 29.43c-2.563-1.523-5.245-2.755-8.166-3.443-3.632-0.854-7.302-1.008-11.005-0.675-2.256 0.202-4.486 0.576-6.694 1.091-0.89 0.208-1.834-0.419-2.080-1.341-0.23-0.858 0.365-1.818 1.338-2.067 1.469-0.378 2.963-0.624 4.464-0.832 3.117-0.429 6.246-0.582 9.392-0.346 5.005 0.378 9.686 1.773 13.984 4.39 0.579 0.352 0.822 0.883 0.771 1.533-0.064 0.784-0.496 1.312-1.245 1.574-0.080 0.029-0.182-0.003-0.221 0.109-0.182 0.006-0.358 0.006-0.538 0.006z"></path>
<path d="M16.829 12.397c5.856 0.080 12.656 1.552 18.925 5.126 0.65 0.371 1.248 0.746 1.418 1.555 0.173 0.813-0.141 1.642-0.886 2.195-0.746 0.55-1.565 0.624-2.298 0.179-4.314-2.614-9.034-3.984-14.013-4.55-4.909-0.557-9.75-0.259-14.502 1.178-1.184 0.358-2.432-0.282-2.736-1.328-0.362-1.258 0.304-2.442 1.597-2.816 3.658-1.056 7.392-1.542 12.496-1.539z"></path>
</symbol>
<symbol id="apple" viewBox="0 0 32 32">
<path d="M26.365 2.336c-0.27-0.21-0.613-0.336-0.986-0.336-0.152 0-0.298 0.021-0.437 0.060l0.011-0.003-12.457 3.349c-0.868 0.239-1.495 1.021-1.495 1.95 0 0.007 0 0.014 0 0.021v-0.001 14.125c0 0.421-0.273 0.785-0.694 0.927l-0.008 0.003-3.25 1.125c-1.243 0.416-2.048 1.57-2.048 2.939-0 0.008-0 0.018-0 0.028 0 1.159 0.568 2.186 1.442 2.816l0.010 0.007c0.556 0.407 1.252 0.653 2.007 0.654h0c0.397-0.001 0.779-0.068 1.134-0.191l-0.025 0.007 0.024-0.008 1.365-0.496c1.192-0.407 2.035-1.513 2.043-2.817v-13.251c0-0.456 0.298-0.826 0.76-0.942l0.013-0.004 10.914-2.915c0.019-0.005 0.040-0.008 0.063-0.008 0.138 0 0.25 0.111 0.25 0.249v8.871c0 0.422-0.266 0.774-0.694 0.918l-0.016 0.006-3.181 1.132c-1.235 0.415-2.11 1.563-2.11 2.915 0 0.011 0 0.021 0 0.031v-0.002c-0 0.010-0 0.023-0 0.035 0 1.161 0.568 2.189 1.442 2.821l0.010 0.007c0.554 0.405 1.249 0.647 2 0.647 0.4 0 0.784-0.069 1.141-0.195l-0.024 0.007 0.023-0.008 1.365-0.497c1.192-0.406 2.035-1.512 2.043-2.817v-19.871c0-0.003 0-0.006 0-0.009 0-0.521-0.247-0.984-0.631-1.278l-0.004-0.003z"></path>
</symbol>
<symbol id="amazon" viewBox="0 0 42 32">
<path d="M20.019 28.304c-6.784-0.15-13.373-2.438-19.235-6.829-0.211-0.157-0.576-0.323-0.394-0.611 0.186-0.291 0.49-0.019 0.72 0.099 4.589 2.358 9.43 3.974 14.547 4.672 5.162 0.704 10.246 0.141 15.251-1.226 1.923-0.525 3.802-1.168 5.619-1.994 0.358-0.163 0.774-0.365 1.024 0.128 0.237 0.47-0.128 0.71-0.467 0.938-3.536 2.374-7.446 3.757-11.638 4.422-1.616 0.262-3.238 0.365-5.427 0.4z"></path>
<path d="M0.867 11.613c0-1.213 0.019-2.426-0.010-3.635-0.010-0.445 0.102-0.646 0.576-0.589 0.269 0.032 0.544 0.003 0.819 0.006 0.173 0 0.39-0.026 0.362 0.237-0.080 0.749 0.346 0.528 0.714 0.368 1.21-0.522 2.374-0.691 3.421 0.349 0.179 0.179 0.352 0.074 0.541 0 0.598-0.224 1.197-0.451 1.808-0.634 1.693-0.506 3.398 0.666 3.456 2.422 0.058 1.779 0.010 3.562 0.022 5.341 0.003 0.32-0.096 0.41-0.419 0.426-1.382 0.080-1.382 0.093-1.382-1.242 0-1.459 0.003-2.918-0.003-4.378-0.003-0.909-0.541-1.322-1.44-1.11-0.573 0.134-1.357 0.115-1.654 0.483-0.288 0.352-0.077 1.11-0.080 1.69-0.003 1.312-0.019 2.621 0.010 3.933 0.010 0.474-0.109 0.694-0.618 0.621-0.218-0.032-0.448-0.029-0.669 0-0.413 0.051-0.49-0.144-0.486-0.512 0.016-1.658 0.010-3.315 0.006-4.97-0.003-1.059-0.522-1.466-1.555-1.226-1.67 0.384-1.67 0.384-1.67 2.083 0 1.334-0.019 2.672 0.010 4.006 0.010 0.461-0.090 0.701-0.602 0.621-0.195-0.029-0.4-0.026-0.595 0-0.47 0.064-0.589-0.138-0.579-0.586 0.035-1.232 0.019-2.47 0.019-3.706z"></path>
<path d="M21.219 11.597c0 1.21-0.013 2.422 0.006 3.632 0.006 0.371-0.080 0.573-0.486 0.499-0.438-0.080-0.922 0.182-1.331-0.189-0.154-0.138-0.301 0.067-0.448 0.122-2.326 0.896-4.65-0.608-4.483-3.011 0.106-1.549 0.032-3.114 0.013-4.669-0.006-0.419 0.051-0.605 0.55-0.602 1.248 0.016 1.248-0.016 1.248 1.232 0 1.434 0.067 2.87-0.022 4.301-0.067 1.126 0.819 1.635 1.696 1.526 0.41-0.051 0.8-0.23 1.203-0.336 0.384-0.102 0.294-0.406 0.294-0.662 0.006-1.779 0.022-3.558-0.010-5.338-0.010-0.528 0.093-0.803 0.682-0.707 0.192 0.032 0.397 0.026 0.592 0 0.397-0.051 0.506 0.112 0.496 0.499-0.013 1.229 0 2.467 0 3.702z"></path>
<path d="M22.87 13.814c1.338 0.438 2.602 0.979 4.003 0.598 0.416-0.112 0.829-0.202 0.87-0.742 0.042-0.531-0.259-0.845-0.698-1.018-0.502-0.195-1.030-0.314-1.542-0.483-0.56-0.186-1.11-0.4-1.546-0.829-1.043-1.027-0.938-2.49 0.288-3.277 1.395-0.899 2.89-0.845 4.394-0.285 0.397 0.147 0.4 0.275 0.259 1.469-0.986-0.294-1.952-0.707-3.018-0.358-0.445 0.144-0.909 0.288-0.915 0.813-0.006 0.506 0.342 0.851 0.829 1.021 0.65 0.227 1.309 0.422 1.942 0.685 0.906 0.374 1.494 1.027 1.581 2.045 0.115 1.334-0.675 2.259-2.125 2.413-1.11 0.118-2.214 0.042-3.283-0.352-1.12-0.413-1.123-0.403-1.040-1.699z"></path>
<path d="M40.067 9.178c-0.243 0.048-0.413-0.131-0.614-0.205-1.373-0.506-2.582 0.026-3.123 1.379-0.672 1.683 0.099 3.706 1.6 4.122 0.55 0.154 1.123 0.122 1.693 0.077 0.221-0.016 0.576-0.106 0.486 0.31-0.064 0.304 0.304 0.752-0.314 0.899-2.691 0.646-4.963-0.624-5.36-3.363-0.253-1.744 0.166-3.226 1.616-4.326 0.861-0.653 1.859-0.787 2.886-0.627 1.158 0.179 1.283 0.41 1.13 1.734z"></path>
<path d="M37.149 21.226c-0.774-0.083-1.6 0.154-2.442 0.182-0.211 0.006-0.496 0.186-0.589-0.086-0.096-0.278 0.214-0.416 0.413-0.531 1.52-0.899 3.178-1.235 4.909-0.989 2.058 0.291 2.243 0.646 1.763 2.678-0.374 1.584-0.998 3.030-2.166 4.202-0.166 0.166-0.346 0.464-0.608 0.32-0.326-0.176-0.019-0.454 0.048-0.64 0.422-1.178 0.867-2.346 1.059-3.59 0.166-1.075-0.115-1.459-1.203-1.539-0.368-0.029-0.742-0.006-1.184-0.006z"></path>
<path d="M32.384 11.645c0 1.232-0.022 2.467 0.013 3.696 0.013 0.464-0.128 0.637-0.579 0.56-0.026-0.003-0.048 0-0.074 0-1.114 0.010-1.114 0.010-1.114-1.069 0-2.243 0.013-4.486-0.010-6.73-0.006-0.512 0.067-0.749 0.669-0.723 1.094 0.045 1.094 0.003 1.094 1.085 0 1.059 0 2.122 0 3.181z"></path>
<path d="M32.678 4.867c-0.003 0.653-0.522 1.203-1.146 1.216-0.621 0.013-1.216-0.611-1.2-1.254 0.016-0.653 0.541-1.149 1.2-1.139 0.666 0.010 1.149 0.509 1.146 1.178z"></path>
</symbol>
<symbol id="deezer" viewBox="0 0 42 32">
<path d="M0.365 24.506h8.835v5.197h-8.835v-5.197z"></path>
<path d="M11.107 24.506h8.835v5.197h-8.835v-5.197z"></path>
<path d="M21.997 24.506h1.85v5.197h-1.85v-5.197z"></path>
<path d="M21.997 20.733h1.85v1.85h-1.85v-1.85z"></path>
<path d="M21.997 17.475h1.85v1.334h-1.85v-1.334z"></path>
<path d="M11.107 20.733h8.835v1.85h-8.835v-1.85z"></path>
<path d="M11.107 13.136h8.835v1.85h-8.835v-1.85z"></path>
<path d="M32.765 13.136h8.835v1.85h-8.835v-1.85z"></path>
<path d="M32.765 9.149h8.835v1.85h-8.835v-1.85z"></path>
<path d="M32.765 5.162h8.835v1.85h-8.835v-1.85z"></path>
<path d="M11.107 17.475h8.835v1.334h-8.835v-1.334z"></path>
<path d="M11.107 10.33h8.835v0.669h-8.835v-0.669z"></path>
<path d="M25.846 20.733h1.85v1.85h-1.85v-1.85z"></path>
<path d="M25.846 17.475h1.85v1.334h-1.85v-1.334z"></path>
<path d="M29.683 20.733h1.85v1.85h-1.85v-1.85z"></path>
<path d="M29.683 17.475h1.85v1.334h-1.85v-1.334z"></path>
<path d="M32.845 20.733h8.672v1.85h-8.672v-1.85z"></path>
<path d="M32.845 17.475h8.672v1.334h-8.672v-1.334z"></path>
<path d="M25.846 24.506h1.85v5.197h-1.85v-5.197z"></path>
<path d="M29.683 24.506h1.85v5.197h-1.85v-5.197z"></path>
<path d="M32.845 24.506h8.672v5.197h-8.672v-5.197z"></path>
</symbol>
</defs>
</svg>
