<?xml version="1.0" encoding="utf-8"?>
<!-- Generator: Adobe Illustrator 25.0.0, SVG Export Plug-In . SVG Version: 6.00 Build 0)  -->
<svg version="1.1" id="Layer_1" xmlns="http://www.w3.org/2000/svg" xmlns:xlink="http://www.w3.org/1999/xlink" x="0px" y="0px"
	 viewBox="0 0 100 100" style="enable-background:new 0 0 100 100;" xml:space="preserve">
<style type="text/css">
	.st0{fill:#007649;}
	.st1{fill:#DF3C31;}
	.st2{fill:#001488;}
	.st3{fill:#FEB71C;}
	.st4{fill:#C2C3C3;}
	.st5{fill:#C3C3C3;}
	.st6{fill:#C2C2C2;}
	.st7{fill:#FEFEFE;}
	.st8{fill:#DB2519;}
</style>
<g>
	<path class="st0" d="M0.01,14.44c0-4.6,0.01-9.21-0.01-13.81C0,0.1,0.08,0.01,0.42,0.01c3.9,0.02,7.81,0.01,11.71,0.01
		c0.13,0.17,0.31,0.17,0.46,0.27c1.87,1.45,3.56,3.32,5.32,5.05c5.74,5.65,11.48,11.3,17.21,16.96c3.18,3.14,6.35,6.29,9.54,9.4
		c2.23,2.18,4.43,4.42,6.67,6.58c0.59,0.57,1.17,0.83,1.87,0.83c12.39-0.02,24.77-0.01,37.16-0.01c2.83,0,5.66,0,8.49,0
		c0.33,0,0.67-0.06,0.97,0.22c0.06,0.06,0.11,0.13,0.16,0.2c0,7.55,0,15.1,0,22.65c-0.05,0.07-0.11,0.14-0.16,0.2
		c-0.39,0.33-0.81,0.21-1.22,0.21c-14.95,0.01-29.9,0.02-44.85-0.02c-1.09,0-2,0.4-2.91,1.27c-5.65,5.4-11.34,10.69-17.01,16.03
		c-4.21,3.96-8.42,7.92-12.63,11.89c-2.61,2.46-5.2,4.94-7.83,7.34c-0.29,0.26-0.6,0.44-0.9,0.63c-0.16,0.08-0.33,0.09-0.46,0.25
		c-3.86,0-7.73-0.01-11.59,0.01C0.08,100,0,99.91,0,99.38c0.02-4.73,0.01-9.46,0.01-14.19c0.4-1.2,1.22-1.66,1.91-2.32
		c2.55-2.47,5.09-4.94,7.65-7.4c5.72-5.51,11.41-11.06,17.13-16.56c2.64-2.54,5.28-5.09,7.9-7.68c0.53-0.53,0.53-0.6,0-1.13
		c-3.43-3.42-6.81-6.93-10.21-10.39c-4.97-5.05-9.93-10.14-14.9-15.19c-2.84-2.88-5.66-5.81-8.51-8.66
		C0.59,15.46,0.24,15.05,0.01,14.44z"/>
	<path class="st1" d="M19.13,0.03c26.75,0,53.5,0,80.25-0.03C99.94,0,100,0.24,100,0.98c-0.02,10.97-0.01,21.95-0.01,32.92
		c-0.07,0.07-0.15,0.1-0.23,0.1C85.12,33.98,70.48,34.01,55.84,34c-0.89,0-1.79-0.06-2.68,0.05c-0.07,0.02-0.14,0.04-0.21,0.06
		c-0.46,0.08-0.77-0.4-1.11-0.74c-6.71-6.65-13.38-13.41-20.07-20.1c-2.92-2.92-5.86-5.82-8.77-8.76c-1.14-1.15-2.27-2.31-3.41-3.46
		c-0.21-0.21-0.43-0.39-0.52-0.77C19.07,0.19,19.09,0.1,19.13,0.03z"/>
	<path class="st2" d="M99.99,67.22c0,10.67,0,21.34,0.01,32.01c0,0.64-0.08,0.77-0.51,0.77c-27.08-0.02-54.15-0.02-81.23-0.02
		c-0.04-0.09-0.06-0.2-0.04-0.31c0.13-0.47,0.42-0.68,0.68-0.93c4.52-4.29,9.02-8.61,13.54-12.91c3.63-3.47,7.27-6.93,10.9-10.42
		c2.86-2.74,5.72-5.46,8.58-8.2c0.27-0.26,0.56-0.4,0.88-0.41c0.29,0,0.58-0.01,0.87-0.01c14.98,0,29.95,0,44.93,0
		c0.41,0,0.84-0.11,1.23,0.21C99.88,67.08,99.94,67.15,99.99,67.22z"/>
	<path d="M0.01,78.08c0-19.09,0-38.19,0-57.28c0.36-0.4,0.63,0.01,0.89,0.27c2.14,2.14,4.26,4.34,6.4,6.51
		c2.48,2.52,4.94,5.07,7.42,7.59c4.59,4.68,9.16,9.4,13.76,14.05c0.09,0.09,0.17,0.18,0.25,0.28c0.64,0.79,0.61,1.23-0.1,1.9
		c-4.07,3.88-8.13,7.78-12.2,11.66C11.26,68,6.09,72.93,0.91,77.87C0.65,78.12,0.36,78.51,0.01,78.08z"/>
	<path class="st3" d="M0.01,78.08c0.19,0.07,0.31-0.15,0.44-0.28c9.47-9.03,18.94-18.07,28.41-27.11c0.07-0.07,0.13-0.15,0.2-0.23
		c-0.08-0.3-0.27-0.39-0.42-0.54c-9.36-9.57-18.72-19.14-28.09-28.7c-0.17-0.17-0.31-0.43-0.54-0.42c0-2.12,0-4.24,0-6.36
		c0.21,0.01,0.33,0.24,0.48,0.39C12.1,26.67,23.71,38.51,35.31,50.35c0.09,0.09,0.17,0.18,0.25,0.26c0.01,0.31-0.17,0.34-0.28,0.45
		C23.57,62.42,11.84,73.76,0.12,85.11c-0.03,0.03-0.07,0.06-0.11,0.08C0.01,82.82,0.01,80.45,0.01,78.08z"/>
	<path class="st4" d="M99.86,33.91c0.04,0,0.08,0,0.13-0.01c0,1.87,0,3.74,0,5.62c-0.04,0-0.08,0.01-0.12,0.01
		c-0.26-0.31-0.28-0.74-0.28-1.18c-0.02-0.9,0-1.81-0.01-2.71c-0.01-0.73-0.25-1.08-0.73-1.1c-0.31-0.01-0.62-0.01-0.94-0.01
		c-14.43,0-28.86,0-43.3,0c-0.37,0-0.75,0.02-1.12-0.03c-0.25-0.03-0.52-0.03-0.57-0.53l-0.03-0.04l0.02-0.06
		c0.23-0.09,0.46-0.05,0.68-0.05c15.19,0,30.37,0,45.56,0C99.37,33.82,99.63,33.72,99.86,33.91z"/>
	<path class="st5" d="M19.13,0.03c0.02,0.04,0.03,0.09,0.02,0.14c-0.13,0.47-0.42,0.45-0.69,0.46c-1.68,0.04-3.36,0.02-5.04,0.01
		c-0.36,0-0.69-0.25-1.04-0.24c-0.15-0.02-0.23-0.14-0.25-0.36C14.47,0.03,16.8,0.03,19.13,0.03z"/>
	<path class="st6" d="M18.28,99.83c0.01,0.05,0,0.11-0.02,0.15c-2.08,0-4.17,0-6.25,0c0.05-0.18,0.12-0.32,0.26-0.35
		c1.76-0.51,3.55-0.2,5.32-0.25C17.85,99.38,18.14,99.37,18.28,99.83z"/>
	<path class="st5" d="M99.99,67.22c-0.04,0-0.08-0.01-0.13-0.01c-0.42-0.86-0.41-4.2,0-5.05c0.04,0,0.08,0.01,0.12,0.01
		C99.99,63.86,99.99,65.54,99.99,67.22z"/>
	<path class="st7" d="M12.38,0.39c0.21-0.28,0.48-0.17,0.72-0.17c2.02-0.03,4.03-0.04,6.05-0.06c4.37,4.37,8.75,8.74,13.12,13.12
		c6.88,6.89,13.75,13.79,20.63,20.68c0.25,0.26,0.53,0.14,0.79,0.14c15.08,0.01,30.15,0.01,45.23,0.01c0.94,0,0.94,0,0.94,1.4
		c0,1.34,0,2.68,0,4.02c-0.21,0.02-0.41,0.05-0.62,0.05c-15.51,0-31.02,0-46.53,0.01c-0.36,0-0.68-0.07-1-0.38
		C38.68,26.33,25.63,13.47,12.58,0.61C12.51,0.54,12.45,0.46,12.38,0.39z"/>
	<path class="st7" d="M99.87,62.16c0,1.68,0,3.37,0,5.05c-0.23,0.01-0.46,0.03-0.69,0.03c-15.37,0-30.74,0-46.11-0.01
		c-0.43,0-0.79,0.15-1.16,0.5C40.79,78.37,29.67,88.99,18.55,99.61c-0.09,0.08-0.18,0.15-0.27,0.22c-1.76-0.01-3.53-0.02-5.29-0.04
		c-0.24,0-0.5,0.11-0.72-0.15C25.42,87.27,38.57,74.9,51.72,62.52c0.25-0.24,0.5-0.38,0.81-0.38c15.67,0,31.35-0.01,47.02-0.02
		C99.66,62.12,99.76,62.15,99.87,62.16z"/>
	<path class="st8" d="M99.86,33.91c-0.31,0.01-0.62,0.03-0.94,0.03c-15.12,0-30.24,0-45.36,0c-0.23,0-0.45-0.05-0.68-0.08
		c0.23-0.21,0.49-0.14,0.73-0.14c15.15,0,30.31,0,45.46,0C99.34,33.72,99.63,33.63,99.86,33.91z"/>
</g>
</svg>
