<?xml version="1.0" encoding="utf-8"?>
<!-- Generator: Adobe Illustrator 25.0.0, SVG Export Plug-In . SVG Version: 6.00 Build 0)  -->
<svg version="1.1" id="Layer_1" xmlns="http://www.w3.org/2000/svg" xmlns:xlink="http://www.w3.org/1999/xlink" x="0px" y="0px"
	 viewBox="0 0 100 100" style="enable-background:new 0 0 100 100;" xml:space="preserve">
<style type="text/css">
	.st0{fill:#DD2910;}
	.st1{fill:#FEDD00;}
	.st2{fill:#FEDD01;}
</style>
<g>
	<rect class="st0" width="100" height="100"/>
	<path class="st1" d="M9.3,19.98c0.52,0,1.04,0,1.55,0c2.59,0,5.18-0.03,7.77,0.02c0.78,0.02,1.07-0.26,1.3-0.97
		c0.89-2.82,1.85-5.63,2.79-8.44c0.1-0.29,0.21-0.58,0.38-1.04c0.16,0.38,0.27,0.61,0.35,0.85c0.97,2.9,1.96,5.79,2.88,8.7
		c0.22,0.7,0.55,0.89,1.26,0.88c2.81-0.04,5.62-0.02,8.42-0.02c0.3,0,0.6,0,1.2,0c-1.28,0.98-2.33,1.79-3.38,2.59
		c-1.46,1.12-2.9,2.26-4.39,3.34c-0.59,0.43-0.77,0.78-0.49,1.52c1,2.66,1.9,5.35,2.83,8.03c0.1,0.28,0.29,0.55,0.22,0.91
		c-0.43-0.07-0.71-0.38-1.03-0.59c-2.42-1.6-4.84-3.2-7.23-4.84c-0.46-0.31-0.77-0.31-1.23,0c-2.42,1.65-4.87,3.27-7.31,4.89
		c-0.27,0.18-0.5,0.47-0.89,0.45c-0.1-0.38,0.12-0.68,0.22-0.99c0.92-2.65,1.82-5.31,2.79-7.94c0.24-0.66,0.09-0.99-0.43-1.38
		c-2.55-1.91-5.06-3.86-7.59-5.79C9.29,20.11,9.29,20.05,9.3,19.98z"/>
	<path class="st2" d="M52.86,38.72c0.38-1.11,0.65-1.97,0.97-2.8c0.17-0.43,0.08-0.68-0.29-0.94c-0.68-0.47-1.34-0.99-2.15-1.6
		c0.94-0.23,1.73-0.21,2.51-0.21c0.52,0,0.79-0.18,0.95-0.68c0.24-0.77,0.54-1.52,0.86-2.38c0.51,0.59,0.66,1.26,0.82,1.87
		c0.24,0.89,0.67,1.3,1.63,1.21c0.61-0.06,1.23,0.05,1.99,0.1c-0.68,0.75-1.43,1.18-2.11,1.69c-0.36,0.27-0.46,0.52-0.29,0.94
		c0.31,0.81,0.58,1.64,0.74,2.65c-0.66-0.43-1.36-0.81-1.97-1.3c-0.54-0.42-0.96-0.38-1.48,0.01
		C54.43,37.75,53.76,38.14,52.86,38.72z"/>
	<path class="st2" d="M55.19,24.15c-0.17-0.85-0.36-1.69-0.49-2.55c-0.07-0.49-0.3-0.69-0.78-0.72c-0.83-0.07-1.65-0.18-2.76-0.31
		c0.9-0.59,1.58-1.06,2.28-1.47c0.42-0.25,0.53-0.53,0.43-1c-0.18-0.82-0.3-1.64-0.49-2.74c0.79,0.66,1.44,1.16,2.03,1.71
		c0.42,0.4,0.78,0.48,1.3,0.16c0.66-0.41,1.37-0.73,2.18-1.15c-0.19,0.94-0.6,1.67-0.95,2.4c-0.27,0.56-0.17,0.89,0.3,1.25
		c0.66,0.5,1.27,1.08,2.11,1.8c-1.15-0.06-2.03-0.08-2.9-0.15c-0.44-0.04-0.69,0.11-0.87,0.51c-0.37,0.78-0.78,1.55-1.17,2.32
		C55.32,24.18,55.26,24.17,55.19,24.15z"/>
	<path class="st1" d="M47.55,49.27c-0.36-0.49-0.78-0.96-1.07-1.49c-0.49-0.9-1.1-1.22-2.11-0.83c-0.59,0.23-1.26,0.27-2.1,0.45
		c0.71-0.85,1.26-1.56,1.87-2.22c0.33-0.36,0.37-0.64,0.08-1.05c-0.49-0.7-0.93-1.43-1.53-2.37c0.99,0.32,1.74,0.52,2.44,0.82
		c0.55,0.23,0.91,0.15,1.27-0.33c0.48-0.63,1.04-1.21,1.71-1.98c0,1.06,0.03,1.88-0.01,2.7c-0.03,0.52,0.15,0.8,0.63,0.98
		c0.74,0.29,1.46,0.63,2.42,1.06c-0.97,0.27-1.67,0.53-2.38,0.65c-0.78,0.13-1.03,0.52-0.97,1.28c0.05,0.74,0.01,1.49,0.01,2.24
		C47.72,49.21,47.63,49.24,47.55,49.27z"/>
	<path class="st2" d="M47.63,5.48c0,0.83,0.01,1.67-0.01,2.5c-0.01,0.44,0.17,0.68,0.59,0.82c0.78,0.27,1.55,0.58,2.6,0.97
		c-1.08,0.36-1.87,0.66-2.69,0.9c-0.43,0.13-0.59,0.35-0.58,0.8c0.03,0.87,0.01,1.74,0.01,2.7c-0.54-0.26-0.83-0.72-1.07-1.14
		c-0.67-1.19-1.55-1.43-2.77-0.88c-0.44,0.2-0.95,0.26-1.56,0.42c0.46-0.91,1.06-1.56,1.6-2.24c0.32-0.41,0.37-0.7,0.02-1.13
		c-0.52-0.64-0.98-1.35-1.62-2.24c1.04,0.28,1.85,0.47,2.63,0.72c0.46,0.15,0.74,0.05,1.02-0.34c0.48-0.68,1.02-1.32,1.53-1.97
		C47.44,5.42,47.53,5.45,47.63,5.48z"/>
</g>
</svg>
