<?xml version="1.0" encoding="utf-8"?>
<!-- Generator: Adobe Illustrator 24.1.2, SVG Export Plug-In . SVG Version: 6.00 Build 0)  -->
<svg version="1.1" id="Layer_1" xmlns="http://www.w3.org/2000/svg" xmlns:xlink="http://www.w3.org/1999/xlink" x="0px" y="0px"
	 viewBox="0 0 500 500" style="enable-background:new 0 0 500 500;" xml:space="preserve">
<style type="text/css">
	.st0{fill:#FEBA00;}
	.st1{fill:#BA0013;}
	.st2{fill:#D0D1D3;}
	.st3{fill:#B0131A;}
	.st4{fill:#C9C9CA;}
	.st5{fill:#A81217;}
	.st6{fill:#C7B400;}
	.st7{fill:#A01116;}
	.st8{fill:#AC1519;}
	.st9{fill:#6C300A;}
	.st10{fill:#85700E;}
	.st11{fill:#CECFD0;}
	.st12{fill:#782516;}
	.st13{fill:#847204;}
	.st14{fill:#204987;}
	.st15{fill:#816D0B;}
	.st16{fill:#827301;}
	.st17{fill:#7E6C0E;}
	.st18{fill:#7D6609;}
	.st19{fill:#7A6A01;}
	.st20{fill:#8E6B07;}
	.st21{fill:#726203;}
	.st22{fill:#693406;}
	.st23{fill:#7C6A0C;}
	.st24{fill:#7E1C0D;}
	.st25{fill:#993712;}
	.st26{fill:#11489B;}
	.st27{fill:#AB1419;}
	.st28{fill:#1047A5;}
	.st29{fill:#084AB4;}
	.st30{fill:#907704;}
	.st31{fill:#0749B0;}
	.st32{fill:#89743C;}
	.st33{fill:#9C8E4E;}
	.st34{fill:#663F05;}
	.st35{fill:#D7CFC5;}
	.st36{fill:#7C6401;}
	.st37{fill:#6B1108;}
	.st38{fill:#E4DDD3;}
	.st39{fill:#946700;}
	.st40{fill:#76240C;}
	.st41{fill:#5F260A;}
	.st42{fill:#7A6603;}
	.st43{fill:#701D0C;}
	.st44{fill:#A81019;}
	.st45{fill:#7D786B;}
	.st46{fill:#71220D;}
	.st47{fill:#B3B5BE;}
	.st48{fill:#A81219;}
	.st49{fill:#733F15;}
	.st50{fill:#D3B901;}
	.st51{fill:#676152;}
	.st52{fill:#E0DAD0;}
	.st53{fill:#5D1C0B;}
	.st54{fill:#837655;}
	.st55{fill:#847655;}
	.st56{fill:#A79304;}
	.st57{fill:#82280F;}
	.st58{fill:#A89504;}
	.st59{fill:#6E6F6F;}
	.st60{fill:#857F77;}
	.st61{fill:#385075;}
	.st62{fill:#CBB701;}
	.st63{fill:#7D714F;}
	.st64{fill:#B6BAC7;}
	.st65{fill:#A40E1A;}
	.st66{fill:#B3141A;}
	.st67{fill:#786F56;}
	.st68{fill:#B2131C;}
	.st69{fill:#A6091B;}
	.st70{fill:#696556;}
	.st71{fill:#A50A1A;}
	.st72{fill:#77300A;}
	.st73{fill:#BABDC8;}
	.st74{fill:#B5B8C7;}
	.st75{fill:#6A3B07;}
	.st76{fill:#C3C7D3;}
	.st77{fill:#DAA408;}
	.st78{fill:#69190D;}
	.st79{fill:#701C10;}
	.st80{fill:#7A6930;}
	.st81{fill:#7F7663;}
	.st82{fill:#EFF2FA;}
	.st83{fill:#B21317;}
	.st84{fill:#F073AC;}
	.st85{fill:#8E526E;}
	.st86{fill:#854E68;}
	.st87{fill:#E2E8EC;}
	.st88{fill:#784E60;}
	.st89{fill:#EA73AB;}
	.st90{fill:#F174AF;}
	.st91{fill:#7D090A;}
	.st92{fill:#694644;}
	.st93{fill:#625C5C;}
	.st94{fill:#E2EEEE;}
	.st95{fill:#67434C;}
	.st96{fill:#87566D;}
	.st97{fill:#7D4D63;}
	.st98{fill:#8A7C0B;}
	.st99{fill:#623D44;}
	.st100{fill:#6D4A5B;}
	.st101{fill:#533442;}
	.st102{fill:#83576B;}
	.st103{fill:#C9A501;}
	.st104{fill:#AA1D16;}
	.st105{fill:#CBA802;}
	.st106{fill:#D6B501;}
	.st107{fill:#D7B701;}
	.st108{fill:#DBBB01;}
	.st109{fill:#5D1A14;}
	.st110{fill:#A67803;}
	.st111{fill:#955308;}
	.st112{fill:#767047;}
	.st113{fill:#A51B17;}
	.st114{fill:#C7B301;}
	.st115{fill:#694904;}
	.st116{fill:#184C34;}
	.st117{fill:#730314;}
	.st118{fill:#60200D;}
	.st119{fill:#E7D990;}
	.st120{fill:#CFD0D0;}
	.st121{fill:#151615;}
	.st122{fill:#242323;}
	.st123{fill:#6F6D6D;}
	.st124{fill:#B1AC02;}
	.st125{fill:#ADA802;}
	.st126{fill:#BCC201;}
	.st127{fill:#B8BA01;}
	.st128{fill:#7D6304;}
	.st129{fill:#CED0D2;}
	.st130{fill:#C2C6CE;}
	.st131{fill:#727988;}
	.st132{fill:#010101;}
	.st133{fill:#915108;}
	.st134{fill:#A9A601;}
	.st135{fill:#AFA301;}
	.st136{fill:#C1C401;}
	.st137{fill:#B6BA01;}
	.st138{fill:#C5CA01;}
	.st139{fill:#CCCED1;}
	.st140{fill:#CDCFD1;}
	.st141{fill:#C4CACE;}
	.st142{fill:#E3E5E7;}
	.st143{fill:#242425;}
	.st144{fill:#020101;}
	.st145{fill:#C5C8CE;}
	.st146{fill:#030101;}
	.st147{fill:#C3C6C7;}
	.st148{fill:#AD1518;}
	.st149{fill:#CDB601;}
	.st150{fill:#AE1219;}
	.st151{fill:#A80F19;}
	.st152{fill:#B2131A;}
	.st153{fill:#C8B400;}
	.st154{fill:#694204;}
	.st155{fill:#857602;}
	.st156{fill:#CBB301;}
	.st157{fill:#D4BD01;}
	.st158{fill:#771719;}
	.st159{fill:#C1AB03;}
	.st160{fill:#D5BD01;}
	.st161{fill:#104B9E;}
	.st162{fill:#D7CEC4;}
	.st163{fill:#D3CBC3;}
	.st164{fill:#FCBC01;}
	.st165{fill:#A6A9B0;}
	.st166{fill:#D2BE01;}
	.st167{fill:#B9BCC4;}
	.st168{fill:#CCCFDB;}
	.st169{fill:#AE1319;}
	.st170{fill:#711E0E;}
	.st171{fill:#C5AE01;}
	.st172{fill:#C5AF02;}
	.st173{fill:#CCB402;}
	.st174{fill:#CCB401;}
	.st175{fill:#BFB401;}
	.st176{fill:#731E0F;}
	.st177{fill:#0D4C32;}
	.st178{fill:#B6A901;}
	.st179{fill:#114C32;}
	.st180{fill:#AD1519;}
	.st181{fill:#FCBB01;}
	.st182{fill:#63240B;}
	.st183{fill:#746F54;}
	.st184{fill:#5B230A;}
	.st185{fill:#BAA601;}
	.st186{fill:#6C230B;}
	.st187{fill:#D0BB01;}
	.st188{fill:#D7C201;}
	.st189{fill:#083C8B;}
	.st190{fill:#C4C5CF;}
	.st191{fill:#C8B101;}
	.st192{fill:#C7B001;}
	.st193{fill:#C5BB01;}
	.st194{fill:#5F2F09;}
	.st195{fill:#5E2F08;}
	.st196{fill:#C3AF01;}
	.st197{fill:#C3B001;}
	.st198{fill:#D5C201;}
	.st199{fill:#C3B901;}
	.st200{fill:#C0B401;}
	.st201{fill:#801D0F;}
	.st202{fill:#C6B001;}
	.st203{fill:#BDC0C5;}
	.st204{fill:#B7A805;}
	.st205{fill:#75330A;}
	.st206{fill:#AB1317;}
	.st207{fill:#E6B203;}
	.st208{fill:#DAAC0D;}
	.st209{fill:#F9C702;}
	.st210{fill:#24436C;}
	.st211{fill:#7F1F0E;}
	.st212{fill:#C6B501;}
	.st213{fill:#B41318;}
	.st214{fill:#C4B301;}
	.st215{fill:#CDCFDD;}
	.st216{fill:#015BBF;}
	.st217{fill:#5B4E02;}
	.st218{fill:#F675B2;}
	.st219{fill:#ED72AA;}
	.st220{fill:#EE73AD;}
	.st221{fill:#827401;}
	.st222{fill:#A71418;}
	.st223{fill:#A71119;}
	.st224{fill:#096641;}
	.st225{fill:#CCAB02;}
	.st226{fill:#A91518;}
	.st227{fill:#E0C701;}
	.st228{fill:#A61219;}
	.st229{fill:#B58D03;}
	.st230{fill:#C5B201;}
	.st231{fill:#711612;}
	.st232{fill:#5C4802;}
	.st233{fill:#5E3C06;}
	.st234{fill:#8A7A01;}
	.st235{fill:#5C2308;}
	.st236{fill:#631D0B;}
	.st237{fill:#073478;}
	.st238{fill:#611D0B;}
	.st239{fill:#5C2409;}
	.st240{fill:#C8B801;}
	.st241{fill:#783F07;}
	.st242{fill:#693509;}
	.st243{fill:#54180A;}
	.st244{fill:#CDBC01;}
	.st245{fill:#AB1218;}
	.st246{fill:#C2B401;}
	.st247{fill:#C9B801;}
	.st248{fill:#C8B701;}
	.st249{fill:#C3B301;}
	.st250{fill:#7B6D01;}
	.st251{fill:#631C0D;}
	.st252{fill:#5A2D08;}
	.st253{fill:#572908;}
	.st254{fill:#8B7E11;}
	.st255{fill:#918515;}
	.st256{fill:#AD9608;}
	.st257{fill:#474C2E;}
	.st258{fill:#6F5B06;}
	.st259{fill:#5E5302;}
	.st260{fill:#095AB6;}
	.st261{fill:#0959B6;}
	.st262{fill:#015BC7;}
	.st263{fill:#8E460A;}
	.st264{fill:#DABA01;}
	.st265{fill:#D1B301;}
	.st266{fill:#938A01;}
	.st267{fill:#C5B601;}
	.st268{fill:#B90E1D;}
</style>
<g>
	<path class="st0" d="M499.92,125.52c0,82.99,0,165.99,0,248.98c-1.21,1.38-2.75,1.93-4.57,1.96c-2.03,0.04-4.05,0.08-6.08,0.08
		c-159.52,0-319.03,0.01-478.55-0.05c-3.6,0-7.58,1.19-10.65-1.99c0-82.99,0-165.99,0-248.98c1.21-1.38,2.75-1.93,4.57-1.96
		c2.03-0.04,4.05-0.08,6.08-0.08c159.52,0,319.03-0.01,478.55,0.05C492.87,123.53,496.85,122.34,499.92,125.52z"/>
	<path class="st1" d="M499.92,125.52c-1.86-0.1-3.72-0.28-5.58-0.28c-162.89-0.01-325.79-0.01-488.68,0c-1.86,0-3.72,0.18-5.58,0.28
		c0-40.69,0.02-81.38-0.06-122.07C0.01,0.87,0.26,0,3.27,0c164.48,0.1,328.97,0.1,493.45,0c3.01,0,3.26,0.87,3.26,3.44
		C499.9,44.14,499.92,84.83,499.92,125.52z"/>
	<path class="st1" d="M0.08,374.5c1.86,0.1,3.72,0.28,5.58,0.28c162.89,0.01,325.79,0.01,488.68,0c1.86,0,3.72-0.18,5.58-0.28
		c0,40.72-0.04,81.43,0.08,122.15c0.01,2.79-0.56,3.35-3.35,3.35c-164.43-0.08-328.86-0.08-493.29,0c-2.79,0-3.36-0.56-3.35-3.35
		C0.11,455.93,0.08,415.21,0.08,374.5z"/>
	<path class="st2" d="M206.59,217.07l-0.07,0.05c7.36-0.57,14.73-0.53,22.09-0.02c1.7,1.62,1.23,3.76,1.24,5.72
		c0.05,15.23,0.04,30.47,0.02,45.7c-0.01,6.68-0.57,7.24-7.12,7.2c-1.99-0.01-4.07,0.38-5.86-0.92c-1.21-1.25-1.29-2.8-1.11-4.4
		c-0.25-2.74,0.76-5.38,0.73-8.1c-0.15-0.39-0.27-0.78-0.41-1.18c-2.95-5.18-2.89-5.33,4-10.31c2.94-2.81,0.8-5.79-0.02-8.48
		c-0.83-2.74-1.25-5.3-0.31-8.02c0.16-0.42,0.39-0.8,0.67-1.14c1.37-1.11,2.06-2.71,2.98-4.14c0.56-0.88,0.47-1.98-0.36-2.47
		c-1.2-0.71-1.54,0.51-1.92,1.31c-1.97,4.21-2.39,8.62-1.5,13.15c0.21,1.05,0.7,2.03,1,3.07c0.74,2.54,1.07,4.89-1.18,6.85
		c-2.15,1.87-4.33,1.08-6.52,0.03c-1.6-1.11-2.67-2.6-3.3-4.42c-0.62-1.89-0.26-4,0.8-5.27c3.24-3.91,2.14-8.55,2.8-12.88
		c0.12-0.42,0.31-0.81,0.54-1.18c1.81-2.55-0.51-3.15-1.97-4.1c-1.33-0.86-2.71-1.74-4.01,0.11c-0.63,0.89-1.39,1.67-2.28,2.31
		c-2.37,0.15-3.06,2.9-5.33,3.37c-0.93,0.19,0.22,0.42,0.32,0.49c2.05,1.48,2.02,3.27,0.88,5.27c-2.9,1.85-5.75,1.18-8.59-0.15
		c-1.75-0.74-2.9-2.11-3.87-3.68c-0.64-1.03-1.37-1-2.19-0.26c-0.63,3.67,3.01,4.56,4.54,6.79c1.13,1.66,4.02,2.32,3.1,5.06
		c-0.94,2.8-3.31,2.82-5.78,2.35c-0.53-0.1-0.6,0.57-0.68,1.02c0.06,1.84,0.13,3.79,2.7,2.04c1.57-1.07,3.52-0.8,5.06-1.81
		c2.55-1.41,4.91-1.08,7.12,0.73c1.22,0.65,2.18,1.55,2.8,2.8c1.01,3.18-2.26,2.6-3.4,3.9c-0.16,0.36-0.35,0.7-0.54,1.04
		c-1.7,1.97,0.97,4.05-0.16,6.01c-1.54,1.28-3.17-0.02-4.74,0.17c-1.73,1.04-1.12,2.11,0.16,2.77c1.79,0.93,7.11-1.68,7.78-3.79
		c0.39-1.23,0.64-2.5,2.17-2.63c1.56-0.13,2.05,1.11,2.51,2.3c0.11,0.29,0.25,0.57,0.4,0.84c0.67,1.18,2.65,7.7,2.59,8.53
		c2.18,1.55,4.67,2.97,2.7,6.3c-7.13,1.41-14.31,0.66-21.47,0.46c-1.08-0.31-1.73-1.12-2.36-1.97c-1.15-2.01-1.41-4.33-2.28-6.46
		c-1.8-4.38-5.2-7.07-9.24-9.15c-0.7-0.4-1.22-0.95-1.51-1.72c-0.14-0.56-0.15-1.11-0.04-1.67c0.57-10.57,0.08-21.15,0.27-31.72
		c0.04-1.98-0.39-4.08,0.98-5.86c1.87-1.53,4.11-0.92,6.22-1.08c5.41-0.04,10.82,0.2,16.22-0.13
		C203.7,215.6,205.06,216.45,206.59,217.07z"/>
	<path class="st3" d="M223.81,329.09c-4.26,4.91-9.31,8.58-15.73,10.13c-4.01-0.3-8.05,1.1-12.03,0.04
		c-10.45-2.78-17.02-9.2-18.56-20.21c-0.02-0.82-0.02-1.64-0.02-2.46c0.01-5.43,0-10.85,0.02-16.28c0.01-3.22,1.3-5.03,4.76-4.67
		c2.43,0.68,2.81,2.5,2.29,4.57c-0.32,1.3-0.97,2.51-0.46,3.88c0.76,1.85,1.98,3.58,1.47,5.75c-1.21,3.88,0.99,11.67,4.04,14.2
		c0.96,0.8,2.05,1.55,2.64,2.62c1.36,2.48,3.37,2.95,5.89,2.27c0.44,0.02,0.87,0.12,1.29,0.28c3.15,2.56,6.53,2.69,10.08,0.92
		c1.65-0.13,3.59,0.9,4.77-1.18c1.72-2.13,3.36-4.27,5.74-5.8c2.45-1.57,1.6-4.74,2.83-6.95c1.31-1.85,2.45-3.71,0.46-5.84
		c-1.3-3.8,0.46-7.56,0.43-11.38c-0.03-4.56-0.67-9.21-0.01-13.79c0.26-1.81-0.05-2.49-2.12-2.4c-7.33,0.32-14.68-0.67-22.02,0.2
		c-1.74,0.21-3.28-0.85-4.73-1.82c-1.04-1.07-2.83-1.85-2.03-3.76c0.74-1.77,2.52-1.63,4.05-1.64c9.66-0.07,19.31-0.01,28.97-0.04
		c3.41-0.01,4.63,1.52,4.6,4.86c-0.11,10.43-0.01,20.87-0.05,31.3C230.3,318.44,227.09,323.78,223.81,329.09z"/>
	<path class="st4" d="M178.81,319.18c3.32,12.41,11.91,19,24.79,19.21c1.46,0.02,3.33-1.25,4.47,0.82
		c-0.21,0.21-0.42,0.42-0.62,0.64c-11.95,4.05-24.29,4.77-36.75,4.18c-6.65-0.32-13.17-1.61-19.55-3.6
		c-1.23-0.38-2.41-0.75-2.49-2.32c2.49-2.87,6.05-0.71,8.89-1.92c1.58-0.17,3.18-0.26,4.57-1.2c0.73-0.44,1.5-0.77,2.28-1.08
		c1.5-0.5,2.99-1.03,4.03-2.33c0.66-0.73,1.33-1.46,2.08-2.1c1.42-0.87,2.2-2.29,3.05-3.64
		C175.78,323.97,174.76,319.58,178.81,319.18z"/>
	<path class="st5" d="M92.76,282.28c-0.06-0.76-0.23-1.53-0.15-2.27c0.36-3.54-0.16-6.33-4.63-6.54c-0.92-0.04-1.8-0.98-2.7-1.5
		c-0.72-1.41-0.27-3.48-2.33-4.15c-0.84-2.09-1.91-4.13-2.44-6.3c-0.44-1.82,0.78-3.17,2.39-4.05c2.18-0.44,3.72-2.9,6.32-2.05
		c1.1,0.47,0.94,2.14,2.25,2.35c0.39-1.52-1.87-2.52-0.73-4.11l0-0.03c0.92-0.25,1.47-0.99,2.09-1.64c1.02-0.61,2-1.28,3.08-1.77
		c2.71-1.03,5.49-1.33,8.35-0.84c1.1-0.1,2.18,0.12,3.27,0.18c3.55,1.41,7.4,0.46,11.01,1.37l0.09-0.1c0.41,0.16,0.64,0.45,0.67,0.9
		c-0.43,1.46-1.99,1.84-2.77,2.94c-0.27,1.44,1.04,3.06-0.47,4.37c-2.66,0.91-5.3,2.07-8.19,0.94c-0.3-0.33-0.49-0.71-0.57-1.15
		c-0.03-0.45,0.04-0.9,0.25-1.3c0.24-0.45,0.65-0.79,0.84-1.28c-0.33,0.32-0.67,0.6-1.11,0.66c-1.15,0.9,0.4,1.86-0.02,2.79
		c-0.07,0.46-0.24,0.87-0.52,1.24c-0.91,0.78-1.88,1.43-3.07,1.68c-8,2.81-7.9,2.81-8.11,11.65
		C95.49,277.12,96.77,280.7,92.76,282.28z"/>
	<path class="st6" d="M141.34,336.25c-1.18-0.95-2.36-1.91-3.54-2.86c-1.47-1.45-1.51-3.31-1.51-5.19
		c-0.01-15.96-0.03-31.92,0.01-47.88c0-1.54-0.1-3.13,1.02-4.43c5.5-1.87,7.31-0.77,7.34,4.83c0.09,16.98,0.08,33.96-0.02,50.94
		C144.62,333.77,145.23,336.74,141.34,336.25z"/>
	<path class="st7" d="M264.37,252.85c1.88,0.72,3.82,1.32,5.62,2.19c6.7,3.22,7.27,5.06,3.86,11.84c-2.2,2.02-3.83,1.23-5.19-1.02
		c-0.9-1.51,0.38-3.56-1.25-4.85c-1.98-0.03-3.88,1.67-5.87,0.21c-1.76-1.24-1.21-3.14-1.42-4.8c-0.24-0.23-0.51-0.33-0.84-0.22
		c-1.2,0.84-1.29,2.36-2.18,3.37c-1.39,1.65-2.92,2.29-4.76,0.66c-0.52-0.76-0.43-1.64-0.47-2.49c-0.03,0.74-0.01,1.48-0.33,2.18
		c-1.36,1.69-2.75,1.02-4.13,0.05c-1.15-0.11-2.27-3.39-3.44-0.01c-1.31,1.24-2.8,0.88-4.29,0.51c-1.01-0.56-0.88-1.91-1.82-2.59
		c0.58,0.69,0.67,1.4,0.33,2.17c-1.73,1.98-4.52,1.25-6.52,2.56c-0.87,0.15-1.55-0.09-1.97-0.91c-0.25-3.31-0.87-6.64,0.4-9.89
		c0.53-0.37,1.03-0.35,1.52,0.07c1.64-0.34,3.28-0.68,4.92-1.01c4.84-0.53,9.74-0.59,14.48-1.9c1.91-0.14,3.8-0.07,5.65,0.51
		c0.99,0.16,1.88,0.63,2.83,0.89c1.44,0.14,2.58,0.97,3.78,1.65C263.62,252.33,263.99,252.6,264.37,252.85z"/>
	<path class="st8" d="M265.09,284.95c2.78,1.29,5.56,2.58,8.35,3.87c0.51,1.16,0.65,2.42,0.32,3.58c-0.44,1.55-0.15,3.63-1.72,4.5
		c-2.1,1.16-3.15-1.19-4.68-1.98c-0.65-0.29-1.31-0.57-1.96-0.86c-0.76-0.54-1.52-0.24-2.27,0.03c-1.06,0.23-2.02-0.05-2.94-0.57
		c-0.37-0.18-0.72-0.38-1.06-0.61c-1.04-0.74-2.22-0.98-3.48-0.98c-3.35-0.76-6.49-1.93-8.94-4.48c-0.5-0.76-0.94-1.55-1.44-2.31
		c-0.92-0.64-1.85-1.27-2.77-1.91c-2.6-2.18-3.91-4.7-3.37-8.35c0.38-2.6,1.03-3.31,3.4-2.17c1.24,0.59,2.38,1.41,3.7,1.82
		c4.08,0.78,7.55,2.92,11.04,5.02c0.92,0.42,1.74,1.04,2.71,1.37c0.56,0.21,1.09,0.5,1.59,0.83
		C262.89,282.65,263.84,283.95,265.09,284.95z"/>
	<path class="st8" d="M114.27,283.21c-1.16,0.82-2.32,1.64-3.48,2.46c-0.84,0.29-1.11,1.11-1.6,1.73c-0.58,0.61-1.21,1.11-2.03,1.35
		c-1.31,0.23-2.05,1.46-3.25,1.88c-3.24,1.64-6.3,3.83-10.23,3.41c-0.44-0.19-0.89-0.35-1.36-0.48c-1.81,0.12-3.06,1.1-4.37,2.3
		c-2.59,2.38-4.19,1.59-5.05-1.83c-1.01-4.01,0.95-6.09,4.21-7.59l-0.04,0.03c2.37-1.06,5.03-1.57,6.8-3.72
		c2.34-3.04,5.97-3.74,9.25-5.06c1.54-0.14,2.77-1.07,4.14-1.66c0.39-0.19,0.79-0.35,1.2-0.49c2.72-0.61,4.42-2.74,6.48-4.35
		c1-0.27,1.94-0.34,2.54,0.75C117.58,276.03,118.55,280.38,114.27,283.21z"/>
	<path class="st9" d="M141.34,336.25c2.21-0.44,1.77-2.2,1.77-3.68c0.02-17.51-0.12-35.03,0.1-52.54c0.06-4.46-2.71-3.51-5.16-3.71
		c-0.67,0.19-0.89,0.87-1.35,1.29c-1.4,0.72-2.91,0.6-4.42,0.6c-0.64-0.03-1.27-0.23-1.91-0.27c-1.11,0.09-2.2-0.01-3.23-0.48
		c-0.6-0.32-1.07-0.79-1.5-1.31c-0.04-2.89-0.27-5.8-0.07-8.68c0.19-2.61-0.54-4.39-3.08-5.26c1.7-3.01-0.08-7.12,3.07-9.67
		c0.55-0.09,1.02,0.05,1.44,0.41c1.78,1.95,1.32,4.37,1.4,6.67c0.1,3.11,0.05,6.22,0.05,9.33c0,2.86,1.23,4.31,4.19,4.32
		c8.09,0.02,16.18-0.08,24.26,0.04c3.57,0.05,4.33-3.14,6.51-4.66c0.51-0.26,1.04-0.27,1.57-0.06c2.16,4.14-0.36,8.26-0.05,12.38
		c-3.35,3.09-2.8-1.83-4.48-2.17c-0.61-0.18-1.21-0.18-1.8,0.05c-1.5,1.53-1.19,3.49-1.19,5.31c-0.04,15.23-0.04,30.46,0,45.69
		c0.01,2.17-0.06,4.38,1.4,6.24c0.29,0.44,0.43,0.93,0.4,1.46c-3.35,1.12-6.8,0.69-10.23,0.62c-0.58,0.21-1.05,0.07-1.42-0.43
		c-1.3-2.04-1.56-4.28-1.55-6.67c0.06-15.87,0.03-31.73,0.03-47.6c0,15.94,0.02,31.89-0.03,47.83c-0.01,2.22,0.18,4.33,1.33,6.27
		c0.11,0.59-0.06,1.07-0.52,1.44C144.83,338.5,143,337.54,141.34,336.25z"/>
	<path class="st10" d="M245.27,285.15c0.67,0.4,1.35,0.8,2.02,1.2c1.88,7.76,0.66,15.64,0.93,23.46c0.22,6.51,1.45,7.49,7.87,5.66
		c2.05-1.11,1.84-3.09,1.85-4.94c0.04-4.67-0.06-9.34,0.05-14.01c0.04-1.73-0.55-3.94,2.14-4.49l0.27,0.2
		c2.15,2.93,1.11,6.3,1.26,9.49c0.14,2.94,0.03,5.9,0.03,8.85c0-4.34,0-8.68,0-13.02c0-1.54-0.22-3.15,1.13-4.34
		c0.85,0.28,1.7,0.56,2.56,0.84c-0.4,0.4-1.17,0.82-1.15,1.21c0.44,9.61-1.92,19.39,2.2,28.79c0.99,2.27,0.59,5.15,0.83,7.75
		c-0.48,0.16-0.96,0.15-1.43-0.01c-4.85-5.94-17.61-5.92-22.26,0.05c-0.47,0.22-0.95,0.22-1.43,0.03
		C246.11,316.5,245.55,300.81,245.27,285.15z"/>
	<path class="st11" d="M103.69,279.17c-3.03,1.37-6.06,2.74-9.09,4.11c-1.41,1.06-1.57-0.1-1.86-1.04c0,0,0.02,0.04,0.02,0.04
		c1.13-4.54,0.7-9.19,0.41-13.72c-0.26-4.13,1.25-5.87,5.07-6.34c1.82-0.22,3.61-0.72,5.42-1.1c0.36,0.27,0.95,0.42,1.01,0.87
		C105.39,267.78,106.8,273.61,103.69,279.17z"/>
	<path class="st12" d="M230.42,262.04c0.61,0.04,1.22,0.08,1.82,0.12c0.48-0.43,0.9-0.37,1.24,0.17c-2.49,0.74-2.5,2.67-2.5,4.8
		c0.04,14.44-0.03,28.89-0.03,43.33c0,7.13-2.19,13.4-7.16,18.61c0-0.16-0.07-0.36,0.01-0.46c7.53-10.68,5.39-22.92,5.59-34.77
		c0.07-4.36-0.02-8.73,0.02-13.1c0.02-2.14-0.45-3.66-3.04-3.65c-10.44,0.04-20.89,0.03-31.33,0.06c-0.61,0-1.25,0.16-1.41,1.01
		c0.83,1.54,3.06,0.39,3.92,1.93c-1.85,1.53-3.68,3.17-6.28,1.43c-0.51-0.72-0.65-1.54-0.69-2.4c0.41-2.49-1.19-5.39,1.53-7.4
		c0.28,0.87,0.57,1.75,0.85,2.62c5.39,0.96,10.82,0.44,16.22,0.38c6.35-0.07,12.71,0.41,19.05-0.17c1.89-1.53,0.91-3.67,1.17-5.54
		C229.73,266.71,228.62,264.17,230.42,262.04z"/>
	<path class="st13" d="M87.77,332.41c1.51-6.16,4.06-12.06,4.26-18.54c0.2-6.35-0.64-12.73,0.57-19.05
		c2.29,1.49,1.37,3.85,1.54,5.89c0.39,4.84-0.99,9.87,1.66,14.43c2.31,2.21,5.37,0.73,7.95,1.61c0.96,0.01,1.93-0.05,2.89,0.1
		c0.99,0,1.98,0,2.88,0.49c0.43,0.25,0.86,0.49,1.3,0.72c1.43,3.44,3.44,6.7,3.3,10.63c-0.05,1.46,0.17,2.79,1.41,3.75
		c-0.5,0.62-1.11,1.09-1.93,1.17c-7.96,0.79-15.93,0.88-23.89-0.01C88.87,333.51,88.26,333.04,87.77,332.41z"/>
	<path class="st14" d="M242.16,331.88c0.54-0.1,1.08-0.21,1.62-0.31c3.79-2.85,18.1-2.82,21.85,0.04c0.54,0.06,1.09,0.13,1.64,0.19
		c5.07,1.62,5.11,1.72,3.99,11.09c-4.6-1.59-9.26-1.94-14.01-0.71c-2.17-0.27-4.65,0.88-6.4-1.35c-0.39-1.17,0.4-2.01,1.26-2.02
		c5-0.05,9.65-3,14.72-1.76c-2.43-1.98-4.99-1.31-7.48-0.42c-3.18,1.14-6.24,1.18-9.41-0.16c-2.11-0.9-4.39-1.59-6.3,0.46
		c1.87,0.09,4.25-1.05,4.71,2.07c-0.93,1.32-2.64,0.59-3.49,1.37c1.27-0.31,3.02-1.33,3.56,1.33c-1.69,2.92-5.93,0.82-7.57,3.84
		c-1.68,0.93-2.95,1.09-2.93-1.45c0.02-3.05,0.08-6.09-0.01-9.14C237.79,331.68,240.84,333.04,242.16,331.88z"/>
	<path class="st15" d="M123.49,171.94c0.44-1.11,0.88-2.22,1.31-3.33c0.4-0.52,0.8-1.04,1.26-1.5c2.36-2.7,6.3-2.74,8.78-5.23
		c3.37-3.31,7.14-1.73,10.86-0.9c-0.72,2.06-0.72,2.06,1.52,2.54c1.28,2.38,1.28,4.55-1.04,6.34c-0.46,0.09-0.92,0.06-1.36-0.09
		c-4.16-2.92-8.95-2.78-12.8,0.39c-3.55,2.92-4.43,7.29-2.46,12.22c0.93,2.29,0.87,4.55-0.25,6.75c-0.01,0.55-1.59,0.9-0.17,1.67
		c1.37,0.74,2.65,1.6,3.26,3.15c-0.15,1.45-1.1,1.9-2.39,1.91c-0.19-0.25-0.33-0.62-0.57-0.72c-4.44-1.75-5.4-5.84-6.58-9.77
		c1.67-2.59-0.53-4.93-0.49-7.42c-0.11-1.68,0.02-3.34,0.47-4.97C123.02,172.62,123.24,172.27,123.49,171.94z"/>
	<path class="st16" d="M206.59,217.07c-6.95-0.02-13.91-0.03-20.86-0.05c0.54-3.03,3.47-2.15,5.21-3.22
		c3.89-0.99,8.01-0.22,11.83-1.58c0.33-0.14,0.9-0.06,0.67-0.74c-14.91-3.11-29.85-2.7-44.81-1.12c-4.14,1.08-8.48,1.26-12.49,2.91
		c-0.39,0.21-0.81,0.39-1.23,0.53c-2.1-1.24,0.51-3.4-0.94-4.76c0.34-0.74,0.96-1.07,1.71-1.23c4.72,0.11,9.2-1.37,13.77-2.21
		c0.89-0.45,1.83-0.63,2.81-0.56c4.73,0.64,9.33-0.83,14.02-0.89c1.39-0.26,2.79-0.24,4.19-0.02c4.69-0.13,9.27,1.49,13.99,0.93
		c0.99-0.08,1.92,0.13,2.79,0.6c4.57,0.88,9.17,1.65,13.61,3.13c0.41,0.27,0.71,0.63,0.88,1.09c0.11,2.93-0.41,5.39-4.08,5.54
		C206.56,215.47,206.72,216.38,206.59,217.07z"/>
	<path class="st17" d="M232.27,187.19c-0.15,0.57-0.61,1.4-0.39,1.67c2.98,3.69-0.29,3.65-2.48,4.26c-2.16-0.33-0.86-2.12-1.35-3.16
		c-0.32-0.95-1.21-1.48-1.7-2.31c-1.13-2.44-0.1-4.59,0.85-6.77c2.13-8.94-3.26-12.77-9.7-13.43c-2.19-0.22-4.32,0.27-6.49,0.13
		c-3.43-2.25-3.43-2.46,0.06-5.66c3.06-2.57,8.29-2.54,12.63,0.07c-1.02,1.3-2.33,0.33-3.51,0.46c1.68,0.11,3.22,0.79,4.82,1.22
		c6.57,1.67,7.53,7.46,9.3,12.65c0.8,2.09-0.44,3.74-1.17,5.5C232.22,183.52,231.65,185.25,232.27,187.19z"/>
	<path class="st17" d="M181.45,155.4c1.81,0.94,3.35,2.69,5.73,1.94c1.83,1.88,3.97-0.07,5.9,0.48c1.06,0.03,2.12-0.16,3.19-0.03
		c2.66-0.14,4.94,1.04,7.27,2.08c4.74,2.8,6.1,7.53,7.12,12.46c0.14,1.18-0.45,2.24-0.57,3.38c-0.47,1.68-1.36,3.03-2.99,3.78
		c-1.58,0.38-2.68-0.2-3.36-1.65c-0.26-0.83-0.33-1.7-0.38-2.57c1.21-9.46-2.98-13.61-12.26-12.16c-3.5,0.55-6.2,1.89-6.51,5.91
		c-0.59,1.01-0.91,2.26-2.26,2.6c-2.43-1.97-0.3-4.55-1.09-6.1c-1.07,4.12,1.96,8.79,0.58,13.58c-0.2,0.45-0.5,0.83-0.88,1.14
		c-1.34,0.78-2.75,0.82-4.21,0.39c-0.44-0.18-0.8-0.47-1.08-0.85c-0.29-0.64-0.31-1.28-0.06-1.94c1.3-1.22,2.8-2.32,2.66-4.42
		c-0.3-2.25-0.34-4.51-0.24-6.77c0.03-1.61-1.44-3-0.73-4.71c0.66-1.7,2.42-2.67,2.96-4.45C180.4,156.65,180.95,156.04,181.45,155.4
		z"/>
	<path class="st18" d="M251.96,250.69c-5.14,0.07-10.27,0.13-15.41,0.2c0.28-0.12,0.55-0.3,0.85-0.36
		c7.99-1.53,7.95-1.53,7.99-10.06c0.02-5.1-0.15-10.06-2.47-14.88c-1.06-2.2-0.93-5.13,0.24-7.65c0.79-0.32,1.32,0.06,1.77,0.65
		c0.25,3.29,2.07,4.45,5.27,4.26c3.08-0.18,6.19-0.16,9.28-0.01c3.05,0.15,4.67-1.07,4.88-4.14c0.65-0.87,1.38-1.31,2.38-0.51
		c-0.27,3.19,1.79,6.82-1.75,9.4c-2.57-1-5.13,0.26-7.73-0.01c-2.45-0.26-4.94-0.05-6.57-0.06c4.2,0.13,9.26-0.15,14.31,0.04
		c-1.23,8.4-1.26,16.83-0.64,25.27c-0.51-0.13-1.02-0.25-1.53-0.38c-2.55-2.41-1.19-5.57-1.63-8.39c-0.52-3.39,1.38-7.09-1.32-10.18
		c-1.07-0.35-2.16-0.34-3.25-0.15c-9.02,1.16-9.17,1.69-8.56,10.98C248.3,247.89,251.75,248.05,251.96,250.69z"/>
	<path class="st19" d="M223.86,198.59c-2.66,3.4-6.16,5.68-9.99,7.52c-0.34,0.27-0.72,0.49-1.13,0.65
		c-4.91,0.52-9.47-2.13-14.39-1.59c-1.18-0.09-2.28-0.5-3.44-0.68c-4.99-0.61-9.94-1.88-15.02-0.91c-0.99,0.17-1.99,0.17-2.98,0.01
		c-5.11-1-10.09,0.37-15.11,0.84c-0.67,0.2-1.37,0.29-2.07,0.29c-2.44-0.17-4.75-0.13-6.97,1.33c-2.59,1.7-5.68-0.25-8.44,0.76
		c-0.45-0.07-0.83-0.27-1.15-0.59c-3.84-1.99-7.45-4.27-10.24-7.66c0.27-0.34,0.62-0.56,1.04-0.68c2.51-0.08,3.84,2.36,6.1,2.82
		c0.78,0.24,1.61,0.3,2.34,0.71c0.39,0.16,0.75,0.37,1.11,0.59c7.54-0.68,14.95-2.25,22.48-2.98c8.26-0.02,16.5-0.03,24.74,0
		c7.56,0.71,15.02,2.32,22.58,2.95c0.33-0.24,0.68-0.44,1.04-0.63c1.13-0.41,2.21-0.88,2.85-2c0.77-0.8,1.48-1.65,2.54-2.1
		C221.5,196.54,223.06,196.43,223.86,198.59z"/>
	<path class="st20" d="M100.11,205.02c0.44-0.93,1.04-2.69,1.3-2.64c1.26,0.24,1.12,1.75,1.72,2.66c1.49,1.32,1.34,3.06,1.28,4.75
		c1.25,0.97,2.12-0.98,3.3-0.45c2.27,0.83,2.27,2.94,2.71,4.8c-2.63,4.01,2.02,2.66,2.97,4.03c-0.1,0.82-0.5,1.46-1.19,1.92
		c-4.64,1.87-9.49,0.69-14.25,0.96c-2.42,0.14-4.69,0.25-5.81,2.87c-0.55,0.9-1.22,1.66-2.3,1.92c-0.51-3.42-3.16-7.43,2.94-8.84
		c1.49-0.35-0.14-1.69-0.32-2.58c0.59-1.8,0.56-4.02,3.02-4.59c0.63-0.06,1.3-0.03,1.74,0.42c0.54,0.54,0.78,0.71,0.8-0.26
		C98.92,208.41,98.57,206.31,100.11,205.02z"/>
	<path class="st21" d="M112.37,219.12c0.33-0.32,0.67-0.64,1-0.95c2.18,5.33-1.17,9.6-2.69,14.23c-0.37,0.24-0.75,0.49-1.12,0.74
		c-0.81,0.45-1.69,0.52-2.59,0.41c-1.29-0.24-2.56-0.09-3.84,0.15c-2.4,1.05-5.39-0.52-7.5,1.73c-1.98,3.22-1.35,6.81-1.52,10.29
		c-0.11,2.37,0.71,4.94-1.21,7.01c-0.72,0.3-1.45,0.6-2.17,0.89c0.68-0.83,1.38-1.62,1.35-2.83c-0.16-7.05,0.56-14.14-0.67-21.14
		c-0.23-1.32-1.05-2.53-1.59-3.79c0.28-0.67,0.56-1.34,0.84-2.01c4.31-1.88,8.85-1,13.29-0.99
		C107.46,222.84,110.36,222.17,112.37,219.12z"/>
	<path class="st22" d="M191.29,215.4c-1.58,1.5-3.92,0.39-5.57,1.62c-1.98,0.11-3.97,0.22-5.96,0.34c-0.4,0.35-0.83,0.66-1.29,0.93
		c-0.51,0.19-1.03,0.32-1.57,0.4c-0.54,0.11-1.08,0.23-1.62,0.37c-13.22,0.51-26.44,0.08-39.66,0.23c-6.73,0.07-7.12,0.44-7.17,7.15
		c-0.05,6.84,0.06,13.69-0.06,20.53c-0.04,2.14,0.23,4.45-2.02,5.85c-0.36,0.05-0.72,0.1-1.07,0.15c-2.47,1.74-4.53,1.21-6.26-1.13
		c-0.14-0.33-0.28-0.66-0.42-1c2.15,0.24,4.3,0.48,6.9,0.76c0-9.98,0.26-19.92-0.11-29.84c-0.17-4.64,1.33-5.79,5.74-5.53
		c6.52,0.38,13.08,0.08,19.62,0.07c0.91-1.37,2.34-1.44,3.74-1.35c4.24,0.28,8.34-0.49,12.44-1.43c6.32-0.27,12.65-0.19,18.97-0.1
		C187.93,213.44,190.02,213.37,191.29,215.4z"/>
	<path class="st23" d="M168.05,158c0.29,0.02,0.56,0.09,0.83,0.19c0.45,0.93,1.02,0.46,1.59,0.14c2.8,0.75,2.4-2.68,4.21-3.22
		c0.45-0.07,0.83,0.06,1.16,0.38c0.59,0.7,0.62,1.59,0.8,2.43c0.28,1.02,1.01,1.93,0.8,3.09c-0.17,0.41-0.37,0.8-0.59,1.17
		c-0.59,2.32-0.34,4.97-2.54,6.68c-0.45,0.12-0.88,0.08-1.31-0.09c-3.68-5.4-7.89-6.98-14.09-5.29c-5.47,1.49-6.29,2.91-6.7,11.64
		c-0.43,0.9-1.2,1.37-2.1,1.66c-4.18-0.13-3.17-3.57-3.8-5.97c1.35-1.76,0.66-4.16,1.87-5.97c0.85-3.92,4.74-4.5,7.25-6.6l0.02-0.02
		C159.62,156.74,163.83,157.24,168.05,158z"/>
	<path class="st24" d="M233.48,262.34c-0.42-0.06-0.83-0.12-1.25-0.17c1.62-1.46,4.32-0.78,5.63-2.84c0.48-0.52,1.04-0.62,1.68-0.31
		c1.28,1.56,2.64,1.52,4.05,0.18c1.3-1.68,3.26,0.46,4.64-0.79c0.86,0.53,1.42,2.48,2.81,0.61c0.59-0.34,1.15-0.24,1.67,0.17
		c1.67,2,2.62,0.48,3.63-0.74c2.02-0.89,1.34-3.48,2.92-4.65c1.07-0.07,2.1-0.01,2.9,0.84c-0.37,1.11-0.83,2.15-1.39,3.19
		c-0.6,1.1-0.63,2.33,1.19,2.47c3.13,1.19,4.56-2.25,7.12-2.61c1.09,2.32-0.81,4.89,0.62,7.18c0.81,1.87,2.01,2.93,4.17,2.01
		c-1.07,2.95-1.77,6.22-5.76,6.63c-0.61,0.27-1.24,0.39-1.9,0.28c-1.06-0.87-0.41-1.76,0.27-2.2c2.59-1.71,1.49-3.1-0.23-4.51
		c-0.84-1.22-2.04-1.73-3.48-1.8c-1.21-0.16-2.31-0.73-3.52-0.93c-0.79-0.25-1.53-0.65-2.38-0.68c-1.08,0.07-2.12-0.23-3.15-0.45
		c-3.22-0.67-5.66,0.17-6.88,3.46c-0.38,0.3-0.77,0.34-1.19,0.1c-0.17-6.39-0.17-6.4-6.73-5.4
		C237.08,261.65,235.29,262.02,233.48,262.34z"/>
	<path class="st25" d="M245.86,214.59c-1.29-0.03-1.56-0.95-1.72-1.97c0.5-1.7,2.65-1.76,3.3-3.32c0.37-0.8,0.66-1.64,1.37-2.22
		c1.39-0.85,2.8-1.65,4.51-0.99c0.82,0.49,1.66,0.82,2.55,0.08c1.54-0.71,2.89-0.12,4.23,0.57c0.84,0.57,1.76,0.56,2.72,0.3
		c1.78-0.03,3.18,0.56,3.81,2.37c0.06,0.98-0.21,1.91-0.47,2.84c-0.4,0.97-1,1.76-1.99,2.19c-2.25,1.9-4.8,0.61-7.07,0.34
		C253.33,214.35,249.56,216.39,245.86,214.59z"/>
	<path class="st26" d="M117.94,336.59c0.39,1.87,0.54,3.74-0.02,5.61c-10.57-1.04-21.17-0.03-31.76-0.46
		c-1.77-1.16-1.63-2.66-0.76-4.29c1.09-1.44,2.64-1.76,4.32-1.77c3.02-0.04,6.06-0.22,8.97,0.85c1.86,0.33,3.73,0.07,5.6-0.02
		c2.75-0.8,5.55-1.02,8.39-0.79C114.39,336.27,116.2,336.23,117.94,336.59z"/>
	<path class="st27" d="M119.06,251.82c2.09,0.38,4.18,0.75,6.26,1.13c0.06,2.11,0.1,4.22,0.19,6.32c0.1,2.14-0.96,3.03-3.01,2.93
		c-0.91-0.37-1.81-0.74-2.72-1.11c-0.99-0.7-2.73,0.24-3.26-1.48c1.66-2.89-2.44-3.45-2.31-5.71
		C115.46,252.32,117.19,251.91,119.06,251.82z"/>
	<path class="st28" d="M87.77,332.41c9.24,0.01,18.49,0.01,27.74,0.02c3,0.2,3.19,1.97,2.42,4.29c-5.67-1.23-11.25-0.2-16.92,0.23
		c-4.31,0.32-8.72-2-13.27-0.83c-1.78-0.1-3.42-0.31-2.48-2.81C86.09,333.01,86.93,332.71,87.77,332.41z"/>
	<path class="st29" d="M117.09,343.3c1.16,0.33,1.41,1.13,0.93,2.11c-0.45,0.92-1.34,0.68-2,0.36c-4.35-2.11-8.64-1.55-12.95,0.13
		c-0.55,0.21-1.31,0.35-1.81,0.13c-5.28-2.29-10.63-1.43-15.98-0.42c-1.22-4.59,3.5-2.71,4.88-4.47c0.45-0.18,0.91-0.28,1.39-0.31
		c4.51-0.33,8.81,2.71,13.42,0.83C109.28,340.12,113.36,340.36,117.09,343.3z"/>
	<path class="st30" d="M245.86,214.59c6.09-1.96,12.19-1.4,18.31-0.14c-3.86,4.49,2.61,1.9,2.58,3.76
		c-0.57,0.24-1.15,0.47-1.72,0.71c-0.52,1.04-1.38,1.74-2.48,1.87c-5.21,0.6-10.43,0.55-15.65,0.03c-1.11-0.11-1.98-0.8-2.55-1.79
		c-0.4-0.36-0.79-0.72-1.19-1.08C243.98,216.76,248.26,218.37,245.86,214.59z"/>
	<path class="st31" d="M240.83,345.53c-0.91-0.39-2.6-0.91-0.48-1.73c2.67-1.03,5.57-1.49,8.37-2.19c3.78-0.12,7.65,1.45,11.33-0.64
		c3.89-0.49,7.53,0.07,10.67,2.61c-0.03,0.94-0.03,2-1.32,2.01c-0.9,0-1.82-0.52-2.69-0.43
		C258.08,346.04,249.43,344.05,240.83,345.53z"/>
	<path class="st32" d="M147.6,337.78c0.48,0.13,0.96,0.26,1.43,0.39c0.7,1.77,2.41,1.74,3.86,2.15c16.01,4.5,32.09,4.63,48.23,0.68
		c2.08-0.51,4.08-1.56,6.34-1.14c-13.5,5.61-27.6,5.66-41.78,4.2c-6.48-0.67-12.96-1.77-18.79-5.04c0.17-0.4,0.34-0.8,0.51-1.19
		C147.4,337.82,147.6,337.78,147.6,337.78z"/>
	<path class="st33" d="M255.77,206.95c-0.29,0.94,0.31,2.6-0.92,2.66c-1.28,0.06-0.97-1.59-1.2-2.57c-1.96-1.24-3.54-0.94-4.66,1.17
		c-0.02,0.76-0.04,1.51-0.07,2.27c-1.28,0.67-1.93-0.34-2.71-1c-0.69-1.15-2.14-1.21-3-2.12c-0.27-2.29,1.55-1.94,2.87-2.32
		c2.67-0.76,5.86,0.12,7.96-2.46c0.35-0.43,0.79-0.59,1.1-0.2c2.2,2.81,5.56,1.94,8.39,2.61c4.28,1.01,5.15,3.13,2.63,7.25
		c0.01-0.88,0.02-1.75,0.02-2.62c-1.42-2.36-1.75-2.49-3.82-1.49c-0.47,0.56-0.94,1.12-1.4,1.68c-0.17-0.54-0.33-1.08-0.5-1.63
		C259.36,206.05,257.72,205.91,255.77,206.95z"/>
	<path class="st34" d="M136.71,277.18c0.45-0.29,0.89-0.57,1.34-0.86c-0.83,10.5-0.26,21.02-0.37,31.53
		c-0.08,8.51,0.06,17.02,0.11,25.53c-2.77-0.55-4-2.94-5.73-4.74c-0.39-0.5-0.33-0.93,0.18-1.3c2.82-0.82,2.51-3.14,2.51-5.29
		c0.02-12.84-0.04-25.69,0.04-38.53C134.8,281.26,134.38,278.78,136.71,277.18z"/>
	<path class="st35" d="M88.54,335.2c3.15-1.24,6.26-1.41,9.42,0.07c2.03,0.95,4.33,1.24,6.31,0.28c4.87-2.36,9.27-1.15,13.65,1.18
		c0,0,0.02-0.14,0.02-0.14c-1.33,1.65-2.87,1.82-4.62,0.69c-3.43-1.77-6.63-0.23-9.88,0.68c-1.45-0.82-2.65,1.54-4.12,0.32
		c-3.07-2.25-6.46-1.97-9.9-1.25c-0.93,0.3-1.86,0.6-2.8,0.9c-0.84-0.05-1.61-0.59-1.42-1.3C85.68,334.96,87.56,336.02,88.54,335.2z
		"/>
	<path class="st36" d="M132.04,327.51c0.01,0.38,0.02,0.75,0.03,1.13c-4.55-5.1-6.74-10.99-6.6-17.9
		c0.22-11.53,0.15-23.06,0.2-34.59c0.64,0.09,1.29,0.17,1.93,0.26c1.23,2,0.75,4.23,0.83,6.38c0.39,11.18-0.83,22.39,0.82,33.55
		c0.37,2.51,1.03,4.85,2.59,6.88c0.35,0.41,0.65,0.86,0.9,1.35C133.04,325.68,133.01,326.71,132.04,327.51z"/>
	<path class="st37" d="M116.98,258.98c0.4,1.42,2.02,1.21,2.81,2.11c-1.66,0.02-3.36-0.17-4.98,0.12c-1.51,0.27-3.97-1.23-4.25,1.87
		c-0.2,2.21-0.28,4.35,2.72,4.84c0.46,0.07,0.82,0.75,1.22,1.14c-1.67,1.55-0.01,2.31,0.78,3.28c-1.63,2.75-4.11,4.23-7.19,4.83
		c0.03-3.94,0.17-7.87,0.09-11.81c-0.03-1.5,0.25-3.08-1.1-4.24c-0.09-0.22-0.19-0.44-0.28-0.66c-0.01-0.46-0.03-0.92-0.04-1.38
		c0.36-0.29,0.68-0.25,0.97,0.11c3,1.24,5.49-2,8.47-0.97C116.55,258.39,116.81,258.64,116.98,258.98z"/>
	<path class="st38" d="M117.09,343.3c-3.17-0.09-5.98-2.1-9.28-1.69c-0.99,0.12-1.79,0.26-2.42,1.04c-3.01,0.92-5.95,0.65-8.88-0.42
		c-1.81-0.66-3.66-1.62-5.66-0.54l0.04-0.01c-1.35,0.69-2.72,1.34-4.27,1.43c-0.64,0.04-1.35-0.17-1.39-0.84
		c-0.05-0.84,0.56-1.35,1.45-1.41c4.21-1.34,8.35-2.03,12.64-0.02c1.85,0.86,4.03,0.47,5.92-0.35c4.61-2.01,8.74-0.88,12.69,1.71
		C117.64,342.56,117.36,342.93,117.09,343.3z"/>
	<path class="st39" d="M231.62,251.9c-0.35,0.04-0.7,0.09-1.05,0.13c-1.81-1.42-1.1-3.44-1.12-5.2c-0.14-9.32,0.12-18.64-0.15-27.96
		c-0.13-0.56-0.38-1.07-0.74-1.52c-7.35-0.08-14.69-0.16-22.04-0.23c7.64-1.91,15.38-0.64,23.08-0.7c2.07-0.02,1.64,2.31,1.65,3.78
		c0.04,8.87,0,17.74,0.03,26.61C231.28,248.5,231.5,250.2,231.62,251.9z"/>
	<path class="st40" d="M87.12,286.44c-1.55,2.12-4.7,3.33-3.7,6.91c0.6,2.14,1.16,3.68,3.68,1.87c1.79-1.28,3.69-2.36,6.02-2.21
		c0.1,0.53-0.09,0.93-0.54,1.22c-2.88,0.04-4.44,0.69-2.62,4.04c1.31,2.4,0.32,4.76-1.59,7.1c-1.1-1.83-1.94-3.63-3.51-4.83
		c0.4-0.53,0.98-0.71,1.68-0.88c-0.97-0.62-1.52,0.28-2.22,0.46c-1.99-2.78-2.02-6.17-2.26-9.28
		C81.82,287.97,84.67,287.08,87.12,286.44z"/>
	<path class="st41" d="M223.86,198.59c-1.24-1.19-2.52-0.71-3.81-0.11c-2.16-0.39-5.49,0.2-3.23-3.87c0.68-0.42,1.43-0.43,2.26-0.32
		c-1.02-0.54-1.99-0.22-2.96-0.05c-1.39-2.55-0.81-4.11,2.47-4.74c3.02-0.58,5.91-1.57,8.91-2.16c0.62,0.62,1.24,1.23,1.86,1.85
		c-0.8,1.82-2.77,3.27-1.84,5.66C226.66,196.44,226.31,198.54,223.86,198.59z"/>
	<path class="st42" d="M174.68,155.1c0.68-1.7,3.21-2.75,0.3-5.32c-2.61-2.3,1.49-4.14,2.55-5.78c1.14-1.78,1.81,0.9,2.76,1.92
		c1.81,1.95,3.24,3.15,0.23,5.3c-0.55,0.39,0.32,2.77,0.54,4.23c-1.13,1.43-2.26,2.07-2.6-0.42c-0.25-1.81-0.05-3.68-0.06-5.52
		c-0.01,1.7,0.09,3.41-0.02,5.11c-0.21,3.19-1.7,2.16-3.21,0.9C175.01,155.38,174.85,155.24,174.68,155.1z"/>
	<path class="st43" d="M245.63,266.78c0.17,0.02,0.34,0.03,0.5,0.01c3.18,2.88,2.35,6.13,0.86,9.44c-2.68,0.2-4.19-2.34-6.69-3.02
		c-1.91,4.03,0.32,6.99,2.19,10.02c-4.73-2.15-4.07-6.04-3.88-10.27C238.83,267.94,242.99,268.46,245.63,266.78z"/>
	<path class="st44" d="M95.54,210.69c-1.68,0.7-0.38,3.87-3.08,3.73c-4.52-4.68-4.57-5.38-0.55-8.56
		C95.28,205.85,97.42,206.76,95.54,210.69z"/>
	<path class="st45" d="M155.43,158.24c0.63,2.18-1.06,2.69-2.46,3.26c-2.04,0.83-2.54,3.07-4.12,4.29
		c-0.66-0.55-1.19-1.25-1.98-1.64c-1.05-0.31-2.65,0.31-3.05-1.01c-0.34-1.11,1.39-1.28,1.88-2.16c1.57,0.2,3.04,0.26,4.23-1.12
		C151.38,158.16,153.35,157.95,155.43,158.24z"/>
	<path class="st46" d="M267.36,294.92c5.68,1.37,5.69,1.36,6.07-6.1c1.95,4.33,0.54,8.29-1.84,11.82c-0.98,1.45-2.42,2.69-3.31,4.62
		c-2.48-2.88-3.46-5.55-0.53-8.5c0.37,0.4,0.77,0.78,1.05,1.26c-0.28-0.48-0.69-0.85-1.08-1.23
		C267.61,296.16,267.48,295.54,267.36,294.92z"/>
	<path class="st16" d="M166.5,215.4c-5.13,2.23-10.49,0.26-15.71,0.89c-1.96-0.83-3.92-1.65-5.87-2.48
		c0.13-0.15,0.25-0.31,0.38-0.46c0.96-1.27,2.18-2.01,3.82-1.92c1.41,0.9,3.1,0.49,4.6,1c2.67,1.17,5.57,0.33,8.31,0.93
		C163.69,213.73,165.47,213.68,166.5,215.4z"/>
	<path class="st47" d="M210.44,172.19c-1.13-0.12-1.76-1.06-1.78-1.89c-0.12-4.36-2.61-7.26-5.67-9.89
		c-0.05-0.81,0.62-0.89,1.14-1.13c2.48,0.45,3.93,3.61,6.94,2.66c2.34,1.43-0.6,1.73-0.67,1.77c-1.95,1.34-0.85,2.25,0.35,3.18
		C212.22,168.75,212.66,170.55,210.44,172.19z"/>
	<path class="st48" d="M110.4,214.14c-2.72-0.3-1.56-3.13-2.83-4.37c-1.07-3.56,0.97-4.08,3.77-3.86
		C115.95,209.21,113.04,211.66,110.4,214.14z"/>
	<path class="st49" d="M265.95,273.42c0.71,0.03,1.43,0.06,2.14,0.09c-4.58,1.53-5.54,5.18-3,11.43c-1.66-0.81-3.73-0.82-4.93-2.53
		c2.17-4.06,0.63-8.44,1.05-12.65c0.21-2.1-0.31-4.39,1.92-5.8c1.54,0.07,3.26-0.19,3.66,1.98
		C266.43,268.43,265.05,270.8,265.95,273.42z"/>
	<path class="st50" d="M175.16,155.54c5.17,0.67,2.79-3.84,2.35-4.76c-1.08-2.27-0.12-3.55,0.92-5.11c0.81,1.64,1.97,2.99,0.75,5.22
		c-0.44,0.8-2.5,4.64,1.87,4.58c0,0,0.4-0.07,0.4-0.07c-0.03,0.93-0.05,1.87-0.08,2.8c-2.02,1.85-4.03,1.77-6.03-0.02
		C175.28,157.29,175.22,156.41,175.16,155.54z"/>
	<path class="st51" d="M110.8,318.05c-0.48,0.09-0.95,0.19-1.43,0.28c-1.17-1.23-1.2-2.76-1.19-4.32
		c0.07-9.09-0.13-18.18,0.12-27.26c0.63-0.82,1.49-1.11,2.49-1.08C110.8,296.46,110.8,307.26,110.8,318.05z"/>
	<path class="st52" d="M270.71,343.58c-3.81-0.35-7.28-2.81-11.3-1.82c-0.99,0.53-1.87,0.84-1.86-0.84
		c5.71-2.32,10.14-1.69,13.7,1.96C271.22,343.23,271.04,343.46,270.71,343.58z"/>
	<path class="st53" d="M134.02,198.5c-0.36,0.02-0.72,0.04-1.08,0.06c-1.6-0.22-2.68-1-2.93-2.69c0.66-0.72,1.32-1.43,1.98-2.15
		c-0.94-1.02-1.15-2.13-0.44-3.37c1.68-1.28,2.55,0.04,3.51,1.08c0.26,3.14,2.82,2.74,4.87,3.15c2.08,3.33-0.31,3.89-2.74,4.43
		C136.04,199.42,135.18,198.02,134.02,198.5z"/>
	<path class="st54" d="M168.05,158c-0.33,0.3-0.74,0.91-0.99,0.86c-3.84-0.86-7.8,0.52-11.61-0.64
		C158.25,155.53,164.48,155.42,168.05,158z"/>
	<path class="st55" d="M134.85,161.88c0.61,2.78-1.55,2.79-3.26,3.44c-1.7,0.65-3.28,1.62-4.92,2.45c-0.95,0.5-1.21-0.07-1.32-0.86
		C127.82,163.91,130.71,161.72,134.85,161.88z"/>
	<path class="st56" d="M111.34,205.91c-2.38,0.19-3.17,1.93-3.77,3.86c-0.95,0.63-1.16,1.93-1.87,2.53
		c-1.63,1.37-3.42,1.83-3.54-1.36c2.24-1.37,2.13-4.63,4.65-5.78C108.33,205.29,110.01,204.56,111.34,205.91z"/>
	<path class="st57" d="M90.74,253.65c2.08,2.21,3.62,4.57,1.95,7.73c-2.46-0.7-1.88-3.74-3.75-4.9c-2.31-1.49-3.89,1.51-6.05,0.98
		C85.1,255.34,87.7,254.04,90.74,253.65z"/>
	<path class="st58" d="M95.54,210.69c-0.06-2.47-0.91-4.36-3.64-4.82c1.33-1.27,2.98-0.62,4.49-0.75c1.8,1.37,3.55,2.77,2.12,5.4
		c0.75,0.67,1.49,1.33,2.26,2.02C97.76,215.06,97.28,211.24,95.54,210.69z"/>
	<path class="st59" d="M92.57,294.23c0.18-0.41,0.36-0.81,0.54-1.22c0.33-0.02,0.66-0.04,0.99-0.07c1.02,1.4,1.54,2.93,1.56,4.7
		c0.05,5.36,0.07,10.73-0.02,16.09c-0.03,1.77-0.5,3.31-1.75,4.59c-1.95-1.54-1.02-3.7-1.07-5.57c-0.18-5.98-0.17-11.96-0.24-17.94
		C92.58,294.63,92.57,294.43,92.57,294.23z"/>
	<path class="st60" d="M123.57,177.72c0.48,1.71,0.95,3.43,1.43,5.14c0.54,1.91-0.46,2.51-2.14,2.52c-1.15-2.65-2.3-5.31-2.08-8.3
		c0.19-0.28,0.44-0.47,0.76-0.58c0.52-0.01,0.95,0.19,1.31,0.56C123.07,177.29,123.31,177.51,123.57,177.72z"/>
	<path class="st61" d="M86.66,340.86c-0.52,0.7-2.17,1.74,0.3,1.74c1.3,0,2.61-0.59,3.91-0.92c-1.21,2.25-4.99,0.85-5.61,3.94
		c-0.98-4.1-0.93-8.2-0.02-12.3c0.31,2.01,1.92,1.74,3.3,1.89c-0.04,1.33-4.38-0.37-1.92,2.72
		C85.17,338.92,85.14,339.9,86.66,340.86z"/>
	<path class="st62" d="M227.54,194.85c-0.86-0.96-3.15-0.32-2.79-2.7c0.44-2.88,3.24-1.74,4.63-2.95c0.76,0.64,2.96,0.98,0.43,2.28
		c-0.63,0.32-1.49,0.8-0.4,1.65C228.78,193.7,228.16,194.27,227.54,194.85z"/>
	<path class="st63" d="M196.78,159.16c-1.31,0.03-2.63,0.07-3.94,0.1c-1.56-1.61-4.27,0.28-5.66-1.85c4.73-1.25,9.46-2.3,14.08,0.39
		C200.08,159.28,198.02,157.86,196.78,159.16z"/>
	<path class="st64" d="M225.01,163.69c-3.5,1.42-6.69-1.71-10.18-0.72c-0.08,0.02-0.56-0.72-0.54-1.09
		c0.03-0.79,0.68-0.78,1.33-0.85c2.78-0.3,5.38,0.74,8.08,0.99C224.13,162.57,224.57,163.13,225.01,163.69z"/>
	<path class="st65" d="M247.02,208.44c0.64,0.68,1.28,1.36,1.91,2.04c-0.8,2.49-2.93,2.01-4.79,2.14c-0.54-0.6-1.08-1.2-1.62-1.8
		C243.34,208.74,244.41,207.12,247.02,208.44z"/>
	<path class="st66" d="M115.28,272.34c-1.13,0.4-2.26,0.81-3.73,1.33c0.2-2.33-1.41-5.3,2.95-4.61c0.79,0.53,1.58,1.05,2.37,1.57
		c0.62,0.26,0.64,0.57,0.06,0.91C116.39,271.8,115.83,272.07,115.28,272.34z"/>
	<path class="st67" d="M232.34,181.7c-0.26-2.12,0.31-3.94,1.97-5.36c2.17,2.32,2.1,3.03-0.59,6.31
		C233.19,182.43,232.67,182.21,232.34,181.7z"/>
	<path class="st68" d="M84.31,300.13c0.58-1.46,1.36-3.32,3.08-2.82c2.27,0.66,1.61,2.91,1.49,4.92c-1.59-0.16-2.37-2.08-4.02-1.69
		C84.57,300.54,84.39,300.4,84.31,300.13z"/>
	<path class="st69" d="M106.8,205.15c-0.77,2.55-1.23,5.35-4.65,5.78c0.94-1.86,0.7-3.92,0.96-5.89
		C104.35,205.08,105.57,205.11,106.8,205.15z"/>
	<path class="st70" d="M109.49,232.06c0.4,0.11,0.8,0.22,1.19,0.33c-0.01,5.8-0.02,11.6-0.03,17.4c-0.51,0.54-1.01,0.54-1.52,0
		C107.75,243.86,107.27,237.93,109.49,232.06z"/>
	<path class="st71" d="M98.51,210.52c-0.27-1.97-2.25-3.27-2.12-5.4c1.24-0.03,2.47-0.07,3.71-0.1
		C99.6,206.86,101.84,209.49,98.51,210.52z"/>
	<path class="st72" d="M116.94,271.54c0.06-0.31,0.04-0.61-0.06-0.91c2.67,6.87,2.21,9.11-2.61,12.58
		C117.5,279.85,117.37,275.73,116.94,271.54z"/>
	<path class="st73" d="M187.18,157.4c1.59,0.02,3.17,0.06,4.76,0.06c1.51,0,1.09,0.95,0.9,1.8c-1.62,0.19-3.23,0.47-4.85,0.56
		c-3.08,0.16-2.11-1.13-0.82-2.48C187.18,157.33,187.18,157.4,187.18,157.4z"/>
	<path class="st74" d="M196.78,159.16c0.3-4.33,3.31,0.16,4.48-1.37c0.96,0.5,1.91,1,2.87,1.5c-0.38,0.38-0.76,0.76-1.14,1.13
		C200.92,160,198.85,159.58,196.78,159.16z"/>
	<path class="st75" d="M212.42,205.96c0.48,0.05,0.96,0.1,1.45,0.15c0.6,2-0.22,3.2-2.13,3.78c0,0-0.08-0.13-0.08-0.13
		c-1.08-1.01-3.78-0.81-3.06-3.11C209.19,204.78,211,205.48,212.42,205.96z"/>
	<path class="st76" d="M232.34,181.7c0.63,0.06,1.64-0.42,1.38,0.95c-0.48,1.51-0.97,3.02-1.45,4.54c-1.44,0.43-3.01,0.93-2.01-1.59
		C230.81,184.24,231.64,183,232.34,181.7z"/>
	<path class="st77" d="M247.02,208.44c-1.98-0.12-3.06,1.46-4.5,2.37c-0.92-1.38-0.26-2.44,0.69-3.45
		C244.58,207.39,246.78,204.47,247.02,208.44z"/>
	<path class="st22" d="M109.58,250.08c0.36-0.09,0.72-0.18,1.08-0.28c2.57,0.76,5.38-0.11,7.88,1.12c-3.97-0.09-7.93-0.17-11.9-0.26
		c-0.08-0.49,0.08-0.87,0.48-1.16C108.07,249.12,108.9,249.27,109.58,250.08z"/>
	<path class="st78" d="M82.95,267.82c1.64,0.35,2.61-1.47,4.58-1.38c-1.24,1.83-2.66,3.37-2.25,5.53
		C83.95,270.89,83.57,269.29,82.95,267.82z"/>
	<path class="st40" d="M92.74,282.25c0.62,0.35,1.24,0.69,1.86,1.04c-2.1,2.02-4.64,3-7.52,3.19
		C88.48,284.41,91.9,285.05,92.74,282.25z"/>
	<path class="st79" d="M143.19,206.22c0.42-0.06,0.83-0.12,1.25-0.19c1.08-0.15,2.17-0.14,2.64,1.06c0.35,0.87-0.27,1.35-1.05,1.6
		c-0.69,0.12-1.37,0.24-2.06,0.36C141.91,208.6,143.17,207.24,143.19,206.22z"/>
	<path class="st80" d="M121.49,176.9c-0.25,0.02-0.48,0.07-0.71,0.17c0.52-1.92-0.49-4.64,2.71-5.14c0.05,0.39,0.11,0.77,0.16,1.16
		c-0.6,0.91-0.42,2-0.66,2.99C122.67,176.69,122.17,176.97,121.49,176.9z"/>
	<path class="st81" d="M125.35,166.91c0.44,0.29,0.88,0.57,1.31,0.86c-0.41,0.73-1.08,0.89-1.85,0.84
		C124.19,167.78,124.58,167.29,125.35,166.91z"/>
	<path class="st82" d="M170.47,158.33c-0.1,0.74-0.63,0.92-1.23,0.79c-0.47-0.1-0.62-0.48-0.35-0.93
		C169.41,158.23,169.94,158.28,170.47,158.33z"/>
	<path class="st83" d="M192.12,271.74c-0.06,2.73-0.12,5.46-0.18,8.19c0.91,5.97-1.55,10.53-5.97,14.27
		c-3.3,2.67-7.61,2.04-11.28,3.49c-2.17,1.27-1.89,3.42-1.9,5.42c-0.03,7.02-0.05,14.03,0.01,21.05c0.02,2.39-0.3,4.65-1.44,6.77
		c-0.49,0.47-0.98,0.94-1.47,1.41c-4.02,1.3-3.58-1.75-3.61-3.92c-0.11-10.85-0.05-21.7-0.05-32.55c0-1.69,0.28-3.43-0.81-4.94
		c-1.42-2.67-4.16-5.11-1.6-8.52c0.31-4.68,0.62-9.35,0.93-14.03c-0.27-0.37-0.4-0.78-0.4-1.24c0.42-1.76,0.87-3.5,2.13-4.9
		c1.02-0.72,1.99-1.5,2.81-2.44c3.14-3.63,7.11-3.88,11.4-2.85C187.96,259.22,190.94,264.79,192.12,271.74z"/>
	<path class="st84" d="M204.84,250.02c-0.87-0.51-1.73-1.01-2.6-1.52c-0.37-1.38-1.89-2.37-1.39-4.05
		c4.54-4.62,6.96-4.19,10.36,1.84c0.77,1.08,1.54,2.17,2.31,3.25c1.21,2.3,3.52,1.63,5.44,2.02c0.44,0.56,0.5,1.08-0.18,1.51
		c-5.26,3.32-5.33,4.36-0.54,8.16l-0.02-0.03c0.24,3.11-2.54,5.56-1.91,8.75c-1.22,0.75-2.12-0.1-3.08-0.63
		c-1.08-1.38-3.8-2.65,0.03-4.16c1.28-0.5,0.79-2.46-0.24-2.34c-5.18,0.6-4.61-3.08-4.99-6.15
		C209.46,253.26,206.54,251.93,204.84,250.02z"/>
	<path class="st85" d="M219.24,251.7c-2.14-0.11-4.87,1.36-5.72-2.16c1.67,0.89,3.41,1.93,5.15,0.36c1.67-1.5,1.05-3.45,0.55-5.24
		c-1.71-6.14-1.92-12.21,0.71-18.15c0.36-0.82-0.7-3.5,2.1-1.97c1.57,0.86,2.18-1.48,4.16-1.32c-1.02,4.07-0.64,8.53-5.17,10.92
		c-0.27-0.37-0.33-0.76-0.2-1.2c-0.19,0.44-0.1,0.84,0.21,1.2c-1.37,3.14-0.39,6.02,0.82,8.95c1.27,3.06,2.25,6.22-0.58,9.07
		C220.59,252.01,219.9,251.91,219.24,251.7z"/>
	<path class="st86" d="M211.21,246.29c-2.78-2.96-5.71-5-9.58-1.65c-0.42-0.03-0.8-0.18-1.12-0.45c-1.18-1.11-3-1.54-3.62-3.27
		c-0.25-0.33-0.48-0.68-0.71-1.03c-2-2.09-4.97-3.72-3.54-7.44c2.58,2.06,5.56,2.35,8.69,1.94c0.27,0.34,0.38,0.73,0.33,1.15
		c-0.37,3.41,2.5,2.84,4.25,3.1c2.47,0.36,3.59-1.56,4.05-3.65c0.56-2.54,0.13-5.34,2.15-7.45c1.01-0.61,1.68-0.13,2.24,0.7
		c0.23,2.75-1.14,5.55,0.45,8.28c1.17,2-1.22,2.64-2,3.5C211.01,241.97,210.17,243.79,211.21,246.29z"/>
	<path class="st87" d="M228.55,217.35c0.12-0.12,0.27-0.17,0.44-0.16c1.38,0.62,0.86,1.87,0.86,2.86
		c0.03,17.57,0.03,35.15,0.01,52.72c0,0.9,0.24,1.89-0.62,2.6c-11.05,0.03-22.1,0.08-33.15,0.04c-1.07,0-2.58,0.75-3.13-1.05
		c5.91,0,11.81,0.01,17.72-0.03c1.67-0.01,3.48,0.36,4.76-1.22c0.35-0.25,0.6-0.18,0.76,0.21c3.05,1.7,6.37,0.94,9.58,0.95
		c3.08,0.01,2.66-2.43,2.67-4.39c0.02-13.95,0-27.9,0.01-41.85C228.47,224.48,228.52,220.91,228.55,217.35z"/>
	<path class="st88" d="M209.29,256.62c-0.46,2.37-1.77,4.85,2.75,4.86c2.11,0,4.25,2.15,1.39,4.28c-1.91,1.41,0.75,2.81-0.59,3.87
		c-0.64,0.79-1.31,0.76-1.99,0.05c-0.01-0.31-0.04-0.62-0.02-0.93c0.15-1.79-2.83,0.1-2.28-1.82c0.44-1.53,2.07-1.66,3.44-1.91
		c0.42-0.08,0.84-0.2,1.53-0.61c-4.82,0.11-5.81-3.23-6.36-6.78c-0.57,0.13-1.08,0.22-1.07,0.26c0.34,4.19,0.53,8.14-5.8,6.38
		c-0.45-0.13-1.37,1.08-1.93,1.78c-1.01,1.25-2,1.14-2.23-0.32c-0.4-2.56-2.55-2.2-4.49-2.94c1.79-1.76,3.01-3.75,5.42-4.39
		c0.82,1.58,1.23,3.46,3.74,3.35c2.43-0.1,1.81-1.93,2.26-3.24c0.88-2.54,2.59-3.69,5.32-2.83
		C208.76,255.91,209.07,256.23,209.29,256.62z"/>
	<path class="st89" d="M207.74,256.47c-1.88-0.08-3.43,0.18-3.38,2.64c0.03,1.32,1.96,3.26-0.46,3.85c-2.06,0.5-4.55,0.55-6.5-0.17
		c-2.11-0.78-0.38-2.89-0.33-4.42c1.25,0.65,2.5,1.31,3.74,1.96c1.5-2.62-2.36-4.95-0.4-7.59l-0.06,0.04
		c1.58-1.36,3.65-0.36,5.37-1.13c1.6-0.71,2.77,0.13,3.47,1.47C210.01,254.71,209.24,255.8,207.74,256.47z"/>
	<path class="st90" d="M192.64,232.45c1.43,2.23,1.88,5.33,5.24,5.81c-0.17,0.39-0.33,0.77-0.5,1.16c-0.43,1.48-1.34,1.87-2.78,1.34
		c-4-1.48-5.38-6.03-9.11-7.95c-0.28-0.14-0.14-3.26-1.05-4.83c1.37-1.16,3.1,1.08,4.65-0.64c0.77-0.86,1.67,0.13,1.34,1.3
		C189.84,230.73,190.65,231.91,192.64,232.45z"/>
	<path class="st91" d="M180.69,256.96c-5.58-0.11-9.61,3.27-13.84,6.18c-0.19-0.2-0.37-0.4-0.56-0.61c-0.32-0.82-0.22-1.61,0.2-2.37
		c0.73-1.45,1.96-2.65,3.3-3.19c5.08-2.04,5.4-6.07,5.28-10.69c-0.2-7.62-0.08-15.24-0.04-22.86c0.01-2.18-0.12-4.41,1.75-6.05
		c0.39-0.01,0.78-0.02,1.18-0.03c1.31,1.62,0.86,3.56,0.89,5.38c0.16,11.27-0.23,22.54,0.19,33.81
		C179.59,256.69,180.14,256.82,180.69,256.96z"/>
	<path class="st86" d="M184.44,227.98c2.07,2.89,3.99,5.9,6.26,8.62c1.65,1.97,3.36,4.52,6.69,2.82c0.14,0.24,0.28,0.48,0.42,0.73
		c-1.74,5.09-4.79,6.87-9.67,5.67c-0.41-0.19-0.83-0.33-1.26-0.44c-0.55-0.66-2.02-0.65-1.81-1.75c0.27-1.39,1.62-1.27,2.65-1.04
		c0.87,0.2,1.63,0.92,2.5,1.09c1.5,0.3,2.94-0.46,3.5-1.68c0.72-1.6-0.97-2.01-2.04-2.37c-2.07-0.7-3.59-1.78-4.06-4.07
		c-0.62-2.99-3.56-0.44-5.05-2.19C183.28,231.72,185.13,230.23,184.44,227.98z"/>
	<path class="st92" d="M201.36,235.03c0.06-0.21,0.05-0.42-0.03-0.63c0.37-4.72-5.38-3.89-6.46-7.51c2.44-2.46,4.07,0.63,6.23,1.41
		c-1.09-4.05,1.79-3.38,3.92-3.62c0.12,0.18,0.24,0.37,0.37,0.55c-0.09,2.39,1.62,4.85-0.17,7.18
		C204.24,233.69,203.6,235.57,201.36,235.03z"/>
	<path class="st92" d="M205.02,224.68c1.33-1.6,3.27-2.96,1.53-5.8c5.22,1.49,8.77,4.2,11.34,8.3c-0.95,1.03-2.31,0.36-3.39,0.78
		c-1.56-1.19-2.6-3.45-5.18-2.5c-1.79,1.95-3.38,2.66-4.25-0.72L205.02,224.68z"/>
	<path class="st93" d="M179.04,256.55c-1.76-1.26-1.03-3.12-1.04-4.72c-0.07-11.49-0.04-22.98-0.04-34.47
		c0.38-0.04,0.75-0.08,1.13-0.13c0.34,12.78,0.53,25.57-0.1,38.35C179.01,255.9,179.02,256.22,179.04,256.55z"/>
	<path class="st94" d="M178.99,255.58c0.03-12.78,0.06-25.56,0.1-38.35c0.25-0.05,0.47-0.01,0.69,0.12
		c0.01,11.26,0.03,22.52,0.01,33.79C179.78,252.65,180.11,254.25,178.99,255.58z"/>
	<path class="st95" d="M195.92,247.41c-2.23,1.36-6.15,0.52-5.82,5.02c-2.7-0.91-2.07-5.22-5.57-3.72c0.11-2.21,2.12-1.97,2.33-3.33
		c0.16,0.08,0.32,0.06,0.46-0.05c2.51,2.03,5.55-0.64,8.12,0.9C195.72,246.58,195.88,246.97,195.92,247.41z"/>
	<path class="st96" d="M207.74,256.47c2.03-2.95,1.43-4.31-2.3-3.92c-1.69,0.17-3.39,0.17-5.09,0.24c0.29-2.88,4.05-0.14,4.49-2.77
		c5.39,1.49,6.29,2.82,4.45,6.6C208.77,256.57,208.26,256.52,207.74,256.47z"/>
	<path class="st97" d="M219.24,251.7c0.86-0.67,1.51-0.35,2.04,0.46c-0.33,0.31-0.6,0.72-0.99,0.91c-5.76,2.83-5.9,3.37-2.05,8.16
		c-2.27-0.28-3.45-1.59-3.75-3.82C214,253.76,217.37,253.37,219.24,251.7z"/>
	<path class="st98" d="M208.08,223.85c0.03-1.03,0.38-2.1,1.54-1.32c2.04,1.38,4.89,2.17,4.89,5.42c0,0-0.16,0.27-0.16,0.27
		c-0.66-0.33-1.33-0.65-2-0.98C209.73,227.62,208.82,225.84,208.08,223.85z"/>
	<path class="st99" d="M210.85,269.67c0.66-0.02,1.33-0.03,1.99-0.05c1.1-1.22,2.25,0.45,3.36-0.05c0.38-0.38,0.74-0.38,1.08,0.05
		c-0.36,1.24-0.71,2.48-1.07,3.72c-0.25-0.08-0.51-0.15-0.76-0.21c-0.82-1.06-0.82-3.01-3.3-1.51
		C209.98,272.91,210.77,270.72,210.85,269.67z"/>
	<path class="st100" d="M201.63,244.64c-0.76,1.44,1.01,2.48,0.61,3.86c-1.66-2.97-4.01-1.91-6.32-1.08c0,0-0.29-0.3-0.29-0.3
		c-0.21-4.59,2.73-3.74,5.5-3.18C201.27,244.19,201.43,244.42,201.63,244.64z"/>
	<path class="st101" d="M200.41,252.75c-0.5,1.61,0.23,2.88,1.12,4.1c1.03,1.43,1.33,2.7-0.72,3.49
		C200.34,257.83,197.49,255.44,200.41,252.75z"/>
	<path class="st102" d="M217.28,269.61c-0.36-0.02-0.72-0.03-1.08-0.05c-1.62-3.34,1.47-5.55,2.01-8.37
		c1.87,0.97,0.63,2.08,0.07,3.05C217.3,265.94,216.82,267.68,217.28,269.61z"/>
	<path class="st103" d="M192.07,282.05c1.09-2.74,3.34-2.19,5.48-1.93c0.1,0.29,0.2,0.84,0.3,0.84c4.31,0.05,8.64,0.28,12.92-0.1
		c0.95-0.08,2.33-1.29,3.36-0.83c3.15,1.4,5.86,2.18,9.35,0.13c1.72-1,4.13,1.42,2.64,3.73c-1.91,2.96-2.06,5.32,0.23,7.92
		c0.25,0.29,0.34,0.99,0.17,1.35c-1.7,3.68-2.73,7.3-0.06,11.06c0.2,0.28-0.74,1.63-1.39,2.21c-1.23,1.09-1.66,2.19-0.72,3.64
		c-0.32,2.33-1.4,0.85-2.27,0.46c-0.97-1.86-2.11-3.57-4.6-2.66c-3.96,1.44-7.14,0.06-10.08-2.5c-0.29-0.65-0.31-1.31-0.11-1.98
		c2.48-3.2,5.61-3.92,9.49-2.88c3.38,0.9,4.31-0.11,3.48-3.49c-0.52-2.11-1.14-4.16-0.17-6.95c-1.56,2.02-2.9,3.25-4.44,4.26
		c-2.3,0.6-3.06-0.56-3.03-2.63c0.61-2,2.38-3.18,3.71-5.21c-2.67,1.06-5.48-0.96-7.3,0.09c-2.26,1.3,0.18,4.58-0.91,6.83
		c-1.2,2.46-0.87,5.53-3.07,7.6c-0.66,0.26-1.32,0.25-1.96-0.04c-2.66-4.35-3.5-9.12-2.95-14.37c-3.14,0.07-6.57,3.13-8.8-1.18
		C191.58,284.29,191.12,283.02,192.07,282.05z"/>
	<path class="st104" d="M198.56,330.36c-0.1-0.24-0.18-0.49-0.24-0.74c-2.59-0.94-5.32-1.49-7.46-3.48
		c-2.16-2.02-2.89-4.95-0.98-6.58c4.66-3.98,7.42-9.65,12.45-13.21c0.69-0.08,1.32,0.06,1.88,0.47c0.49,1.48,0.23,3.03,0.4,4.36
		c-0.03,0.81,0.62,0.63,0,0.64c-0.02,0-0.1-0.19,0.01-0.46c0.47-1.13-1.26-3.25,1.5-3.36c3.5,6.49,3.41,13.15,0.97,19.91
		C203.92,327.55,202.33,332.71,198.56,330.36z"/>
	<path class="st105" d="M202.48,306.94c-1.21,2.43-4.38,3.71-3.89,7.27c0.11,0.8-1.43,2.3-3.31,2.62c-2.87,0.49-4.31,2.42-4.68,5.66
		c-0.41,3.64,2.14,3.25,4.04,4.17c1.39,0.67,3.49,0.69,3.67,2.95c-3.43,3.22-4.55,2.99-6.71-1.37c-0.07-0.13-0.07-0.38-0.15-0.41
		c-5.9-1.89-5.7-7.72-8.01-12c-1.45-2.7-1.63-4.41,0.86-6.17c0.39,0.15,0.59,0.43,0.61,0.83c0.01,0.61,0-0.21,0.01,0.42
		c0.07-0.15,0.02-0.31,0.05-0.48c0.09-0.41,0.3-0.74,0.63-0.99c4.86-0.28,3.56,3.47,4.31,6.46c0.64-7.03,7.48-6.73,11.21-10.12
		C201.89,305.81,202.38,306.15,202.48,306.94z"/>
	<path class="st106" d="M223.97,316.72c-0.25,0.88-0.91,1.89-0.69,2.62c1.16,3.8-0.37,5.49-4,6.42c-2.08,0.53-2.71,2.89-3.6,4.72
		c-1.3-0.61-1.55-1.74-1.49-3.01c1.75-3.39,2.73-6.38-1.29-9.29c-2.76-1.99-1.99-3.23,2.33-4.23c2.24,0.11,3.44,3.28,6.13,2.06
		C222.44,315.51,223.66,314.49,223.97,316.72z"/>
	<path class="st107" d="M198.56,330.36c3.41-0.56,3.41-0.56,5.81-9.09c1.71,2.35-0.32,5.32,1.6,7.34c1.73-0.32,3.47-0.7,5.11,0.35
		c1.89,2.29-0.81,1.74-1.51,2.43C205.59,334.53,201.93,334.04,198.56,330.36z"/>
	<path class="st108" d="M184.56,310.87c-0.08-0.4-0.17-0.81-0.25-1.21c0.21-1.97-0.68-3.39-2.21-4.51c-1.66-0.84-0.69-1.9,0-2.54
		c1.94-1.8,2.28-3.91,1.68-6.33c-0.02-1.68,1.69-2.15,2.34-3.35c0.37-0.26,0.79-0.39,1.24-0.39c1.31,0.35,1.9,1.52,1.35,2.45
		c-2.55,4.34,0.2,6.29,3.39,8.14c0.37,2.4-2.06,2.45-3.07,3.69c-1.09,0.99-2.33,1.79-3.43,2.77c-0.1,0.43-0.2,0.86-0.29,1.28
		C185.07,311.23,184.81,311.21,184.56,310.87z"/>
	<path class="st109" d="M186.38,293.06c0.09,1.91-1.99,2.01-2.7,3.25c-0.09,0.17-0.17,0.35-0.26,0.52c-3.36-0.52-4.77,0.74-4.62,4.3
		c0.23,5.55,0.06,11.11,0.06,16.67c-0.89,0.01-1.5-0.46-1.98-1.15c-1.65-3.57-0.82-7.37-0.86-11.07c-0.03-3.18-0.35-6.18-2.02-8.93
		c0.05-0.25,0.11-0.5,0.17-0.76c4.03,0.23,8.02,0.33,11.16-2.9C185.71,292.63,186.06,292.63,186.38,293.06z"/>
	<path class="st110" d="M223.97,316.72c-1.47-1.49-1.08,0.86-1.82,0.88c-2.35-0.95-2.94-2.89-2.63-5.13
		c0.24-1.7,0.89-3.27,3.18-2.82c0.4,0.75,0.85,1.3,1.67,0.42C227.59,312.44,227.5,313.88,223.97,316.72z"/>
	<path class="st111" d="M209.58,331.38c0.12-0.74,2.1-0.43,1.04-1.84c0.25-3.99,1.44-4.7,5.06-2.98c0,1.31,0,2.62,0.01,3.92
		C213.95,332.79,211.76,332.05,209.58,331.38z"/>
	<path class="st112" d="M177.64,316.58c0.41,0.4,0.82,0.81,1.23,1.21c-0.02,0.47-0.03,0.93-0.05,1.39
		c-2.45,1.97-1.85,5.62-4.22,7.63c-0.5-0.04-0.84-0.3-1.06-0.75C174.02,322.53,173.56,318.57,177.64,316.58z"/>
	<path class="st113" d="M183.42,296.83c0.04-0.2,0.13-0.38,0.26-0.52c2.6,3.51-1.97,5.74-1.59,8.85c-1.78-0.99-1.24-2.25-0.22-3.33
		C183.25,300.38,183.69,298.73,183.42,296.83z"/>
	<path class="st114" d="M163.83,282.42c-0.36,2.74,1.46,4.69,2.54,6.9c0.93,0.57,1.04,1.48,1.01,2.44
		c-0.48,12.59-0.16,25.18-0.15,37.77c0,2.51-0.5,4.52-2.43,6.11c-0.45,0.15-0.89,0.31-1.34,0.46c-2.2,1.04-3.18-0.09-3.6-2.09
		c-0.25-1.22-0.17-2.47-0.18-3.71c-0.01-15.82-0.02-31.65,0.01-47.47c0-2.3-0.28-4.71,1.67-6.53
		C164.51,277.4,162.17,280.72,163.83,282.42z"/>
	<path class="st115" d="M161.35,276.3c-0.84,9.75-0.18,19.52-0.3,29.27c-0.11,8.84-0.01,17.68,0.03,26.52
		c0.01,1.74-0.62,3.97,2.36,4c-1.24,0.95-2.7,1.24-4.19,1.45c-0.04-0.17-0.08-0.34-0.1-0.52c-1.19-1.8-1.04-3.85-1.04-5.85
		c-0.02-15.66-0.06-31.31,0.03-46.97c0.01-2.4-0.54-5.06,1.88-6.85C160.47,277,160.91,276.65,161.35,276.3z"/>
	<path class="st116" d="M182.56,334.2c-1.89,5.54,3.64,2.04,4.69,3.98c-4.62,4.69-13.22,4.47-18.01-0.53
		c1.12-2.02,4.92,2.21,5.05-2.15c1.13-0.15,2.01,0.59,3.03,0.8c0.61-0.02,1.16-0.22,1.71-0.49
		C180.19,335.24,181.21,334.35,182.56,334.2z"/>
	<path class="st117" d="M164.79,335.64c1.7-1.74,1.57-3.94,1.57-6.13c-0.01-13.39,0-26.79,0-40.18c1.61,0.98,4.11,1.56,1.47,4.18
		c-0.49,0.49-0.21,1.8-0.21,2.73c-0.01,10.61-0.03,21.21,0.01,31.82c0.01,1.77-0.58,3.96,2.25,4.3
		C168.49,333.91,166.69,334.85,164.79,335.64z"/>
	<path class="st118" d="M171.36,330.94c0-12.14,0-24.28,0-36.44c1.3-0.13,2.08,0.6,2.82,1.39c0,0-0.06,0.05-0.06,0.05
		c0.39,10.35,0.09,20.69-0.17,31.03c0.27,0.17,0.49,0.11,0.65-0.16C173.63,328.28,172.88,329.91,171.36,330.94z"/>
	<path class="st119" d="M182.56,334.2c-0.67,1.82-1.46,3.51-3.78,3.6c-0.38-0.35-0.78-1.12-1.1,0.04c-2.12,0.67-2.5-1.21-3.4-2.34
		c-0.64-2.7,0.83-4.41,3.07-5C180.19,329.75,181.2,332.4,182.56,334.2z"/>
	<path class="st120" d="M93.77,232.14c3.35-0.05,6.71-0.1,10.06-0.15c1.42,0.84,1.53,2.23,1.54,3.66c0.02,3.73-0.01,7.47,0.01,11.2
		c0.01,1.64-0.24,3.11-1.8,4.02c-2.62-0.25-5.09,0.56-7.61,1.05c-1.76,0.81-2.79,0.23-2.72-1.7
		C93.47,244.2,92.58,238.14,93.77,232.14z"/>
	<path class="st121" d="M103.59,250.87c0.9-6.28,0.44-12.58,0.25-18.88c0.99-0.7,2.04-0.47,3.09-0.19
		c1.92,6.2,2.17,12.39-0.12,18.57c0,0-0.16,0.3-0.16,0.29C105.62,250.73,104.6,250.8,103.59,250.87z"/>
	<path class="st122" d="M103.69,279.17c0.51-6.02,0.54-12.03-0.03-18.05c0.94-0.74,2.03-0.75,3.14-0.66c0,0,0.11,0.18,0.11,0.18
		c2.61,5.45,1.02,11.11,0.84,16.7C106.54,278.25,105.36,279.25,103.69,279.17z"/>
	<path class="st123" d="M93.77,232.14c-0.06,5.68-0.1,11.35-0.21,17.03c-0.03,1.74,0.18,3.08,2.41,2.76
		c-0.9,0.74-1.91,1.05-3.06,0.8C93.1,245.85,91.64,238.92,93.77,232.14z"/>
	<path class="st124" d="M88.94,256.48c2.98,0.31,2.38,3.36,3.75,4.9C88.68,261.86,90.27,258.06,88.94,256.48z"/>
	<path class="st125" d="M107.73,259.19c-0.32-0.03-0.65-0.07-0.97-0.1c-0.97-1.85-1.95-3.71-3.24-6.18
		c2.55,0.59,2.82,2.19,3.46,3.44c0.67,0.58,1.24,1.22,1.08,2.21C107.93,258.75,107.82,258.96,107.73,259.19z"/>
	<path class="st126" d="M97.63,253.86c1.67,2.07,1.95,3.95,1.75,7.03C97.65,258.3,97.13,256.49,97.63,253.86z"/>
	<path class="st127" d="M116.98,258.98c-0.26-0.25-0.52-0.5-0.78-0.76c0.53-1.98-3.86-1.72-1.97-4.32
		C114.67,255.85,119.64,255.35,116.98,258.98z"/>
	<path class="st128" d="M108.07,258.54c-0.36-0.73-0.72-1.47-1.08-2.2c1.96-0.35,1.45-2.94,3.58-3.71
		C110.23,255.02,109.11,256.77,108.07,258.54z"/>
	<path class="st129" d="M251.96,250.69c-5.04,0.32-6.31-2.38-5.49-6.8c0.08-0.45,0.01-0.93,0.01-1.39c0-10.69,0-10.69,10.7-10.43
		c1.22,0.69,1.57,1.86,1.62,3.12c0.17,4.3,0.17,8.59,0,12.89c-0.05,1.26-0.41,2.43-1.67,3.07
		C255.4,250.99,253.68,250.84,251.96,250.69z"/>
	<path class="st130" d="M259.74,232.11c2.29-0.53,3.47,0.06,3.37,2.74c-0.21,5.87-0.2,11.75-0.28,17.62
		c-0.99-0.19-2.21,0.84-2.97-0.56c-0.81-0.3-1.25-0.91-1.29-1.74c-0.27-5.4-0.23-10.81-0.02-16.21
		C258.59,233.13,259,232.5,259.74,232.11z"/>
	<path class="st131" d="M229.24,275.37c0.22-19.4,0.54-38.79-0.25-58.18c2.14,1,1.28,2.97,1.3,4.52c0.16,10.11,0.2,20.21,0.27,30.32
		c-0.05,3.34-0.1,6.67-0.15,10.01C229.72,266.46,231.84,271.12,229.24,275.37z"/>
	<path class="st132" d="M259.74,232.11c-0.23,6.6-0.45,13.2,0.12,19.79c-0.92-0.26-1.83-0.51-2.75-0.77
		c0.02-6.36,0.04-12.71,0.06-19.07C258.05,231.39,258.9,231.44,259.74,232.11z"/>
	<path class="st133" d="M248.24,258.4c-1.37,1.31-3.02,0.96-4.64,0.79c-0.04-0.77-0.18-1.54-0.09-2.29
		c0.14-1.28-0.62-3.27,1.09-3.57c2.22-0.39,1.45,1.81,1.64,2.96C246.44,257.55,247.01,258.23,248.24,258.4z"/>
	<path class="st134" d="M261.95,260.3c-2.56-0.32-3.08-0.98-2.03-2.84c0.58-1.03,1.48-1.88,2.24-2.81
		C264.27,256.6,259.33,258.31,261.95,260.3z"/>
	<path class="st135" d="M259.26,253.8c-0.38,1.74-0.47,3.63-1.22,5.19c-0.91,1.9-1.44,0.65-1.7-0.55
		C257.45,256.98,256.43,254.18,259.26,253.8z"/>
	<path class="st136" d="M239.55,259.01c-0.56,0.1-1.12,0.21-1.68,0.31c-1.03-1.7-2.06-3.39-3.62-5.96
		C237.38,254.89,238.21,257.2,239.55,259.01z"/>
	<path class="st137" d="M252.71,259.18c-0.55-0.05-1.11-0.11-1.66-0.17c0.25-1.92,0.49-3.84,0.74-5.76c0.31,0,0.62,0,0.92,0.01
		C252.71,255.24,252.71,257.21,252.71,259.18z"/>
	<path class="st138" d="M269.69,264.87c-2.32-2.21-0.69-4.76-0.62-7.18C271.57,259.88,269.25,262.49,269.69,264.87z"/>
	<path class="st139" d="M257.09,318.31c-10.6-0.05-10.6-0.05-10.6-10.76c0-5.61-0.06-11.23,0.04-16.84
		c0.03-1.45-0.74-3.13,0.76-4.36c2.85,1.43,5.48,3.34,8.71,3.92c1.59,0.38,2.33,1.47,2.35,3.02c0.09,7.72,0.2,15.44-0.06,23.16
		C258.26,317.28,257.8,317.88,257.09,318.31z"/>
	<path class="st140" d="M247,276.24c-1.41-3.04,0.03-6.35-0.86-9.44c0.57-7.1,0.84-7.21,11.13-4.66c2.45,6.33,2.94,12.64-0.23,18.91
		C253.68,279.44,250.34,277.84,247,276.24z"/>
	<path class="st141" d="M263.14,263.97c-0.01,5.44-0.12,10.88,0,16.32c0.05,2.44-0.76,3.12-2.97,2.13
		c-0.03-0.26-0.17-0.39-0.42-0.39c-1.27-0.76-1.4-2.05-1.27-3.27c0.56-5.27-1.5-10.73,1.19-15.83
		C260.96,262.79,262.12,263.15,263.14,263.97z"/>
	<path class="st142" d="M262.83,293.22c0.04,7.46,0.08,14.92,0.1,22.39c0,1.07,0.16,2.34-1.36,2.51c-1.64,0.19-1.68-1.11-1.64-2.18
		c0.26-7.9-0.64-15.83,0.47-23.71C261.22,292.56,262.02,292.89,262.83,293.22z"/>
	<path class="st143" d="M257.09,318.31c0.06-8.25,0.1-16.49,0.19-24.74c0.02-1.32-0.2-2.45-1.28-3.3c1.48,0.35,3.05,0.5,4.14,1.76
		c-1.48,7.44-0.24,14.96-0.7,22.43C259.33,316.06,260.3,318.52,257.09,318.31z"/>
	<path class="st144" d="M259.66,262.92c0.03,6.37,0.05,12.73,0.08,19.1c-1.16,0.38-2-0.12-2.71-0.98c0.7-6.29,0.25-12.6,0.23-18.91
		C258.06,262.39,258.86,262.66,259.66,262.92z"/>
	<path class="st140" d="M93.9,318.33c-0.42-8.46-0.77-16.92,0.2-25.38c3.17-1.29,6.34-2.57,9.51-3.85c1.49,0.72,1.76,2.05,1.76,3.52
		c0.02,7.47,0.02,14.94,0,22.4c0,1.33-0.49,2.41-1.44,3.32C100.59,318.33,97.24,318.33,93.9,318.33z"/>
	<path class="st145" d="M108.31,286.75c1.44-0.13,1.37,0.94,1.37,1.83c-0.08,9.92-0.19,19.83-0.3,29.75c-0.9,0-1.8-0.01-2.7-0.01
		c-1.24-1.2-1.3-2.73-1.3-4.32c0.01-7.31,0.02-14.61-0.01-21.92c-0.01-1.77,0.13-3.42,1.55-4.69
		C107.39,287.18,107.85,286.96,108.31,286.75z"/>
	<path class="st146" d="M106.93,287.4c-0.91,10.3-0.42,20.62-0.25,30.93c-0.92,0-1.83,0.01-2.75,0.01
		c0.09-9.75,0.68-19.5-0.32-29.24C104.72,288.53,105.82,287.96,106.93,287.4z"/>
	<path class="st147" d="M107.76,277.34c-2.36-1.69-1.02-4.14-1.11-6.21c-0.16-3.49,0.16-6.99,0.27-10.49
		c1.11,0.18,2.87-0.56,2.9,1.36c0.08,4.5-0.02,9.01-0.21,13.5c-0.02,0.57-0.98,1.11-1.51,1.66
		C108.1,277.17,107.76,277.34,107.76,277.34z"/>
	<path class="st148" d="M176.78,217.38c0.07,11.9,0.13,23.79,0.23,35.69c0.02,1.91-0.41,3.26-2.61,3.63
		c-3.02,0.51-4.7,3.48-7.53,4.41c-1.3,0.31-2.56,0.43-3.58-0.68c-1.52-4.84-1.46-9.96-0.3-14.62c1.02-4.06,0.42-7.2-1.48-10.51
		c-0.04-0.46-0.02-0.93,0.04-1.38c-0.08-1.24,0.5-3.07-1.96-2.13c-1.61,0.36-2.07,1.39-1.74,2.92c-0.17,1.56-1.09,2.17-2.56,1.88
		c-1.2-0.24-1.88-1.13-1.99-2.28c-0.21-2.14-0.53-4.3,0.35-6.39c0.32-0.77,0.28-1.53-0.44-2.06c-0.53-0.39-1.18-0.42-1.76-0.16
		c-1.09,0.48-1.13,1.41-0.7,2.32c0.91,1.94,0.52,3.94,0.38,5.93c-0.09,1.33-0.73,2.4-2.15,2.66c-1.48,0.27-2.35-0.43-2.63-1.89
		c-0.07-0.99-0.34-1.94-0.72-2.85c-3.17-1.86-2.95,0.08-2.52,2.24c0.41,2.01-0.48,3.6-1.58,5.14c-0.5,1.28-1.51,2.46-1.03,3.94
		c2.41,7.46,2.58,14.7-1.94,21.51c0.43,2.76,2.56,2.75,4.51,2.51c2.12-0.26,4.19-0.4,6.29,0.05c2.08,0.07,4.15,0.13,6.22-0.07
		c2.81-0.45,5.57-0.63,7.88,1.51c-0.6,6.57-0.6,6.58-6.98,6.58c-8.57,0-17.14-0.11-25.71,0.06c-3.24,0.06-4.43-1.02-4.34-4.3
		c0.17-6.07,0-12.15-0.03-18.23c0.03-10.25,0.18-20.49,0.01-30.74c-0.06-3.59,0.96-4.91,4.73-4.86
		C146.35,217.42,161.57,217.35,176.78,217.38z"/>
	<path class="st149" d="M154.36,306.63c0,9.03-0.01,18.06,0.01,27.09c0,1.99,0.04,3.79-2.82,3.66c-2.65-0.11-2.39-1.92-2.39-3.62
		c0-17.9,0.02-35.8,0-53.71c0-2.04,0.08-3.72,2.87-3.65c2.75,0.07,2.33,1.95,2.33,3.61C154.37,288.88,154.36,297.75,154.36,306.63z"
		/>
	<path class="st150" d="M160.04,277.35c0.03,18.24,0.06,36.48,0.09,54.72c0,1.71,0.12,3.45-0.95,4.96
		c-2.88,0.39-3.78-0.92-3.76-3.73c0.09-17.77,0.07-35.54,0.03-53.3C155.42,276.23,156.96,275.54,160.04,277.35z"/>
	<path class="st151" d="M132.04,327.51c-0.04-0.84-0.09-1.69-0.13-2.53c-1.11-1.8-1.24-3.8-1.24-5.83
		c-0.01-12.25-0.03-24.51,0.02-36.76c0.01-1.81-0.35-3.79,1.41-5.15c1.53-1.05,3.07-1.04,4.62-0.05c0,17.71,0,35.43,0,53.4
		C134.32,330.43,133.62,328.27,132.04,327.51z"/>
	<path class="st152" d="M147.6,337.78c0,0-0.21,0.04-0.21,0.04c-2.32-0.76-3.27-2.15-3.25-4.81c0.13-17.57,0.05-35.14,0.09-52.71
		c0-1.43-0.57-3.4,1.71-3.71c1.7-0.23,2.04,1.13,2.02,2.46C147.79,298.63,148.48,318.21,147.6,337.78z"/>
	<path class="st153" d="M131.12,324.88c-3.3-3.66-4.34-8.28-4.47-12.88c-0.31-10.7-0.1-21.42-0.11-32.14c0-1.27,0.13-2.48,1.05-3.46
		c1.06-0.03,2.12-0.05,3.17-0.08c1.19,0.49,0.81,1.56,0.81,2.42c0.02,14.63,0.02,29.27,0.01,43.9
		C131.59,323.42,131.6,324.2,131.12,324.88z"/>
	<path class="st154" d="M131.12,324.88c-0.2-16.18,0.48-32.37-0.36-48.55c0.44,0.3,0.89,0.6,1.33,0.91
		c-0.06,15.92-0.13,31.83-0.19,47.75C131.65,324.93,131.38,324.89,131.12,324.88z"/>
	<path class="st155" d="M163.46,268.69c-2.61-0.05-5.23-0.1-7.84-0.15c-1.75-1.53-1.75-3.35-0.88-5.31c0.46-0.67,1.12-1.06,1.9-1.25
		c2.9-0.34,4.98,1.9,7.62,2.51c1.62,0.38,1.27,2.12,0.55,3.43c0,0-0.05,0.46-0.05,0.46C164.32,268.49,163.89,268.59,163.46,268.69z"
		/>
	<path class="st156" d="M265.63,331.62c-7.29,0.65-14.57,0.64-21.86-0.04c-0.98-4.37,0.5-6.26,5.21-5.81
		c3.83,0.36,7.75,0.36,11.58,0C265.34,325.31,266.68,327.29,265.63,331.62z"/>
	<path class="st157" d="M245.2,324.03c0.48-2.33,1.5-2.84,2.89-2.85c4.52-0.01,9.03-0.01,13.55-0.01c1.19,0,2.34,0.36,2.44,1.65
		c0.14,1.88-1.5,1.15-2.36,1.17C256.29,324.07,250.87,324.03,245.2,324.03z"/>
	<path class="st158" d="M186.38,293.06c-0.35-0.02-0.7-0.04-1.05-0.06c4.11-3.39,5.21-8.3,6.6-13.06c0.04,0.7,0.09,1.4,0.13,2.11
		c0.06,1.12,0.12,2.24,0.18,3.36c0.15,1.37,0.51,2.75-0.18,4.09c-1.06,1.6-2.19,3.11-4.41,3.04
		C187.24,292.72,186.81,292.89,186.38,293.06z"/>
	<path class="st159" d="M101.62,331.39c-2.49,0-4.98-0.03-7.46,0.01c-1.89,0.03-3.35-0.19-3.36-2.68c-0.01-2.3,1.08-2.94,3.15-2.92
		c5.13,0.06,10.26,0.06,15.39,0c2.1-0.03,3.13,0.66,3.12,2.95c-0.01,2.51-1.51,2.68-3.37,2.65
		C106.6,331.37,104.11,331.39,101.62,331.39z"/>
	<path class="st160" d="M101.28,324.01c-2.33-0.01-4.66,0.03-6.98-0.03c-0.69-0.02-1.72,0.23-1.89-0.76
		c-0.18-1.06,0.6-1.88,1.58-1.89c5.11-0.07,10.23-0.05,15.35,0.01c0.86,0.01,1.44,0.8,1.45,1.57c0.02,1.43-1.24,1.06-2.04,1.08
		C106.25,324.06,103.76,324.01,101.28,324.01z"/>
	<path class="st161" d="M248.22,339.26c-1.31-1.71-2.88-0.97-4.48-0.57c-1.13,0.28-2.72,1.43-2.99-1.01
		c2.37-3.52,5.97-3.03,9.01-1.94c3.59,1.28,6.68,1.29,10.24,0.01c2.94-1.05,6.34-1.46,8.64,1.84c0.83,2.12,0.66,2.41,0.01,2.04
		c-6.13-3.45-12.06,1.51-18.11,0.36C249.49,340.63,248.51,341.03,248.22,339.26z"/>
	<path class="st162" d="M268.63,337.59c-2.69-1.17-25.26-1.1-27.9,0.09c-0.57-0.12-1.32-0.06-1.68-0.4
		c-0.61-0.58-0.11-1.08,0.54-1.27c3.5-1.03,6.91-2.86,10.72-1.01c2.78,1.35,5.69,1.53,8.49,0.15c3.76-1.85,7.21-0.5,10.71,0.74
		c0.77,0.27,1.59,0.54,0.81,1.46C270.05,337.67,269.21,337.52,268.63,337.59z"/>
	<path class="st163" d="M248.22,339.26c0.77,0.25,1.55,0.49,2.32,0.74c2.18,1.5,4.61,1.1,7.01,0.93c0.62,0.28,1.24,0.56,1.86,0.84
		c-3.61,2.96-7.17,2.15-10.7-0.16c-3.43-1.78-6.46,1.2-11.08,1.14C241.53,339.94,244.79,339.36,248.22,339.26z"/>
	<path class="st148" d="M137.08,199.37c0.06-2.24,4.12-2.39,2.79-5.35c-0.23-0.31-0.52-0.55-0.87-0.72
		c-1.13-0.51-2.21-1.16-3.49-1.22c-0.2-0.03-0.41-0.06-0.61-0.1c-1.12-0.64-2.24-1.28-3.36-1.92c-1.32,0.59-2.39,0.38-3.15-0.93
		c0.04-2.14,0.09-4.28,0.13-6.42c-0.28-4.58,2.88-6.44,6.36-8.06c4.49-1.35,8.77-1.37,12.51,1.99c1.24,0.72,2.39,1.53,2.86,2.99
		c1.17,2,1.17,4.15,0.78,6.35c0,0.42-0.07,0.83-0.17,1.23c-0.29,1.67-2.27,2.01-2.72,3.53c0.98,2.21,3.71,0.38,4.87,2.14
		c1.35,4.85-0.02,6.51-5.74,7.03c-2.75-0.55-4.96,2.08-7.75,1.33C138.49,200.91,137.26,200.82,137.08,199.37z"/>
	<path class="st164" d="M134.46,176.01c-1.92,2.29-4.65,3.86-5.95,6.7c-3.62-4.97-2.09-11.43,3.52-15.07
		c2.59-1.69,5.46-2.01,8.46-2.19c3.62-0.22,5.3,1.05,4.57,4.8c1.58,1.54,2.27,3.22,0.85,5.24
		C142.07,174.97,138.19,173.79,134.46,176.01z"/>
	<path class="st165" d="M145.98,174.69c-1.43-1.26-0.18-3.06-0.91-4.45c0.3-0.31,0.6-0.64,0.9-0.96c0.73,0.2,1.21,0.69,1.51,1.37
		c1.08,1.73,0.21,4.3,2.38,5.57c2.23,1.3,3.44,2.79,0.94,4.98c-0.74,0.15-1.41,0.09-1.92-0.55c-0.08-1.2-0.43-2.24-1.69-2.71
		C146.57,176.93,145.17,176.23,145.98,174.69z"/>
	<path class="st166" d="M128.38,189.13c1.08,0.22,2.35-0.22,3.15,0.93c0.57,1.17,0.68,2.39,0.46,3.66c-2.67,0.18-3.8-2.42-6.75-3.11
		C126.8,189.88,127.59,189.5,128.38,189.13z"/>
	<path class="st167" d="M147.48,170.64c-0.5-0.46-1.01-0.91-1.51-1.37c0.3-1.71,0.6-3.43,0.9-5.14c1.69-0.7,2.24-0.02,1.98,1.64
		C148.39,167.4,147.93,169.02,147.48,170.64z"/>
	<path class="st168" d="M122.65,176.07c-0.65-1.32-0.73-2.45,1-2.97c1.34,1.57-0.72,3.07-0.09,4.62c0,0-0.43,0.06-0.43,0.06l-0.44,0
		C122.14,177.22,122.17,176.65,122.65,176.07z"/>
	<path class="st169" d="M166.5,215.4c-4.69-0.03-9.33-0.43-13.82-1.91c-0.31-2.55,1.57-2.58,3.27-2.87
		c12-2.05,24.06-2.38,36.16-1.16c3.08,0.31,6.18,0.45,9.22,1.19c1.6,0.39,3.12,0.65,2.8,2.84c-4.23,0.94-8.46,1.89-12.83,1.9
		C183.03,215.4,174.76,215.4,166.5,215.4z"/>
	<path class="st170" d="M204.12,213.5c-1.39-2.68-4.12-1.82-6.26-2.18c-14.22-2.37-28.43-1.72-42.62,0.4
		c-1.17,0.17-2.03,0.71-2.56,1.77c-1.33-0.31-3.33,0.72-3.6-1.76c3.12-1.62,6.7-1.33,9.96-2.43c8.95-0.96,17.93-1.31,26.9-0.89
		c7.36,0.35,14.75,0.91,21.83,3.29C207.47,214.19,205.47,213.18,204.12,213.5z"/>
	<path class="st171" d="M161.27,203.02c5.19-0.97,10.35-2.76,15.68-0.69c0.27,0.95-0.02,1.89-0.09,2.84
		c-4.84,1.41-9.69,2.71-14.74,0.94C161.94,205.05,161.18,204.15,161.27,203.02z"/>
	<path class="st172" d="M179.88,202.31c5.32-1.98,10.48-0.32,15.66,0.73c0.09,1.1-0.64,1.98-0.82,3.01
		c-5.05,1.92-9.91,0.39-14.78-0.86C179.86,204.23,179.6,203.28,179.88,202.31z"/>
	<path class="st173" d="M146.03,208.69c2.34-2.61-1.69-1.4-1.6-2.66c2.02-1.22,3.99-2.58,6.46-0.91c2.18,1.47,0.91-2.18,2.65-1.81
		c1.86,0.39,3.82-0.91,5.73,0.11c0.82,1.09,0.92,2.35,0.82,3.65C155.39,207.52,150.99,210.52,146.03,208.69z"/>
	<path class="st174" d="M212.42,205.96c-0.99,0.26-2.64,0.26-2.85,0.81c-0.62,1.61,1.64,1.76,2.09,2.98
		c-5.16-0.43-10.24-1.32-15.15-3.03c-0.27-1.65,1.58-1.57,2.09-2.58c0.31-0.9,1.24-1.27,1.81-0.91
		C204.12,205.59,208.83,203.33,212.42,205.96z"/>
	<path class="st175" d="M207.76,211.71c-16.34-3.4-32.81-3.44-49.34-1.86c-1.05,0.56-1.08-0.06-0.97-0.84
		c15.15-1.62,30.28-2.02,45.35,0.77c1.66,0.31,3.3,0.75,4.94,1.15c0.1,0.02,0.22,0.24,0.22,0.36
		C207.95,211.43,207.83,211.57,207.76,211.71z"/>
	<path class="st176" d="M179.88,202.31c1.6,0.92,2.79,1.86,0.07,2.88c-1.03-0.01-2.05-0.02-3.08-0.02
		c-2.67-1.03-1.46-1.94,0.09-2.84C177.92,202.33,178.9,202.32,179.88,202.31z"/>
	<path class="st177" d="M160.09,207.06c-1.7-0.9-3.79-1.71-0.82-3.65c0.67-0.13,1.33-0.26,2-0.39c1.46,0.71,4.2,1.07,0.85,3.09
		C161.44,206.43,160.77,206.74,160.09,207.06z"/>
	<path class="st178" d="M157.44,209.01c0.32,0.28,0.65,0.56,0.97,0.84c-2.99,1.22-6.21,1.36-9.34,1.88
		c-1.26,0.54-2.53,1.08-3.79,1.61c0.74-3.05,3.46-2.35,5.51-2.86C152.99,209.93,155.23,209.5,157.44,209.01z"/>
	<path class="st179" d="M198.61,204.14c2.01,3.06-2.01,1.22-2.09,2.58c-0.6-0.23-1.2-0.45-1.8-0.67c-3.33-1.98-0.45-2.28,0.82-3.01
		C196.56,203.41,197.58,203.78,198.61,204.14z"/>
	<path class="st148" d="M227.52,187.34c-2.25,1.67-3.65,5.24-7.64,3.33c-0.21-0.1-4.72-0.23-3.65,3.38
		c0.41,0.09,0.64,0.34,0.74,0.74c-0.9,2.85,2.31,2.25,3.09,3.69c-0.77,0.73-1.54,1.45-2.31,2.18c-3.07,0.96-10.66-0.01-13.06-1.67
		c-1.47-1.98-2.84-3.96-0.61-6.29c1.11-1.31,3.82,0.82,4.21-1.98c-0.58-1.6-2.46-2.44-2.49-4.32c-0.63-2.8-1.42-5.63,1.16-7.96
		c0.79-1.19,1.57-2.38,2.36-3.57c6.93-5.59,16.86-2.37,18.98,6.15C229.06,183.25,225.81,184.99,227.52,187.34z"/>
	<path class="st164" d="M228.3,181.02c-2.26-2.08-4.3-4.47-6.81-6.17c-3.91-2.64-8.11-0.68-12.17,0.02
		c-0.51-1.26,0.48-1.9,1.12-2.68c1-1.72-0.81-3.59,0.31-5.3c5.28-3.19,10.13-1.54,14.7,1.54c4.38,2.95,4.71,7.39,3.87,12.09
		C229.28,180.74,228.65,180.85,228.3,181.02z"/>
	<path class="st180" d="M203.39,175.46c0.3,0.51,1.28,0.64,0.87,1.55c-1.17,2.92-1.28,6.23-3.22,8.87
		c-0.75,2.05-3.54,1.17-4.36,3.07c0.62,1.89,2.9,1.2,3.85,2.53c0.94,0.97,1.17,2.13,0.96,3.42c-3.48,5.01-7.99,5.05-11.82,0.13
		c-0.52-1.07-0.6-2.24-0.69-3.4c0.36-2.41-0.96-4.07-2.95-4.71c-4.35-1.41-5.22-4.33-4.32-8.32c0.09-0.69,0.32-1.34,0.49-2.01
		c0.48-7.46,2.04-8.67,9.56-7.33c2.74,0.49,5.31,1.53,7.88,2.53C201.54,172.36,203.13,173.24,203.39,175.46z"/>
	<path class="st181" d="M203.39,175.46c-0.99-0.61-1.98-1.21-2.96-1.82c-3.68-2.39-7.69-3.67-12.11-3.68c-1.69,0-3.4-0.15-4.85-1.24
		c-1.16-4.23,0.63-6.12,4.8-6.94c5.55-1.09,10.84-1.46,15.34,2.64C207.31,167.77,207.12,172.34,203.39,175.46z"/>
	<path class="st182" d="M182.71,178.1c0.19,3.17-0.54,6.48,4.19,7.58c2.65,0.62,4.7,3.08,3.5,6.53c-1.84,0.97-3.92,0.79-6.27,1.38
		c1.43,0.58,2.83,0.85,3.53,2.09c-1.71,4.11-4.58,2.57-7.01,1.15c-1.44-0.85-2.55-2.12-4.42-1.68c-1.59-0.85-3.25-1.48-4.97-2.03
		c-1.75-0.56-3.34-1.53-2.71-3.88c1.04-1.22,2.49-0.78,3.8-0.9c-1.46-0.11-2.95-0.32-3.95,1.14c-2.79-1.2-3.11-2.54-0.47-4.45
		c2.42-1.75,4.1-4.01,5.87-6.26c1.1-0.52,1.69,0.1,2.17,0.97c0.35,0.04,0.71,0.09,1.06,0.13c1.05,2.3,2.14,4.58,3.77,6.55
		c0.84,0.78,1.51,1.84,3.55,1.87c-1.51-0.91-2.91-0.89-3.61-1.94c-1.11-2.05-2.66-4.04-0.91-6.49c0.39-0.1,0.78-0.21,1.17-0.31
		C181.35,178.81,181.74,178.11,182.71,178.1z"/>
	<path class="st183" d="M175.94,161.22c0.27-0.07,0.55-0.13,0.82-0.18c0.7,0.03,1.05,0.42,1.14,1.09c0.14,1.73,2.77,2.4,1.93,4.54
		c-2.21,2.02-2.22,4.09-0.15,6.21c0.13,2.52,1.4,5.77-3.33,5.11c-1.9-0.97-1.66-2.77-1.68-4.44
		C174.61,169.4,175.47,165.33,175.94,161.22z"/>
	<path class="st184" d="M200.36,185.44c-0.18-3.14,1.84-7.51,3.9-8.43c0.3,1.61,1.32,1.85,2.7,1.43c-0.01,2.64-0.02,5.28-0.02,7.92
		c-0.21-0.03-0.41-0.07-0.62-0.1c-1.69-0.89-3.5-0.88-5.33-0.71C200.78,185.51,200.57,185.47,200.36,185.44z"/>
	<path class="st185" d="M175.94,161.22c0.14,5.59,0.27,11.18,0.41,16.77c-0.13,0.58-0.26,1.16-0.39,1.73
		c-0.69-0.48-1.37-0.96-2.06-1.44c-0.56-0.02-1-0.25-1.32-0.72c-0.56-3.14-0.22-6.13,1.48-8.9
		C174.89,166.24,174.37,163.47,175.94,161.22z"/>
	<path class="st186" d="M183.47,168.72c4.38,0.57,8.85,0.66,13.01,2.35c1.45,0.59,3.43,0.5,3.95,2.57
		c-4.36-1.36-8.54-3.34-13.3-3.26c-2.84,0.05-4.07,0.91-3.15,3.84c0.47,1.5,0.91,3.06-1.17,3.8c-1.31-2.1-1.67-4.25-0.33-6.49
		C182.7,170.56,182.55,169.45,183.47,168.72z"/>
	<path class="st187" d="M180.72,186.33c-0.73-0.22-1.44-0.55-2.18-0.63c-5.61-0.64-2.41-3.53-1.52-5.84
		c0.93-0.78,1.86-0.84,2.79-0.01c1.68,1.98,1.51,4.21,0.89,6.5L180.72,186.33z"/>
	<path class="st188" d="M182.47,171.54c-0.39,2.19,1.33,4.27,0.33,6.48c0,0-0.09,0.08-0.09,0.08c-0.58,0.48-1.15,0.96-1.73,1.45
		c0-5.52,0-11.04,0-17.25C182.39,165.71,181.05,168.84,182.47,171.54z"/>
	<path class="st189" d="M177.9,162.14c-0.38-0.36-0.76-0.73-1.14-1.09c-0.58-0.91-2.23-1.28-1.43-2.87
		c2.01,0.01,4.03,0.02,6.04,0.02C181.32,160.48,179.76,161.44,177.9,162.14z"/>
	<path class="st190" d="M179.68,172.89c-1.81,0.86-3.1,0.92-2.32-1.68c0.49-1.67-2.28-5.18,2.47-4.53
		C179.78,168.75,179.73,170.82,179.68,172.89z"/>
	<path class="st191" d="M244.35,219.03c6.89-0.04,13.79-0.08,20.68-0.11c1.59,5,1.23,5.64-3.44,5.68c-4.51,0.05-9.03,0.04-13.54,0
		C243.24,224.56,242.93,224.07,244.35,219.03z"/>
	<path class="st192" d="M265.01,227.57c-5.59,3.42-18.16,2.51-19.94-1.83c6.02,0,11.88,0.02,17.75-0.01
		c1.34-0.01,1.97,0.65,2.17,1.87C265,227.61,265.01,227.57,265.01,227.57z"/>
	<path class="st193" d="M175.65,195.53c1.59-0.96,1.98-2.66,2.57-4.97c1.31,2.71,1.99,5.25,4.66,5.97c1.85,0.5,3.68,0.51,5.24-0.88
		c0.19-1.14,0.36-2.32,2.03-1.75c3.28,4.11,5.49,4.41,10.26,1.39c0.59-0.96,0.16-2.82,2-2.67c1.56,0.13,1.3,1.54,1.25,2.56
		c-0.1,1.88,1.65,2.52,2.38,3.82c1.03,0.14,2.31,0.74,3.03,0.33c2.56-1.42,4.45-0.78,6.18,1.28c0.79,0.93,1.67-0.09,2.51,0.04
		c-0.04,2.77-2.21,1.26-3.41,1.7c-4.27-0.79-8.76-0.29-12.76-2.75c-1.75-1.08-3.74,0.79-5.7,0.74c-0.64,0.03-1.28,0.02-1.92-0.11
		c-2.07-1.09-4.19-1.96-6.61-1.25c-1.72,0.25-3.43,0.66-5.14,0.01c-2.55-1.55-5.1-1.57-7.65,0c-1.75,0.65-3.48,0.26-5.2-0.08
		c-2.77-1.4-4.86,0.85-7.27,1.36c-0.65,0.09-1.3,0.1-1.95,0.07c-2.53-0.62-5.08-1.17-7.04-3.1c0.96-1.61-0.89-6.32,3.99-3.64
		c2.17,2.01,4.41,2.44,7.1,0.78C168.22,191.92,171.83,195.09,175.65,195.53z"/>
	<path class="st194" d="M153.74,197.39c2.75-1.22,4.18,1.43,6.28,2.13c0.19,0.73-0.09,1.24-0.83,1.28
		c-5.14,0.26-10.1,1.55-15.07,2.7c-0.65,0.15-1.21,0.11-1.68-0.41c-0.01-0.23,0-0.45,0.02-0.68c0.3-2.24,1.72-2.98,3.83-2.97
		c1.5,0.01,3.05,0.3,4.48-0.43C151.6,198.19,152.51,197.5,153.74,197.39z"/>
	<path class="st195" d="M195.78,199.5c3.05-1.46,6.02-3.46,9.04,0.24c1.07,1.31,2.97,1.05,4.4,0.65c2.34-0.66,3.8,0.32,5.12,1.98
		c0.03,0.24,0.03,0.48,0,0.72c-4.44,0.64-8.51-1.27-12.72-2.07C199.71,200.65,197.07,202.36,195.78,199.5z"/>
	<path class="st196" d="M142.44,203.08c5.86-1.19,11.72-2.38,17.58-3.56c0.68-0.02,1.35-0.04,2.03-0.06
		c0.83-0.72,1.77-0.45,2.69-0.29c0.39,0.39,0.42,0.8,0.09,1.24c-7.43,1.33-14.85,2.65-22.28,3.97c-0.13,0.02-0.28-0.05-0.42-0.09
		C142.23,203.89,142.33,203.48,142.44,203.08z"/>
	<path class="st197" d="M195.78,199.5c6.19,1.19,12.38,2.39,18.56,3.58c0.7,0.81,0.75,1.58-0.55,1.22
		c-7.16-1.97-14.59-2.41-21.83-3.9c-0.23-0.26-0.31-0.52-0.25-0.79c0.06-0.27,0.13-0.41,0.2-0.41c0.67-0.23,1.33-0.3,1.89,0.25
		C194.47,199.47,195.13,199.49,195.78,199.5z"/>
	<path class="st198" d="M191.94,199.64c0.01,0.26,0.02,0.51,0.03,0.77c-9.05,0-18.1-0.01-27.15-0.01c0.01-0.25,0.02-0.51,0.03-0.76
		c1.58-2.17,3.73-1.11,5.72-1.02c5.2-0.23,10.4-0.28,15.6,0.02C188.13,198.73,190.32,197.57,191.94,199.64z"/>
	<path class="st199" d="M152,198.97c-0.91,2.13-2.83,1.77-4.37,1.42c-2.33-0.53-3.79,0.51-5.18,2.02c-0.97-0.07-1.93-0.13-2.9-0.2
		c-0.57-0.54-0.55-1.07,0.01-1.6c2.63,0.88,3.5-3.59,6.34-2.08C147.87,199.62,149.99,198.57,152,198.97z"/>
	<path class="st200" d="M139.56,200.61c0,0.53-0.01,1.07-0.01,1.6c-2.29-0.57-3.68-2.48-5.53-3.7c1.54-1.56,2,0.71,3.06,0.87
		C137.71,200.18,138.57,200.54,139.56,200.61z"/>
	<path class="st191" d="M112.37,219.12c0.89,4.21-0.53,6.09-5.08,5.55c-5.51-0.65-11.15,0.91-16.62-0.84
		c-0.33-3.7,1.16-5.15,5.04-4.9C101.25,219.28,106.82,219.08,112.37,219.12z"/>
	<path class="st201" d="M106.5,217.7c-3.35,0-6.7,0-10.05,0C99.88,216.04,103.26,215.86,106.5,217.7z"/>
	<path class="st202" d="M92,225.71c5.58,0,11.28-0.01,16.98,0.02c0.87,0,2.1-0.16,2.08,1.16c-0.01,0.66-0.6,1.46-1.16,1.93
		c-1.21,1.04-15.7,0.89-16.93-0.18C92.3,228.06,91.64,227.3,92,225.71z"/>
	<path class="st203" d="M106.8,250.37c-0.4-6.19-0.62-12.38,0.12-18.57c0.86,0.09,1.71,0.18,2.57,0.26c0.03,6,0.06,12.01,0.09,18.01
		C108.66,250.17,107.73,250.27,106.8,250.37z"/>
	<path class="st181" d="M151.42,174.94c-2.68-7.28,0.22-12.37,7.98-13.7c2.9-0.5,5.79-0.03,8.72,0.48c4.16,0.72,5.94,2.74,5.12,6.92
		c-1.67,1.99-4.11,1.97-6.35,2.43c-2.59,0.53-5.26,0.78-7.45,2.49c-2.51,1.15-4.62,3.51-7.81,2.69
		C151.29,175.85,151.22,175.42,151.42,174.94z"/>
	<path class="st204" d="M151.42,174.94c0.13,0.38,0.27,0.77,0.4,1.15c3.48,0.66,3.13,3.56,3.55,6.02c0.31,0.72,0.93,1.25,1.19,1.95
		c0.77,2.13,0.4,4.04-1.81,4.97c-2.61,1.1-3.94-0.56-4.86-2.73l0.01,0.08c-1.27-2.12,2.07-3.51,0.9-5.61
		c1.44-1.89-1.28-2.9-0.95-4.55C150.1,175.44,150.69,175.11,151.42,174.94z"/>
	<path class="st205" d="M157.6,172.33c4.79-3.01,10.32-2.92,15.64-3.7c0.27,0.01,0.55,0.02,0.82,0.04c0.83,3.18-1.28,6.27-0.32,9.46
		c-1.64,0.5-2.48-0.61-2.68-1.82c-0.7-4.24-3.25-4.03-6.52-3.28C162.27,173.55,159.69,174.73,157.6,172.33z"/>
	<path class="st206" d="M265.95,273.42c-3.09-2.87-2.74-5.96,0.84-7.47c1.75,0.86,4.16,1.46,4.19,3.69
		C271.03,272.69,267.47,271.9,265.95,273.42z"/>
	<path class="st207" d="M255.77,206.95c2.22-2.04,4.1-2.81,4.67,1.26C258.89,207.79,257.33,207.37,255.77,206.95z"/>
	<path class="st208" d="M262.35,208.15c-0.03-1.04,0.24-2.06,1.49-1.64c1.37,0.46,3.19,0.88,2.33,3.13
		C265.02,208.83,263.9,207.94,262.35,208.15z"/>
	<path class="st209" d="M249,208.22c0.94-3.28,1.57-3.44,4.66-1.17C251.96,206.86,250.5,207.62,249,208.22z"/>
	<path class="st210" d="M89.42,337.03c3.57-1.72,6.89-1.51,9.9,1.24C96.12,337.08,92.81,336.73,89.42,337.03z"/>
	<path class="st210" d="M103.45,337.96c3.2-1.59,6.38-3.33,9.88-0.69C109.94,336.23,106.74,337.79,103.45,337.96z"/>
	<path class="st61" d="M90.84,341.69c1.68-1.24,3.58-0.95,5.2-0.23c3.05,1.36,6.16,1.39,9.35,1.19c-3.07,1.8-6.1,0.93-9.19-0.02
		C94.47,342.1,92.62,341.99,90.84,341.69z"/>
	<path class="st211" d="M260.17,217.93c-3.62,0-7.25,0-10.87,0c3.52-2.2,7.16-1.7,10.8-1.25
		C260.12,217.09,260.14,217.51,260.17,217.93z"/>
	<path class="st212" d="M216.97,194.79c-0.25-0.25-0.49-0.49-0.74-0.74c0.26-0.38,0.45-1,0.79-1.09c2.13-0.57,4.37-2.09,6.23,0.59
		c0.57,0.82,0.41,1.46-0.24,2.01C220.74,197.5,218.87,195.92,216.97,194.79z"/>
	<path class="st213" d="M243.96,273.5c-1.28-0.47-2.67-1.22-2.78-2.63c-0.12-1.49,1.41-1.88,2.6-1.85c1.82,0.04,1.48,1.6,1.51,2.72
		C245.31,272.54,245.55,273.74,243.96,273.5z"/>
	<path class="st66" d="M267.73,296.78c1.24,0.08,2.6,0.01,3.26,1.35c0.64,1.3-0.49,1.98-1.22,2.71c-0.51,0.52-1.1,1.35-1.95,0.76
		c-0.93-0.65-0.53-1.63-0.33-2.55c0.17-0.75,0.19-1.53,0.27-2.3C267.76,296.75,267.73,296.78,267.73,296.78z"/>
	<path class="st214" d="M140.08,193.87c0,0-0.22,0.16-0.21,0.16c-0.48,0.56-0.9,1.18-1.45,1.67c-1.5,1.34-3.15,1.05-4.49-0.08
		c-2.03-1.7,0.59-2.42,0.97-3.63c0,0-0.03,0.04-0.03,0.04c2.21-1.6,3.8,0.4,5.61,1.02c0.57,0.19,0.73,0.75,0.25,0.36
		C140.71,193.38,140.35,193.71,140.08,193.87z"/>
	<path class="st215" d="M122.65,176.07c0.02,0.57,0.03,1.14,0.05,1.71c-0.4-0.29-0.8-0.58-1.21-0.88
		C121.88,176.63,122.26,176.35,122.65,176.07z"/>
	<path class="st216" d="M188.92,276.86c-0.1,8.21-5.17,14.98-11.13,14.85c-5.81-0.12-10.65-6.69-10.83-14.69
		c-0.18-8.29,5-15.42,11.13-15.3C184.05,261.83,189.02,268.78,188.92,276.86z"/>
	<path class="st217" d="M164.81,267.93c-0.29-1.43,0.38-3.65-2.63-2.43c-2.24,0.91-2.65-2.53-4.71-2.46c-1.19-1.05-2.97-0.92-4.13-2
		c-0.97-0.9-1.45-2.01-0.84-3.33c0.52-1.12,1.58-1.96,2.56-1.12c3.39,2.91,8.45,2.78,11.39,6.39c0,0,0.39,0.15,0.39,0.15
		C166.65,264.95,166.02,266.56,164.81,267.93z"/>
	<path class="st218" d="M221.03,234.14c-0.12-0.1-0.27-0.18-0.35-0.3c-1.4-1.9-0.98-3.79,0.15-5.59c0.31-0.49,1.12-0.75,1.55-0.06
		c1.3,2.03-0.36,3.46-1.12,5.08c-0.13,0.27-0.16,0.58-0.24,0.88C221.02,234.14,221.03,234.14,221.03,234.14z"/>
	<path class="st219" d="M208.08,223.85c1.43,1.14,2.85,2.27,4.28,3.4c-0.8,3.6,0.07,7.18-1.78,11.04c-1.91,3.98-4.66,1.18-6.49,2.59
		c-0.7-1.24-1.3-1.68-3.05-1.18c-1.67,0.48,0.25-3.2-2.22-3.09c0.85-0.53,1.7-1.06,2.55-1.58c0.57-2.68,7.23-4.2,1.39-8.28
		c-1.06-0.74,2.04-0.69,2.32-2c0.91,0.43,1.17,2.08,2.5,1.6C208.84,225.89,206.31,224.39,208.08,223.85z"/>
	<path class="st220" d="M201.13,243.93c-1.66,1.36-4.78,0.2-5.5,3.18c-1.31-0.97-2.8-0.9-3.87,0.06c-2.98,2.68-3.76,0.68-4.43-1.85
		c4.36,0.04,7.83-1.73,10.46-5.18c0.71,1.08,1.13,1.91,3.01,1.73C203.75,241.59,201.43,243.13,201.13,243.93z"/>
	<path class="st221" d="M166.45,262.99c-4.41-1.38-9.58-0.94-12.61-6.29c-1.26,4.46,3.69,3.63,3.63,6.34
		c-0.68,0.02-1.37,0.04-2.05,0.07c-0.62,0.15-1.21,0.39-1.83,0.53c-1.65,0.58-3.39,0.41-5.09,0.57c-1.22-0.21-2.41-0.53-3.63-0.74
		c-2.65-0.46-4.19-2.06-3.85-4.85c0.19-1.57,0.01-3.09-0.11-4.61c-0.26-3.38,0.88-3.93,3.54-2.05c1.15,0.68,2.15,0.09,3.16-0.41
		c6.34-2.44,7.24-2.28,9.69,1.67c2.22-0.72,1.84-2.91,2.58-4.45c0.92-1.36,1.66-3.57,3.51-0.79c0.56,4.1-1.06,8.34,0.85,12.34
		c0.95,0.01,1.92-0.02,2.62,0.8C166.73,261.74,166.59,262.37,166.45,262.99z"/>
	<path class="st222" d="M215.51,292.85c2.09-2.41,4.17-4.81,6.19-7.14c1.35,0.74,1.22,1.74,0.99,2.25c-1.6,3.47-2.2,6.59-0.14,10.41
		c1.34,2.5-2.21,6.09-4.24,4.66c-3.93-2.75-7.03-1.08-10.45,0.36c-0.98-0.34-1.41-1.05-1.39-2.07c1.41-2.85,3.61-4.83,6.58-5.98
		C214.23,294.9,215.91,294.89,215.51,292.85z"/>
	<path class="st222" d="M205.03,300.7c0.49-2.79-0.54-5.83,1.91-8.34c0.73-0.75,0.69-2.8-0.54-3.85c-1.14-0.98-1.51-1.94-0.6-3.18
		c0.89-1.2,2.47-2.43,3.53-1.55c3.4,2.8,6.42,1.56,9.62-0.1c0.31-0.16,0.88,0.16,1.71,0.33c-2.27,2.69-3.64,5.89-7.11,7.1
		c-2.05,3.62-2.88,8.12-7.32,9.99C205.78,301.1,205.39,300.97,205.03,300.7z"/>
	<path class="st222" d="M191.02,289.5c0.06-1.47,0.26-2.9,1.24-4.09c1.86,1.55,3.65,1.68,5.14-0.42c1.29-1.81,2.86-1.76,4.4-0.65
		c1.58,1.13,2.22,2.55,0.39,4.2c-1.2,1.08-1.28,3.03-0.49,3.84c2.43,2.5,1.25,5.59,1.94,8.34c-0.21,0.74-0.71,1.13-1.47,1.18
		c-2.4-0.66-3.48-2.68-4.71-4.56c-0.98-2.39-2.49-4.26-5.07-5.06C191.4,291.61,190.65,290.82,191.02,289.5z"/>
	<path class="st223" d="M222.7,309.65c-3.62,2.41-0.9,5.26-0.55,7.95c-0.79,2.24-2.12,2.44-3.71,0.84
		c-1.16-1.17-2.57-2.17-3.04-3.89c-0.1-0.19-0.2-0.37-0.3-0.56c-3.12-2.39-7.53-3.42-8.55-8.04c0.2-0.71,0.62-1.14,1.39-1.17
		c3.45,1.55,6.54,2.84,10.61,0.49C220.87,303.93,222.98,306.52,222.7,309.65z"/>
	<path class="st224" d="M207.93,304.78c-0.27,0.45-0.55,0.9-0.82,1.34c-0.09,0.58-0.36,1.05-0.86,1.38
		c-0.37,0.08-0.74,0.12-1.11,0.11c-0.38,0.05-0.73-0.04-1.05-0.27c-0.53-0.13-1.07-0.27-1.6-0.4c-0.31-0.29-0.63-0.58-0.94-0.87
		c-0.71-0.2-1.06-0.73-1.29-1.38c-0.1-0.44-0.12-0.88-0.07-1.32c0.1-0.44,0.28-0.84,0.52-1.21c0.46-0.52,1.07-0.74,1.74-0.85
		c0.4-0.2,0.8-0.39,1.2-0.59c0.47,0,0.93-0.01,1.39-0.01c0.32,0.13,0.65,0.27,0.97,0.4c0.62-0.12,0.93,0.14,0.94,0.77
		c0.31,0.51,0.61,1.02,0.92,1.53C207.88,303.86,207.91,304.32,207.93,304.78z"/>
	<path class="st225" d="M206.94,301.87c-0.31-0.26-0.63-0.51-0.94-0.77c1.34-2.45,4.9-3.56,4.1-7.44c-0.16-0.77,1.29-3.01,3.45-2.55
		c0.3,0.99-0.62,3.35,1.97,1.73c2.24,2.39-0.85,4.07-1.5,4.07C210.33,296.94,209.41,300.46,206.94,301.87z"/>
	<path class="st226" d="M204.92,307.36c0.42-0.14,0.84-0.28,1.26-0.42c2.51,3.22,7.51,3.47,9.18,7.69c0,0,0.03-0.07,0.03-0.07
		c-1.11,0.43-2.23,0.86-4.35,1.67c3.94,0.41,6.14,2.12,6.91,4.96c0.58,2.11,0.2,4.32-2.29,5.36c-2.52-0.42-4.23,0.53-5.05,2.98
		c-1.66,0.25-3.47,1.27-4.64-0.93c0.48-6.88,1.52-13.79-0.78-20.57c-0.29-0.06-0.43-0.18-0.41-0.36
		C204.8,307.47,204.85,307.36,204.92,307.36z"/>
	<path class="st227" d="M204.92,307.36c0.02,0.26,0.11,0.48,0.27,0.68c0,2.69,0,5.39,0,8.08c-1.64-2.92-1.62-5.84-1.11-8.78
		C204.37,307.26,204.64,307.26,204.92,307.36z"/>
	<path class="st228" d="M201.05,304.61c0.16,0.48,0.32,0.97,0.49,1.45c-2.1,1.8-3.35,4.64-6.84,4.78c-0.92,0.04-2.89,1.63-2.27,3.52
		c0.69,2.11-1.14,2.66-1.99,3.79c-0.79,1.06-1.99,1.81-3.17,0.68c-0.92-0.88-1.18-1.99-0.2-3.3c1.83-2.44,1.46-4.55-1.45-5.95
		c-0.1-1.67,0.47-3.07,1.71-4.19C191.87,304.65,196.43,304.06,201.05,304.61z"/>
	<path class="st3" d="M184.56,310.87c0.25,0.13,0.51,0.13,0.76,0.01c0.72,1.08,1.25,2.22,0.29,3.4c-0.18,0.21-1.03,0.22-1.22,0.01
		C183.37,313.14,183.94,311.99,184.56,310.87z"/>
	<path class="st113" d="M201.64,302.14c-0.19,0.42-0.37,0.84-0.56,1.27c-3.11,2.2-6.16-0.58-9.25-0.09
		c-6.3-0.17-7.62-2.66-4.44-8.13c0.41-0.7,0.2-1.75,0.28-2.65c0.88-1.28,1.89-2.42,3.35-3.05c0.48,0.57,0.97,1.14,1.45,1.71
		c2.29,1.53,3.49,4.06,5.4,5.93C198.92,298.96,200.98,300.02,201.64,302.14z"/>
	<path class="st229" d="M191.82,303.32c1.21-3.16,3.67-2.41,5.54-1.26c1.24,0.76,2.41,1.08,3.71,1.35c-0.01,0.4-0.02,0.8-0.03,1.2
		c-4.36,3.94-9.14,0.61-13.72,0.79C188.29,303.55,190.75,304.92,191.82,303.32z"/>
	<path class="st230" d="M173.95,326.97c-1.25,0.65-1.59,0.08-1.59-1.12c0.02-9.26,0.03-18.52,0.02-27.78c0-1.25,0.33-2.1,1.74-2.14
		c2.88,0.82,4.06,2.46,3.8,5.68c-0.4,4.96-0.21,9.96-0.28,14.95C176.41,320.05,175.18,323.51,173.95,326.97z"/>
	<path class="st231" d="M177.68,337.84c-0.82-1.67-1.47-3.39-0.34-5.14c0.34-0.53,1.03-0.55,1.54-0.01
		c1.59,1.73,0.18,3.41-0.09,5.11C178.41,337.81,178.05,337.83,177.68,337.84z"/>
	<path class="st221" d="M139.49,236.96c1.96-0.09,3.64-0.36,1.73-2.82c-1.09-3.39,0.44-4.6,3.62-4.1c1.06,0.17,2.16-0.16,3.18,0.32
		c-0.07,1.19-0.14,2.39-0.22,3.58c-0.5,0.81-1.92,1.74-0.01,2.4c0.99,0.35,2.15,0.24,2.62-1.17c0.3-0.92-0.27-1.83,0.12-2.73
		c0.42-0.97,1.19-1.43,2.17-1.44c1.3-0.01,1.25,1,1.38,1.95c0.17,1.23-0.78,2.97,1.31,3.42c0.71,0.15,1.64,0.28,2-0.62
		c0.39-0.97-0.6-1.25-1.13-1.75c-1.37-2.81-0.33-3.91,2.6-3.66c2.78-0.29,5.87-0.91,4.06,3.76l0.04-0.06
		c-0.71,0.57-1.71,1.25-0.59,2.12c3.47,2.71,3.95,5.16,1.54,8.81c-2.93,2.71-6.61,2.21-10.13,2.28c-3.57,0.07-7.14,0.25-10.69-0.32
		C138.79,244.74,138.28,241.16,139.49,236.96z"/>
	<path class="st232" d="M139.49,236.96c-1,3.93,0.84,6.77,3.57,9.26c0.4,1.05,1.45,1.72,1.67,2.89c0.53,2.04,0.33,3.92-1.19,5.51
		c-1.27-0.38-0.7-1.96-1.66-2.57c-1.15,7.98-0.71,8.68,6.86,11.05c0.35,0.3,0.47,0.68,0.35,1.12c-2.11,1.55-4.46,2.72-6.99,3.19
		c-1.96,0.37-4.02-0.06-5.24-2.07c-0.24-2.32-0.75-4.64,2.5-5.52c1.45-0.39,1.21-2.04,1.12-3.23c-0.32-4.36,0.87-8.78-1.6-13.07
		C137.93,241.9,137.82,239.01,139.49,236.96z"/>
	<path class="st233" d="M156.26,234.01c0.95,0.18,1.92,0.42,1.74,1.68c-0.17,1.24-1.22,1.18-2.15,1.24
		c-0.88,0.05-1.95,0.49-2.19-0.89c-0.13-0.76-0.02-1.55-0.1-2.32c-0.07-0.75-0.07-1.77-1.2-1.54c-0.95,0.2-1.58,0.48-0.59,1.82
		c0.41,0.55-0.68,3.02-2.31,2.97c-0.98-0.03-2.64,1.09-3.23-0.69c-0.41-1.23,0.25-2.08,1.55-2.35c-0.01,0.59-0.25,1.52,0.03,1.71
		c0.73,0.51,1.63,0.17,1.76-0.73c0.33-2.27,0.83-4.56-0.86-6.65c-1.06-1.32-1.41-3.2,0.26-4.03c1.93-0.95,4.4-0.94,6.32-0.02
		c1.68,0.8,1.32,2.72,0.27,4.02c-1.69,2.09-1.11,4.4-0.89,6.66c0.09,0.92,0.99,1.21,1.74,0.73
		C156.64,235.52,156.33,234.58,156.26,234.01z"/>
	<path class="st234" d="M136.85,265.34c4.1,0.92,7.9-1.06,11.88-1.23c1.36,0.81,1.44,2,1.01,3.35c-0.27,0.45-0.63,0.81-1.07,1.08
		c-2.96,0.05-5.92,0-8.87,0.17C137.23,268.86,136.43,267.7,136.85,265.34z"/>
	<path class="st235" d="M163.01,244.41c2.83-2.45,2.7-5.75-0.34-7.57c-1.98-1.18-1.99-2.09,0.29-2.79c1.77,2.99,4.35,6.07,2.55,9.65
		c-2.75,5.48-1.44,11.04-1.28,16.61c-2.85-4.15-0.41-8.82-1.29-13.16C162.19,246.23,162.18,245.31,163.01,244.41z"/>
	<path class="st236" d="M148.01,230.36c-1.13,0.3-2.16,0.39-3.42,0.2c-2.38-0.37-3.9,0.83-3.37,3.58c-1-1.36-1.37-3.24,0-4.01
		C143.29,228.94,145.79,228.93,148.01,230.36z"/>
	<path class="st237" d="M148.67,268.55c0.12-0.35,0.24-0.71,0.36-1.06c2.14-1.36,3.85-3.13,5.11-5.34c0.43,0.32,0.85,0.65,1.28,0.97
		c0.06,1.81,0.13,3.63,0.19,5.44C153.3,268.55,150.99,268.55,148.67,268.55z"/>
	<path class="st238" d="M162.92,234.12c0.97-3.74-2.04-3.22-4.05-3.77c1.36-0.99,3-1.42,4.25-0.31
		C164.4,231.2,164.2,232.81,162.92,234.12z"/>
	<path class="st239" d="M149.9,186.3c1.49,1.46,3.41,2.93,5.13,1.18c2.81-2.86-1.81-3.78-2.06-5.96c3.9-0.59,7.72,1.79,10.28,6.42
		c-1.08,2.2-5.24,1.22-4.97,4.82c-0.31,1.09-0.5,2.25-1.57,2.94c-0.52-0.75-1.04-1.49-1.68-2.4c-1.34,1.08-0.94,2.73-1.31,4.1
		c-0.58,0.53-1.16,1.05-1.74,1.58c-2.07,0.45-4.17,1.14-6.1-0.45c6.26-0.07,7.58-1.4,5.62-5.67c-1.51-1.64-4.15-1.02-5.58-2.8
		C146.05,187.54,149.79,188.83,149.9,186.3z"/>
	<path class="st240" d="M145.94,190.06c2.55-0.45,6.17-3.03,5.58,2.8C146.68,194.44,145.54,193.87,145.94,190.06z"/>
	<path class="st241" d="M145.98,174.69c0.21,1.15,1.67,1.84,1.21,3.24c-3.87-3.11-8.24-2.91-12.73-1.92
		C137.96,172.6,142.13,175.09,145.98,174.69z"/>
	<path class="st242" d="M140.08,193.87c-1.28-1.91-3.27-1.81-5.21-1.85c1.79-3.39,3.65-0.39,5.36,0.07
		C141.61,192.45,141.17,193.34,140.08,193.87z"/>
	<path class="st243" d="M150.81,180.77c2.09,2.25-0.23,3.8-0.9,5.61c-2.13-1.59,1.7-4.26-1.03-5.74
		C149.53,180.68,150.17,180.72,150.81,180.77z"/>
	<path class="st184" d="M206.03,199c-2.71-0.93-3.19-3.4-3.6-6.45c-1,1.34-1.51,2.04-2.03,2.73c-0.12-1.2,0.17-2.54-1.11-3.36
		c-0.62-3.06-4.02-1.64-5.45-3.39c1.26-2.97,4.48-1.8,6.53-3.11c0,0,0.26-0.14,0.26-0.14c1.4-0.04,1.78,0.98,2.13,1.99
		c0.01-0.04,0.25,0.17,0.25,0.17s0.28-0.16,0.3-0.2c1-0.86,2.02-1.58,3.4-1.1c0,0,0.23,0.19,0.23,0.19
		c0.05,2.46,4.35,1.24,3.72,4.29c-1.92,0.69-3.89,1.27-5.6,2.45C202.42,195.55,205.68,197.04,206.03,199z"/>
	<path class="st244" d="M205.06,193.1c0.9-4.84,1.52-5.11,5.6-2.45c1.48,1.19,0.55,2.01-0.45,2.78
		C208.4,194.82,206.69,194.48,205.06,193.1z"/>
	<path class="st245" d="M190.14,193.89c-0.68,0.59-1.36,1.17-2.03,1.75c-3.24,0.15-6.68,0.69-7.82-4.66
		c3.47,2.91,6.96-2.27,10.11,1.21C190.32,192.77,190.23,193.33,190.14,193.89z"/>
	<path class="st246" d="M193.84,188.54c0.75-0.18,1.57-0.23,2.22-0.58c1.33-0.72,2.64-1.15,3.73,0.19c1.1,1.34,0.21,2.59-0.51,3.78
		C196.85,191.8,194.03,192.3,193.84,188.54z"/>
	<path class="st8" d="M163.01,188.65c-3.46-2.21-6.06-5.62-10.03-7.12c2.3-2.38-0.45-3.69-1.15-5.44c1.93-1.25,3.85-2.5,5.78-3.75
		c4.05,0.02,7.71-2.11,11.82-1.98c2.72,0.09,4.2,0.57,3.18,3.74c-0.46,1.43-0.73,3.11,1.13,4.03c0.01,0,0.17,0.18,0.17,0.17
		c0.32,3.35,0.22,6.05-4.01,7.38c-3.07,0.97-2.86,1.64-1.32,3.52l-0.04-0.03c1.69,3.54,4.65,3.14,7.56,2.02
		c0.77,1.88-0.3,3.03-0.44,4.33c-3.08,2.28-5.39,0.53-8.39-0.68c-1.96-0.8-4.36,4.1-7.9,2.61c-0.96-0.4-1.77-1.16-2.65-1.75
		c-0.11-1.21-0.7-2.51,0.65-3.46C159.11,190.83,160.87,189.44,163.01,188.65z"/>
	<path class="st247" d="M168.58,189.19c-0.02-2.67,2.53-2.67,4.03-3.52c0.83-0.48,2.47,0.32,2.99,1.62
		c0.34,0.85,0.41,1.94-0.41,2.58c-0.96,0.75-2.17,1.59-3.38,0.84c-1.05-0.66-1.97-1.46-3.28-1.55
		C168.54,189.17,168.58,189.19,168.58,189.19z"/>
	<path class="st248" d="M180.71,186.35c2.73-0.81,5.35-1.05,7.45,1.94c-1.42,1.02-2.47,2.99-4.99,2.46
		c-2.55-0.53-1.99-2.75-2.44-4.42C180.72,186.33,180.71,186.35,180.71,186.35z"/>
	<path class="st249" d="M206.7,186.17c-0.97,1.36-2.12,2.34-3.96,1.91l0.06,0c-1.52-0.3-1.61-1.73-2.18-2.78
		c1.2-1.1,2.39-2.2,3.71-3.42C205.18,183.41,205.94,184.79,206.7,186.17z"/>
	<path class="st250" d="M186.47,199.33c-5.38,0-10.77,0.01-16.15,0.01c-0.58-0.39-1.29-0.71-0.88-1.64
		c1.68,0.27,3.37,0.68,5.07,0.12c2.6-0.54,5.21-0.42,7.82-0.03c1.68,0.57,3.35,0.18,5.03-0.06
		C187.75,198.65,187.04,198.95,186.47,199.33z"/>
	<path class="st251" d="M182.33,197.79c-2.6,1.19-5.21,1.15-7.82,0.03C177.11,195.56,179.71,195.46,182.33,197.79z"/>
	<path class="st252" d="M169.44,197.71c0.29,0.55,0.58,1.09,0.88,1.64c-1.82,0.1-3.64,0.2-5.47,0.3c-0.94-0.06-1.87-0.12-2.81-0.18
		C164.43,198.53,166.29,195.42,169.44,197.71z"/>
	<path class="st253" d="M186.47,199.33c0.29-0.53,0.59-1.07,0.88-1.6c2.83-1.94,4.66-0.15,6.46,1.73c-0.63,0.06-1.26,0.12-1.88,0.18
		C190.12,199.54,188.29,199.43,186.47,199.33z"/>
	<path class="st254" d="M171.72,269.36c3.07,2.93,3.46,5.72,1.02,8.65c-0.62,0.74-2.02,0.02-1.91-0.2c1.08-2.05-3.94-2.67-1.1-5.09
		C170.59,271.99,170.96,270.69,171.72,269.36z"/>
	<path class="st255" d="M181.38,275.25c-3.26-2.96,2.41-3.31,1.31-5.64c3.32,3.92,3.32,3.92,2.2,5.66
		C183.71,276.78,182.54,276.59,181.38,275.25z"/>
	<path class="st256" d="M175.58,285.58c-1.96-1.34-0.32-1.85,0.56-2.62c0.83-0.73,0.17-2.2,1.65-2.98c0.57,1.78,3.03,2.74,1.94,5.27
		C178.51,287.59,177.06,286.8,175.58,285.58z"/>
	<path class="st257" d="M175.58,285.58c1.41,0.32,2.83,0.64,4.15-0.32c-0.17,1.48,0.24,3.51-1.86,3.69
		C175.61,289.15,176.03,286.94,175.58,285.58z"/>
	<path class="st258" d="M181.38,275.25c1.17,0.44,2.33,0.5,3.5,0.02c-0.17,1.28,0.32,3.12-1.71,3.13
		C181.12,278.41,181.74,276.45,181.38,275.25z"/>
	<path class="st259" d="M163.01,244.41c-0.02,0.91-0.04,1.83-0.06,2.74c-1.85-0.44-1.19,1.38-1.83,2.03c-3,0.57-2.82,3.82-4.57,5.44
		c-0.05,0.15-0.08,0.31-0.15,0.44c-0.07,0.13-0.19,0.24-0.29,0.36c-0.86-6.62-4.95-2.92-8.02-2.51c-2.1-0.99-2.18-3.92-4.51-4.69
		c-0.78-0.45-1.77-0.73-1.68-1.91c0-0.06,0.76-0.07,1.17-0.1c5.38-0.37,10.76-1.04,16.15-0.3
		C160.82,246.14,161.53,244.37,163.01,244.41z"/>
	<path class="st260" d="M143.58,248.22c5.62-2.4,3.76,2.41,4.51,4.69c-0.71,2.73-2.95,1.38-4.56,1.7
		C143.55,252.49,143.56,250.35,143.58,248.22z"/>
	<path class="st261" d="M156.55,254.63c-0.06-1.24-0.13-2.48-0.18-3.72c-0.05-1.29,0.09-2.58,1.34-3.26
		c1.71-0.93,2.49,0.56,3.42,1.54C161.22,252.37,161.4,255.61,156.55,254.63z"/>
	<path class="st262" d="M154.14,262.14c0.87,5.76,0.69,5.94-5.11,5.35c-0.1-1.12-0.2-2.25-0.3-3.37c0-0.34,0-0.68,0-1.02
		C150.26,261.2,152.34,262.46,154.14,262.14z"/>
	<path class="st232" d="M146.92,261.42c0.62-2.2,2.13-2.89,3.59-3.99C150.98,260.37,149.03,260.63,146.92,261.42z"/>
	<path class="st263" d="M197.54,297.86c-3.27-1.01-5.5-2.82-5.08-6.65c3.82-0.12,5.88,1.72,6.18,5.53
		C198.51,297.34,198.17,297.74,197.54,297.86z"/>
	<path class="st264" d="M197.54,297.86c0.02-0.71,0.34-1.14,1.1-1.13c1.26,1.52,2.53,3.05,3.79,4.57c-0.27,0.28-0.53,0.56-0.8,0.84
		C200.27,300.71,198.91,299.29,197.54,297.86z"/>
	<path class="st265" d="M215.36,314.63c-2.63-3.08-7.58-3.39-9.18-7.69c0.31-0.27,0.62-0.54,0.93-0.81
		c2.23,1.48,3.08,4.82,6.65,4.68C214.28,310.78,217.32,312.29,215.36,314.63z"/>
	<path class="st266" d="M152.22,227.7c-1.16-0.2-3.12,0.47-3.09-1.59c0.04-2.21,2.34,0.04,3.09-1.17c0.86,0.85,2.73-0.94,2.98,0.85
		C155.47,227.81,153.64,227.59,152.22,227.7z"/>
	<path class="st267" d="M163.01,188.65c-1.47,1.84-1.94,5.26-5.64,3.58c-0.04-1.39-1.64-2.78-0.16-4.17
		C159.31,186.09,161.06,188.54,163.01,188.65z"/>
	<path class="st268" d="M202.8,188.08c0,0-0.05,0-0.06,0c0.7,1.06,2.12,2.02,0.6,3.42c-0.23,0.21-1,0.2-1.23-0.02
		C200.58,190.04,202.15,189.14,202.8,188.08z"/>
</g>
</svg>
