<?xml version="1.0" encoding="utf-8"?>
<!-- Generator: Adobe Illustrator 25.0.0, SVG Export Plug-In . SVG Version: 6.00 Build 0)  -->
<svg version="1.1" id="Layer_1" xmlns="http://www.w3.org/2000/svg" xmlns:xlink="http://www.w3.org/1999/xlink" x="0px" y="0px"
	 viewBox="0 0 100 100" style="enable-background:new 0 0 100 100;" xml:space="preserve">
<style type="text/css">
	.st0{fill:#FBE000;}
	.st1{fill:#007168;}
	.st2{fill:#D11034;}
	.st3{fill:#FEFEFE;}
	.st4{fill:#222014;}
	.st5{fill:#322415;}
	.st6{fill:#FDFDFD;}
	.st7{fill:#FBFBFB;}
	.st8{fill:#FCFCFC;}
	.st9{fill:#FAFAFA;}
	.st10{fill:#2B2916;}
	.st11{fill:#EEEEEE;}
	.st12{fill:#494949;}
	.st13{fill:#2A2A2A;}
	.st14{fill:#D6D6D6;}
	.st15{fill:#E7E7E7;}
	.st16{fill:#ECECEC;}
	.st17{fill:#0A0A0A;}
	.st18{fill:#CACACA;}
	.st19{fill:#606060;}
	.st20{fill:#AEAEAE;}
	.st21{fill:#A2A2A2;}
	.st22{fill:#6F6F6F;}
	.st23{fill:#515151;}
</style>
<g>
	<path class="st0" d="M100.33,68.12c0,10.41-0.01,20.83,0.01,31.24c0,0.53-0.1,0.64-0.63,0.64c-33.09-0.02-66.19-0.01-99.28-0.01
		c-0.08-0.32,0.17-0.46,0.35-0.63c2.69-2.59,5.41-5.13,8.11-7.7c2.72-2.59,5.43-5.19,8.15-7.77c2.88-2.72,5.75-5.45,8.61-8.18
		c2.53-2.42,5.1-4.79,7.6-7.23c0.31-0.3,0.62-0.54,1.06-0.56c0.41-0.05,0.82-0.04,1.23-0.04c21.08,0,42.16,0,63.23,0.01
		C99.31,67.87,99.86,67.74,100.33,68.12z"/>
	<path class="st1" d="M2.43,0.02c32.39,0,64.77,0,97.16-0.02c0.7,0,0.76,0.21,0.76,0.82c-0.02,9.73-0.01,19.46-0.01,29.19
		c-0.22,0.21-0.5,0.24-0.79,0.25c-0.33,0.01-0.66,0.01-0.99,0.01c-20.92,0-41.84,0-62.77,0c-0.48,0-0.97,0.02-1.45-0.03
		c-0.6-0.05-1.04-0.4-1.45-0.8c-3.19-3.09-6.43-6.15-9.65-9.21c-3.65-3.47-7.3-6.94-10.93-10.43C10.27,7.85,8.21,5.92,6.14,4
		c-1.17-1.08-2.3-2.21-3.46-3.3C2.49,0.53,2.31,0.33,2.43,0.02z"/>
	<path class="st2" d="M2.43,0.02c0.31,0.64,0.91,1.01,1.39,1.48c1.33,1.32,2.69,2.61,4.05,3.9c1.03,0.98,2.08,1.94,3.11,2.91
		c1.41,1.34,2.81,2.7,4.23,4.05c1.29,1.22,2.59,2.43,3.88,3.65c1.98,1.89,3.95,3.79,5.93,5.68c1.29,1.23,2.59,2.43,3.88,3.65
		c1.39,1.33,2.77,2.67,4.17,4c0.26,0.25,0.57,0.43,0.86,0.65c1.02,0.7,1.86,1.61,2.74,2.47c0.24,0.23,0.5,0.45,0.75,0.66
		c2.99,2.8,5.93,5.65,8.9,8.46c2.31,2.2,4.65,4.38,6.95,6.59c0.89,0.85,0.93,1.01-0.03,1.9c-2.18,2.04-4.34,4.1-6.51,6.16
		c-2.91,2.77-5.82,5.53-8.8,8.38c0.34,0.03,0.61,0.01,0.88,0.01c20.09,0,40.18,0,60.27,0.01c0.42,0,0.88-0.1,1.25,0.22
		c0,0.05,0,0.1,0,0.16c-0.4,0.33-0.87,0.25-1.32,0.25c-5.16,0.01-10.31,0-15.47,0c-14.93,0-29.86,0.01-44.79-0.02
		c-1.09,0-1.9,0.32-2.64,1.11c-0.64,0.68-1.24,1.47-2.18,1.8c-1.94,1.86-3.88,3.72-5.83,5.56c-1.39,1.31-2.8,2.59-4.19,3.9
		c-1.26,1.18-2.51,2.37-3.76,3.57c-1.06,1.02-2.12,2.04-3.18,3.06c-1.41,1.35-2.82,2.71-4.23,4.06c-1.25,1.19-2.52,2.37-3.77,3.56
		c-1.42,1.34-2.82,2.7-4.25,4.04c-1.35,1.27-2.66,2.59-4.05,3.82c-0.09,0.08-0.15,0.19-0.23,0.29c-0.05-0.03-0.16,0.08-0.15-0.08
		c0.01-0.21,0-0.42,0-0.62c0-32.85,0-65.7-0.01-98.56c0-0.59,0.13-0.78,0.71-0.71C1.45,0.07,1.94,0.02,2.43,0.02z"/>
	<path d="M100.33,64.84c-0.23,0.01-0.46,0.03-0.69,0.03c-20.5,0-41.01,0-61.51,0c-0.2,0-0.41,0-0.79,0
		c1.04-0.99,1.96-1.88,2.88-2.76c1.63-1.57,3.24-3.15,4.88-4.7c1.36-1.3,2.76-2.56,4.12-3.85c1.46-1.38,2.89-2.79,4.36-4.15
		c0.32-0.3,0.19-0.48-0.03-0.68c-1.31-1.24-2.64-2.46-3.95-3.7c-1.97-1.87-3.91-3.77-5.88-5.64c-1.66-1.58-3.34-3.12-5.01-4.69
		c-0.52-0.49-1-1.01-1.5-1.52c0.19-0.27,0.48-0.27,0.76-0.29c0.28-0.02,0.56-0.01,0.84-0.01c19.98,0,39.97,0,59.95,0.01
		c0.52,0,1.08-0.13,1.55,0.25C100.33,43.71,100.33,54.27,100.33,64.84z"/>
	<path class="st3" d="M100.33,33.14c-0.31,0.01-0.61,0.02-0.92,0.02c-20.42,0-40.85,0-61.27,0c-0.31,0-0.61,0.01-0.92,0.02
		c-1.15-1-2.3-2.01-3.3-3.18c0.3-0.02,0.61-0.04,0.91-0.04c21.55,0,43.11,0,64.66,0c0.28,0,0.56,0.04,0.83,0.06
		C100.33,31.05,100.33,32.1,100.33,33.14z"/>
	<path class="st3" d="M33.93,68.13c0.99-0.94,2.01-1.85,2.95-2.84c0.3-0.32,0.58-0.33,0.93-0.33c3.27,0,6.53,0,9.8,0
		c17.27,0,34.54,0,51.81,0c0.31,0,0.61,0.02,0.92,0.03c0,1.04,0,2.08,0,3.12c-0.3,0.02-0.61,0.05-0.91,0.05
		c-21.47,0-42.95,0-64.42,0C34.64,68.17,34.29,68.15,33.93,68.13z"/>
	<path d="M27.23,56.41c0.21,0.83,0.86,1.39,1.25,2.1c0.22,0.4,0.5,0.78,0.81,1.12c0.43,0.47,0.26,0.94-0.01,1.34
		c-0.27,0.4-0.63,0.39-0.92-0.05c-0.45-0.68-0.91-1.36-1.37-2.03c-0.39-0.57-0.84-1.03-1.59-1c-0.11,0.05-0.22,0.03-0.32-0.04
		c-0.03-0.07-0.03-0.14,0-0.21c0.19-0.17,0.42-0.14,0.77-0.09c-0.54-0.5-0.68-1.21-1.3-1.54c-0.25-0.23-0.55-0.15-0.84-0.15
		c-0.69,0.01-1.37,0.02-2.06-0.01c-0.18-0.01-0.35-0.04-0.5-0.14c-0.07-0.06-0.09-0.14-0.07-0.23c0.96-0.51,1.98-0.28,3.04-0.18
		c-0.13-0.45-0.44-0.7-0.64-1.01c-1.28-1.91-2.67-3.73-3.95-5.63c-0.21-0.31-0.43-0.87-0.76-0.78c-0.41,0.11-0.15,0.67-0.2,1.04
		c-0.03,0.18,0,0.36,0,0.54c0,1.38-0.01,1.4,1.23,1.87c0.43,0.16,0.61,0.43,0.61,0.87c0,0.31,0.01,0.62,0,0.93
		c-0.04,1.02-0.22,1.24-1.2,1.28c-0.44,0.02-0.63,0.26-0.81,0.59c-0.29,0.08-0.3-0.17-0.37-0.33c-0.05-0.23-0.08-0.49-0.3-0.6
		c-1.12-0.52-2.19-1.15-3.26-1.86c0.43,0.93-0.27,1.46-0.64,2.06c-0.33,0.54-0.29,0.9,0.27,1.19c0.03,0.07,0.03,0.14,0,0.22
		c-0.18,0.17-0.25,0.37-0.2,0.62c0.15,0.66-0.09,1.15-0.65,1.5c-0.23,0.12-0.44,0.12-0.62-0.09c-0.18-0.29-0.24-0.62-0.34-0.93
		c-0.09-0.31-0.2-0.59-0.58-0.61c-0.39-0.02-0.76,0-0.97,0.41c-0.21,0.41-0.53,0.75-0.76,1.14c-0.13,0.17-0.3,0.3-0.49,0.41
		c-0.68,1.02-1.33,2.06-2.03,3.06c-0.48,0.68-0.79,0.67-1.3,0c-0.44-0.59-0.83-1.23-1.27-1.83c-0.18-0.24-0.14-0.4,0.05-0.6
		c0.74-0.8,1.45-1.64,2.21-2.43c0.34-0.36,0.71-0.69,1.25-0.82c0.67-0.17,0.84-0.92,1.31-1.35c0.69-0.62,0.41-1.49,0.51-2.27
		c0.41-0.77,0.33-1.7,0.73-2.48c0.06-0.05,0.13-0.07,0.2-0.07c0.4,0.42,0.05,0.87,0.06,1.34c0.37-0.44,0.14-1.15,0.68-1.49
		c0.25,0.14,0.16,0.41,0.24,0.69c0.93-1.08,2.07-1.92,2.86-3.08c0.15-0.2-0.22-0.4,0-0.59c0.78-0.12,1.14-0.89,1.8-1.21
		c0.23-0.11,0.12-0.32-0.01-0.45c-0.69-0.69-1.06-1.63-1.75-2.32c-0.17-0.25-0.37-0.44-0.68-0.45c-0.48,0-0.81-0.25-1.14-0.74
		c-0.09,1.49-1.01,2.45-1.63,3.56c-0.94,1.45-1.85,2.93-2.8,4.37c-0.39,0.59-0.59,0.59-1.02,0c-0.58-0.79-1.09-1.63-1.63-2.45
		c-0.43-0.65-0.25-1.22,0.49-1.76c1.02-1.83,2.04-3.67,3.06-5.5c0.31-0.55,0.82-0.59,1.33-0.5c0.71,0.12,1.15-0.03,1.25-0.85
		c0.06-0.51,0.48-0.71,0.92-0.8c0.52-0.1,0.95,0.11,1.25,0.55c0.41,0.58,0.74,1.22,1.29,1.69c0.28,1.48,1.35,2.49,2.13,3.68
		c0.32,0.48,0.51,0.38,0.99,0.08c0.9-0.55,1.24-1.63,2.13-2.14c0.09-0.05,0.18-0.15,0.26-0.14c1.81,0.08,2.29-1.19,2.61-2.74
		c0.24,0.19,0.46,0.34,0.65,0.52c0.13,0.12,0.29,0.23,0.39,0.1c0.7-0.89,0.64,0.17,0.96,0.39c1.82-1.6,3.65-3.22,5.49-4.84
		c0.05,0.03,0.1,0.07,0.15,0.1c-0.31,0.41-0.61,0.83-0.93,1.22c-1.34,1.63-2.69,3.26-4.04,4.88c-0.08,0.1-0.18,0.24-0.28,0.25
		c-1.37,0.14-1.76,1.51-2.67,2.22c-0.31,0.24-0.67,0.53-0.88,0.94c-0.13,0.26-0.33,0.13-0.46-0.09c-0.15-0.26-0.27-0.62-0.66-0.28
		c-0.21,0.72-0.79,1.21-1.1,1.88c-0.28,0.6-0.31,0.62,0.33,0.66c0.37,0.02,0.76-0.08,1.1,0.17c0.09,0.16,0.06,0.29-0.07,0.41
		c-0.38,0.2-0.8,0.09-1.26,0.13c0.83,1.43,1.87,2.68,2.75,4.04c0.53,0.82,1.15,1.58,1.68,2.41c0.09,0.14,0.16,0.26,0.35,0.23
		c0.1-0.03,0.2-0.04,0.28,0.05c0.27,0.81,0.57,1.62,1.14,2.27C26.87,56.02,27.05,56.22,27.23,56.41z"/>
	<path class="st0" d="M25.11,57.79c0.1,0.03,0.2,0.07,0.3,0.1c0.88,3.35,1.75,6.7,2.68,10.26c-0.91-0.8-1.68-1.46-2.43-2.15
		c-1.12-1.02-2.24-2.06-3.35-3.09c-1.08-1-2.17-1.98-3.22-3.01c-0.71-0.69-1.11-0.7-1.82-0.02c-1.41,1.34-2.86,2.66-4.29,3.99
		c-1.41,1.31-2.82,2.62-4.23,3.93c-0.11,0.1-0.25,0.18-0.49,0.35c0.89-3.41,1.75-6.7,2.6-9.99c0.23-0.29,0.55-0.23,0.85-0.23
		c1.38,0.01,2.75-0.01,4.13,0c0.39,0,0.73,0.06,1.07,0.31c0.89,0.66,1.76,0.54,2.68-0.09c1.18-0.8,2.45-1.33,3.93-0.77
		C24.02,57.56,24.65,57.34,25.11,57.79z"/>
	<path class="st0" d="M21.88,46.29c-0.5-0.01-1.01-0.02-1.51-0.04C20.2,46.25,20,46.32,19.9,46.1c-0.08-0.17,0.07-0.27,0.16-0.39
		c0.52-0.72,0.81-1.61,1.52-2.19c0.12,0.94,0.69,1.07,1.53,1.06c3.39-0.06,6.79-0.04,10.18-0.04c0.26,0,0.55-0.1,0.86,0.15
		c-2.67,2.4-5.32,4.78-7.97,7.16c-0.35-0.09-0.35-0.41-0.42-0.68c-0.19-0.7-0.36-1.4-0.52-2.11c-0.29-1.3-1.02-2.12-2.35-2.3
		C22.51,46.72,22.16,46.58,21.88,46.29z"/>
	<path class="st0" d="M21,40.97c-0.38,0.7-0.85,1.42-1.46,1.8c-0.52,0.32-0.76,0.84-1.26,1.14c-0.79-1.09-1.57-2.21-2.4-3.29
		c-0.32-0.42,0.01-0.86-0.14-1.27c0.79-3.05,1.58-6.1,2.42-9.32C19.13,33.78,20.06,37.37,21,40.97z"/>
	<path class="st0" d="M15.13,42.12c0.81,0.71,1.23,1.74,1.94,2.53c0.2,0.22,0.28,0.63-0.3,0.54c-0.22-0.03-0.29,0.13-0.4,0.28
		c-0.33,0.49-0.78,0.79-1.38,0.81c-0.4,0.48-0.98,0.52-1.52,0.59c-1.19,0.15-1.83,0.87-2.14,1.98c-0.06,0.21-0.15,0.38-0.3,0.53
		c-0.11,0.58-0.25,1.15-0.33,1.74c-0.04,0.36-0.2,0.6-0.5,0.76c-1.11-0.97-2.22-1.93-3.32-2.91c-1.13-1.01-2.24-2.06-3.38-3.05
		c-0.45-0.4-0.82-0.88-1.38-1.17c0.02-0.07,0.04-0.14,0.06-0.21c1.15,0,2.31-0.02,3.46,0.01c0.32,0.01,0.72-0.21,0.97,0.21
		c-1.01,0.97-0.29,1.77,0.24,2.58c0.38,0.57,0.75,1.15,1.14,1.71c0.19,0.28,0.36,0.31,0.56-0.01c0.94-1.51,1.89-3.02,2.84-4.52
		c0.62-0.35,1.3-0.2,1.95-0.19c0.68,0.01,1.02-0.26,1.17-0.94C14.62,42.93,14.6,42.38,15.13,42.12z"/>
	<path class="st4" d="M25.11,57.79c-0.69-0.13-1.39-0.23-2.08-0.35c-1.21-0.21-2.4,0.08-3.37,0.94c-0.72,0.64-2.22,0.7-2.9,0.02
		c-0.21-0.21-0.38-0.28-0.63-0.28c-1.76,0.01-3.52,0.02-5.28,0.03c-0.45-0.01-0.91-0.02-1.36-0.04c0.1-0.15,0.2-0.3,0.3-0.45
		c0.99-0.08,1.97-0.14,2.96,0c0.14,0.11,0.29,0.05,0.43,0.01c0.9-0.1,1.81-0.05,2.72-0.06c0.83-0.01,1.35-0.45,1.64-1.22
		c0.02-0.12,0.08-0.22,0.15-0.31c0.19-0.27,0.15-0.59,0.18-0.89c0.03-0.26-0.04-0.59,0.33-0.69c0.05,0.17,0.1,0.33,0.15,0.5
		c0.15,0.08,0.2,0.24,0.19,0.38c-0.02,0.48,0.25,0.61,0.66,0.57c0.15,0.04,0.29,0.1,0.28,0.3c-0.1,0.2-0.48,0.35-0.16,0.64
		c0.27,0.24,0.44,0.66,0.95,0.45c1.45-0.61,2.95-0.39,4.44-0.18c0.23,0.03,0.56,0.05,0.42,0.47C25.11,57.68,25.11,57.73,25.11,57.79
		z"/>
	<path class="st5" d="M21.88,46.29c0.48,0.13,0.96,0.29,1.44,0.39c1.23,0.25,1.79,1.13,2.1,2.27c0.26,0.97,0.51,1.94,0.77,2.91
		c0.35,1.52,0.7,3.03,1.04,4.55c-0.3-0.02-0.49-0.18-0.6-0.46c0.19-0.45-0.17-0.78-0.26-1.16c-0.45-1.96-0.92-3.92-1.44-5.87
		c-0.05-0.2-0.12-0.39-0.22-0.57c-0.06-0.29-0.25-0.46-0.51-0.57c-0.48-0.56-1.13-0.74-1.82-0.84c-0.25-0.04-0.58,0.04-0.68-0.34
		C21.76,46.49,21.82,46.39,21.88,46.29z"/>
	<path class="st6" d="M19.11,56.09c-0.21,0.06-0.43,0.12-0.71,0.21c-0.02-0.46-0.04-0.87-0.06-1.29c-0.06-0.6,0.09-0.91,0.78-0.75
		c0.73,0.17,1.09-0.19,1.04-0.96c0-0.08,0-0.16,0.01-0.23c0.07-1.49,0.07-1.51-1.36-1.8c-0.36-0.07-0.46-0.22-0.45-0.56
		c0.02-0.94,0.02-1.87,0.01-2.81c0-0.22,0.03-0.43,0.24-0.53c0.26-0.11,0.36,0.16,0.46,0.3c1.29,1.83,2.57,3.66,3.85,5.49
		c0.52,0.74,1.05,1.48,1.63,2.31c-1.23-0.04-2.34-0.17-3.45,0.03c-0.29,0.22-0.64,0.25-0.97,0.34C19.83,56,19.47,56.05,19.11,56.09z
		"/>
	<path class="st6" d="M21.7,46.59c0.55,0.11,1.1,0.19,1.64,0.34c0.46,0.13,0.89,0.33,1.03,0.87c0.47,0.61,0.41,1.37,0.52,2.07
		c0.2,1.24,0.61,2.45,0.51,3.74c-0.03,0.48-0.23,0.09-0.27,0.03c-0.47-0.63-0.93-1.27-1.37-1.91c-1.15-1.66-2.3-3.32-3.49-5.05
		C20.77,46.5,21.25,46.68,21.7,46.59z"/>
	<path class="st6" d="M18.19,54.5c-0.02,0.45-0.06,0.9-0.07,1.35c-0.01,0.25-0.03,0.46-0.35,0.4c-0.55,0-1.08-0.07-1.59-0.31
		c-0.66-0.32-1.44-0.09-2.11-0.44c-0.67-0.08-0.92-0.58-0.56-1.12c0.17-0.25,0.32-0.52,0.53-0.74c0.35-0.36,0.57-0.69,0.21-1.19
		c-0.08-0.11-0.29-0.36-0.03-0.54c0.19-0.14,0.34,0.05,0.47,0.15c0.99,0.72,1.99,1.44,3.17,1.82C18.16,53.96,18.06,54.29,18.19,54.5
		z"/>
	<path class="st6" d="M25.11,57.63c0.01-0.15-0.05-0.24-0.2-0.27c-1.21-0.19-2.42-0.27-3.64-0.15c-0.2,0.02-0.45,0.02-0.59,0.14
		c-0.6,0.54-1.04,0.42-1.45-0.24c-0.14-0.23-0.62-0.23-0.53-0.56c0.07-0.26,0.46-0.24,0.71-0.34c0.22-0.22,0.52-0.3,0.8-0.4
		c0.18-0.02,0.37-0.06,0.55-0.07c0.28-0.01,0.57,0.13,0.82-0.09c0.76,0,1.52,0,2.28,0c0.22,0.22,0.57,0.06,0.8,0.27
		c0.76,0.38,0.97,1.19,1.54,1.85C25.75,57.71,25.43,57.67,25.11,57.63z"/>
	<path class="st2" d="M15.13,42.12c-0.34,0.59-0.38,1.27-0.56,1.9c-0.11,0.38-0.27,0.56-0.68,0.54c-0.83-0.04-1.66-0.03-2.49-0.04
		c0.44-0.69,0.87-1.38,1.31-2.08c0.33-0.53,0.19-1.16,0.32-1.73c0.29,0,0.44,0.24,0.51,0.41c0.17,0.44,0.48,0.48,0.86,0.45
		C14.81,41.53,15.08,41.67,15.13,42.12z"/>
	<path class="st7" d="M17.6,56.38c0.14,0.06,0.35,0.23,0.21,0.31c-0.63,0.34-0.88,1.25-1.79,1.18c-0.78-0.06-1.56,0-2.35-0.02
		c-0.17,0-0.42,0.13-0.5-0.18c0.51-0.39,0.8-0.83,0.48-1.51c-0.15-0.34,0.07-0.51,0.41-0.5c0.91,0.07,1.83,0.1,2.7,0.39
		C17.05,56.14,17.39,56.1,17.6,56.38z"/>
	<path class="st8" d="M15.21,46.71c-0.11,0.6-0.64,0.89-0.98,1.31c-0.71,0.85-1.47,1.64-2.21,2.46c-0.05-0.06-0.11-0.11-0.16-0.17
		c0.02-0.35,0.04-0.71,0.07-1.06c-0.2-0.25-0.1-0.51-0.02-0.76c0.19-0.51,0.14-1.21,0.75-1.43C13.47,46.75,14.31,46.48,15.21,46.71z
		"/>
	<path class="st9" d="M18.18,47.76c0,1.06-0.01,1.99,0.01,2.92c0.01,0.33-0.07,0.47-0.43,0.39c-0.62-0.14-1.18-0.36-1.7-0.74
		c-0.31-0.23-0.38-0.55-0.17-0.8c0.29-0.35,0.64-0.66,1.14-0.77C17.48,48.65,17.78,48.22,18.18,47.76z"/>
	<path class="st6" d="M12.74,57.65c-0.79,0.44-1.65,0.09-2.47,0.19c-0.17,0.02-0.42,0.12-0.49-0.18c0.3-0.47,0.6-0.93,0.9-1.4
		c0.34-0.54,0.87-0.29,1.32-0.33c0.37-0.04,0.34,0.37,0.41,0.62C12.52,56.92,12.63,57.29,12.74,57.65z"/>
	<path class="st7" d="M24.8,48.12c0.58,0.86,0.59,1.9,0.86,2.85c0.41,1.46,0.74,2.94,1.09,4.41c0.04,0.17,0.27,0.45-0.11,0.55
		c-0.43-0.8-1.11-1.49-1.1-2.49c-0.48-1.67-0.65-3.4-0.95-5.1C24.56,48.2,24.64,48.11,24.8,48.12z"/>
	<path class="st10" d="M15.21,46.71c-0.77-0.04-1.49,0.18-2.23,0.34c-0.41,0.09-0.67,0.39-0.73,0.84c-0.03,0.25-0.11,0.5-0.16,0.75
		c-0.5-0.18-0.21-0.41-0.16-0.6c-0.21,0.15-0.27,0.51-0.4,0.82c-0.08,0.2-0.02,0.49-0.35,0.52c-0.05,0-0.1,0-0.15,0
		c0.24-1.68,0.87-2.36,2.46-2.7c0.51-0.11,1-0.26,1.51-0.4C14.91,46.51,15.31,46.48,15.21,46.71z"/>
	<path class="st11" d="M11.19,49.38c0.17-0.59,0.29-1.22,0.8-1.63c0.2,0.27-0.29,0.62,0.1,0.88c-0.13,0.18-0.19,0.39-0.17,0.61
		c-0.32,0.31-0.24,0.75-0.33,1.13c-0.09,0.4-0.24,0.72-0.68,0.9C11.01,50.62,11.1,50,11.19,49.38z"/>
	<path class="st12" d="M24.8,48.12c-0.19,0.74,0.15,1.42,0.23,2.13c0.13,1.07,0.33,2.13,0.5,3.2c-0.05,0.06-0.1,0.11-0.15,0.17
		c-0.42-1.58-0.58-3.22-0.89-4.83c-0.06-0.33-0.09-0.66-0.14-0.99C24.68,47.67,24.81,47.8,24.8,48.12z"/>
	<path class="st13" d="M17.6,56.38c-0.96-0.25-1.92-0.43-2.92-0.48c-0.21-0.01-0.54,0.15-0.62-0.25c0-0.05,0-0.11,0-0.16
		c1.31-0.13,2.5,0.3,3.7,0.75C17.71,56.29,17.66,56.34,17.6,56.38z"/>
	<path class="st14" d="M13.01,50.81c-0.8,0.92-1.61,1.85-2.41,2.77c-0.06-0.05-0.11-0.1-0.17-0.15c0.63-1.08,1.59-1.86,2.52-2.66
		L13.01,50.81z"/>
	<path class="st15" d="M12.09,55.49c-0.42,0.05-0.74,0.09-1.09,0.13c-0.03-0.47,0.5-0.51,0.53-0.99
		C11.63,55.01,11.86,55.18,12.09,55.49z"/>
	<path class="st16" d="M12.96,50.77c0.02-0.6,0.58-0.5,0.9-0.71c-0.28,0.26-0.18,0.94-0.85,0.75
		C13.01,50.77,12.99,50.76,12.96,50.77z"/>
	<path class="st17" d="M20.8,55.93c-0.19,0.01-0.38,0.03-0.56,0.04c-0.28,0.02-0.28-0.12-0.17-0.32c0.35-0.05,0.71-0.1,1.06-0.15
		c0,0.04,0,0.07,0,0.11C21.08,55.78,20.91,55.82,20.8,55.93z"/>
	<path class="st18" d="M13.21,53.59c0.2-0.41-0.23-0.65,0.12-0.89c0.11-0.08,0.25-0.12,0.32,0.03
		C13.78,53.03,13.63,53.25,13.21,53.59z"/>
	<path class="st19" d="M11.65,54.54c0.4-0.27,0.41-0.7,0.85-0.77C12.37,54.15,12.23,54.45,11.65,54.54z"/>
	<path class="st20" d="M20.8,55.93c0.06-0.16,0.15-0.28,0.33-0.32c0.16,0.01,0.31,0.03,0.47,0.04C21.44,56.08,21.1,55.94,20.8,55.93
		z"/>
	<path class="st21" d="M24.67,55.92c-0.31,0.03-0.64,0.16-0.8-0.27C24.16,55.65,24.52,55.47,24.67,55.92z"/>
	<path class="st22" d="M14.77,49.18c-0.21,0.23-0.41,0.47-0.69,0.78C14.03,49.36,14.44,49.3,14.77,49.18z"/>
	<path class="st8" d="M18.13,58.59c-0.55,0.02-0.99-0.15-1.17-0.66c-0.09-0.25,0.94-1.04,1.29-1.05c0.36-0.01,1.36,0.74,1.24,0.98
		C19.22,58.38,18.71,58.64,18.13,58.59z"/>
	<path class="st23" d="M20.06,55.65c-0.01,0.15,0.06,0.24,0.17,0.32c-0.24,0.19-0.55,0.15-0.82,0.24c-0.1-0.04-0.2-0.08-0.3-0.13
		C19.43,55.94,19.74,55.8,20.06,55.65z"/>
</g>
</svg>
