<?xml version="1.0" encoding="utf-8"?>
<!-- Generator: Adobe Illustrator 25.0.0, SVG Export Plug-In . SVG Version: 6.00 Build 0)  -->
<svg version="1.1" id="Layer_1" xmlns="http://www.w3.org/2000/svg" xmlns:xlink="http://www.w3.org/1999/xlink" x="0px" y="0px"
	 viewBox="0 0 100 100" style="enable-background:new 0 0 100 100;" xml:space="preserve">
<style type="text/css">
	.st0{fill:#C7102E;}
	.st1{fill:#FEFEFE;}
	.st2{fill:#012169;}
</style>
<g>
	<path class="st0" d="M55.82,99.98c-3.88,0-7.76,0-11.65,0c-0.15-0.14-0.2-0.32-0.2-0.53c0-0.26,0-0.52,0-0.78
		c0-12.5,0-24.99,0-37.49c0-0.98,0-0.99-0.99-0.99c-13.99,0-27.97,0-41.96,0c-0.34,0-0.72,0.1-1.01-0.2c0-6.66,0-13.33,0-19.99
		c0.14-0.15,0.32-0.2,0.53-0.2c0.26,0,0.52,0,0.78,0c13.88,0,27.75,0,41.63,0c1.02,0,1.03,0,1.03-1.05c0-12.55,0-25.09,0-37.64
		c0-1.14,0-1.14,1.13-1.14c3.43,0,6.86,0,10.29,0c0.54,0,0.61,0.07,0.63,0.6c0.01,0.27,0,0.55,0,0.82c0,12.47,0,24.93,0,37.4
		c0,0.99,0,0.99,0.98,0.99c14.02,0,28.04,0,42.07,0c0.34,0,0.72-0.1,1.01,0.2c0,6.66,0,13.33,0,19.99c-0.14,0.15-0.32,0.2-0.53,0.2
		c-0.26,0-0.52,0-0.78,0c-13.91,0-27.81,0-41.72,0c-1.04,0-1.04,0-1.04,1.03c0,12.58,0,25.15,0,37.73
		C56.02,99.31,56.12,99.69,55.82,99.98z"/>
	<path class="st1" d="M100.08,40.01c-14.56,0-29.11,0-43.67,0.01c-0.48,0-0.6-0.1-0.6-0.59c0.02-12.95,0.01-25.9,0.02-38.85
		c0-0.43-0.1-0.56-0.54-0.55c-3.54,0.02-7.08,0.02-10.63,0c-0.41,0-0.5,0.11-0.5,0.5c0.01,12.97,0.01,25.93,0.02,38.9
		c0,0.5-0.13,0.59-0.6,0.59c-14.52-0.01-29.05-0.01-43.57-0.01c0-2.23,0-4.46,0-6.7c0.16-0.17,0.37-0.19,0.58-0.19
		c5.48-0.01,10.96,0,16.45,0c-1.16-0.98-2.32-1.98-3.47-2.97c-2.97-2.55-5.94-5.08-8.9-7.64c-1.39-1.2-2.79-2.4-4.2-3.59
		c-0.19-0.16-0.34-0.34-0.46-0.55c0-1.29,0-2.59,0-3.88c0.19-0.07,0.3,0.08,0.42,0.18c3.23,2.76,6.46,5.52,9.68,8.3
		c2.36,2.04,4.73,4.06,7.11,6.09c1.47,1.26,2.95,2.51,4.41,3.8c0.28,0.25,0.59,0.29,0.94,0.29c2.49,0,4.98,0,7.53,0
		c-0.73-0.62-1.42-1.22-2.12-1.81c-2.74-2.34-5.48-4.69-8.21-7.04c-3.11-2.68-6.23-5.34-9.35-8.02c-2.97-2.55-5.93-5.1-8.9-7.65
		C1,8.19,0.39,7.82,0.01,7.21c0-2.33,0-4.66-0.01-6.98c0-0.23,0.04-0.34,0.29-0.3c0.06,0.01,0.13,0,0.19,0
		c33.05,0,66.1,0,99.15,0.01c0.14,0,0.33-0.11,0.44,0.09c-1.63,1.01-2.97,2.38-4.42,3.61c-3.15,2.68-6.29,5.38-9.43,8.07
		c-3.43,2.93-6.84,5.88-10.27,8.81c-3.44,2.94-6.86,5.9-10.3,8.84c-1.44,1.23-2.87,2.46-4.31,3.69c-0.06,0.05-0.11,0.09-0.18,0.12
		c0.24-0.06,0.48-0.04,0.72-0.04c2.25,0,4.5-0.01,6.74,0.01c0.51,0,0.9-0.14,1.31-0.49c2.06-1.77,4.12-3.54,6.18-5.31
		c2.27-1.94,4.54-3.9,6.8-5.85c1.63-1.4,3.27-2.8,4.9-4.19c2.25-1.92,4.48-3.86,6.73-5.79c1.63-1.4,3.26-2.81,4.91-4.19
		c0.17-0.15,0.32-0.38,0.61-0.32c0,3.72,0,7.44,0,11.16c-0.09,0.26-0.24,0.47-0.46,0.66c-4.11,3.5-8.18,7.03-12.29,10.53
		c-1.45,1.24-2.89,2.48-4.37,3.75c0.19,0.03,0.34,0.01,0.49,0.01c5.27,0,10.54,0,15.81,0c0.29,0,0.59-0.05,0.82,0.19
		C100.08,35.55,100.08,37.78,100.08,40.01z"/>
	<path class="st1" d="M55.82,99.98c0-13.15,0-26.29-0.01-39.44c0-0.44,0.11-0.55,0.55-0.55C70.93,60,85.51,60,100.08,60
		c0,2.23,0,4.46,0,6.7c-0.19,0.2-0.44,0.19-0.68,0.19c-5.42,0-10.84,0.01-16.25,0c-0.05,0-0.1-0.01-0.18,0.02
		c1.22,1.03,2.42,2.06,3.61,3.09c2.72,2.36,5.47,4.7,8.2,7.05c1.63,1.4,3.26,2.8,4.89,4.21c0.19,0.16,0.33,0.35,0.41,0.58
		c0,1.23,0,2.46,0,3.69c-0.31,0.05-0.47-0.2-0.65-0.35c-1.42-1.22-2.85-2.44-4.27-3.66c-1.51-1.3-3.01-2.6-4.52-3.89
		c-2.72-2.34-5.46-4.66-8.17-7.01c-1.35-1.18-2.73-2.33-4.09-3.5c-0.26-0.22-0.56-0.22-0.87-0.22c-2.31,0-4.63,0-6.94,0
		c-0.23,0-0.45,0.01-0.71-0.03c1.91,1.62,3.79,3.24,5.66,4.85c2.72,2.34,5.45,4.67,8.17,7.01c3.11,2.68,6.23,5.35,9.35,8.02
		c2.22,1.9,4.44,3.81,6.65,5.73c0.18,0.15,0.31,0.32,0.38,0.54c0,2.23,0,4.46,0.01,6.7c0,0.24-0.05,0.3-0.3,0.3
		c-1.55-0.01-3.11-0.01-4.66-0.01c-0.75-0.31-1.27-0.93-1.87-1.44c-2.12-1.82-4.25-3.64-6.37-5.46c-2.94-2.52-5.88-5.06-8.83-7.58
		c-4.06-3.46-8.09-6.96-12.15-10.42c-1.92-1.64-3.83-3.28-5.73-4.93c-0.07-0.06-0.14-0.13-0.24-0.18c-0.09,0.14-0.05,0.28-0.05,0.42
		c0,9.57,0,19.14,0,28.71c0,0.3,0.07,0.62-0.19,0.87C58.41,99.98,57.12,99.98,55.82,99.98z"/>
	<path class="st1" d="M0.01,60c14.53,0,29.05,0,43.58-0.01c0.49,0,0.6,0.11,0.6,0.6c-0.02,13.13-0.01,26.26-0.01,39.39
		c-1.29,0-2.59,0-3.88,0c-0.23-0.22-0.19-0.5-0.19-0.78c0-1.79,0-3.59,0-5.38c0-7.86,0-15.71,0-23.57c0-0.08,0.01-0.16-0.03-0.28
		c-0.56,0.36-1.02,0.83-1.51,1.26c-2.1,1.82-4.22,3.62-6.33,5.43c-2.99,2.57-5.97,5.15-8.98,7.71c-4.03,3.44-8.04,6.91-12.07,10.35
		c-1.87,1.59-3.74,3.19-5.58,4.81c-0.22,0.2-0.49,0.31-0.74,0.45c-1.46,0-2.91,0-4.37,0c-0.13-0.21,0.05-0.28,0.17-0.38
		c2.75-2.33,5.47-4.69,8.21-7.03c2.04-1.74,4.07-3.49,6.11-5.24c2.47-2.11,4.93-4.23,7.4-6.34c1.91-1.64,3.83-3.28,5.74-4.92
		c2.23-1.92,4.47-3.82,6.69-5.75c1.17-1.02,2.35-2.03,3.54-3.02c0.15-0.12,0.3-0.25,0.46-0.41c-2.64,0-5.23,0-7.83,0
		c-0.29,0-0.52,0.12-0.74,0.31c-2.43,2.08-4.85,4.17-7.28,6.26c-2.68,2.31-5.38,4.6-8.05,6.92c-1.61,1.4-3.24,2.77-4.86,4.16
		c-2.71,2.33-5.43,4.64-8.12,6.99C1.48,91.9,1,92.26,0.56,92.67c-0.15,0.14-0.32,0.3-0.55,0.13c0-3.72,0-7.44,0-11.16
		c0.58-0.79,1.41-1.33,2.14-1.96c3.62-3.15,7.29-6.24,10.92-9.39c1.32-1.14,2.64-2.28,3.98-3.4c-5.48,0-10.94,0-16.41,0
		c-0.23,0-0.46,0-0.63-0.19C0.01,64.46,0.01,62.23,0.01,60z"/>
	<path class="st2" d="M4.86,99.98c0.51-0.46,1.02-0.93,1.54-1.38c0.58-0.51,1.19-0.98,1.77-1.49c0.8-0.7,1.62-1.39,2.42-2.08
		c0.55-0.47,1.11-0.93,1.65-1.41c0.8-0.7,1.61-1.39,2.42-2.08c0.54-0.46,1.09-0.91,1.62-1.38c1.07-0.95,2.16-1.89,3.27-2.8
		c0.78-0.63,1.49-1.34,2.26-1.98c1.07-0.88,2.11-1.8,3.18-2.7c0.76-0.64,1.51-1.32,2.27-1.97c1.32-1.12,2.61-2.27,3.94-3.37
		c0.76-0.63,1.49-1.29,2.24-1.93c1.07-0.91,2.12-1.85,3.21-2.73c0.85-0.68,1.62-1.47,2.46-2.17c0.36-0.3,0.67-0.7,1.18-0.88
		c0,10.14,0,20.24,0,30.35C28.48,99.98,16.67,99.98,4.86,99.98z"/>
	<path class="st2" d="M59.7,99.98c0-10.1,0-20.21,0-30.33c0.47,0.07,0.74,0.44,1.01,0.7c1.27,1.21,2.65,2.29,3.96,3.46
		c1.35,1.19,2.73,2.35,4.1,3.52c1.15,0.98,2.29,1.97,3.44,2.94c1.21,1.01,2.38,2.05,3.59,3.05c0.76,0.63,1.49,1.29,2.24,1.93
		c1.07,0.91,2.14,1.82,3.2,2.73c0.83,0.71,1.67,1.41,2.46,2.16c0.75,0.7,1.6,1.3,2.37,2c0.54,0.49,1.1,0.95,1.65,1.41
		c0.81,0.69,1.63,1.36,2.42,2.07c0.53,0.48,1.08,0.92,1.61,1.38c1.1,0.94,2.15,1.94,3.3,2.82c0.04,0.03,0.05,0.11,0.07,0.17
		C83.32,99.98,71.51,99.98,59.7,99.98z"/>
	<path class="st0" d="M0.01,92.8c0.53-0.11,0.78-0.6,1.16-0.9c1.38-1.09,2.67-2.27,4.01-3.41c1.05-0.89,2.1-1.8,3.14-2.71
		c1.19-1.04,2.42-2.05,3.62-3.07c0.79-0.68,1.57-1.37,2.36-2.05c1.28-1.1,2.54-2.24,3.86-3.3c0.77-0.62,1.48-1.32,2.24-1.96
		c1.08-0.89,2.11-1.84,3.2-2.71c0.86-0.69,1.64-1.47,2.48-2.19c1.04-0.89,2.09-1.76,3.14-2.64c0.24-0.2,0.49-0.39,0.69-0.62
		c0.37-0.44,0.81-0.56,1.38-0.55c2.59,0.03,5.17,0.01,7.81,0.01c-0.34,0.51-0.83,0.8-1.24,1.17c-0.58,0.52-1.19,1-1.78,1.5
		c-1.07,0.92-2.12,1.87-3.22,2.76c-0.78,0.64-1.51,1.34-2.28,1.99c-1.05,0.9-2.12,1.77-3.18,2.67c-0.77,0.65-1.5,1.35-2.27,2
		c-1.33,1.1-2.6,2.26-3.94,3.36c-0.75,0.62-1.48,1.28-2.22,1.91c-1.07,0.92-2.15,1.83-3.22,2.75c-1.05,0.9-2.1,1.8-3.14,2.71
		c-1,0.88-2.01,1.76-3.05,2.6c-0.78,0.64-1.51,1.34-2.28,1.99c-1.05,0.9-2.13,1.77-3.18,2.67c-0.82,0.71-1.63,1.44-2.44,2.16
		C1.3,99.3,0.84,99.57,0.5,99.98C0.09,100.06,0,99.9,0,99.49C0.02,97.26,0.01,95.03,0.01,92.8z"/>
	<path class="st0" d="M100.08,7.02c-0.78,0.68-1.56,1.37-2.35,2.04c-0.56,0.49-1.14,0.96-1.71,1.44c-1.3,1.1-2.63,2.18-3.9,3.32
		c-0.8,0.73-1.64,1.42-2.45,2.15c-0.77,0.7-1.6,1.33-2.39,2.01c-0.78,0.66-1.53,1.36-2.31,2.02c-1.04,0.89-2.11,1.74-3.13,2.65
		c-0.8,0.72-1.61,1.41-2.43,2.11c-0.8,0.68-1.62,1.35-2.41,2.06c-0.53,0.48-1.08,0.93-1.63,1.39c-1.09,0.92-2.17,1.85-3.25,2.79
		c-0.8,0.69-1.6,1.37-2.38,2.09c-0.17,0.15-0.32,0.24-0.54,0.24c-2.75,0-5.5,0-8.3,0c0.29-0.53,0.81-0.79,1.2-1.16
		c0.59-0.55,1.22-1.05,1.84-1.58c0.79-0.67,1.59-1.34,2.39-2.01c0.51-0.43,1-0.88,1.51-1.31c1.33-1.12,2.64-2.26,3.97-3.38
		c0.82-0.7,1.64-1.42,2.45-2.14c1.03-0.92,2.11-1.78,3.16-2.68c0.76-0.64,1.5-1.3,2.25-1.95c0.79-0.68,1.59-1.34,2.38-2.02
		c0.58-0.49,1.13-1.02,1.71-1.5c1.08-0.89,2.12-1.82,3.19-2.71c0.77-0.65,1.53-1.31,2.28-1.98c1.03-0.9,2.1-1.75,3.12-2.65
		c0.54-0.47,1.09-0.92,1.63-1.39c1.06-0.95,2.16-1.86,3.24-2.8c0.56-0.49,1.15-0.94,1.68-1.47c0.32-0.32,0.66-0.64,1.18-0.55
		C100.08,2.36,100.08,4.69,100.08,7.02z"/>
	<path class="st0" d="M100.08,92.99c-1.03-0.87-2.07-1.74-3.09-2.62c-0.58-0.49-1.13-1.02-1.7-1.51c-1.05-0.9-2.14-1.75-3.17-2.68
		c-0.74-0.67-1.49-1.31-2.25-1.95c-1.07-0.9-2.13-1.81-3.2-2.72c-0.84-0.71-1.67-1.43-2.49-2.17c-1.01-0.92-2.09-1.76-3.13-2.65
		c-0.77-0.66-1.51-1.34-2.27-1.99c-0.78-0.67-1.58-1.31-2.36-1.97c-0.57-0.48-1.11-0.99-1.68-1.47c-1.05-0.9-2.13-1.77-3.15-2.7
		c-0.66-0.6-1.41-1.11-2.06-1.85c0.25,0,0.42,0,0.59,0c2.52,0,5.05,0.01,7.57-0.01c0.35,0,0.6,0.09,0.86,0.32
		c1.24,1.13,2.54,2.19,3.81,3.28c0.81,0.7,1.61,1.41,2.43,2.1c0.8,0.68,1.61,1.37,2.41,2.05c0.55,0.47,1.1,0.96,1.66,1.43
		c1.26,1.08,2.53,2.15,3.79,3.24c0.82,0.71,1.63,1.44,2.45,2.15c0.79,0.68,1.59,1.34,2.39,2.01c0.56,0.47,1.12,0.93,1.65,1.43
		c0.3,0.29,0.64,0.53,0.95,0.81C100.08,88.01,100.08,90.5,100.08,92.99z"/>
	<path class="st0" d="M0.01,7.21C0.53,7.47,0.92,7.9,1.36,8.26c0.81,0.67,1.61,1.36,2.41,2.05c0.56,0.47,1.11,0.95,1.66,1.43
		c1.07,0.92,2.15,1.83,3.22,2.76c0.76,0.66,1.51,1.34,2.27,1.99c1.05,0.9,2.12,1.77,3.17,2.67c0.77,0.66,1.5,1.35,2.27,1.99
		c1.33,1.09,2.61,2.26,3.93,3.36c0.76,0.63,1.5,1.31,2.25,1.95c1.07,0.9,2.12,1.82,3.2,2.72c0.8,0.67,1.58,1.35,2.36,2.04
		c0.69,0.6,1.38,1.2,2.07,1.81c0.08,0.07,0.15,0.15,0.28,0.3c-0.19,0-0.3,0-0.42,0c-2.59,0-5.18-0.01-7.76,0.01
		c-0.33,0-0.57-0.11-0.81-0.32c-1.07-0.94-2.16-1.86-3.25-2.79c-0.75-0.65-1.49-1.31-2.24-1.96c-0.79-0.68-1.59-1.34-2.39-2.01
		c-0.51-0.43-1-0.88-1.51-1.31c-1.15-0.95-2.26-1.95-3.39-2.91c-1.05-0.89-2.09-1.8-3.14-2.7c-1.19-1.04-2.44-2.02-3.61-3.09
		c-0.64-0.58-1.38-1.06-1.93-1.74C0.01,12.07,0.01,9.64,0.01,7.21z"/>
	<path class="st2" d="M100.08,81.83c-0.77-0.68-1.54-1.37-2.33-2.04c-0.58-0.5-1.2-0.97-1.78-1.48c-0.81-0.71-1.63-1.41-2.46-2.11
		c-0.55-0.47-1.1-0.94-1.65-1.41c-0.81-0.69-1.62-1.37-2.43-2.07c-0.56-0.48-1.11-0.98-1.67-1.46c-1.05-0.9-2.13-1.78-3.16-2.71
		c-0.67-0.61-1.42-1.12-2.06-1.85c5.88,0,11.7,0,17.52,0C100.08,71.74,100.08,76.79,100.08,81.83z"/>
	<path class="st2" d="M100.08,33.32c-5.82,0-11.64,0-17.49,0c0.34-0.52,0.84-0.8,1.26-1.18c0.58-0.53,1.19-1.03,1.79-1.53
		c0.8-0.68,1.61-1.35,2.4-2.03c0.56-0.48,1.11-0.98,1.67-1.46c0.8-0.68,1.61-1.34,2.4-2.04c0.54-0.48,1.11-0.93,1.65-1.41
		c1.06-0.95,2.14-1.86,3.22-2.77c0.45-0.38,0.88-0.77,1.33-1.15c0.6-0.5,1.18-1.04,1.76-1.56
		C100.08,23.22,100.08,28.27,100.08,33.32z"/>
	<path class="st2" d="M0.01,66.69c5.79,0,11.57,0,17.39,0c-0.33,0.52-0.83,0.8-1.24,1.18c-0.58,0.53-1.2,1.02-1.79,1.53
		c-1.07,0.91-2.14,1.81-3.2,2.73c-0.56,0.48-1.1,0.98-1.66,1.46c-0.8,0.68-1.62,1.33-2.4,2.03C6.59,76.09,6.04,76.54,5.5,77
		c-0.83,0.72-1.67,1.41-2.49,2.13c-0.85,0.75-1.74,1.47-2.57,2.25c-0.13,0.12-0.24,0.24-0.43,0.26C0.01,76.66,0.01,71.68,0.01,66.69
		z"/>
	<path class="st2" d="M0.01,18.37c0.73,0.43,1.3,1.06,1.95,1.6c1.06,0.89,2.15,1.76,3.18,2.68c0.79,0.71,1.6,1.4,2.41,2.09
		c0.81,0.68,1.62,1.38,2.42,2.07c0.52,0.45,1.04,0.91,1.57,1.36c0.84,0.72,1.67,1.46,2.54,2.15c0.78,0.63,1.5,1.32,2.25,1.98
		c0.36,0.31,0.77,0.57,1.1,1.02c-5.84,0-11.63,0-17.42,0C0.01,28.33,0.01,23.35,0.01,18.37z"/>
	<path class="st2" d="M4.89,0.12c0.17-0.15,0.35-0.08,0.52-0.08c11.47,0,22.94,0,34.41-0.01c0.29,0,0.49-0.04,0.49,0.4
		c-0.02,9.9-0.01,19.79-0.01,29.69c0,0.06-0.01,0.13-0.01,0.22c-0.45-0.04-0.71-0.42-0.97-0.66c-1.03-0.96-2.12-1.84-3.18-2.75
		c-1.2-1.02-2.39-2.05-3.6-3.06c-0.85-0.71-1.67-1.45-2.51-2.19c-1.21-1.06-2.46-2.06-3.67-3.12c-0.54-0.48-1.1-0.94-1.65-1.42
		c-0.8-0.7-1.6-1.4-2.43-2.07c-0.58-0.47-1.12-1.02-1.69-1.5c-1.06-0.9-2.15-1.76-3.19-2.68c-0.76-0.68-1.54-1.33-2.3-2
		c-1.02-0.89-2.09-1.74-3.1-2.64c-0.53-0.47-1.09-0.91-1.61-1.38C9.31,3.91,8.21,2.99,7.13,2.05C6.57,1.57,5.97,1.12,5.46,0.59
		C5.29,0.42,5.08,0.28,4.89,0.12z"/>
	<path class="st2" d="M59.7,30.4c0-0.21,0-0.37,0-0.53c0-9.77,0-19.53-0.01-29.3c0-0.44,0.1-0.55,0.55-0.55
		c11.45,0.01,22.9,0.01,34.35,0.01c0.17,0,0.35-0.06,0.54,0.08c-1.05,0.83-2.03,1.71-3.03,2.57c-0.83,0.71-1.67,1.41-2.47,2.16
		c-0.75,0.7-1.6,1.3-2.37,1.99c-0.53,0.48-1.08,0.92-1.61,1.38c-0.81,0.71-1.63,1.41-2.45,2.11c-0.55,0.47-1.11,0.93-1.65,1.41
		c-0.79,0.71-1.6,1.39-2.42,2.07c-0.59,0.49-1.14,1.03-1.73,1.53c-1.04,0.89-2.12,1.74-3.14,2.66c-0.54,0.48-1.1,0.94-1.65,1.42
		c-0.8,0.7-1.61,1.39-2.42,2.07c-0.54,0.46-1.09,0.91-1.61,1.38c-1.07,0.95-2.15,1.89-3.26,2.79c-0.79,0.64-1.52,1.34-2.29,2.01
		c-0.97,0.85-1.95,1.69-2.94,2.53C60,30.28,59.87,30.32,59.7,30.4z"/>
</g>
</svg>
