<svg aria-hidden="true" style="position: absolute; width: 0; height: 0; overflow: hidden;" version="1.1" xmlns="http://www.w3.org/2000/svg" xmlns:xlink="http://www.w3.org/1999/xlink">
<defs>
<symbol id="photos" viewBox="0 0 32 32">
<path stroke-linejoin="round" stroke-linecap="round" stroke-miterlimit="4" stroke-width="2" d="M21.909 9.293l-1.664-2.629c-0.351-0.409-0.831-0.664-1.37-0.664h-5.75c-0.539 0-1.019 0.255-1.37 0.664l-1.664 2.629c-0.351 0.409-0.803 0.707-1.341 0.707h-3.75c-1.105 0-2 0.895-2 2v0 12c0 1.105 0.895 2 2 2v0h22c1.105 0 2-0.895 2-2v0-12c0-1.105-0.895-2-2-2v0h-3.688c-0.541 0-1.053-0.298-1.404-0.707z"></path>
<path stroke-linejoin="miter" stroke-linecap="butt" stroke-miterlimit="10" stroke-width="2" d="M21 17c0 2.761-2.239 5-5 5s-5-2.239-5-5c0-2.761 2.239-5 5-5s5 2.239 5 5z"></path>
<path stroke-linejoin="round" stroke-linecap="round" stroke-miterlimit="4" stroke-width="2" d="M7.75 9.875v-1.375h-1.5v1.375"></path>
</symbol>
<symbol id="videos" viewBox="0 0 32 32">
<path stroke-linejoin="round" stroke-linecap="round" stroke-miterlimit="4" stroke-width="2" d="M23.424 19.299l5.169 3.639c0.119 0.054 0.259 0.086 0.406 0.086 0.552 0 1-0.448 1-1v0-12.047c0-0.552-0.448-1-1-1-0.147 0-0.287 0.032-0.413 0.089l0.006-0.003-5.169 3.639c-0.258 0.183-0.424 0.481-0.424 0.818v0 4.963c0 0.337 0.166 0.634 0.421 0.815l0.003 0.002z"></path>
<path stroke-linejoin="miter" stroke-linecap="butt" stroke-miterlimit="10" stroke-width="2" d="M16.75 24h-11.5c-1.793-0.005-3.245-1.457-3.25-3.25v-9.5c0.005-1.793 1.457-3.245 3.249-3.25h11.53c1.776 0.006 3.214 1.444 3.22 3.219v9.531c-0.005 1.793-1.457 3.245-3.25 3.25h-0z"></path>
</symbol>
<symbol id="pause-btn" viewBox="0 0 32 32">
<path d="M7.256 2.1c-1.056 0.281-1.881 1.125-2.162 2.194-0.144 0.537-0.144 22.875 0 23.413 0.281 1.081 1.112 1.919 2.188 2.2 0.537 0.137 3.9 0.137 4.438 0 1.075-0.281 1.906-1.119 2.188-2.2 0.081-0.313 0.094-1.85 0.094-11.706 0-9.988-0.012-11.394-0.094-11.719-0.281-1.075-1.119-1.906-2.2-2.188-0.506-0.131-3.956-0.125-4.45 0.006z"></path>
<path d="M20.256 2.1c-1.056 0.281-1.881 1.125-2.163 2.194-0.144 0.537-0.144 22.875 0 23.413 0.281 1.081 1.113 1.919 2.188 2.2 0.538 0.137 3.9 0.137 4.438 0 1.075-0.281 1.906-1.119 2.188-2.2 0.081-0.313 0.094-1.85 0.094-11.706 0-9.988-0.012-11.394-0.094-11.719-0.281-1.075-1.119-1.906-2.2-2.188-0.506-0.131-3.956-0.125-4.45 0.006z"></path>
</symbol>
<symbol id="send" viewBox="0 0 32 32">
<path d="M29.787 14.191l-0.010-0.004-26.692-11.071c-0.168-0.072-0.363-0.114-0.569-0.114-0.306 0-0.589 0.093-0.825 0.252l0.005-0.003c-0.421 0.279-0.696 0.751-0.696 1.287v7.081c0 0.729 0.521 1.337 1.211 1.472l0.009 0.002 14.558 2.692c0.117 0.023 0.203 0.124 0.203 0.246s-0.087 0.223-0.202 0.245l-0.002 0-14.557 2.692c-0.699 0.136-1.22 0.743-1.221 1.472v7.082c0 0 0 0.001 0 0.001 0 0.512 0.261 0.962 0.656 1.226l0.005 0.003c0.232 0.156 0.518 0.25 0.826 0.25h0c0.215-0 0.419-0.045 0.605-0.124l-0.010 0.004 26.704-11.014c0.718-0.314 1.21-1.018 1.21-1.837s-0.492-1.523-1.197-1.832l-0.013-0.005z"></path>
</symbol>
<symbol id="facebook" viewBox="0 0 17 32">
<path d="M0 17.382c0-1.888 0-3.77 0-5.658 0.064-0.083 0.154-0.077 0.243-0.077 0.646 0 1.299 0 1.946 0 0.787 0 1.568 0 2.355 0 0.282 0 0.307-0.026 0.307-0.301 0-1.35 0-2.701 0-4.051 0-1.171 0.205-2.304 0.666-3.379 0.275-0.646 0.646-1.229 1.12-1.754 1.069-1.178 2.413-1.83 3.968-2.074 0.39-0.064 0.794-0.064 1.197-0.064 0.442 0 0.883 0 1.325 0 0.915 0 1.837 0.026 2.752 0.070 0.186 0.006 0.378 0.038 0.563 0.058 0.122 0.013 0.166 0.070 0.166 0.192-0.006 0.416 0 0.826 0 1.242 0 1.184 0 2.368 0 3.552 0 0.237-0.013 0.256-0.256 0.256-1.018 0.006-2.029 0-3.046 0.006-0.41 0-0.813 0.077-1.197 0.224-0.691 0.262-1.043 0.794-1.171 1.491-0.045 0.256-0.077 0.518-0.077 0.781 0.006 1.126 0 2.253 0 3.379 0 0.064 0 0.128 0.006 0.186 0.006 0.115 0.070 0.179 0.186 0.192 0.070 0.006 0.134 0.006 0.205 0.006 1.568 0 3.142 0 4.71 0 0.096 0 0.186 0 0.282 0.006 0.179 0.013 0.211 0.045 0.198 0.224-0.019 0.307-0.070 0.614-0.109 0.922-0.179 1.427-0.371 2.854-0.55 4.282-0.045 0.371-0.051 0.378-0.422 0.384-1.35 0-2.701 0-4.051 0-0.070 0-0.134 0-0.205 0-0.198 0.006-0.25 0.058-0.256 0.256 0 0.077 0 0.16 0 0.237 0 4.512 0 9.030 0 13.542 0 0.109 0.006 0.218-0.006 0.333-0.006 0.070-0.019 0.141-0.102 0.154-1.901 0-3.802 0-5.709 0-0.038 0-0.070 0.006-0.109-0.006-0.064-0.038-0.064-0.102-0.070-0.166-0.006-0.109-0.006-0.218-0.006-0.333 0-4.531 0-9.062 0-13.587 0-0.422-0.006-0.429-0.435-0.429-1.37 0-2.733 0-4.102 0-0.096-0.019-0.224 0.006-0.314-0.096z"></path>
</symbol>
<symbol id="tri-down" viewBox="0 0 32 32">
<path d="M6.125 11.879l8.736 10.195c0.277 0.321 0.684 0.524 1.139 0.524s0.862-0.202 1.137-0.522l0.002-0.002 8.736-10.195c0.834-0.973 0.142-2.476-1.139-2.476h-17.475c-1.281 0-1.973 1.503-1.136 2.476z"></path>
</symbol>
<symbol id="tri-right" viewBox="0 0 32 32">
<path d="M11.879 25.875l10.195-8.736c0.321-0.277 0.524-0.684 0.524-1.139s-0.202-0.862-0.522-1.137l-0.002-0.002-10.195-8.736c-0.973-0.834-2.476-0.143-2.476 1.139v17.475c0 1.281 1.503 1.973 2.476 1.136z"></path>
</symbol>
<symbol id="tri-up" viewBox="0 0 32 32">
<path d="M25.875 20.121l-8.736-10.195c-0.277-0.321-0.684-0.524-1.139-0.524s-0.862 0.202-1.137 0.522l-0.002 0.002-8.736 10.195c-0.834 0.973-0.143 2.476 1.139 2.476h17.475c1.281 0 1.973-1.503 1.136-2.476z"></path>
</symbol>
<symbol id="tri-left" viewBox="0 0 32 32">
<path d="M20.121 6.125l-10.195 8.736c-0.321 0.277-0.524 0.684-0.524 1.139s0.202 0.862 0.522 1.137l0.002 0.002 10.195 8.736c0.973 0.834 2.476 0.142 2.476-1.139v-17.475c0-1.281-1.503-1.973-2.476-1.136z"></path>
</symbol>
<symbol id="arrow-back" viewBox="0 0 32 32">
<path stroke-linejoin="round" stroke-linecap="round" stroke-miterlimit="4" stroke-width="3" d="M20.5 7l-9 9 9 9"></path>
</symbol>
<symbol id="arrow-down" viewBox="0 0 32 32">
<path stroke-linejoin="round" stroke-linecap="round" stroke-miterlimit="4" stroke-width="3" d="M7 11.5l9 9 9-9"></path>
</symbol>
<symbol id="arrow-forward" viewBox="0 0 32 32">
<path stroke-linejoin="round" stroke-linecap="round" stroke-miterlimit="4" stroke-width="3" d="M11.5 7l9 9-9 9"></path>
</symbol>
<symbol id="arrow-up" viewBox="0 0 32 32">
<path stroke-linejoin="round" stroke-linecap="round" stroke-miterlimit="4" stroke-width="3" d="M7 20.5l9-9 9 9"></path>
</symbol>
<symbol id="location" viewBox="0 0 32 32">
<path d="M16 2c-5.521 0-10 4.032-10 9 0 8 10 19 10 19s10-11 10-19c0-4.968-4.479-9-10-9zM16 16c-2.209 0-4-1.791-4-4s1.791-4 4-4c2.209 0 4 1.791 4 4v0c-0.003 2.208-1.792 3.998-4 4h-0z"></path>
</symbol>
<symbol id="map" viewBox="0 0 32 32">
<path d="M3.011 7.084c-0.608 0.351-1.011 0.997-1.011 1.738 0 0.002 0 0.004 0 0.006v-0 18.547c0 0.002 0 0.004 0 0.006 0 1.105 0.895 2 2 2 0.343 0 0.666-0.086 0.948-0.239l-0.011 0.005c0.027-0.014 0.053-0.029 0.079-0.046l5.259-3.441c0.137-0.091 0.227-0.244 0.227-0.419 0-0 0-0.001 0-0.001v0-22.338c0-0 0-0.001 0-0.001 0-0.276-0.224-0.5-0.5-0.5-0.105 0-0.203 0.033-0.284 0.088l0.002-0.001zM13.273 2.457c-0.077-0.051-0.171-0.081-0.273-0.081-0.276 0-0.499 0.223-0.5 0.499v22.348c0 0 0 0.001 0 0.001 0 0.175 0.089 0.328 0.225 0.418l0.002 0.001 6 3.901c0.077 0.051 0.172 0.081 0.273 0.081 0.276 0 0.5-0.224 0.5-0.5v0-22.333c0-0 0-0.001 0-0.001 0-0.175-0.090-0.329-0.226-0.418l-0.002-0.001zM29.033 2.904c-0.294-0.183-0.65-0.291-1.032-0.291-0.343 0-0.666 0.087-0.947 0.241l0.010-0.005c-0.031 0.016-0.056 0.031-0.081 0.048l0.003-0.002-5.259 3.438c-0.137 0.091-0.227 0.244-0.227 0.419 0 0 0 0.001 0 0.001v-0 22.341c0 0.001 0 0.001 0 0.002 0 0.276 0.224 0.5 0.5 0.5 0.106 0 0.203-0.033 0.284-0.089l-0.002 0.001 6.692-4.591c0.616-0.349 1.026-1 1.026-1.747 0-0.001 0-0.002 0-0.004v0-18.5c0-0.007 0-0.016 0-0.024 0-0.731-0.383-1.372-0.959-1.734l-0.009-0.005z"></path>
</symbol>
<symbol id="music-note" viewBox="0 0 32 32">
<path d="M26.365 2.336c-0.27-0.21-0.613-0.336-0.986-0.336-0.152 0-0.298 0.021-0.437 0.060l0.011-0.003-12.457 3.349c-0.868 0.239-1.495 1.021-1.495 1.95 0 0.007 0 0.014 0 0.021v-0.001 14.125c0 0.421-0.273 0.785-0.694 0.927l-0.008 0.003-3.25 1.125c-1.243 0.416-2.048 1.57-2.048 2.939-0 0.008-0 0.018-0 0.028 0 1.159 0.568 2.186 1.442 2.816l0.010 0.007c0.556 0.407 1.252 0.653 2.007 0.654h0c0.397-0.001 0.779-0.068 1.134-0.191l-0.025 0.007 0.024-0.008 1.365-0.496c1.192-0.407 2.035-1.513 2.043-2.817v-13.251c0-0.456 0.298-0.826 0.76-0.942l0.013-0.004 10.914-2.915c0.019-0.005 0.040-0.008 0.063-0.008 0.138 0 0.25 0.111 0.25 0.249v8.871c0 0.422-0.266 0.774-0.694 0.918l-0.016 0.006-3.181 1.132c-1.235 0.415-2.11 1.563-2.11 2.915 0 0.011 0 0.021 0 0.031v-0.002c-0 0.010-0 0.023-0 0.035 0 1.161 0.568 2.189 1.442 2.821l0.010 0.007c0.554 0.405 1.249 0.647 2 0.647 0.4 0 0.784-0.069 1.141-0.195l-0.024 0.007 0.023-0.008 1.365-0.497c1.192-0.406 2.035-1.512 2.043-2.817v-19.871c0-0.003 0-0.006 0-0.009 0-0.521-0.247-0.984-0.631-1.278l-0.004-0.003z"></path>
</symbol>
<symbol id="play-btn" viewBox="0 0 32 32">
<path d="M8.313 27.5c-0.403-0.001-0.78-0.109-1.104-0.298l0.011 0.006c-0.75-0.425-1.216-1.25-1.216-2.146v-18.125c0-0.898 0.466-1.721 1.216-2.146 0.314-0.184 0.691-0.292 1.094-0.292 0.422 0 0.816 0.119 1.151 0.326l-0.009-0.005 15.491 9.273c0.638 0.405 1.055 1.107 1.055 1.906s-0.417 1.502-1.046 1.901l-0.009 0.005-15.493 9.275c-0.325 0.2-0.718 0.318-1.139 0.32h-0z"></path>
</symbol>
<symbol id="close-btn" viewBox="0 0 32 32">
<path stroke-linejoin="round" stroke-linecap="round" stroke-miterlimit="4" stroke-width="2" d="M23 23l-14-14M23 9l-14 14"></path>
</symbol>
<symbol id="home" viewBox="0 0 32 32">
<path d="M16.348 6.33c-0.090-0.086-0.211-0.139-0.346-0.139s-0.256 0.053-0.346 0.139l0-0-11.506 10.992c-0.095 0.091-0.154 0.219-0.154 0.361 0 0 0 0 0 0.001v-0l-0.002 10.316c0 1.105 0.895 2 2 2v0h6.006c0.552 0 1-0.448 1-1v0-8.5c0-0.276 0.224-0.5 0.5-0.5v0h5c0.276 0 0.5 0.224 0.5 0.5v0 8.5c0 0.552 0.448 1 1 1v0h6.004c1.105 0 2-0.895 2-2v0-10.316c0-0 0-0 0-0.001 0-0.142-0.059-0.27-0.154-0.361l-0-0z"></path>
<path d="M30.682 15.259l-4.675-4.473v-6.787c0-0.552-0.448-1-1-1v0h-3c-0.552 0-1 0.448-1 1v0 2l-3.62-3.461c-0.339-0.342-0.843-0.539-1.387-0.539-0.543 0-1.045 0.196-1.384 0.539l-13.294 12.719c-0.389 0.375-0.438 0.992-0.084 1.398 0.184 0.212 0.455 0.345 0.756 0.345 0.269 0 0.513-0.106 0.693-0.279l12.968-12.392c0.090-0.086 0.211-0.139 0.346-0.139s0.256 0.053 0.346 0.139l-0-0 12.97 12.392c0.179 0.172 0.423 0.278 0.692 0.278 0.282 0 0.538-0.117 0.719-0.305l0-0c0.384-0.398 0.352-1.054-0.047-1.436z"></path>
</symbol>
</defs>
</svg>
