<?xml version="1.0" encoding="utf-8"?>
<!-- Generator: Adobe Illustrator 24.1.2, SVG Export Plug-In . SVG Version: 6.00 Build 0)  -->
<svg version="1.1" id="Layer_1" xmlns="http://www.w3.org/2000/svg" xmlns:xlink="http://www.w3.org/1999/xlink" x="0px" y="0px"
	 viewBox="0 0 1070.5 716.8" style="enable-background:new 0 0 1070.5 716.8;" xml:space="preserve">
<style type="text/css">
	.st0{fill:#010101;}
	.st1{fill:#020202;}
	.st2{fill:#030303;}
</style>
<g>
	<path d="M0,462c20.6-1,40.6,1.9,60.5,7.9c24.3,7.3,39.9,31.1,43.5,52.3c1.7,10.2,1.6,20.5,1.8,30.7c0.4,19.2,9.5,31.7,26.8,38.6
		c12.3,4.9,25.2,7.6,38.5,6.3c19.5-1.9,37.5-8.3,52.8-21.3c13.5-11.4,22.8-25.3,26.9-42.6c2-8.4,2-17,1.4-25.6
		c-2.8-38.4,13.6-66.5,45.9-85.9c10.2-6.1,20.7-11.6,30.9-17.7c12.9-7.7,24.2-3.9,34.8,4.1c11.6,8.9,20.1,20.6,29.2,31.8
		c5.2,6.5,11.8,11.5,17.9,17c13.4,12.3,27.4,24.1,42.2,34.7c21.1,15,41.3,10.6,58.5-8.8c21.6-24.3,35.4-53,48.9-82
		c4.2-8.9,8.8-17.6,15.6-24.9c10.9-11.8,24.4-14.9,39.2-10.8c11.5,3.2,22.9,7,34.5,10.2c7.8,2.2,15.3,5.9,21.4,11.1
		c11.5,9.8,25.2,14.1,39.3,17.9c13.8,3.7,28.4,4.9,41.4,11.2c13.5,6.5,28,9.2,42.4,12.7c23.2,5.7,44.6,16.4,65.4,28
		c26.7,14.9,54.8,25.8,84.6,32c16.7,3.5,33.9,4.2,51,3.2c24.7-1.6,47.9-8.9,70.2-19.7c1.6-0.8,3-2.1,5.1-1.5c0,1,0,2,0,3
		c-9.9,3.9-19.8,8-29.8,11.6c-22.4,8.1-45.6,11-69.2,9.5c-41.3-2.6-79.4-16.2-115.4-36.3c-21.5-11.9-43.1-24.2-67.5-28.7
		c-20-3.7-37.9-13.1-57.4-17.6c-12.3-2.8-24.8-5.1-36.8-9.3c-7.7-2.6-14.4-6.6-20.6-11.6c-12.5-10.1-27.2-14.7-42.5-18.2
		c-8.1-1.9-15.7-5.9-24.3-6.2c-15.2-0.6-26,6.5-34.3,18.5c-10,14.6-16.3,31-24.3,46.6c-11.1,21.6-23.9,42-41.3,59.1
		c-8.9,8.7-19.6,14.1-32.3,12.5c-11.2-1.4-20.9-6.9-29.7-14c-15.1-12.2-29.7-25.1-44.3-38c-9.7-8.6-16.9-19-25.4-28.5
		c-6.4-7.1-12.8-14.2-21.7-18.3c-6.9-3.2-14-3.5-20.5,0.3c-15.2,9-31.7,16-45.6,27.1c-16.4,13.1-27.7,29.5-31,50.8
		c-1.6,10.1-1,20.2-0.8,30.3c0.6,24.4-9.3,44-26.6,60.3c-15.2,14.3-33.2,22.1-53.8,24.6c-20.7,2.5-39.7-1.5-56.9-13.4
		c-9.6-6.7-13-16.7-14.3-27.9c-1.5-13.2,0.4-26.6-3-39.6c-6.4-24.6-21.2-40.5-46.1-47.2c-18.1-4.9-36.3-6.7-54.9-5.9
		C0,464,0,463,0,462z"/>
	<path d="M0,435.6c28.7-0.3,54.6,9.5,78.8,23.7c14.5,8.5,22.3,23.1,29.3,37.9c5.3,11.3,8.1,23.3,9.2,35.8c0.7,7.8,1.3,15.6,3.4,23.2
		c4.6,17.1,17.2,25.2,33.3,28.3c20.6,4,39.7-0.3,56.3-13.3c10.3-8.1,17.3-18.5,19.1-32.2c1.4-10.5,0.6-20.9,0.8-31.3
		c0.8-35.3,13.2-65.7,39.7-88.9c17.9-15.7,38.7-27.1,61.5-34.2c14.6-4.6,27,0.7,39.1,7.9c8.9,5.3,16.3,12.4,23.3,19.6
		c14.4,14.9,30.1,28.1,46.8,40.2c8.1,5.8,13.8,14.2,21.8,20.3c13.7,10.5,28.9,8.9,40-4.4c20.9-25,35.1-53.6,45.8-84.2
		c3.8-10.9,8.4-21.3,17.2-29.4c8.8-8,19.2-9.5,30.5-9c15.9,0.7,29.5,9,44.4,12.9c15.2,4,29.3,9.8,42.1,19.1
		c5.8,4.2,12.4,5.8,19.5,6.3c6.4,0.4,12.9,1.4,18.9,4.1c9,4.1,18.5,6.3,28,7.8c8.8,1.4,16.9,4.4,24.3,9.2c9.7,6.2,20,10.4,31.7,11.5
		c13.2,1.2,25.3,7.1,37.7,11.3c26.5,9,51.6,21.4,78.1,30.5c15.4,5.3,31,10.3,47.1,12.5c34.1,4.7,66.3-1.4,96.3-18.8
		c2-1.2,4-2.2,6-3.3c0,1.4,0,2.7,0,4.1c-7.4,2.3-13.8,6.7-20.8,9.8c-17.9,7.9-36.5,12.1-56.2,12.7c-30.2,0.9-58.2-7.5-85.8-18.2
		c-28.8-11.2-56.8-24.4-86.2-34.1c-6.6-2.2-13.4-3.7-20.2-4.5c-9.7-1.2-18.5-4.4-26.5-9.8c-9.7-6.5-20.4-9.9-31.7-11.6
		c-6.4-1-12.6-2.5-18.5-5.1c-8.1-3.6-16.8-5.4-25.5-6c-7-0.4-12.9-3.2-18.3-7c-11.1-7.8-22.8-14.1-36.1-16.9
		c-11-2.3-20.8-8.1-31.6-11c-10.9-3-22-4.5-33-1.3c-14.2,4.1-21.1,15.8-26.6,28.5c-8,18.6-13.9,38.2-24.3,55.7
		c-8.1,13.6-16.5,27.1-27.5,38.7c-13,13.7-29.8,13.5-43.6,0.6c-12.6-11.8-25.2-23.4-39.1-33.8c-9.6-7.2-17.4-16.7-26.1-25.1
		c-7.9-7.7-16.1-15-25.5-20.9c-15.3-9.5-30.7-10.3-46.6-2.5c-19.2,9.3-38.2,18.9-53.6,34c-15.4,15.1-25.3,33.5-30.8,54.5
		c-4.2,16.2-2.8,32.7-3,49.1c-0.1,6-0.9,12-2.6,17.7c-4.2,14-13.5,24.1-25.8,31.3c-20.2,11.7-41.4,14.2-63.3,5.3
		c-15.1-6.1-22.6-17.8-24.4-33.6c-2.2-18.8-3.8-37.4-12.4-55c-10.9-22.3-27.7-36.8-50.9-44.5c-11.6-3.8-23.1-7.8-35.1-9.7
		c-6.1-1-12.4-0.3-18.6-0.4C0,438.3,0,436.9,0,435.6z"/>
	<path d="M1070.3,397c-24.3,3.3-44.9,16.8-67.5,24.8c-15.9,5.7-32.3,5.7-48.8,3.8c-41.2-4.8-80.1-18.7-119.4-31.2
		c-11.9-3.8-23.9-7.3-35.9-10.9c-1.1-0.3-2.3-0.7-3.4-0.6c-14.6,1.7-27.7-3.4-40.8-8.7c-13-5.2-26.4-8.1-40.2-9.7
		c-8-0.9-15.8-3.1-23-7c-14.5-7.7-30.4-11.5-45.5-17.3c-18-6.9-36-13.8-55.1-16.8c-14.9-2.3-29.6-2.5-42.6,6.8
		c-8.3,6-12.4,15-16,24.2c-4.2,10.9-7.9,22.1-12.3,32.9c-3.4,8.4-7.8,16.2-14.3,22.7c-6.9,6.9-13.1,8.3-22.1,4.4
		c-3.3-1.4-6.6-3-9.7-4.8c-6.3-3.6-13-4-19.2-1.2c-18.1,8.3-32.3,1.6-45.4-10.7c-6.6-6.2-13.3-12.4-20.2-18.3
		c-9.8-8.5-21.7-12.6-34-14.9c-28.9-5.3-54.2,4.7-78.8,18.9c-33,19.1-50.7,48.9-60.2,84.8c-4.2,15.9-7.2,32-9.2,48.3
		c-1.5,11.9-2.9,24.1-10.2,34.4c-8.3,11.7-20.1,16-33.5,14.1c-13.1-1.8-21.5-10.5-25.7-23c-5-14.8-7.5-30.4-13.1-45.1
		c-6.4-16.9-13.4-33.5-24.6-47.7c-8.6-11-19.5-19.7-31.4-26.8c-19-11.3-37-24.4-57-34c-3.6-1.7-7.3-2.9-11.2-3.7c0-1,0-2,0-3
		c8.3,0.7,15.4,4.7,22.2,9c19,11.8,38.2,23.2,56.5,36c19.6,13.8,32,33.1,41.4,54.7c7.9,18.2,12.8,37.3,18.2,56.3
		c2.8,9.9,7.7,18.5,17.6,22.5c16.7,6.6,35.2,0.7,43-18.7c3.7-9.2,4.7-18.9,6.1-28.6c5.2-35.7,13-70.4,34.3-100.5
		c9.9-13.9,23.6-23.4,37.9-32.1c15.1-9.2,31.2-15.8,48.6-18.7c20-3.3,38.8,1.2,56.7,10.3c4.8,2.5,8.9,5.9,12.7,9.7
		c7.3,7.2,14.9,14,23,20.3c10.8,8.4,22.2,9.2,34.4,3.7c8.2-3.8,16.2-3.8,24.4,0.1c3.5,1.7,7.2,3.3,11,4.4c10.5,3,16.6-3,21.1-9.1
		c8.3-11.4,12.4-24.7,17.2-37.7c3.7-10.1,7-20.3,14-28.9c6.2-7.6,14-11.6,23.1-13.4c18.4-3.6,36.1,0.9,53.4,6.4
		c22,7.1,43.7,15.1,65.3,23.4c9,3.4,17.3,8.8,27,10.6c8.3,1.6,16.7,2.3,25,4c12.3,2.5,23.6,8.2,35.5,11.8c4.3,1.3,8.4,3,13,2.6
		c14.6-1.4,27.5,4.8,41,8.7c26.6,7.5,52.3,17.7,79.2,24.1c17.4,4.1,34.9,7.5,52.6,10c21.7,3.1,41.7-2.5,61.4-10.8
		c13-5.5,25.6-12.2,39.6-15.1c4.7-1,9.4-1.8,14.1-2.6C1070.3,395,1070.3,396,1070.3,397z"/>
	<path d="M1070.3,207.3c-9.5-1.9-18.5-5.6-27.5-9c-16.4-6.2-33.2-11-50.6-13.2c-14-1.7-28-2.2-41.4,3.3c-11.6,4.7-19.8,13.3-25.7,24
		c-6.7,12-12.6,24.5-19.3,36.4c-7.1,12.6-17.1,22.4-31.8,25.1c-11.7,2.2-23.6,1.6-35.5,0.5c-21.4-2-41.9-7.8-62.1-14.4
		c-15.3-5-30.5-10.7-46.4-13.5c-11.6-2.1-23.2-4-34.9-5.7c-9.3-1.3-18.3-4.1-27.4-6.1c-13.3-3-27.2-4.2-39.9-9.2
		c-10.5-4.2-21.6-4.8-32.4-6.8c-12.7-2.4-24.5-7.3-36.6-11.8c-18-6.8-36.4-12.2-55.8-12.8c-7.1-0.2-13.4,3.5-20.3,4.4
		c-2,0.3-4,0.8-5.9,0.6c-10.8-1.1-21.1,2.6-31.7,3.6c-5.6,0.5-11.3,0.8-16.9,1.3c-28.2,2.6-55.6,8.3-82.1,18.1
		c-25.4,9.4-50.5,19.6-74.6,31.8c-22,11.1-42.3,24.9-61.6,40.3c-11.6,9.3-22.5,19.7-35.7,27c-9.5,5.2-18.6,5-27.5-0.9
		c-5.7-3.8-11.3-7.6-16.7-11.8c-5.5-4.2-9.2-9.9-11.6-16.4c-5.5-14.9-14.6-27.1-27.6-36.4c-4.7-3.4-8.8-7.8-13.1-11.8
		c-11.4-10.3-24.7-12.8-39.5-10.4c-2.1,0.3-4,1-5.4,2.2c-9.5,8.5-20.9,8.7-32.5,8.1c0-1,0-2,0-3c2.4,0,4.7-0.1,7.1,0
		c8,0.6,15.3-1.4,21.1-7c5.2-5,11.4-5.8,18-5.2c14.1,1.4,26.7,6.1,36.8,16.7c5,5.3,11.2,9.6,16.8,14.3c9.3,7.8,15.9,17.5,20.4,28.7
		c6.5,16.1,20,24.3,34.8,30.7c6.1,2.6,12.3,0.6,18.2-2.1c11-5.1,20-13.1,29.2-20.6c24.7-20.2,51-37.7,80-51
		c27.9-12.9,56-25.6,85.9-33.3c15.6-4,31.3-7.2,47.3-8.9c19-2,38-4.8,57-6.5c10.3-0.9,19.9-5.2,30.4-4.8c18.6,0.6,36.1,5.5,53.3,12
		c13.9,5.2,27.5,11.8,42.2,13.2c18,1.7,34.3,9.2,51.9,12.1c21.7,3.5,42.9,9.8,64.9,11.9c22.6,2.1,43.8,10.2,65.3,17.1
		c19.8,6.4,39.9,11.4,60.7,13.4c11.8,1.1,23.5,1.2,34.8-1.8c14.5-3.9,22.8-15.3,29.6-27.9c6.9-12.7,11.9-26.4,20.2-38.4
		c10-14.6,24.2-21.7,41.7-22.4c27.5-1.1,53.5,5.9,79,15.5c7.8,2.9,15.5,6.2,23.7,7.9C1070.3,205.3,1070.3,206.3,1070.3,207.3z"/>
	<path d="M1070.3,421.4c-6.6,2.1-11.6,6.9-17.1,10.8c-12.9,9.2-27.1,14.5-42.8,16.8c-17.1,2.4-33.9,0-50.7-2.7
		c-35.7-5.9-69-19.6-103-31.1c-15.9-5.4-31.9-10.2-47.9-15.3c-3.7-1.2-7.3-0.7-11-0.6c-6,0.1-11.5-1-16.7-3.9
		c-22.6-12.6-47.7-16.8-72.6-21.6c-9.2-1.8-18.1-3.9-26.3-9c-10.5-6.5-22.3-10.4-34.2-13.8c-15.3-4.4-29.4-12.4-45.3-15.3
		c-10.7-1.9-21.1-3.5-32.1-0.8c-11.5,2.8-18.9,9.8-24.4,19.7c-6.7,12.1-10.4,25.4-14.9,38.3c-7.2,20.5-18.6,38.1-33.2,53.8
		c-8.6,9.2-16.4,9-27.4,3.7c-3.5-1.7-6.6-4.5-9.5-7.2c-6.9-6.2-14.8-9.4-24-10.8c-13.2-2-22.8-10.8-32.4-19.5
		c-10.2-9.2-19-20-31.3-26.7c-10.5-5.8-21.7-9.3-33.7-9.2c-10.7,0.1-20.8,3.6-30.4,8.2c-17.4,8.3-34.1,17.7-48.1,31.3
		c-15.7,15.1-25.9,33.5-32.1,54.2c-4.9,16.3-7.2,32.9-7.1,49.9c0,8.4-0.4,16.8-2.6,25c-4.2,15.1-14.3,24.9-28.4,30.6
		c-17.2,7-34.1,7.1-50.3-3.3c-11-7.1-15.1-18.1-16.5-30.4c-3.2-27.4-10.9-53.1-27.1-75.9c-8.3-11.8-19.5-19.7-31.8-26
		c-16.1-8.2-32.4-16.2-49.4-22.7c-5.1-1.9-10.5-3-15.9-3.4c0-1.4,0-2.7,0-4.1c8,0.6,15.6,3.2,22.7,6.5c14.8,6.9,29.3,14.2,43.9,21.4
		c22.1,10.8,36,29.1,45.8,51.1c6.8,15.3,10.7,31.2,12.9,47.7c1.3,10.1,3,20.5,10.5,28.5c9.9,10.6,22.6,13.9,36.3,13
		c11.5-0.8,22.3-4.7,31.3-12.5c8.2-7,13-15.9,14.6-26.5c1.6-11,1.2-22.2,2.2-33.2c2.6-29.6,10.6-57.5,29.8-80.8
		c20.1-24.6,46.3-40.4,76.6-48.7c23.1-6.4,43.5,1.5,61.2,16.8c10,8.6,19,18.4,29.5,26.7c7.8,6.1,16.6,9.5,26.1,10
		c8.9,0.5,15.2,5,21.5,10.2c4,3.3,8.4,6,13.4,7.3c9.4,2.3,16.2-1.7,22.4-8.5c15.6-17,25.6-36.9,32.6-58.7c2.8-8.8,5.9-17.5,10-25.9
		c7.5-15.5,19.8-23.3,36.9-23.6c20-0.3,38.4,5.8,56.4,13.5c11.8,5,24.7,6.9,36.2,12.8c1.9,1,4.1,1.7,5.8,2.9
		c13.9,9.9,30.6,11,46.4,14.2c19.5,3.9,38.4,9.1,56.2,18.3c4.9,2.5,10.3,3.7,15.9,3.2c7.1-0.6,13.6,1.6,20.4,3.6
		c39.5,11.8,77.7,27.8,117.6,38.3c15.6,4.1,31.4,6.4,47.5,8c20.2,2.1,39.3-0.9,57.3-10.4c8.1-4.3,14.8-10.5,22.8-15
		c2.4-1.4,4.7-3.2,7.7-3.3C1070.3,418.7,1070.3,420,1070.3,421.4z"/>
	<path d="M0,262.1c16.1-0.7,32.2-1.3,48.3-2.1c2.1-0.1,4.2-0.9,6.2-1.6c5.9-2,11.2-0.8,15.8,2.9c14.4,11.7,26.7,25.1,31.8,43.8
		c2,7.2,6.4,12.9,12.2,17.7c10.6,8.9,20,19.1,29.8,28.8c9,8.9,19.2,9.8,28.4,2.4c2.9-2.3,5.3-5.1,8-7.7
		c11.8-11.7,22.1-24.9,34.5-36.1c23.8-21.3,49.6-39.1,79.7-50.5c31.4-11.8,62.3-24.6,93.2-37.6c15.3-6.4,31.6-9.5,48.2-10.7
		c17.3-1.3,34.6-4.1,52-4.2c2.7,0,5.6-1,8.1-2.2c10.3-4.9,20.6-3.7,31.5-1.5c18,3.8,34.8,10.9,51.9,17.4c8.3,3.2,17,4.5,25.6,5.4
		c8.9,0.9,17.1,3.3,25.4,6.3c13,4.6,26.9,5.4,40,9.3c29.2,8.6,59.6,12.6,88.5,22.3c13.1,4.4,25.7,10.2,38.8,14.8
		c22.1,7.8,44.8,12.3,68.4,11.5c23.3-0.7,40.1-12.2,52.6-31.1c7.2-10.9,13.6-22.5,21.5-33c11.8-15.6,26.7-24.7,47.1-24.6
		c20.5,0.1,39.3,6.7,58.3,12.8c8.3,2.6,16.4,5.8,24.5,8.8c0,1,0,2,0,3c-16.1-5.2-32.2-10.5-48.3-15.7c-10.2-3.2-20.6-5.2-31.3-5.4
		c-20.4-0.4-36.6,8.4-48.6,24.9c-9.8,13.4-17.6,28.3-28.5,41c-10.6,12.3-23.6,19.6-40.1,21.3c-32.1,3.4-62.1-4.3-91-16.6
		c-24-10.2-49-16.4-74.2-22c-15.3-3.4-30.1-8.8-45.4-11.6c-16.1-2.9-31.6-7.8-47.3-12.2c-8.7-2.4-18.1-2.4-27-4.3
		c-13.6-2.9-25.8-9.6-39-13.9c-11.6-3.8-23.4-6.7-35.5-8.3c-4.5-0.6-9.2,1-13.4,2.8c-6.7,2.9-13.7,3.5-20.9,3.9
		c-30.6,1.6-61.5,2.6-90.5,14.3c-13.6,5.4-26.6,12.4-40.2,17.8c-18.9,7.5-38.1,14.3-57.1,21.3c-22.5,8.3-42.3,21.3-61.1,35.7
		c-18.1,13.9-32.9,31.2-47.6,48.5c-3.9,4.6-8.3,8.8-13.3,12.3c-6.5,4.6-15.1,4.3-21.7-0.5c-3.5-2.6-6.8-5.5-9.6-8.8
		c-8.8-10.5-18.9-19.6-29.2-28.5c-6.5-5.6-9.8-13.4-12.2-21.3c-4.9-16.1-16.1-27-28.9-36.6c-4.1-3.1-9-3.2-13.8-2
		c-2.4,0.6-4.6,1.7-7.2,1.6c-15.8-0.6-31.6,1-47.4,1C0,264.1,0,263.1,0,262.1z"/>
	<path d="M1070.3,505.6c-9.5,2.7-18.9,5.5-28.5,8.1c-20.4,5.5-41.1,7.6-62.3,7.4c-33.7-0.3-65.6-8.7-97.1-19.9
		c-29.5-10.5-56.8-25.5-84.2-40.3c-10.5-5.7-21.9-8.1-33.4-10c-21.8-3.7-44-5.7-65-13.1c-12.3-4.3-23-11.7-34-18.4
		c-15.9-9.6-33.3-15.2-52-14c-12.9,0.9-23.4,7.6-32.1,17.2c-13.7,15.1-22.5,33.3-32.3,50.9c-10.1,18.1-21.1,35.6-36.4,50
		c-20.4,19.1-51.9,23-73.3,6.9c-6.6-4.9-12.6-10.6-15.5-18.6c-6.6-18.1-20-29.3-36.5-37.6c-4.4-2.2-8.9-4.3-13.4-6.2
		c-8-3.4-14.7-8.5-18.3-16.7c-3.2-7.4-8.2-10.2-16.2-8.7c-20.1,3.8-36,13.1-44.4,32.6c-3.7,8.8-4.6,18.3-6.2,27.6
		c-3.3,19.8-12,37-23.3,53.3c-15.8,22.9-36,39.9-62.4,49.3c-16.4,5.8-33.3,8.2-50.5,6.5c-17.6-1.8-34.9-5.6-49.5-16.6
		c-9.5-7.2-14.2-17-15.7-28.9c-1.6-12.3,0.3-24.6-1.8-36.8c-2.2-12.5-8.4-22.1-19.8-28.2c-11.1-5.9-23.1-8.2-35.4-8.9
		c-10.2-0.6-20.5-0.1-30.7-0.1c0-1,0-2,0-3c10.3,0,20.6-0.7,30.8,0.2c16.7,1.5,33.2,4.2,46.1,16.7c8.5,8.3,11.6,18.9,11.8,30.2
		c0.2,10.3,0.3,20.6,1.3,30.8c1.3,13,8,23,19.4,29.7c11.5,6.8,24.1,10.2,37.2,12.2c31.7,4.7,60.3-3,86.3-21.4
		c16.5-11.7,28.6-27.4,38.8-44.8c8.4-14.4,13.3-29.9,15.3-46.5c1.4-11.6,3.6-23.2,10.9-33.1c8.9-12.1,21-19,35.2-22.7
		c3.7-1,7.4-1.7,11.2-2.2c6-0.8,10,1.7,12,6.8c4.1,10.7,12,16.7,22.1,21.2c13.5,6,26,13.9,36.2,24.9c5,5.4,8.1,12.1,11.2,18.6
		c7.7,16.1,21.1,23.6,38,26.1c21.9,3.2,38.9-5.7,53.7-21.1c16.2-16.8,26.4-37.3,37.9-57.2c8.7-15.1,16.8-30.7,29.9-42.8
		c12.7-11.7,27.3-15.7,44.1-12.6c17.1,3.2,32.6,9.8,46.9,20c14.3,10.2,31.2,14.6,48.2,18.4c20.6,4.6,41.9,5.7,62.1,12.2
		c14.9,4.7,27.8,13.7,41.5,21c35,18.7,71.7,32.7,110.5,40.5c17.9,3.6,36.1,5.2,54.4,4.2c25.6-1.3,50.2-7.4,74.4-15.7
		c0.9-0.3,1.9-0.3,2.9-0.5C1070.3,503.6,1070.3,504.6,1070.3,505.6z"/>
	<path d="M1070.3,190c-15.9-5.7-31.2-13.1-47.6-17.7c-12.7-3.5-25.7-5.9-38.8-7.8c-11.2-1.6-22.4-3.5-33.8-2.9
		c-12.1,0.7-23.7,3.2-33.1,11.8c-8,7.4-12.4,17.1-16.4,27.1c-3.5,8.7-7,17.4-11,25.9c-7.8,16.5-21.1,24.1-38.9,24.4
		c-17.8,0.3-34.8-3.9-51.7-8.8c-20.8-6.1-41.1-14-62.5-18c-10.3-1.9-20.8-3.2-31.3-3.6c-18.7-0.7-37.2-2.8-55.7-5.5
		c-15.8-2.3-30.7-8.3-46.4-10.5c-11.3-1.6-22.7-2.5-33.5-6.4c-7.9-2.9-15.5-6.6-23.5-8.9c-12.2-3.6-24.9-4.8-37.4-7.2
		c-22.6-4.4-44.4,0.7-66.1,6.3c-4.2,1.1-8.5,1.6-12.8,1.7c-24.3,1-48.1,5.5-71.9,10.4c-31,6.4-58.1,21.4-85.6,35.7
		c-26.3,13.7-50.8,30.3-75.8,46.1c-6,3.8-12.2,7-18.9,9.4c-10.7,3.9-19.9,1.2-29-4.5c-8.6-5.4-14.6-13.4-21.3-20.6
		c-7.6-8.2-15.9-15.4-25.4-21.2c-8.6-5.3-15.2-13.1-23.5-18.7c-12.8-8.8-27.2-14.3-41.8-19c-5.7-1.8-11.7-0.8-15.9,4.6
		c-5.3,6.8-11.6,11.9-20.7,12.2c0-1.4,0-2.7,0-4.1c6.2,0,11.2-2.5,15.1-7.3c4.1-5,8.5-10,15.5-9.7c4.7,0.2,9.4,1.8,13.9,3.6
		c13.6,5.5,27.7,10.4,39.1,20.1c19.4,16.4,40.9,30.1,58.4,48.8c14.6,15.5,29.1,16.7,47.8,5.9c18.2-10.5,35.7-22.1,53.8-32.9
		c25.4-15.1,51.2-29.4,78.4-40.9c15.7-6.6,32.6-9.1,49.1-13c18.8-4.4,38-6.1,57.2-7.3c9.2-0.6,18.4-1.9,27.1-5.5
		c7.3-3,15.4-2,23-3.4c17.4-3.3,33.8,2.9,50.7,4.7c17.6,1.9,32.8,10.5,49.5,15c9.2,2.4,18.6,2.8,27.9,4.4c9.5,1.6,18.4,5.4,27.9,6.9
		c12.6,2,25.3,4.1,37.9,5.6c13.3,1.6,26.8,1.3,40.2,2.3c24.7,1.8,48.4,8.6,71.8,16.4c14.9,4.9,30,9.1,45.4,11.7
		c11.4,1.9,23.1,2.1,34.4-1c10.8-3,17.5-11.1,22.5-20.8c5.5-10.7,9.2-22.3,14-33.3c6.1-13.9,14.8-25.2,30.2-29.5
		c11.8-3.3,23.8-2.9,35.8-1.7c14.4,1.4,28.5,4,42.7,6.8c18.7,3.7,36.1,11.2,53.7,18.1c2.4,1,4.9,1.9,7.4,2.8
		C1070.3,188,1070.3,189,1070.3,190z"/>
	<path d="M1070.3,372.7c-26.6,0.4-52.6,5-77.1,15.3c-18.7,7.9-37,8.8-56,2.7c-15-4.9-29.9-4.5-45.1-1c-6.8,1.5-13.6-0.4-20-2.8
		c-20.4-7.7-42.1-10.9-62.5-18.3c-13.6-4.9-27.5-7-41.8-8.2c-10.5-0.9-20.4-5.5-30.7-7.3c-37.7-6.9-72-23.8-108-35.7
		c-17.9-5.9-35.9-11.5-54.6-13.3c-13.8-1.4-27.9-1.5-41,5.6c-8.1,4.4-13.9,10.9-18.5,18.5c-10.2,16.9-24.8,28.9-41.4,38.9
		c-7.9,4.8-17.5,4.6-26,7.7c-3.4,1.2-6.9,2.1-10.4,3.1c-11.4,3.1-19.8-3.1-28.1-9.3c-15.3-11.7-32.5-18.7-51.5-21.1
		c-37.8-4.8-71.8,5.6-103.1,26.4c-13,8.6-22.1,20.8-29.5,34.3c-13.4,24.5-20.4,51.3-27.3,78.2c-3.2,12.5-5.3,25.2-10.1,37.2
		c-2.3,5.6-5.2,10.6-10.2,14.5c-7.1,5.5-17.4,4.1-23.6-3.3c-7.5-9-10.5-20.2-14.7-30.7c-7.7-19-14.4-38.4-24.8-56.1
		c-10.9-18.6-26.1-32.9-43.1-45.6c-17.7-13.2-35.6-25.9-55.2-36.1c-5-2.6-10.4-4.2-16.2-3.6c0-1,0-2,0-3c10.9,0.3,20.3,5,29.3,10.7
		c22.6,14.5,45.1,29.1,64.4,48c14.8,14.4,25.4,31.5,33.4,50.4c7.7,18,14.8,36.3,22.4,54.3c2,4.7,4.8,9.1,9.3,12.1
		c7.1,4.8,14.4,4,20.4-2.5c7.9-8.5,9.9-19.4,12.6-30c6.5-25.6,12.5-51.3,22.4-75.8c7.9-19.5,17.9-37.7,34.2-51.4
		c13.4-11.2,29.1-18.2,45.4-23.9c20.1-6.9,40.9-9.3,62-7c19.7,2.2,38.1,9,54.4,20.9c2.3,1.7,4.6,3.4,7,4.7c6.2,3.4,12.5,6,19.9,3.7
		c10.4-3.2,21-5.6,31.3-8.9c9.8-3.2,15.9-11.9,24-17.7c10-7.2,16.2-17.8,23.7-27.1c12.5-15.4,29-19.9,47.6-19.2
		c24,0.9,46.9,7.6,69.4,15.5c26,9.2,51.6,19.5,77.9,27.8c18.8,6,38.2,11.7,57.7,13.4c22.3,1.9,42.4,10.8,63.8,15.3
		c13.3,2.8,26.1,7.1,38.9,11.4c8.7,2.9,17.4,3.4,26.4,0.7c14.6-4.4,28.9-1.8,43.1,2.3c6.5,1.9,13.2,3,20,3.6
		c10.5,0.9,19.9-3,29.3-6.6c17.3-6.7,35.2-11.3,53.6-13.6c8.8-1.1,17.7-1.8,26.6-1.2C1070.3,370.6,1070.3,371.7,1070.3,372.7z"/>
	<path d="M1070.3,173.8c-10.2-2.7-19.6-7.6-29.5-11.2c-18.4-6.6-37.6-9.8-56.8-13.2c-17.6-3.1-35.2-5.9-53.1-5
		c-19,0.9-33.9,8.6-42.4,26.4c-4.8,10.1-8.7,20.7-13.2,31c-5.2,11.8-13.5,20.3-26.5,22.7c-12.5,2.3-25,1.4-37.3-1.2
		c-24-5.2-47.8-11.6-72-15.6c-14.8-2.4-29.6-4.6-44.6-5.6c-13.9-0.9-27.8,0.1-41.7-1.7c-14-1.9-28-3.7-41.8-6.3
		c-11.4-2.2-22.8-4-34.2-5.9c-8.2-1.4-15.8-4.6-23.6-7.2c-11.2-3.7-23-4.5-34.4-6.8c-12-2.5-23.9-5.3-36.2-6.1
		c-13.2-0.9-25.8,1.8-38.1,6c-5.9,2-12.1,2.5-18.1,2.8c-20.2,0.9-40.2,3.1-60.2,6.2c-17.4,2.7-34.9,4.6-52.3,7.3
		c-21.5,3.4-41,11.9-59.5,23.3c-15,9.3-30.8,17.3-47,24.5c-23.2,10.4-44.9,8.2-66.1-5.4c-19.4-12.4-39.5-23.7-60.7-33
		c-7.6-3.3-15.7-4.8-23.6-7.1c-10.4-3.1-20.2-7.9-30.1-12.3c-9.4-4.1-18.5-4.7-27.2,1.7c0-1.7,0-3.4,0-5.1c9.2-4.8,18-3.7,27,0.8
		c16.4,8.2,34.2,12.6,51.6,18.3c22.1,7.3,42.2,19.1,62,31.5c13.9,8.7,28.8,14.1,45.5,12.4c9.8-1,18.8-4.6,27.8-8.4
		c18.2-7.8,35.1-18.4,52.3-28.1c14.4-8.1,29.9-12.9,46.2-15.2c18.2-2.6,36.4-5.7,54.7-7.9c18.4-2.2,36.7-4.8,55.3-5.3
		c10.4-0.3,20.8-1.8,30.7-5.4c9.6-3.5,19.5-3.6,29.6-3.2c14.9,0.5,28.9,5.6,43.5,7.2c17.4,2,33.5,8.7,50.3,12.3
		c14.8,3.2,30,4.8,45,7.5c22.3,3.9,44.8,5,67.4,5.4c15.7,0.2,31.4,3,47,5.4c27.8,4.3,54.9,11.8,82.6,16.3
		c10.3,1.7,21.1,1.6,31.5-1.1c13.1-3.4,19.7-13.6,24.6-25.2c3.9-9.1,7-18.5,11.7-27.3c7.2-13.6,18.5-21.5,33.4-24
		c14.4-2.5,28.9-1.4,43.3,0.8c16.8,2.6,33.5,5.6,50.3,8.9c17.1,3.3,33.2,9.7,49.2,16.2c2.7,1.1,5.4,2.3,8.1,3.4
		C1070.3,172.5,1070.3,173.1,1070.3,173.8z"/>
	<path d="M0,79.5C22.9,70.8,44.5,59,68,51.5c6.6-2.1,13-3.8,19.9-3.7c10.6,0.2,21.2,0,31.8,0.2c6.2,0.2,11.6,3.6,17.4,5.4
		c17.8,5.4,33.9,15.6,52.2,19.1c14.6,2.8,28.9,7.3,44.1,7c11.4-0.2,22.1,4,32.8,7.2c8.7,2.5,17.7,3,26.6,3.9
		c6.1,0.6,12.1,2,18.3,2.2c8.2,0.2,16.3-0.2,24.1-3.1c11.1-4.1,22.4-4.4,33.7-1c10.1,3.1,20.1,2.1,30.2,0.5c4.2-0.7,8,0.5,12,0.4
		c12.6-0.1,25.2,0,37.9-0.1c5.8,0,11.1-1.9,15.9-5c8.2-5.3,16.5-10.3,25.3-14.5c6.1-2.8,11.8-2.8,17.6,0.3
		c6.7,3.6,13.2,7.5,20.2,10.7c19,8.6,36.4,6.6,52.6-7.1c9.4-8,19.4-15.5,32-18.3c3-0.7,6-0.5,9-0.5c12.9-0.1,25.8,0.4,38.6-2.1
		c10.6-2.1,20.1-7.2,29.7-11.9c12.8-6.2,26.4-8.2,40.3-9.4c14-1.2,27.9-1.3,41.8,0.2c11.9,1.2,23.7,2.9,35.6,4.5
		c12,1.7,23.9,3.7,35.9,5.6c11.1,1.7,22.3,3.2,33.3,5.3c9.6,1.9,19.4,2.3,29,2.4c14.8,0.2,28.8,4.3,43.1,6.8
		c12.6,2.1,25.3,3.8,37.9,5.8c13.1,2,26.2,4.2,39.3,6.2c10.6,1.7,21.3,3.3,32,4.9c4.1,0.6,8.2,1.3,12.2,2c0,1,0,2,0,3
		c-20.6-3.4-41.2-6.6-61.8-10.2c-28.5-4.9-57.3-8.3-85.6-14.8c-9.7-2.2-20-2.1-30-2.3c-11.6-0.2-22.7-3.1-34.1-4.5
		c-11.1-1.4-22.1-3.1-33.1-4.8c-9.8-1.5-19.6-3.3-29.5-4.5c-18.9-2.3-37.8-4.7-57-3c-11.1,1-22.2,1.6-33.1,4.4
		c-9,2.3-17.2,6.7-25.5,10.7c-12.2,5.8-24.7,9.1-38.3,8.8c-10.3-0.3-20.9-1.4-31.1,1.3c-10.8,2.9-19.4,9.8-28.1,16.5
		c-7.5,5.9-15,11.7-25.3,12.7c-10.6,1-20.5-0.8-30.1-5c-6.6-2.9-13.3-6-19.5-9.7c-6.5-3.8-12.5-3.4-18.8-0.2
		c-7.2,3.6-14.1,7.9-20.6,12.7c-6.3,4.6-13.4,5.3-20.8,5.3c-15.5,0-30.9,0.3-46.4,0.6c-5.8,0.1-11.6,1.4-17.5,1.4
		c-7.1-0.1-13.8-1.7-20.5-3.3c-9.5-2.3-18.4-0.3-27.3,2.4c-13.3,4.1-26.6,3.3-40,1.1c-8.7-1.4-17.5-1.5-26.1-3.4
		c-7.1-1.6-14.1-3.2-21.2-5.1c-8.1-2.2-16.5-1.7-24.8-2.9c-22.3-3.1-44.1-7.2-64.8-16.8c-11-5.1-22.8-8.3-34.3-12.1
		c-6.3-2.1-13-0.9-19.4-1.4c-14.4-1.1-28.6-0.4-42.6,5.2c-16.9,6.8-33.8,13.8-50.6,21C8.6,80.4,4.3,81.5,0,82.5
		C0,81.5,0,80.5,0,79.5z"/>
	<path d="M0,545.2c6.9,0.4,13.7-0.2,20.6,0.8c12.5,1.8,20.4,8.4,24.9,19.9c3.3,8.4,5.5,17.3,9.6,25.4c8.5,16.6,22.7,26,39.6,32
		c15.6,5.6,31.9,8.3,48.3,10.3c28.5,3.5,56.1-1.4,82.3-11.7c18.4-7.3,34.7-19.3,50-32.2c19.3-16.3,36-35.2,51.7-54.9
		c13.9-17.4,31.7-18.8,49.4-15.8c6.1,1,9.5,6.3,13.1,10.5c10,12.1,19.1,25,29.3,36.9c12.8,15,29.1,24.5,48.7,27.5
		c23.3,3.6,42.2-6.6,59.8-20.1c23.5-18,38.4-42.7,50.9-69c4.6-9.6,9.2-19.1,15.1-28c5.3-8.1,11.9-13.6,21.7-15.1
		c9.7-1.5,19.3-2.6,29.1,0.1c10.5,3,18,9,23.4,18.6c6.8,12,13.1,24.4,23.3,34c8.3,7.9,18.3,12.6,29.5,14.4
		c5.1,0.8,10.3-1.3,13.2-5.9c8.4-13.4,21.4-18.3,36-21.3c12.2-2.5,23,0.7,33.9,5.9c35.9,17,72.6,32.1,111.1,42.3
		c14.4,3.8,29.1,6.2,43.9,7.9c12.8,1.5,25.7,1.7,38.6,2.6c12.2,0.9,24.1-2.4,36.1-4.3c10.3-1.6,20.7-3.1,31-4.6
		c2.1-0.3,4.2-0.7,6.3-1c0,1,0,2,0,3c-15.1,1.8-30.3,3.5-45.2,6.7c-15.1,3.3-30.2,2.9-45.4,1.7c-8.7-0.6-17.3-1.3-26-2.3
		c-17.6-2-34.9-5.5-51.8-10.7c-35.7-11-70.2-25.1-104.1-40.7c-16.1-7.4-40.6-2.9-53,9.7c-1.6,1.6-3.2,3.5-4.2,5.5
		c-5.4,10.3-12.5,11.4-23.8,8.7c-18-4.2-30.5-16.1-40.1-31.4c-4.1-6.6-8.1-13.4-12-20.1c-6.3-10.7-15.5-16.6-28.1-16.7
		c-6,0-12.1-0.1-18.1,0.5c-16.4,1.8-23.9,14.1-30.6,27c-8,15.4-15,31.3-24.4,45.9c-13.8,21.5-31.3,39.1-54,51
		c-24.7,13-48.7,11.1-72.3-3.4c-13.4-8.2-23.1-20-32.7-32.1c-6.7-8.4-13.3-16.9-20.8-24.6c-5.1-5.3-11.4-6.6-18.5-6.9
		c-20.2-1-33.1,10.5-44.7,25.1c-11.7,14.8-25.4,27.7-39.2,40.6c-13.8,12.8-30.2,21.7-45.6,32c-12,8-26,10.5-39.7,13.1
		c-14.5,2.8-29.2,5.8-44.1,4.2c-28.5-3-56.9-6.4-81.3-23.7c-10.7-7.6-17.5-18.1-22-30.3c-1.7-4.8-3.5-9.6-5.4-14.3
		c-5.4-13.6-16.1-19.1-30-19.8c-4.4-0.2-8.7,0-13.1,0C0,547.2,0,546.2,0,545.2z"/>
	<path d="M1070.3,269.2c-12-3.1-23.9-6.2-36-8.8c-29.2-6.1-55.2-0.6-77.8,19.9c-12.8,11.6-25.7,23.4-41.6,30.8
		c-10,4.7-20.3,7.8-31.7,6.9c-9.2-0.7-18.4,0.5-27.6,0.6c-21.5,0.3-42.6-3.5-62.1-13c-19.1-9.3-39.3-14.8-59.7-20.3
		c-17.9-4.8-36.7-6.6-54-13.4c-23.9-9.4-49-13.9-73.6-20.3c-19.2-5-38.7-9.6-58.1-14c-2.7-0.6-5.3-1.6-7.9-2.7
		c-7.7-3.4-15.5-3.8-23.8-1.8c-4.1,1-8.7,0.4-13.1,0.5c-20,0.1-40,1-59.3,7c-12.5,3.9-23.1,10.5-32.7,19.3
		c-7.1,6.6-14.7,12.7-22.9,17.8c-5.1,3.2-11.2,3.9-17.1,4.4c-15.1,1.4-30.4,1.9-45.5,3.3c-30.9,2.8-60,11.2-85,30.5
		c-17.8,13.8-31.8,30.9-43.1,50.4c-6.5,11.3-12.7,22.8-19.4,34c-2.5,4.2-5.4,8.4-9.7,11.3c-4.5,3-8.5,2.9-13,0.4
		c-6.9-3.9-11.6-10.2-16.5-16c-12.1-14.3-22-30.1-32.9-45.2c-4-5.5-8.9-10.1-14-14.5c-8.6-7.4-15.4-16.4-22.7-24.9
		c-6.2-7.1-14.3-10.7-23.1-12.8c-15.3-3.6-30.7-6.2-46.5-5.2c0-1,0-2,0-3c17.1-0.9,33.8,1.9,50.4,5.9c10.1,2.5,17.6,7.9,23.8,16
		c4.5,5.8,8.8,11.9,14.4,16.8c14.5,12.8,26,28.1,36.8,44.2c7.2,10.7,15.3,20.7,24.6,29.7c9,8.7,16.7,8.2,24.2-1.7
		c10.3-13.7,17.4-29.4,26.7-43.7c25.5-39.6,60.5-64.5,107.1-72.4c12.5-2.1,25.1-3.4,37.8-4.1c9.6-0.6,19.2-1.7,28.8-3
		c10.9-1.5,18.9-8.7,26.9-15.3c11.3-9.3,22.4-18.9,36.6-23.5c11.2-3.6,22.7-5.7,34.4-6.9c11.8-1.2,23.5-0.4,35.3-0.9
		c4.8-0.2,9.7-0.8,14.3-2.1c4.5-1.3,8.5-0.4,12.6,1.1c18.6,6.8,37.8,12.4,57.1,15.6c18.9,3.2,36.5,10.7,55.3,13.3
		c16.7,2.3,31.4,10.7,47.7,14.1c22.7,4.7,45.2,10.6,67.5,17.1c13.5,3.9,25.8,11,38.9,15.8c17.6,6.5,35.8,10.8,54.8,9.7
		c8.6-0.5,17.2-0.5,25.7,0c16.6,0.8,30.6-5.5,43.9-14.4c12.9-8.7,23.6-19.9,35.5-29.6c17.7-14.5,37.5-20.2,60.3-17.1
		c15.9,2.2,31.5,5.6,46.9,10.3c0.6,0.2,1.3,0,2,0.1C1070.3,266.5,1070.3,267.8,1070.3,269.2z"/>
	<path d="M0,337.2c23.2-1.1,42.7,9,61.6,20.8c15.5,9.7,27.7,23,40,36.4c20,21.9,32.9,48.2,46.9,73.8c2.1,3.9,5,7.5,7.8,11
		c4.1,5,10.7,4.4,15.3-1.4c5.9-7.4,8.9-16.3,12.2-24.9c8.5-22.3,15.3-45.3,26.2-66.6c10.4-20.2,23.2-38.4,42.7-50.8
		c13.2-8.4,27.8-13.3,43.4-15.7c14.7-2.2,29.5-2.4,44.1-1.7c17.8,0.9,35.4,3.9,52.8,7.4c12.7,2.5,25.4,4,38.2,1.4
		c13.5-2.7,22.4-11.9,29.2-23.2c10.6-17.7,25.9-27.4,46.3-29.5c17.8-1.8,35.3-0.9,52.9,1.7c45.2,6.8,87.2,24.2,130.1,38.5
		c13.9,4.6,27.5,10.2,41.9,13.1c13.5,2.7,26.8,6.2,40.6,6.8c8.2,0.4,15.5,4.3,23,7.3c18.7,7.3,38.2,11.2,57.9,14.4
		c5.7,0.9,11.2-1.1,16.5-3.1c7.4-2.8,15-3.1,22.6-3.4c9.9-0.3,19.8-0.5,29.6-2.1c5-0.8,10.1,0.2,15,1.2c8.8,1.8,16.8,0.2,24.5-3.9
		c13.5-7.2,27.1-14.3,42.5-17c13.3-2.4,26.6-2.5,39.9-0.8c8.9,1.1,17.7,2.7,26.6,4.1c0,1,0,2,0,3c-8.2-0.1-16.1-2.5-24.2-3.3
		c-20.7-1.9-41.3-2-60.9,6.4c-7.6,3.3-15,6.8-22.3,10.7c-9.2,5-18.7,5.4-28.6,2.9c-1-0.2-2-0.5-3-0.5c-17.4,0-34.8,1.5-52.1,3
		c-0.8,0.1-1.7,0.2-2.4,0.6c-15.2,6.8-30,3.8-45.6,0.5c-18.6-4-35.9-11.6-54.1-16.7c-6.4-1.8-13.2-1.4-19.8-2.5
		c-20.7-3.3-40.7-9.1-60.6-15.9c-31.1-10.6-61.8-22.5-93.6-31.4c-28.7-8-57.7-13.3-87.6-11.7c-23,1.2-41.4,10.6-53.3,31.2
		c-7.2,12.4-17.4,21-31.9,23.3c-12.1,2-23.9,0.3-35.8-2.1c-14.3-2.8-28.5-5.8-43.1-7c-9.8-0.8-19.6-2.4-29.5-1.8
		c-23.7,1.3-47,4.1-67.7,17.1c-15.5,9.7-26.9,23.3-36.3,38.8c-13.1,21.6-20.8,45.5-29.2,69.1c-3.9,10.9-7.5,21.9-13.1,32.1
		c-0.6,1.1-1.2,2.4-1.9,3.4c-7,9.4-14.4,9-21.4-1.2c-7.5-11-13.1-23-19.1-34.8c-13.7-27.2-32.6-50.3-55-70.3
		c-16.5-14.8-35.5-26.2-57.1-32.2c-7-1.9-14-2.7-21.2-2.7C0,338.5,0,337.8,0,337.2z"/>
	<path d="M1070.3,306.7c-15-3.3-30-6.4-45.3-8.4c-22-2.9-40.6,4.9-59,15.2c-9.6,5.4-18.5,12.6-29.2,15.4c-15.8,4-31.8,8.1-48.2,6
		c-10.9-1.3-21.1,0.9-31.7,2.1c-6.9,0.7-14.2,1.3-20.9-1c-10.1-3.4-20.5-5.2-30.9-6.7c-8.3-1.2-16-4.3-22.9-8.6
		c-10.3-6.4-21.5-9.2-33.2-10.8c-25.2-3.5-50-8.1-74.1-17c-23.6-8.6-48.3-14.1-72.2-21.8c-15.8-5.1-32.2-6.9-48.2-10.9
		c-17.9-4.5-36.3-5.8-54.7-5c-15.9,0.7-31.6,3.4-45,13c-7.3,5.2-13.4,11.8-19.1,18.6c-12.5,15.1-29,19.4-47.3,18.8
		c-16.2-0.5-32.5-2.5-48.7-2.4c-20.8,0.1-41.7,0.7-61.6,8c-28,10.3-49.2,28.9-65.1,54c-12,19.1-19.9,40.1-29.2,60.5
		c-2.9,6.3-5.8,12.7-10,18.3c-5.9,8-12.1,8.6-19,1.6c-9.5-9.7-15.5-22-23.3-32.9c-15.1-21.2-29.2-43.3-47.8-61.6
		c-18-17.7-39.3-29.9-64.6-33.8c-6.2-1-12.7-0.2-19.1-0.2c0-1,0-2,0-3c21-1.7,40.2,3.6,58.4,14.2c19.7,11.6,34.9,27.7,48.3,46
		c14.6,19.9,28.7,40.1,42.7,60.4c2.2,3.2,4.7,6,7.8,8.4c5,3.9,8.7,3.9,13.2-0.6c5.7-5.8,9-13.1,12.3-20.3
		c8.4-18.4,15.9-37.2,26.3-54.6c19.7-33,47.4-55.2,85.2-63.5c9.6-2.1,19.4-3,29.3-3.3c23.7-0.7,47.4,1.7,71.1,1
		c13.1-0.3,24.5-4.7,34-14.1c8.1-8,15.3-17,25.1-23.3c9.1-5.8,19.1-8.8,29.6-10.3c14-2,28.2-1.2,42.2-0.8c13.3,0.3,26,4.4,39.1,6.8
		c33.9,6.2,66.4,17.7,99.6,26.7c13.7,3.7,27.1,8.9,40.6,13.3c9.6,3.1,19.8,2.5,29.5,4.8c12.5,3,25.7,2.8,37.6,8.2
		c3.9,1.8,7.7,3.9,11.4,6c10.6,6.2,22.3,8.9,34.3,10c6.5,0.6,12.6,2.8,18.8,4.5c9,2.4,17.8,1.6,26.7,0.3c8.4-1.2,16.7-2.1,25.3-0.8
		c8.9,1.3,18,0.2,26.8-1.9c5.6-1.3,11.4-2.3,17-3.7c11.1-2.8,19.8-10.2,29.7-15.6c12-6.5,23.7-13.5,37.3-16.5
		c8.3-1.8,16.5-1.5,24.9-1.1c15.8,0.9,30.8,5.9,46.3,8.5C1070.3,304,1070.3,305.4,1070.3,306.7z"/>
	<path d="M1070.3,531c-17.1,4.5-34.3,8-51.9,10.3c-19.4,2.5-38.9,2.7-58.3,0.8c-27.7-2.7-54.6-9.7-80.7-19.4
		c-29.6-11-58.1-24.2-85.7-39.7c-12.7-7.1-26.4-7.7-40.6-6.1c-9.4,1.1-18.4,4.2-27.7,5.3c-15.6,2-28.2-4.8-39.2-15.1
		c-16.3-15.3-35.2-25.9-56.8-31.2c-19.2-4.6-37,2.3-48.7,20c-10.4,15.7-17.3,33.3-26.4,49.7c-11.8,21-26.5,39.4-45.9,53.8
		c-10.9,8.1-23.2,12.9-36.7,11.9c-18.5-1.4-33.4-10-44.6-25.1c-7.7-10.4-15.2-20.7-18.8-33.5c-3.3-12.1-13.1-16.9-24.3-19.3
		c-10-2.2-20-4-30-6.2c-3-0.7-6-1.7-8.9-3c-10.6-4.8-16.5-1.5-22,8c-5.2,8.9-9.1,18.6-13.7,27.9c-13.2,26.7-30.9,50-53.3,69.5
		c-19.8,17.2-42.8,28.1-68.9,32.9c-13.7,2.5-27.3,3-40.9,1.7c-20.8-2-41.1-6.2-59-17.9c-13.1-8.6-19-21.1-20.6-36.3
		c-0.8-7.6-1.2-15.4-3.2-22.8c-4.1-15.4-12-21-27.7-23c-11.8-1.5-23.8-0.9-35.8-0.3c0-1,0-2,0-3c12.1-0.7,24.1-1.3,36.2,0
		c16.9,1.9,28.2,11.2,30.5,28.9c1.2,9.3,1.8,18.7,3.6,27.9c3.5,18,16,28,31.9,34.5c14.6,5.9,30,8.7,45.7,10.3
		c28.1,2.9,54.4-2.9,79.3-15.5c20.2-10.2,36.7-25.2,51-42.9c16.6-20.5,29.3-43.1,39-67.5c2-4.9,4.7-9.5,8.3-13.4
		c5-5.4,11.5-6.7,18-3.1c10.3,5.7,21.9,6.9,33.1,9.5c7.2,1.7,14.4,3.4,21,6.8c9.6,4.9,11.6,14.6,15.6,23.3
		c10.2,22,23.6,41.1,48.9,47.4c18.4,4.6,34.2-1.4,48.5-12.7c25.5-20.1,41.5-47.2,55-76.1c5.1-10.9,10.7-21.7,19-30.8
		c13.7-15.3,30.5-18.7,49.3-13.3c19.4,5.7,36.8,15.6,52.2,28.9c10.9,9.4,23,16.2,37.8,15.2c6.4-0.4,12.7-2.3,19.1-3.3
		c18.9-3,37.3-2.8,54.7,7.2c30.8,17.7,63.1,31.9,96.8,43c21.6,7.2,43.6,12.2,66.3,14.1c26.3,2.2,52.3,1.5,78.2-4
		c10.5-2.2,21-4.5,31.3-7.3C1070.3,528.9,1070.3,529.9,1070.3,531z"/>
	<path d="M1070.3,149.5c-22.1-9.3-44.8-16.1-68.4-20.4c-15.4-2.8-30.7-6.3-46.1-9.5c-22.2-4.7-44.5-6.5-66.9-1.5
		c-20.5,4.5-34.3,17.2-41.5,36.5c-5.5,14.7-16.3,20.7-30.5,23.4c-17.1,3.3-34.1,1.3-51.2,1.1c-40.4-0.6-80.7-0.6-121.1-1.5
		c-17-0.4-33.9-2.5-50.8-4.5c-17.5-2.1-34.7-5.8-52.1-7.9c-18.8-2.3-37.4-5.7-56-8.7c-13.3-2.2-25.8,1-38.5,3.5
		c-7,1.4-14,2.5-21.2,2.8c-15.9,0.5-31.6,1.9-47.4,3.8c-14.6,1.8-29.3,2.8-43.9,4.3c-26.9,2.7-53.9,4.3-79.5,14.2
		c-12.6,4.9-24.1,12.3-36.6,17.5c-24.1,10.1-47.6,10.4-71.5-0.8c-15.3-7.1-30.5-14.7-47-19.2c-13.2-3.6-26.6-4.5-40-5.3
		c-10.1-0.6-18.7-4.6-27.3-9.3c-8.9-4.9-17.3-11-27.4-13.6c-1.8-0.5-3.6-0.6-5.4-0.7c0-1,0-2,0-3c6.4-0.4,11.8,2.7,17.1,5.6
		c7.3,3.9,14.4,8.2,21.6,12.2c7.1,3.9,14.8,6.2,22.8,6c29.4-0.9,55.9,8.9,81.8,21.3c15.1,7.2,30.9,11.3,47.7,9.6
		c13.3-1.3,25.8-5.6,37.6-11.9c16.7-9,34.2-16,53.1-19.1c9-1.5,18.1-2.4,27.2-3.4c12.8-1.4,25.6-2.6,38.3-3.8
		c8.5-0.8,17-1.5,25.5-2.3c13.3-1.3,26.5-2.6,39.8-3.9c6.8-0.7,13.7-0.3,20.6-0.9c9-0.8,17.8-2.6,26.4-4.6c12.7-3,25.1-1.6,37.6,0.7
		c12.6,2.4,25.1,4.7,37.8,5.8c8.9,0.8,17.6,3,26.4,4.4c8.9,1.4,17.7,2.5,26.6,3.6c12.2,1.4,24.5,2.9,36.8,3.8
		c12.2,0.8,24.5,1.1,36.8,1.3c25.5,0.3,51.1-0.2,76.6,0.5c18.2,0.5,36.3,0.4,54.5,0.5c11.1,0,22.1-2.1,32.7-5.7
		c7.8-2.7,13.5-7.8,16.9-15.2c4.8-10.5,10.6-20.2,19.6-27.8c9.6-8,21-10.9,32.8-13c8.3-1.5,16.7-1,25.1-1.2
		c15.9-0.3,31.4,3,46.8,6.4c21.6,4.7,43.4,8.5,64.8,14c12.7,3.3,24.9,8.2,37.2,12.8c0.6,0.2,1.3,0.3,1.9,0.4
		C1070.3,147.4,1070.3,148.4,1070.3,149.5z"/>
	<path d="M1070.3,96.7c-20.7-5.2-41.5-9.5-62.7-12.3c-19.1-2.6-38-6.8-57-10.6c-13.2-2.6-26.5-4.4-39.9-5.5
		c-12.4-1.1-24.9-2.7-37.3-3.8c-9.7-0.9-19.3-1.7-29-2.1c-17.1-0.8-34.3-0.9-51.4-1.2c-23.4-0.5-45.9,4.1-68.4,9.6
		c-9.4,2.3-18.1,6.1-26.6,10.4c-11.6,5.9-24.3,8.3-37,10.6c-15.8,2.9-31.6,5.8-47.4,8.6c-12.9,2.2-26,3.8-38.9,5.7
		c-20.3,3-39.7-1.1-59.2-5.8c-8.2-2-16.4-2.6-24.5,0.6c-16.8,6.7-34.3,7.5-52.1,6.6c-10.3-0.6-20.2,1.5-30.2,3.1
		c-1.1,0.2-2.3,0.4-3.5,0.4c-15,0.4-29.9,0.6-44.9,1.1c-18.3,0.7-36.5,2.5-54.8,1.8c-17.6-0.7-35.3-0.2-52.9-1.1
		c-12.4-0.6-24.7-3-37-4.6c-12.7-1.7-25.3-3.9-38-5.2c-23.3-2.4-46.4-5.2-69.1-11C97.1,89,86.3,91.9,75.4,95
		c-15.3,4.3-30.7,8.7-46.2,12.5c-7.6,1.9-15.2-0.8-22.8-2.1c-2.2-0.4-4.3-0.6-6.5-0.6c0-1,0-2,0-3c4.6,0.7,9.3,1.1,13.8,2.1
		c10.5,2.4,19.9-1.7,29.6-4.4c14.7-4,29.4-8.3,44.2-12.1c9.1-2.4,18.1-0.2,27.1,1.6c15.4,3.1,30.9,6,46.5,7.7
		c14.5,1.6,28.9,4.2,43.2,6.7c8.7,1.5,17.6,1.8,26.2,3.5c19.2,3.8,38.7,2.1,58,3.2c13.4,0.8,26.9,1.3,40.2,0.5
		c23.7-1.4,47.3-1.6,71-2c7.4-0.1,14.8-1.8,22.1-3.2c4.5-0.9,9-0.5,13.5-0.7c13.4-0.4,26.9,1.4,40-2.1c3.6-0.9,7.2-2.2,10.6-3.9
		c9.9-4.8,19.9-4.6,30.4-1.7c14.9,4.1,29.8,8.1,45.5,7.5c14.2-0.5,28-3.6,41.8-6.5c15.4-3.2,30.7-6.3,46.2-8.7
		c18.4-2.9,36.6-6.3,53.3-15.7c12.2-6.9,26.4-8.2,39.8-11.6c24.6-6.1,49.6-4,74.5-3.9c15.6,0.1,31.1,1.6,46.6,2.9
		c20.3,1.8,40.5,3.7,60.7,6.1c17.7,2.1,35.2,5.9,52.7,9.4c14,2.8,28.1,4.8,42.2,6.8c15.7,2.2,31.2,5.7,46.6,9.6
		c1.3,0.3,2.6,0.4,3.9,0.5C1070.3,94.7,1070.3,95.7,1070.3,96.7z"/>
	<path d="M1070.3,59.2c-18.4-0.4-36.7-2-55-3.9c-12.6-1.3-25.3-2.1-37.9-3.1c-11.3-0.9-22.4-3-33.4-5.5c-11.9-2.6-24-4.3-36.1-4.5
		c-19.5-0.2-38.3-3.6-57.2-7.5c-11.8-2.5-23.9-4-35.8-5.9c-12-1.9-23.9-4.1-35.9-5.6c-18.6-2.3-37.2-3.7-56-3.1
		c-20.7,0.7-38.6,9.6-57.2,16.4c-10.2,3.7-20.7,6.8-31.5,6.4c-21.8-1-40.8,5.3-57.8,18.9c-6.2,5-13.1,8.7-21,10.7
		c-12.4,3.1-22.6-1.5-31.8-9.1c-12.9-10.5-26.6-13.8-41.9-6c-10.3,5.3-21.5,7.2-32.5,10c-3.2,0.8-6.5,1.6-9.3,3.2
		c-11.3,6.3-22.8,5.9-34.5,1.8c-9.1-3.2-18.2-3.7-27.6-2.2c-6.8,1.1-13.5,0-20.1-1c-10.6-1.6-20.9-1.2-31.2,1.5
		c-7.7,2-15.3,2.3-23.3,1c-5.4-0.9-11-0.6-16.6-1c-7.6-0.5-14.8-2.2-21.3-5.8C253.7,58,240.9,55,227.2,55c-3.9,0-7.8-1.1-11.5-2.8
		c-10.6-5.1-21.9-8.1-33.4-10.3c-6.9-1.3-13.5-3.4-19.4-7.2c-13.9-9-29.5-13.5-45-18.4c-10.8-3.4-21.5-5.7-32.7-4.8
		c-7.8,0.6-15.6,1.2-23.4,2.1c-3.5,0.4-6.5,2.3-9.5,4.1C35.2,27.9,17.4,36.6,0,46c0-1.4,0-2.7,0-4.1c16.3-8.4,32.6-16.8,48.1-26.5
		c7.4-4.7,15.2-6.4,23.4-6.6c11.4-0.3,23-2.9,34.4,0.7c19.4,6.1,39.5,10,56.9,21.4c8.4,5.6,18.2,8,27.9,9.7
		c8.4,1.5,16.3,4.1,23.9,7.7c8.1,3.8,16.7,4,25.2,4.6c8.5,0.6,16.1,3.3,23.6,6.8c10,4.7,20.3,7.6,31.5,7.8c8.5,0.1,17,1.7,25.5,0.9
		c3.4-0.3,6.5-1.1,9.7-2.1c9-2.7,18.1-2.7,27.1-0.9c4.7,0.9,9.4,1,14,0.8c15.8-0.9,31.3,0.5,46.3,5.5c4.4,1.5,8.6,0.6,12.1-0.9
		c12.1-5.1,24.7-8.1,37.4-10.6c5.7-1.1,10.8-4.1,16-6.4c14-6.1,26.9-3.8,39.2,4.2c2.1,1.4,4.3,2.6,6.1,4.3
		c10.9,10.1,28.6,8.8,40.2,1.1c7.2-4.8,14.3-9.7,21.6-14.3c11.2-6.9,23.9-9.3,36.7-9c21.1,0.4,39.8-7.3,58.6-15.1
		c17.3-7.2,35.4-8.4,53.7-7.9c13.2,0.3,26.3,1.2,39.4,3.4c11.6,2,23.3,3.5,34.9,5.3c11.9,1.9,23.9,3.8,35.8,5.9
		c8.1,1.5,16.2,3.1,24.2,5.1c9.3,2.4,18.9,2.4,28.3,2.7c20,0.8,39.7,3.7,59.2,7.9c6.5,1.4,13.2,2.1,19.9,2.4
		c14.7,0.8,29.2,2.6,43.9,4c5.7,0.6,11.4,0.6,17,0.9c9.5,0.4,19,2,28.6,1.3C1070.3,57.1,1070.3,58.1,1070.3,59.2z"/>
	<path d="M0,129.2c7.2,2.2,13.4,6.3,19.7,10.2c12.6,7.7,25.4,11.7,40.6,9.3c29-4.5,57.3,0.5,84.7,10.3c10.2,3.6,20.7,5.8,31.5,6.5
		c11.4,0.7,22.3-2.8,33.3-5.3c14.6-3.4,29.3-5.7,44.2-6.8c23.4-1.7,46.9-2.4,70.4-3.1c17.1-0.5,34.2-1.5,51.2-2.9
		c20-1.7,40-3.5,60.1-4.2c13.1-0.4,26.2-3,39.3-3.7c15.9-0.8,31.7,2.3,47.5,3.6c9.1,0.8,18.3,1.6,27.4,2.3
		c16.8,1.3,33.7,2.7,50.6,3.7c8.6,0.5,17.2,0.3,25.7,0.4c18.3,0,36.7,0.7,54.9-1.1c19.6-1.9,39.2-3.7,57.6-11.9
		c9.3-4.2,19.9-4.3,29.2-8.6c13.1-6,26-12.5,38.1-20.3c11.7-7.6,24.5-11.2,37.7-13.8c17.9-3.6,36-3.7,54.1-3
		c24.6,1,48.8,4.8,72.9,10.4c17.5,4.1,35.2,7.4,52.9,10.8c16,3,31.3,8.1,46.6,13.3c0,0.7,0,1.4,0,2c-8.9-1.7-17.1-5.6-25.8-8
		c-15.8-4.3-31.9-7-47.9-10.3c-15.2-3.1-30.4-6.3-45.6-9.5c-11.2-2.3-22.6-3.7-34-4.9c-15.6-1.5-31.2-0.8-46.8-0.8
		c-18.6,0.1-36.6,4-53.2,12.2c-10.3,5.1-19.7,11.9-29.8,17.5c-12.7,7.1-25.9,12.2-40.1,14.8c-8.9,1.6-16.9,6.2-25.8,8.2
		c-8.8,2.1-17.7,2.8-26.6,3.8c-25.6,3-51.3,2.2-77,2c-19.5-0.1-38.8-1.9-58.2-3.8c-13.4-1.4-27-2-40.4-3.2
		c-11.3-1-22.5-2.5-33.8-3.7c-7.7-0.8-15.4,0.6-23.1,1.1c-8.6,0.6-17.2,2.1-25.8,2.5c-18.4,1-36.7,2-55,4c-9,1-18,1.4-27,2.1
		c-10,0.8-20.1,0.7-30.2,1.2c-21.5,1-42.9,1.8-64.3,3.2c-21.4,1.4-42.1,6.8-62.7,12.2c-15.5,4-30.6,1.6-45.7-2.7
		c-14.7-4.2-29-9.8-44.2-12.2c-11.4-1.8-22.7-3.2-34.4-2c-11.2,1.1-22.7,3.5-33.9,0.3c-9.1-2.6-16.9-8.2-25-12.9
		c-4.4-2.5-8.5-5.6-13.7-6.3C0,131.2,0,130.2,0,129.2z"/>
	<path d="M0,117c8.1,2.3,15.5,6.3,23.1,9.8c8.3,3.8,16.6,3.9,25.2,2.1c13.2-2.7,26.6-4,39.8-6c8.5-1.3,16.9-3.6,25.6-3
		c3.3,0.2,6.7,0,9.9,1.1c7.3,2.4,14.8,1.6,22.3,1.3c24.8-0.9,49.7,0.1,74.5,1c16.7,0.6,33.5,1.5,50.2,2.1
		c32.8,1.2,65.6,0.7,98.4,0.6c16.7-0.1,33.4-1.9,50-3.7c6.5-0.7,13.1-0.5,19.6-0.8c25.6-1.2,51.1-5,76.9-3.4
		c15.9,0.9,31.8,3,47.7,2.9c22-0.1,44.1-0.3,66.1-1.1c13.3-0.5,26.3-3.1,39.4-5.4c12.2-2.1,24.7-2.7,36.4-7.5
		c8.2-3.3,16-7.6,24.7-9.8c21.2-5.4,42-12.2,63-18.3c8.1-2.3,16.7-2.8,25.1-3.6c16.1-1.6,32.3-1,48.4-0.8
		c19.4,0.1,38.8,1.5,58.2,3.8c21.9,2.5,43.2,8.1,64.8,12.1c14,2.6,28.1,4.7,42,7.2c11.9,2.2,23.4,5.6,35,8.8
		c1.3,0.4,2.6,0.6,3.9,0.5c0,1,0,2,0,3c-14.2-3.6-28.1-8.1-42.6-10.7c-12.4-2.2-24.8-4.3-37.1-6.6c-14.4-2.8-28.7-6-43.1-8.7
		c-14.6-2.7-29.3-4.4-44.1-5.6c-15.9-1.3-31.9-1.5-47.8-1.7c-19.4-0.3-38.9,0.3-57.8,5c-15.7,3.9-30.8,10.2-46.5,14.2
		c-17.7,4.5-34.6,11.4-51.9,17.3c-8.5,2.9-17.6,3.3-26.4,4.5c-11,1.4-21.9,3.5-33,4.5c-13.2,1.3-26.5,1.2-39.7,1.3
		c-19.7,0.2-39.4,0.5-59-0.7c-15.9-0.9-31.8-2.5-47.7-2.4c-15.7,0.1-31.3,2.3-47,3.4c-8.9,0.6-17.8,0.5-26.7,1.2
		c-17.5,1.4-35,2.5-52.6,3.6c-16.6,1.1-33.3,0.7-49.9,0.3c-23.7-0.6-47.4-0.6-71.1-0.9c-13.4-0.2-26.8-2-40.2-1.8
		c-21.5,0.3-43,1-64.5,0.9c-6.3,0-12.6-0.3-18.8-2c-9.9-2.6-19.8-0.8-29.7,1c-6.9,1.2-13.8,2.3-20.7,2.8c-7.8,0.5-15.5,1.9-23.2,3.4
		c-10.7,2.1-20.4,0.4-29.9-4.4c-6.3-3.2-12.9-6-19.3-9C0,118.3,0,117.7,0,117z"/>
	<path d="M1070.3,580.7c-12.7,0.4-24.7,2.4-34.2,12.3c-3,3.2-7.4,4.7-11.7,6c-10.8,3.4-21.2,2.7-31.5-1.7
		c-14.6-6.2-29.9-8.8-45.6-10.7c-22-2.7-43.5-8.1-64.7-14.3c-15.5-4.5-30.8-9.8-46.7-12.5c-10.2-1.7-20.3-0.1-30.1,3
		c-16.8,5.3-33.7,10.7-51.3,12.5c-20.8,2.1-40.4-1-57.1-15.4c-10.4-9-18.7-19.8-28.2-29.5c-6.8-6.9-14.1-13.3-22.3-18.5
		c-15.9-10-33.4-5.9-44.6,9.4c-10.7,14.7-20.4,30.2-32.3,43.9c-22.2,25.6-48.9,44.4-82.5,50.7c-19.5,3.6-38.6-0.7-56.6-9.4
		c-17.7-8.5-33.8-19.4-50.1-30.2c-7.7-5.1-15.7-9.7-25.1-10.8c-11-1.3-19.9,3.8-28.5,9.7c-14.4,9.9-27.6,21.6-42.8,30.2
		c-12.3,7-25.6,12.2-37.3,20.4c-7.1,5-14,10.5-22.5,13.1c-2.5,0.8-5,1.9-7.7,1.8c-16.1-0.7-31.7,3.1-47.3,6.5
		c-8.9,1.9-17.6,2-26.6,0c-12.1-2.7-24.4-4.1-36.6-6.5c-25.7-4.9-49.6-13.5-68.8-32.5c-9.5-9.4-19.7-18.1-32.3-23.2
		c-1.7-0.7-3.4-1.3-5.3-1c0-1,0-2,0-3c9.5-0.1,16.1,6,23.3,10.8c8.3,5.6,14.3,13.6,21.8,20.2c13.7,12.1,29.8,18.9,46.9,23.7
		c14.3,4,29,6.2,43.8,8.2c5.9,0.8,11.5,2.8,17.5,3.1c12.4,0.5,24.1-3.6,36.2-5.5c7.7-1.3,15.5-2.5,23.3-2.5c7.7,0,14.7-2,21-6.3
		c15.7-10.6,32.1-20.1,49.1-28.6c11.1-5.5,20.2-14.5,30.3-21.8c7.6-5.6,14.9-11.6,23.2-16.2c15.1-8.4,28.7-3.7,41.7,4.8
		c16.6,10.9,32.5,22.9,50.2,32c17.7,9.1,36.5,13.6,56.3,11.4c17-1.9,32.3-9.1,46.7-18.1c22.6-14,39.5-33.8,54.2-55.7
		c5.7-8.6,11.4-17.2,17.7-25.3c10.3-13.1,27.5-18.7,45.1-6.6c8.6,5.9,16.2,13,23.3,20.6c11.2,12.2,21.3,25.7,35.8,34.4
		c13.3,8,27.8,9.8,43.1,8.5c21.1-1.7,40.7-9.6,60.9-14.9c13.2-3.5,25.8-1.1,38.3,2.6c25.1,7.3,49.9,15.6,75.6,20.7
		c12.2,2.4,24.5,4.6,36.9,5.5c11,0.8,21.2,4.8,31.4,8.5c10.8,3.9,21.4,5.1,32.4,0.7c3.6-1.4,7.1-3.2,9.8-5.7
		c9.8-9.5,21.7-11.5,34.6-10.7C1070.3,579.3,1070.3,580,1070.3,580.7z"/>
	<path d="M0,608.1c5.8-0.1,10.1,3.6,14.8,6.2c16.8,9.5,33.2,19.6,51.8,25.5c16.2,5.1,32.8,8.7,49.7,11c7.5,1,14.9,2.3,21.8,5.9
		c10.7,5.5,21.6,2.5,32.3-0.3c7.1-1.9,14.3-3.7,21.5-5.4c3.5-0.8,7,0.6,10.4,0.9c16.1,1.4,30-4.8,42.6-13.7
		c15.1-10.6,30.9-18.7,49.1-22.4c9.1-1.9,17-7.8,25.4-11.8c8.8-4.3,17.9-7.5,27.3-9.7c5.8-1.4,11.6,0.4,17,2.6
		c19.6,8,39,16.5,59.3,22.8c14.7,4.6,29.6,8.5,45.1,8.7c22,0.3,42.3-6.5,61.7-16.4c25.1-12.8,45.3-31.7,63.4-53.1
		c5.8-6.9,11.9-13.8,19.5-18.9c8.7-5.8,17.3-6,26.8-0.6c14.7,8.3,25.4,20.5,35.9,33c13.6,16.1,29.7,27.4,51.6,28.8
		c20.7,1.3,41.2,1.3,61.8-1c18.5-2,36.7-6.1,55.2-8.1c11.6-1.2,23.4-0.1,34.9,2.2c23,4.6,45.4,11.7,68.5,15.2
		c13.8,2.1,26.1,8.2,39.5,10.9c22.1,4.4,43.1,0.6,62.9-10.2c6.5-3.6,12.7-7.9,20.5-8c0,1,0,2,0,3c-5.7,0.7-10.9,2.8-15.7,5.7
		c-12.3,7.3-25.4,11.3-39.6,12.8c-12.3,1.3-24.3,1.1-36.2-2.3c-6.2-1.8-11.6-5.9-18.1-6.5c-25.8-2.5-50.2-11.4-75.6-15.9
		c-8.7-1.6-17.4-3-26.2-3.6c-8.5-0.6-17,1.1-25.4,2.3c-13.1,1.8-26.3,3.6-39.4,5.6c-19.5,3-39.2,2-58.8,1.9
		c-21.4-0.1-40.4-6.3-55.2-23c-6.3-7.2-13.1-14-19.3-21.3c-7.4-8.8-17-15.1-27.5-19.4c-10.5-4.4-19.5,0.7-27,8.1
		c-10.3,10.2-20,21-30.3,31.2c-22.3,22.2-48.3,37.9-78.8,46.1c-20.6,5.6-41,4.5-61.5-0.8c-22.5-5.8-44.6-13.1-65.5-23.1
		c-14.8-7.1-28.8-5-43,0.8c-4.9,2-9.7,4.1-14.3,6.6c-10.5,5.5-21.6,8.7-33.1,11.4c-13.9,3.2-25,12.4-36.8,20
		c-14.7,9.5-30.2,14.7-48,11.5c-5.9-1-11.8,1.5-17.4,3.2c-7.3,2.2-14.6,4.2-22,5.5c-4.9,0.9-10.1,0.5-14.7-1.8
		c-11.9-6.1-25-6.9-37.9-9.1c-25.7-4.4-50.3-11.9-73.1-24.8c-8.2-4.6-16.5-9-24.8-13.4c-1.6-0.8-3.2-1.9-5.2-1.4
		C0,610.1,0,609.1,0,608.1z"/>
	<path d="M1070.3,636.5c-15.7,3-31.5,5.9-47.6,4.9c-16.8-1.1-33.7-1.8-50.3-4.7c-9.9-1.7-20.1,0-30.1-0.2
		c-13.5-0.2-26.8-2.7-40.2-4.6c-18.6-2.6-37.3-3.4-56.1-1.6c-11,1-22.1,1.6-33.2,2.2c-17.1,0.9-34.3,1.4-51.4,1
		c-20-0.4-39.9-1.3-59.8-3.1c-12.5-1.2-24.1-5.7-35.2-12.1c-10.6-6.1-21.5-12.2-33.9-14.3c-13-2.3-25.8-1.6-37.9,4.7
		c-15.6,8.1-31.2,16.2-47,24c-21.6,10.6-44.2,17.6-68,21.3c-32.8,5-64.4,1.1-95.1-11.8c-15.5-6.5-31.7-10.6-48.8-9.6
		c-6.7,0.4-13.2,1.4-19.7,3c-5.9,1.5-12.1,1.6-18,0.9c-13.8-1.7-25.7,3-37.4,9.5c-13.1,7.2-25.9,15-40.3,19.5
		c-5.4,1.7-10.9,2.9-16.6,2.7c-15.8-0.7-30.8,3.3-45.9,7.4c-8,2.2-16.2,4.1-24.6,1.9c-1.9-0.5-4.2-1-5.4-2.3
		c-8.5-8.8-19.8-10.4-30.8-12c-31.1-4.4-61.4-12-90.8-22.9c-2-0.7-4.1-1.1-6.2-1.6c0-1,0-2,0-3c10.7,2.6,20.7,7.3,31.2,10.6
		c19.6,6.1,39.5,10.8,59.7,13.8c7.7,1.2,15.3,2.4,22.9,4.3c3.7,0.9,7.5,2.3,10.5,5.2c8.4,8.1,18.6,7.7,29,5.2
		c9.3-2.2,18.4-4.9,27.7-6.9c5.2-1.1,10.7-2,15.9-1.6c17,1.1,31.8-5.1,46.3-13c7.8-4.3,15.7-8.3,23.5-12.6c9.2-5,19-7.5,29.5-7
		c6.7,0.3,13.4,0.8,19.9-1c25.1-7.1,48.8-1.6,72.1,8c15.8,6.5,32,10.9,49.1,12.5c40.3,3.8,77.4-6.9,113.1-24.2
		c13.4-6.5,26.1-14,39.1-21.2c20.7-11.4,41.2-12.4,62.3-1.2c6.7,3.5,13.6,6.6,20.1,10.5c13.6,8.2,28.8,11.1,44.4,11.5
		c21.5,0.6,42.9,3,64.4,2c20.9-1,41.9-1.8,62.8-3.7c14.6-1.4,29.3-1.4,44,0.6c24.6,3.3,49.1,7.8,74.2,6.5c8.8-0.4,17.8,1.6,26.7,2.9
		c16.2,2.3,32.4,2.4,48.6,2.1c9.3-0.1,18.1-2,27.1-4c1.9-0.4,4-0.2,6-0.3C1070.3,635.1,1070.3,635.8,1070.3,636.5z"/>
	<path d="M1070.3,691.3c-15.3,0-30.6,1.1-45.8,1.5c-13,0.3-25.9-2.6-39-2.7c-11.3-0.1-22.3,1-32.3,6.5c-9,5-18,4.6-27.3,1.4
		c-11.3-3.9-22.3-8.9-34-11.7c-19.1-4.6-37.6-1.8-55.9,4.4c-4.5,1.5-8.9,3.4-13.5,4.7c-6.6,1.8-12.8-0.3-18.9-2.4
		c-11.4-3.9-22.9-6.6-34.9-7.3c-8.7-0.5-17.3,0.8-25.7,2.7c-13.6,3.1-27.3,1.9-41,2.1c-20.6,0.3-41.1-3.2-61.6-4
		c-13.8-0.5-26.6-5-39.8-7.7c-10.2-2.1-20.4-1.4-30.5-1.7c-18.1-0.5-35.6,3.7-53.2,6.8c-13.2,2.4-26.5,4.5-39.7,6.6
		c-21,3.3-42.1,3.2-63.2,2.7c-12.1-0.3-24.2-2.3-36.3-3.6c-17.8-1.9-35.4-5-53.5-2.6c-7.9,1-16.1,0.4-24.2,0.2
		c-13.9-0.4-27.6,0.2-41.1,4.1c-12.5,3.6-25.4,4.4-38.2,3.9c-18.9-0.8-36.9,2.8-55.1,6.9c-15.9,3.6-32,4.4-48.4,2.7
		c-20.3-2.1-40.4-5.8-60.5-8.6c-15.2-2.1-30-6.3-45.1-9.4c-3.7-0.8-7.5-1.9-11.4-1.6c0-1,0-2,0-3c11.6,1,22.9,3.8,34.2,6.4
		c14.5,3.2,29.1,5.9,43.9,7.9c10.5,1.4,20.7,4,31.2,5.5c12.8,1.8,25.6,2,38.6,0.8c17.9-1.7,34.9-7.9,52.7-9.8c3-0.3,6-0.6,9-0.3
		c19.8,1.6,39.3,0,58.3-6.1c8.4-2.7,17.2-3.1,25.8-2c12.3,1.5,24.5,0,36.7-0.8c12.8-0.9,25.4,0.5,38,2.3c9,1.3,18.1,2.5,27.2,3.3
		c14.7,1.2,29.5,2.6,44.2,2c17.3-0.7,34.6-2.5,51.7-5.7c21-3.9,41.9-8.3,63-11.2c23-3.1,46-2.1,68.1,6.1c8,3,16.4,3,24.6,3.6
		c22.2,1.8,44.4,3.6,66.8,3.5c13.5-0.1,26.7-1.3,39.9-3.4c14.4-2.3,28.2,0.2,42.1,3.6c4.3,1.1,8.6,2.3,12.8,3.6
		c8.2,2.5,15.7-0.2,23.3-2.7c28.7-9.6,57-8.9,84.9,3c5.5,2.4,11.3,4.2,17.5,4.8c7.3,0.6,13.7-1.9,20.1-4.5
		c14.2-5.8,28.9-5.3,43.8-3.9c14.2,1.4,28.5,2,42.7,0.9c9.8-0.8,19.5-0.4,29.2-0.7C1070.3,689.2,1070.3,690.2,1070.3,691.3z"/>
	<path d="M0,654.7c12.7,2.7,24.8,7.7,37.5,10.2c17.5,3.3,35.1,6.7,52.6,10.2c7.9,1.6,15.7,3.7,22.2,9c8.8,7.2,19.2,7,29.6,5.8
		c15.6-1.8,30.4-7.4,45.7-10.4c9.7-1.9,19.6-1.8,29.5-0.8c6.7,0.7,13.1-1.3,19.1-4.1c13.1-6.1,26.3-12.1,40.3-16.3
		c8.2-2.5,16.3-2.2,24.7-0.9c9,1.4,18.3,1.5,27.2,0.1c15.1-2.3,29.8-1.6,44.6,1.8c17.1,3.9,34.3,7.2,51.9,8.9
		c34.1,3.2,66.9-3.1,99.3-12.6c20.3-6,40.1-13.8,59.7-21.7c16.9-6.8,32.6-5.8,47,6c10.8,8.8,23.5,11.6,36.9,13
		c20.5,2.1,41,3.4,61.6,4.5c21,1.1,42,0.9,63-0.1c4.9-0.2,9.7-0.4,14.6-0.3c22.9,0,45.6-1.6,68.5-2.8c17.9-0.9,36-0.3,54,0.3
		c18.1,0.6,36.2,2.7,54.4,0.7c11.9-1.3,23.9-0.2,35.7,0.9c17,1.6,34,0.3,50.9,0.9c0,1,0,2,0,3c-16.4-1.7-32.9,0-49.3-1.1
		c-26.7-1.8-53.5,0.2-80.2-1.1c-22-1.1-44.1-1.9-66-0.5c-36.2,2.4-72.5,1.8-108.7,3.5c-22.7,1.1-45.3-0.8-67.9-2.6
		c-9.7-0.8-19.3-1.3-29-2.1c-15.5-1.3-30-4.6-42.8-14.2c-13.9-10.4-28.9-9.6-44.6-3.8c-25.6,9.4-51,19.4-77.7,25.4
		c-13.3,3-26.6,5.4-40.1,6.8c-10.4,1.1-20.8,0.7-31.2,0.8c-14.9,0.1-29.5-2.8-44.1-5.5c-15.5-2.8-30.7-8.1-46.7-6.5
		c-11.5,1.1-23,2.2-34.6,2c-3.2-0.1-6.3-0.5-9.4-1.2c-14-2.9-26.4,2.8-38.9,7.4c-7.6,2.8-14.8,6.5-22.2,9.8
		c-5,2.2-10.3,3.8-15.8,3.3c-21.4-2-41.9,2.7-62.3,8.4c-11.9,3.3-24,5.1-36.4,2.7c-3.5-0.7-6.7-1.9-9.5-3.9
		c-10.3-7.9-22.6-10.1-34.8-12.2c-23.7-4.1-47.3-8.6-70.3-15.9c-2.5-0.8-5-1.8-7.8-1.5C0,656.8,0,655.8,0,654.7z"/>
	<path d="M147.4,0.3c20,9.1,40.9,16,61.9,22.4c11.8,3.6,24.2,3.9,36,7c15.6,4.1,31.8,3.4,47.4,6.3c22.5,4.1,45.1,2.2,67.7,2.9
		c6.5,0.2,13,1,19.4,2.2c8.8,1.7,17.6,2.4,26.4,0.6c8.1-1.7,16.1-2.3,24.3-0.8c13.9,2.6,27.4,1.2,40.6-4.2
		c13.2-5.3,26.7-4.8,40.2-1.5c7.2,1.8,14.6,1.6,21.8,2.5c5.1,0.7,10.3,0.4,15.5,1c7.6,1,15.2,0.3,22.4-2.9
		c16.1-7.1,33.3-10.3,50-15.1c21.5-6.1,42.5-13.6,64.3-18.9c1.4-0.3,3.5,0.6,4.4-1.5c4.4,0,8.8,0,13.1,0c-8.3,2.2-16.7,4.3-24.9,6.5
		c-17.6,4.8-35,10.3-52.4,15.9c-11.7,3.8-24.3,4.2-35.9,9c-5.8,2.4-11.6,4.6-17.4,7c-8.1,3.4-16.2,5.2-25.2,3.4
		c-11.6-2.3-23.6-1.5-35.2-4.2c-5.3-1.2-10.7-2.1-16.2-2.2c-9.6-0.2-18.9,1-27.6,5.2c-12.5,5.9-25.9,5-38.8,3.7
		c-8.3-0.8-16.3-0.9-24.3,0.5c-9,1.6-17.9,1-26.8-0.7c-16.1-3-32.3-3.3-48.5-1.8c-10.2,1-20.5,0.5-30.4-1.9
		c-9.6-2.4-19.4-3.2-29.1-3.6c-10.9-0.5-21.1-4.2-31.7-5.5c-16.9-2.1-33.3-6.5-49.3-12.2c-16.3-5.7-32.3-12.2-48.4-18.4
		c-0.2-0.1-0.3-0.5-0.4-0.8C142.7,0.3,145.1,0.3,147.4,0.3z"/>
	<path d="M211,0.3c7.1,2.6,14.7,3.1,22.1,3.9c17.7,2,35.5,3.5,53.3,5.1c6,0.5,12,0.5,18,0.9c20.4,1.4,40.9,1.5,61.3,3.4
		c19.6,1.8,39.2,1.6,58.9,1.9c9.4,0.1,18.6,1.5,28.1,0.3c13.6-1.6,27.3-3.4,41.1-2.3c11.5,1,23.1,1.8,34.7,1.5
		c28.3-0.6,56.1-4.7,83-13.8c0.6-0.2,1.3-0.2,1.4-1c3,0,6.1,0,9.1,0c-11.4,5.3-23.6,8-35.7,11.1c-27.5,7.2-55.7,6.7-83.7,5.9
		c-8.4-0.3-16.7-0.7-25.1-0.7c-8,0-15.8,1.9-23.8,2.6c-7,0.7-14.2,0.8-21.1,0.2c-15.1-1.5-30.3-0.2-45.4-0.9
		c-19.1-0.9-38.1-2.3-57.2-3.7c-6.2-0.5-12.4-0.7-18.6-1c-17.2-0.8-34.5-2-51.6-3.5c-20.3-1.8-40.6-4.4-60.5-9
		c-0.7-0.2-1.3-0.2-1.4-1C202.3,0.3,206.7,0.3,211,0.3z"/>
	<path d="M191.8,716.6c3.1-2.1,6.8-1.2,10.2-1.8c6.2-1,12.7-0.9,19-1.2c25-1.2,50-2.6,75-2c22.2,0.5,44.4-0.2,66.5,1.3
		c27,1.8,53.9,3.3,80.9,2.8c17.2-0.3,34.3-2,51.5-3.9c21.3-2.3,42.7-4.4,64.2-3.1c12.4,0.8,24.5,3.8,36.6,6.5c2.3,0.5,5-0.9,6.9,1.5
		c-5.7,0-11.4,0-17.2,0c-24.1-3.6-48.2-5-72.5-1.9c-8.3,1-16.7,1.1-25.1,1.4c-1.8,0.1-3.7-0.5-5.4,0.5c-38.4,0-76.7,0-115.1,0
		c-7.8-1.2-15.7-0.8-23.5-0.9c-31.1-0.4-62.2-0.3-93.3-0.1c-6.5,0-13-0.1-19.5,0.9C218.1,716.6,205,716.6,191.8,716.6z"/>
	<path class="st0" d="M765.4,0.3c8.1,2.6,16.7,3.3,25,5c14.1,2.9,28.2,6.1,42.5,7.8c16.2,1.9,31.5,7.7,47.5,10.2
		c5.4,0.8,11,0.8,16.5,1.1c13.5,0.8,26.9,2.8,40.3,4c12.5,1.2,24.9,2.1,37.3,4.3c11.6,2.2,23.3,1.7,35,2.1
		c14.1,0.4,27.9-2.3,41.9-3.7c6.5-0.6,12.7,1.1,19,0.5c0,1.4,0,2.7,0,4.1c-16.5-2.6-32.8,0.7-49.3,1.8c-15.3,1.1-30.8,0.2-46-2.2
		c-9.7-1.6-19.4-3-29.2-3.7c-10.8-0.9-21.5-2.4-32.2-3.7c-4.5-0.5-9-1.1-13.5-1.1c-15.2-0.3-29.9-2.9-44.6-7
		c-12.8-3.6-26.3-5-39.4-7.4c-16.1-2.9-32.2-6-48.3-8.9c-5.7-1-11.5-1.5-17.3-2.3c-0.9-0.1-2.1,0.5-2.4-1
		C753.9,0.3,759.7,0.3,765.4,0.3z"/>
	<path class="st0" d="M854.2,0.3c11.9,3.3,23.6,6.9,36.2,7.2c18.9,0.5,37.8,1.6,56.7,3.1c7.9,0.6,15.6,2.9,23.5,4.1
		c9.5,1.5,18.7-0.3,28-0.7c21.1-0.9,41.6-5.9,62.3-9.6c3.1-0.6,6.3-0.7,9.4-1.1c0,1,0,2,0,3c-17.6,2.4-34.9,6.2-52.4,8.8
		c-22.3,3.2-44.8,4.8-67-1.3c-3.7-1-7.6-1.3-11.4-1.3c-15.9,0-31.8-2.2-47.7-2.2c-13.3-0.1-26-4.4-38.9-7.4
		c-3.9-0.9-8.1-0.5-11.8-2.6C845.5,0.3,849.9,0.3,854.2,0.3z"/>
	<path class="st0" d="M911.8,716.6c-10.9-8.1-22.2-15.2-36.7-14.3c-5.7,0.4-11,2-16,4.4c-6.2,2.9-12.4,5.8-18,9.9
		c-2.4,0-4.7,0-7.1,0c9.5-4.9,18.7-10.2,28.6-14.3c14-5.7,26.9-2.6,39.4,4.2c5.5,3,10.6,6.7,15.8,10.1
		C915.8,716.6,913.8,716.6,911.8,716.6z"/>
	<path class="st0" d="M801.7,716.6c-7-4.4-14.8-6.5-22.7-8.1c-15.7-3.1-29.9,1.8-43.9,8.1c-3.4,0-6.7,0-10.1,0
		c13.5-4.6,26.5-11.2,41-12c11.7-0.7,22.9,2.4,33.5,7.4c3.1,1.5,6.8,1.9,9.3,4.6C806.4,716.6,804.1,716.6,801.7,716.6z"/>
	<path class="st1" d="M621,716.6c4.5-2.3,9.5-1.3,14.1-1.8c17-1.6,34-3.3,51.1-2.2c7.3,0.5,14.6,1.4,21.6,4c-5.7,0-11.4,0-17.2,0
		c-11.8-0.9-23.6-0.9-35.3,0C643.9,716.6,632.4,716.6,621,716.6z"/>
	<path class="st1" d="M41.4,716.6c-5.4-2-11.2-1.7-16.8-3c-8.2-1.9-16.4-3.4-24.6-5.1c0-1,0-2,0-3c14.3,3.6,28.6,6.6,43.3,8.2
		c8.5,0.9,17.1,0.7,25.4,2.9C59.6,716.6,50.5,716.6,41.4,716.6z"/>
	<path class="st2" d="M970.3,716.6c4.7-3.5,10.4-3.6,15.8-4.6c13.6-2.5,27-1.1,39.7,4.6c-3.4,0-6.7,0-10.1,0
		c-11.8-1.5-23.6-1.6-35.3,0C977.1,716.6,973.7,716.6,970.3,716.6z"/>
	<path class="st0" d="M0,12.5C6.7,8.4,14.2,5.6,20.2,0.3c2,0,4,0,6.1,0C18.2,6.5,9.3,11.4,0,15.5C0,14.5,0,13.5,0,12.5z"/>
	<path d="M1055.2,716.6c4.7-2.6,9.8-3.7,15.1-4.1c0.8,3.5-0.5,4.5-4,4.1C1062.6,716.3,1058.9,716.6,1055.2,716.6z"/>
</g>
</svg>
