<?xml version="1.0" encoding="utf-8"?>
<!-- Generator: Adobe Illustrator 25.0.0, SVG Export Plug-In . SVG Version: 6.00 Build 0)  -->
<svg version="1.1" id="Layer_1" xmlns="http://www.w3.org/2000/svg" xmlns:xlink="http://www.w3.org/1999/xlink" x="0px" y="0px"
	 viewBox="0 0 100 100" style="enable-background:new 0 0 100 100;" xml:space="preserve">
<style type="text/css">
	.st0{fill:#00357F;}
	.st1{fill:#D11034;}
	.st2{fill:#009443;}
	.st3{fill:#FEFEFE;}
	.st4{fill:#FECD00;}
</style>
<g>
	<path class="st0" d="M0.01,75.09c0-24.88,0-49.77-0.01-74.65c0-0.38,0.09-0.47,0.47-0.47c30.41,0.01,60.81,0.01,91.22,0.01
		c0.08,0.3-0.15,0.43-0.32,0.58c-2.26,1.86-4.53,3.71-6.79,5.57c-1.83,1.51-3.66,3-5.49,4.51c-1.91,1.57-3.82,3.13-5.73,4.7
		c-1.84,1.52-3.69,3.02-5.53,4.54c-2.17,1.78-4.35,3.55-6.52,5.34c-2.75,2.27-5.51,4.54-8.28,6.79c-3.26,2.66-6.51,5.35-9.78,8.01
		c-1.84,1.49-3.66,3.01-5.49,4.51c-2.11,1.73-4.21,3.45-6.32,5.18c-1.66,1.36-3.32,2.73-4.98,4.09c-2.13,1.75-4.27,3.49-6.4,5.24
		c-2.74,2.26-5.48,4.52-8.24,6.76c-2.99,2.44-5.96,4.9-8.95,7.33c-0.74,0.6-1.46,1.2-2.19,1.81C0.49,75.06,0.3,75.29,0.01,75.09z"/>
	<path class="st1" d="M12.61,99.99c-4.08,0-8.16,0-12.25,0.01C0.06,100,0,99.94,0,99.63c0.01-6.49,0.01-12.98,0.01-19.46
		c0.15-0.39,0.47-0.61,0.77-0.85c2.13-1.78,4.28-3.53,6.43-5.29c2.66-2.18,5.31-4.36,7.96-6.53c2.42-1.98,4.84-3.97,7.26-5.95
		c3.26-2.66,6.52-5.34,9.78-8c1.82-1.49,3.63-3,5.45-4.48c3.27-2.66,6.52-5.34,9.78-8.01c2.94-2.41,5.89-4.83,8.83-7.24
		c3.25-2.67,6.52-5.34,9.78-8c1.61-1.32,3.21-2.64,4.82-3.96c2.14-1.74,4.26-3.5,6.4-5.24c1.6-1.31,3.19-2.62,4.79-3.92
		c2.15-1.76,4.29-3.52,6.43-5.28c1.62-1.33,3.24-2.66,4.87-3.99c1.23-1.01,2.46-2.01,3.68-3.03c0.22-0.19,0.49-0.29,0.75-0.41
		c0.63,0,1.25,0.02,1.88-0.01c0.31-0.01,0.37,0.06,0.36,0.36c-0.01,5.49-0.01,10.98-0.01,16.46c0,3.85,0,7.69,0,11.54
		c-0.42,0.78-1.2,1.17-1.85,1.7c-3.42,2.85-6.87,5.66-10.31,8.48c-3.26,2.67-6.52,5.34-9.78,8.01c-2.94,2.41-5.89,4.83-8.83,7.24
		c-2.97,2.44-5.95,4.86-8.91,7.3c-3.23,2.65-6.46,5.3-9.69,7.95c-3.26,2.67-6.52,5.34-9.78,8.01c-1.82,1.49-3.63,3-5.45,4.48
		c-3.27,2.66-6.52,5.34-9.78,8.01c-1.61,1.32-3.22,2.64-4.82,3.96c-2.13,1.75-4.25,3.51-6.4,5.24
		C13.84,99.17,13.35,99.76,12.61,99.99z"/>
	<path class="st2" d="M100.02,33.32c0,22.07,0,44.14,0.01,66.21c0,0.38-0.09,0.47-0.47,0.47c-26.95-0.01-53.9-0.01-80.85-0.01
		c-0.09-0.3,0.14-0.43,0.31-0.58c2.48-2.05,4.97-4.08,7.45-6.12c2.25-1.85,4.5-3.69,6.75-5.54c1.88-1.55,3.76-3.1,5.65-4.63
		c1.85-1.5,3.69-3.02,5.53-4.53c2.16-1.77,4.32-3.54,6.47-5.31c2.98-2.45,5.96-4.9,8.95-7.34c3.26-2.66,6.52-5.34,9.78-8.01
		c2.94-2.41,5.88-4.83,8.83-7.24c3.26-2.67,6.52-5.33,9.78-8.01c2.93-2.4,5.87-4.79,8.79-7.21c0.79-0.66,1.58-1.33,2.4-1.95
		C99.57,33.38,99.74,33.14,100.02,33.32z"/>
	<path class="st3" d="M97.78-0.02c-1.04,1-2.21,1.85-3.31,2.77c-1.21,1.01-2.39,2.05-3.63,3.01c-0.82,0.63-1.59,1.31-2.4,1.94
		c-0.99,0.77-1.93,1.61-2.9,2.42c-0.72,0.59-1.45,1.17-2.17,1.76c-1.06,0.87-2.12,1.76-3.18,2.62c-1,0.82-2.03,1.62-3.03,2.44
		c-0.97,0.8-1.92,1.62-2.89,2.42c-0.73,0.6-1.48,1.19-2.21,1.79c-1.05,0.86-2.09,1.74-3.14,2.6c-1,0.82-2.03,1.62-3.03,2.44
		c-0.97,0.8-1.93,1.62-2.9,2.42c-0.73,0.6-1.47,1.19-2.21,1.79c-1.05,0.86-2.09,1.74-3.14,2.6c-0.73,0.6-1.48,1.18-2.21,1.78
		c-1.05,0.86-2.09,1.74-3.14,2.6c-0.74,0.61-1.5,1.2-2.25,1.81c-1.02,0.84-2.04,1.7-3.06,2.54c-0.74,0.61-1.52,1.19-2.25,1.82
		c-0.97,0.83-1.97,1.62-2.95,2.44c-0.74,0.62-1.49,1.22-2.24,1.83c-1.04,0.84-2.08,1.7-3.11,2.55c-0.77,0.63-1.54,1.27-2.32,1.89
		c-1.01,0.8-1.98,1.65-2.98,2.47c-0.76,0.62-1.53,1.22-2.29,1.85c-1.02,0.84-2.04,1.69-3.06,2.54c-0.73,0.6-1.48,1.19-2.21,1.79
		c-1.05,0.86-2.09,1.73-3.14,2.6c-0.72,0.59-1.45,1.17-2.17,1.76c-1.06,0.87-2.12,1.75-3.18,2.63c-0.95,0.78-1.91,1.54-2.86,2.32
		C11,71.2,9.78,72.22,8.55,73.24c-0.73,0.6-1.48,1.18-2.21,1.78c-1.05,0.86-2.09,1.74-3.14,2.6c-0.72,0.59-1.44,1.17-2.17,1.75
		c-0.34,0.27-0.68,0.53-1.02,0.8c0-1.69,0-3.39,0-5.08c0.43-0.03,0.62-0.42,0.91-0.65c1.23-0.97,2.41-2.01,3.63-3
		c1-0.82,2.03-1.61,3.03-2.43c0.97-0.8,1.92-1.62,2.88-2.42c0.73-0.6,1.47-1.18,2.2-1.78c1.05-0.86,2.09-1.73,3.14-2.59
		c0.74-0.61,1.5-1.2,2.25-1.81c1.04-0.85,2.06-1.71,3.09-2.56c0.73-0.6,1.47-1.18,2.21-1.78c1.05-0.86,2.09-1.73,3.14-2.59
		c0.72-0.59,1.45-1.16,2.16-1.75c1-0.84,2.04-1.63,3.02-2.5c0.76-0.67,1.59-1.25,2.37-1.91c0.99-0.83,1.99-1.64,2.98-2.46
		c0.77-0.63,1.53-1.27,2.31-1.89c1.01-0.8,1.98-1.65,2.98-2.47c0.73-0.6,1.47-1.19,2.2-1.79c1.06-0.87,2.12-1.75,3.18-2.62
		c0.72-0.59,1.45-1.16,2.16-1.75c1.06-0.87,2.11-1.76,3.18-2.62c1-0.82,2.02-1.61,3.03-2.43c0.97-0.8,1.92-1.62,2.89-2.42
		c0.74-0.61,1.5-1.2,2.24-1.81c1.04-0.85,2.06-1.71,3.1-2.56c0.74-0.61,1.5-1.2,2.25-1.81c1.03-0.85,2.06-1.71,3.09-2.56
		c0.74-0.61,1.51-1.19,2.25-1.81c0.97-0.82,1.98-1.6,2.94-2.43c0.53-0.45,1.08-0.88,1.62-1.32c1.04-0.85,2.06-1.71,3.1-2.56
		c0.74-0.61,1.5-1.2,2.25-1.81c1.03-0.85,2.06-1.71,3.09-2.56c0.73-0.6,1.47-1.18,2.21-1.78c1.05-0.86,2.08-1.74,3.14-2.59
		c0.5-0.4,1.01-0.8,1.48-1.25C93.72-0.02,95.75-0.02,97.78-0.02z"/>
	<path class="st3" d="M100.02,33.32c-0.78,0.52-1.47,1.15-2.18,1.75c-0.55,0.46-1.11,0.89-1.66,1.35c-1.03,0.85-2.06,1.71-3.1,2.56
		c-0.74,0.61-1.5,1.2-2.24,1.81c-1.03,0.85-2.06,1.71-3.09,2.56c-0.74,0.61-1.51,1.19-2.25,1.81c-0.97,0.82-1.97,1.6-2.94,2.43
		c-0.53,0.45-1.08,0.88-1.62,1.32c-1.04,0.85-2.06,1.71-3.1,2.56c-0.74,0.61-1.5,1.2-2.24,1.81c-1.03,0.85-2.06,1.71-3.09,2.56
		c-0.73,0.6-1.48,1.18-2.21,1.78c-1.05,0.86-2.09,1.73-3.14,2.59c-0.73,0.6-1.48,1.18-2.2,1.78c-0.99,0.82-1.97,1.66-2.97,2.48
		c-0.78,0.64-1.59,1.25-2.37,1.9c-0.99,0.83-1.99,1.64-2.98,2.46c-0.77,0.63-1.54,1.27-2.32,1.89c-1.02,0.81-2.01,1.67-3.01,2.5
		c-0.72,0.59-1.44,1.17-2.16,1.75c-1.07,0.86-2.14,1.72-3.18,2.62c-0.7,0.61-1.44,1.17-2.16,1.76c-1.06,0.87-2.11,1.75-3.18,2.62
		c-0.76,0.62-1.53,1.22-2.29,1.84c-1.02,0.84-2.03,1.7-3.05,2.53c-0.96,0.79-1.94,1.56-2.9,2.35c-1.23,1.01-2.41,2.07-3.67,3.03
		c-0.82,0.63-1.59,1.31-2.4,1.94c-0.99,0.77-1.92,1.61-2.89,2.41c-0.74,0.61-1.51,1.2-2.25,1.81c-0.82,0.69-1.71,1.3-2.46,2.08
		c-2.03,0-4.07,0-6.1,0c0.48-0.58,1.11-0.98,1.68-1.46c1.02-0.87,2.06-1.72,3.09-2.57c0.73-0.6,1.48-1.18,2.21-1.79
		c1.05-0.86,2.09-1.74,3.14-2.6c0.72-0.59,1.45-1.17,2.17-1.76c1.06-0.87,2.12-1.75,3.18-2.62c0.95-0.78,1.92-1.54,2.86-2.32
		c1.22-1.02,2.46-2.01,3.68-3.03c0.76-0.64,1.54-1.27,2.32-1.89c1.01-0.8,1.99-1.65,2.98-2.47c0.74-0.61,1.5-1.21,2.24-1.82
		c1.04-0.85,2.07-1.71,3.1-2.56c0.75-0.61,1.5-1.21,2.25-1.82c1.04-0.85,2.06-1.71,3.1-2.57c0.73-0.6,1.48-1.18,2.21-1.79
		c1.05-0.86,2.09-1.74,3.14-2.6c0.76-0.62,1.54-1.22,2.29-1.84c0.97-0.8,1.89-1.66,2.9-2.42c0.81-0.61,1.57-1.29,2.37-1.92
		c1-0.78,1.93-1.66,2.94-2.44c0.77-0.59,1.49-1.22,2.24-1.82c1.04-0.85,2.07-1.71,3.1-2.57c0.73-0.6,1.48-1.18,2.21-1.78
		c1.05-0.86,2.09-1.74,3.14-2.6c0.74-0.61,1.5-1.2,2.25-1.81c1.02-0.84,2.04-1.69,3.06-2.53c0.74-0.61,1.5-1.2,2.25-1.82
		c1.04-0.85,2.06-1.72,3.1-2.57c0.73-0.6,1.48-1.18,2.21-1.79c0.99-0.83,1.99-1.65,2.99-2.47c0.77-0.63,1.54-1.27,2.32-1.89
		c1.01-0.8,1.96-1.68,2.99-2.46c0.56-0.43,1.05-0.96,1.69-1.28C100.02,30,100.02,31.66,100.02,33.32z"/>
	<path class="st4" d="M18.69,35.5c-2.49,0.01-4.17-1.21-5.34-3.07c-1.86-2.94-2.01-6.09-0.64-9.28c0.56-1.3,1.43-2.38,2.62-3.21
		c1.48-1.03,3.09-1.27,4.79-0.85c1.38,0.35,2.5,1.17,3.35,2.3c1.99,2.68,2.4,5.66,1.46,8.82c-0.5,1.7-1.45,3.13-2.92,4.2
		C20.95,35.18,19.81,35.53,18.69,35.5z"/>
	<path class="st4" d="M24.44,34.37c0-0.42,0.36-0.63,0.55-0.94c0.66-1.1,1.17-2.27,1.47-3.64c1.29,1.91,2.53,3.75,3.85,5.71
		c-0.86-0.16-1.62-0.25-2.36-0.44c-0.31-0.08-0.61-0.16-0.92-0.22c-0.68-0.11-1.35-0.24-2.01-0.45c-0.19-0.06-0.39-0.12-0.59-0.03
		L24.44,34.37z"/>
	<path class="st4" d="M12.8,34.35c-0.81-0.06-1.53,0.36-2.31,0.45c-1.17,0.14-2.28,0.59-3.55,0.66c1.27-1.89,2.51-3.73,3.8-5.65
		c0.28,1.14,0.67,2.14,1.17,3.11c0.26,0.5,0.74,0.87,0.87,1.45L12.8,34.35z"/>
	<path class="st4" d="M18.67,10.76c0.67,2.21,1.33,4.43,2.03,6.73c-1.4-0.31-2.75-0.33-4.18,0.01c0.69-2.3,1.36-4.52,2.02-6.74
		C18.59,10.77,18.63,10.76,18.67,10.76z"/>
	<path class="st4" d="M12.81,20.1c-0.06-1.17-0.3-2.31-0.44-3.46c-0.16-1.22-0.33-2.43-0.5-3.64c1.57,1.48,3.12,2.95,4.68,4.42
		c-0.56,0.48-1.14,0.59-1.63,0.91c-0.68,0.44-1.27,0.95-1.79,1.56c-0.08,0.1-0.17,0.22-0.33,0.2L12.81,20.1z"/>
	<path class="st4" d="M32.07,27.16c-0.63,0.56-1.38,0.67-2.02,1.01c-1.08,0.57-2.22,1.04-3.33,1.54c-0.05,0.02-0.15,0.04-0.18,0.02
		c-0.09-0.08-0.03-0.19-0.02-0.29c0.14-0.78,0.21-1.57,0.21-2.37c-0.01-0.69-0.09-1.38-0.2-2.06c-0.02-0.11-0.09-0.26,0.04-0.32
		c0.11-0.05,0.2,0.06,0.29,0.12c0.39,0.24,0.84,0.37,1.26,0.58c1.01,0.5,2.06,0.92,3.1,1.37C31.5,26.88,31.71,27.11,32.07,27.16z"/>
	<path class="st4" d="M16.61,36.97c-0.25-0.05-0.36,0.14-0.5,0.28c-0.82,0.84-1.64,1.69-2.46,2.53c-0.41,0.43-0.82,0.87-1.23,1.29
		c-0.14,0.14-0.29,0.26-0.56,0.51c0.11-0.86,0.2-1.56,0.3-2.27c0.22-1.54,0.44-3.08,0.65-4.61c0.02-0.11,0-0.23,0-0.35
		c0,0-0.02,0.02-0.02,0.02c0.27-0.08,0.27,0.19,0.38,0.31c1,1.03,2.15,1.83,3.52,2.3C16.66,37,16.63,37,16.61,36.97z"/>
	<path class="st4" d="M16.61,36.97c0.03,0,0.05,0,0.08,0c1.28,0.25,2.56,0.25,3.84,0c0.03-0.03,0.06-0.03,0.08,0
		c-0.09,0.89-0.46,1.71-0.7,2.57c-0.36,1.3-0.77,2.58-1.16,3.87c-0.03,0.08-0.01,0.21-0.21,0.26c-0.22-0.75-0.44-1.5-0.67-2.24
		c-0.41-1.35-0.82-2.7-1.23-4.06C16.62,37.24,16.53,37.11,16.61,36.97z"/>
	<path class="st4" d="M24.42,20.08c-0.39-0.08-0.52-0.46-0.76-0.69c-0.7-0.68-1.47-1.24-2.38-1.58c-0.19-0.07-0.28-0.28-0.51-0.26
		c-0.03-0.05-0.07-0.1-0.1-0.15c1.56-1.46,3.12-2.92,4.68-4.38c-0.16,1.16-0.33,2.36-0.49,3.56c-0.15,1.17-0.38,2.33-0.45,3.51
		L24.42,20.08z"/>
	<path class="st4" d="M20.61,36.97c-0.03,0-0.06,0-0.08,0c1.43-0.52,2.69-1.31,3.65-2.52c0.06-0.08,0.15-0.14,0.26-0.08
		c0,0-0.01-0.01-0.01-0.01c0,0.91,0.21,1.8,0.32,2.7c0.18,1.45,0.4,2.9,0.62,4.47c-0.65-0.44-1.02-0.99-1.5-1.44
		c-0.72-0.66-1.37-1.39-2.05-2.09c-0.24-0.25-0.46-0.52-0.7-0.76C20.98,37.1,20.86,36.92,20.61,36.97z"/>
	<path class="st4" d="M24.41,20.1c0.99-0.01,1.89-0.44,2.86-0.56c0.98-0.12,1.91-0.54,3.01-0.56c-1.27,1.89-2.51,3.72-3.78,5.61
		c-0.2-0.61-0.37-1.16-0.56-1.7c-0.34-0.95-0.89-1.79-1.45-2.63c-0.03-0.05-0.04-0.12-0.06-0.18C24.42,20.08,24.41,20.1,24.41,20.1z
		"/>
	<path class="st4" d="M5.1,27.23c1.41-0.68,2.74-1.25,4.04-1.86c0.44-0.21,0.94-0.3,1.33-0.64c0.19-0.16,0.25,0.01,0.22,0.2
		c-0.07,0.5-0.16,1-0.19,1.51c-0.07,0.98-0.01,1.96,0.17,2.93c0.02,0.12,0.1,0.26-0.02,0.39C8.83,28.92,7.01,28.1,5.1,27.23z"/>
	<path class="st4" d="M12.79,20.08c-0.38,0.64-0.78,1.27-1.13,1.93c-0.41,0.79-0.7,1.63-0.91,2.62c-1.29-1.91-2.53-3.74-3.8-5.63
		c0.58-0.04,1.08,0.06,1.53,0.21c0.52,0.17,1.04,0.26,1.57,0.34c0.93,0.14,1.81,0.53,2.76,0.55C12.81,20.1,12.79,20.08,12.79,20.08z
		"/>
</g>
</svg>
