<?xml version="1.0" encoding="utf-8"?>
<!-- Generator: Adobe Illustrator 24.1.2, SVG Export Plug-In . SVG Version: 6.00 Build 0)  -->
<svg version="1.1" id="Layer_1" xmlns="http://www.w3.org/2000/svg" xmlns:xlink="http://www.w3.org/1999/xlink" x="0px" y="0px"
	 viewBox="0 0 500 500" style="enable-background:new 0 0 500 500;" xml:space="preserve">
<style type="text/css">
	.st0{fill:#002393;}
	.st1{fill:#FDFDFD;}
	.st2{fill:#EB2939;}
</style>
<g>
	<path class="st0" d="M166.68,499.98c-55.1,0-110.2,0-165.3,0.02C0.33,500,0,499.85,0,498.69C0.03,332.9,0.03,167.1,0,1.31
		C0,0.15,0.34,0,1.38,0c55.1,0.03,110.2,0.02,165.3,0.02c0.49,0.42,0.61,0.97,0.62,1.58c0.01,0.73,0.02,1.46,0.02,2.2
		c0,164.13,0,328.27-0.02,492.4C167.29,497.47,167.74,498.86,166.68,499.98z"/>
	<path class="st1" d="M166.68,499.98c0-141.08,0-282.16,0-423.24c0-25.57,0-51.14,0-76.71c55.55,0,111.1,0,166.65,0
		c0.49,0.42,0.61,0.97,0.62,1.58c0.01,0.73,0.02,1.46,0.02,2.2c0,164.13,0,328.27-0.02,492.4c0,1.27,0.45,2.66-0.61,3.77
		C277.77,499.98,222.23,499.98,166.68,499.98z"/>
	<path class="st2" d="M333.32,499.98c0-117.17,0-234.34,0-351.5c0-49.48,0-98.97,0-148.45c55.1,0,110.2,0,165.3-0.02
		c1.04,0,1.38,0.15,1.38,1.31c-0.03,165.79-0.03,331.58,0,497.38c0,1.16-0.34,1.31-1.38,1.31
		C443.52,499.97,388.42,499.98,333.32,499.98z"/>
</g>
</svg>
