<?xml version="1.0" encoding="utf-8"?>
<!-- Generator: Adobe Illustrator 25.0.0, SVG Export Plug-In . SVG Version: 6.00 Build 0)  -->
<svg version="1.1" id="Layer_1" xmlns="http://www.w3.org/2000/svg" xmlns:xlink="http://www.w3.org/1999/xlink" x="0px" y="0px"
	 viewBox="0 0 100 100" style="enable-background:new 0 0 100 100;" xml:space="preserve">
<style type="text/css">
	.st0{fill:#06090E;}
	.st1{fill:#AE1B27;}
	.st2{fill:#FEFEFE;}
	.st3{fill:#1E448A;}
</style>
<g>
	<path class="st0" d="M49.89,99.97c-16.36,0-32.71-0.01-49.07,0.03C0.16,100,0,99.83,0,98.79C0.03,66.28,0.03,33.77,0,1.26
		c0-1.17,0.24-1.25,0.89-1.25C33.64,0.03,66.38,0.03,99.12,0c0.7,0,0.87,0.18,0.87,1.28c-0.03,32.46-0.03,64.92,0,97.38
		c0,1.19-0.24,1.33-0.94,1.33C82.67,99.97,66.28,99.97,49.89,99.97z"/>
	<path class="st1" d="M0.26,33.45C0.25,22.76,0.24,12.08,0.22,1.39c0-0.89,0.23-1.14,0.77-1.06c0.23,0.03,0.46,0,0.7,0
		c32.21,0,64.43,0,96.64,0c1.65,0,1.45-0.31,1.45,2.1c0,10.34-0.01,20.68-0.02,31.02c-0.24,0.49-0.58,0.61-0.96,0.64
		c-0.46,0.03-0.93,0.03-1.39,0.03c-31.59,0-63.19,0-94.78-0.02C1.82,34.1,0.93,34.51,0.26,33.45z"/>
	<path class="st2" d="M0.26,33.45c28.98,0,57.97-0.01,86.95-0.01c4.18,0,8.36,0.01,12.54,0.01c0,11.03,0,22.07,0,33.1
		c-0.24,0.49-0.58,0.62-0.96,0.65c-0.46,0.03-0.93,0.04-1.39,0.04c-31.6,0-63.19,0-94.79-0.02c-0.79,0-1.68,0.42-2.35-0.67
		C0.26,55.52,0.26,44.49,0.26,33.45z"/>
	<path class="st3" d="M0.26,66.55c33.16,0,66.33,0,99.49,0c0.01,10.63,0,21.27,0.04,31.9c0.01,1.38-0.53,1.2-1.09,1.2
		c-8.02,0-16.05,0.01-24.07,0.01c-24.34,0-48.68-0.01-73.02-0.02c-1.54,0-1.37,0.24-1.37-2.09C0.24,87.23,0.25,76.89,0.26,66.55z"/>
</g>
</svg>
