<?xml version="1.0" encoding="utf-8"?>
<!-- Generator: Adobe Illustrator 25.0.0, SVG Export Plug-In . SVG Version: 6.00 Build 0)  -->
<svg version="1.1" id="Layer_1" xmlns="http://www.w3.org/2000/svg" xmlns:xlink="http://www.w3.org/1999/xlink" x="0px" y="0px"
	 viewBox="0 0 100 100" style="enable-background:new 0 0 100 100;" xml:space="preserve">
<style type="text/css">
	.st0{fill:#003893;}
	.st1{fill:#003892;}
	.st2{fill:#CE2027;}
	.st3{fill:#FEFEFE;}
	.st4{fill:#F6D016;}
	.st5{fill:#FDFAF9;}
</style>
<g>
	<rect class="st0" width="100" height="100"/>
	<path class="st1" d="M0.01,48.19c0-10.98,0-21.95-0.01-32.93c0-0.3,0.04-0.39,0.37-0.39c33.07,0.01,66.14,0.01,99.21,0
		c0.33,0,0.37,0.1,0.37,0.39c-0.01,10.98-0.01,21.95-0.01,32.93c-0.11,0.15-0.27,0.18-0.44,0.18c-0.25,0.01-0.5,0.01-0.75,0.01
		c-15.29,0-30.58,0-45.87,0c-0.35,0-0.69,0.02-1.04-0.05c-0.13-0.01-0.26-0.01-0.39,0.01c-0.25,0.06-0.5,0.05-0.75,0.05
		c-9.93,0-19.85,0-29.78,0c-0.25,0-0.5,0.01-0.75-0.04c-0.13-0.02-0.26-0.02-0.4-0.01c-0.23,0.05-0.47,0.05-0.7,0.05
		c-6.07,0-12.15,0-18.22,0C0.57,48.38,0.25,48.46,0.01,48.19z"/>
	<path class="st1" d="M99.95,64.85c0,5.44,0,10.88,0.01,16.32c0,0.29-0.06,0.34-0.34,0.34c-33.09-0.01-66.19-0.01-99.28,0
		C0.06,81.51,0,81.45,0,81.17c0.01-5.44,0.01-10.88,0.01-16.32c0.11-0.15,0.27-0.18,0.44-0.18c0.22-0.01,0.44-0.01,0.67-0.01
		c32.57,0,65.15,0,97.72,0c0.22,0,0.44,0,0.67,0.01C99.68,64.67,99.84,64.7,99.95,64.85z"/>
	<path class="st2" d="M0.01,59.27c0-1.83,0-3.66,0-5.5c0.1-0.13,0.24-0.17,0.4-0.18c0.21-0.01,0.42-0.01,0.62-0.01
		c5.36,0,10.71,0,16.07,0c0.29,0,0.58-0.03,0.87,0.05c0.1,0.09,0.16,0.29,0.34,0.07c0.06-0.08,0.17-0.07,0.27-0.06
		c0.89-0.08,1.78-0.1,2.67-0.01c0.25-0.04,0.51,0.13,0.76-0.03c0.28-0.04,0.56-0.03,0.83-0.03c8.65,0,17.31,0,25.96,0
		c0.28,0,0.55-0.01,0.83,0.03c0.24,0.16,0.5-0.01,0.75,0.03c0.9-0.1,1.79-0.06,2.69,0c0.22-0.05,0.33,0.12,0.46,0.26
		c-0.01,0.05,0.03,0,0.02-0.01c-0.07-0.1,0-0.17,0.07-0.23c0.21-0.09,0.44-0.07,0.66-0.07c14.96,0,29.92,0,44.89,0
		c0.27,0,0.56-0.06,0.78,0.19c0,1.83,0,3.66,0,5.5c-0.11,0.15-0.27,0.18-0.44,0.18c-0.21,0.01-0.42,0.01-0.62,0.01
		c-15.29,0-30.57,0-45.86,0c-0.3,0-0.61,0.03-0.91-0.06c-0.31-0.04-0.4-0.27-0.46-0.52c-0.04,0.27-0.15,0.48-0.47,0.53
		c-0.23,0.06-0.47,0.05-0.7,0.05c-9.78,0-19.56,0-29.33,0c-0.24,0-0.47,0.01-0.7-0.05c-0.41-0.06-0.44-0.39-0.48-0.63
		c0.04,0.26-0.05,0.51-0.41,0.61c-0.24,0.08-0.49,0.07-0.74,0.07c-5.98,0-11.96,0-17.95,0C0.57,59.45,0.25,59.54,0.01,59.27z"/>
	<path class="st3" d="M0.01,59.27c0.17,0.01,0.33,0.02,0.5,0.02c6.38,0,12.76,0,19.15,0c0.28,0.59-0.22,1.47-0.85,1.49
		c-0.24,0.01-0.47,0-0.71,0c-0.22,0-0.44-0.01-0.7,0.02c0.38,0.34,0.79,0.59,1.16,0.88c0.31,0.24,0.38,0.52,0.26,0.88
		c-0.14,0.41-0.29,0.81-0.41,1.27c0.42-0.22,0.73-0.53,1.08-0.76c0.44-0.28,0.54-0.28,0.98,0c0.36,0.23,0.69,0.51,1.07,0.74
		c-0.06-0.4-0.22-0.77-0.34-1.15c-0.16-0.53-0.11-0.69,0.31-1.04c0.33-0.27,0.7-0.49,1.09-0.82c-0.51-0.02-0.95,0-1.38-0.01
		c-0.53-0.01-0.68-0.11-0.83-0.63c-0.08-0.27-0.32-0.55-0.07-0.85c10.33,0,20.67,0,31,0c0.29,0.62-0.19,1.46-0.85,1.49
		c-0.44,0.02-0.89-0.01-1.38,0.02c0.35,0.31,0.7,0.54,1.04,0.79c0.41,0.3,0.49,0.52,0.35,1c-0.06,0.21-0.14,0.42-0.21,0.63
		c-0.06,0.19-0.13,0.39-0.16,0.61c0.4-0.26,0.75-0.55,1.13-0.81c0.33-0.23,0.61-0.21,0.91,0.03c0.34,0.26,0.69,0.51,1.08,0.77
		c-0.09-0.43-0.25-0.8-0.36-1.18c-0.17-0.54-0.13-0.68,0.32-1.04c0.35-0.28,0.74-0.51,1.11-0.82c-0.51-0.01-1,0-1.49,0
		c-0.35,0-0.6-0.15-0.69-0.49c-0.08-0.33-0.39-0.63-0.13-1c15.81,0,31.61,0,47.42,0c0.18,0,0.36-0.01,0.54-0.02
		c0,1.86,0,3.72,0,5.58c-33.31,0-66.63,0-99.94,0C0.01,62.99,0.01,61.13,0.01,59.27z"/>
	<path class="st3" d="M99.95,53.77c-0.12-0.01-0.25-0.02-0.37-0.02c-15.26,0-30.52,0-45.78,0c-0.08,0-0.17,0-0.25,0.01
		c-0.24-0.03-0.3-0.22-0.37-0.4c-0.14-0.4-0.25-0.82-0.38-1.23c-0.1-0.3,0-0.54,0.25-0.72c0.38-0.28,0.75-0.57,1.2-0.86
		c-0.52-0.01-0.98-0.01-1.43,0c-0.39,0-0.62-0.17-0.74-0.54c-0.14-0.44-0.27-0.87-0.4-1.31c-0.05-0.16-0.1-0.35,0.05-0.5
		c16.07,0,32.14,0,48.21,0C99.95,50.05,99.95,51.91,99.95,53.77z"/>
	<path class="st3" d="M18.09,53.75c-5.97,0-11.95,0-17.92,0c-0.05,0-0.11,0.01-0.16,0.02c0-1.86,0-3.72,0-5.58
		c6.63,0,13.26,0,19.9,0c0.16,0.15,0.1,0.34,0.05,0.5c-0.13,0.44-0.26,0.87-0.4,1.31c-0.11,0.36-0.35,0.54-0.74,0.54
		c-0.43-0.01-0.86-0.01-1.35,0.01c0.35,0.3,0.67,0.52,1,0.75c0.43,0.3,0.49,0.49,0.33,0.99c-0.12,0.37-0.2,0.75-0.35,1.11
		C18.38,53.57,18.31,53.73,18.09,53.75z"/>
	<path class="st3" d="M49.79,53.75c-4.1,0-8.21-0.01-12.31-0.01c-5.21,0-10.42,0-15.64,0.01c-0.37-0.22-0.87-1.67-0.71-2.06
		c0.09-0.22,0.28-0.34,0.46-0.47c0.29-0.21,0.59-0.42,0.94-0.69c-0.49-0.01-0.92,0-1.35-0.01c-0.47-0.01-0.61-0.11-0.77-0.55
		c-0.13-0.36-0.26-0.73-0.37-1.11c-0.07-0.23-0.12-0.46,0.02-0.68c0.17,0,0.33-0.01,0.5-0.01c10.17,0,20.35,0,30.52,0
		c0.17,0,0.33,0,0.5,0.01c0.11,0.13,0.09,0.29,0.07,0.44c-0.11,0.55-0.3,1.07-0.52,1.58c-0.11,0.24-0.33,0.32-0.58,0.32
		c-0.46,0.01-0.91,0-1.42,0.01c0.36,0.32,0.73,0.55,1.08,0.81c0.32,0.24,0.41,0.54,0.29,0.91c-0.12,0.37-0.24,0.74-0.37,1.11
		C50.07,53.54,50.01,53.72,49.79,53.75z"/>
	<path class="st4" d="M49.79,53.75c0.19-0.56,0.37-1.13,0.57-1.69c0.08-0.22,0.04-0.35-0.16-0.49c-0.53-0.37-1.05-0.76-1.57-1.23
		c0.63,0,1.25-0.01,1.88,0.01c0.29,0.01,0.45-0.07,0.53-0.37c0.16-0.6,0.36-1.19,0.54-1.79c0.05-0.02,0.1-0.13,0.16-0.01
		c0.2,0.65,0.41,1.29,0.6,1.94c0.06,0.21,0.2,0.22,0.38,0.22c0.66,0,1.32,0,2.11,0c-0.62,0.45-1.14,0.84-1.68,1.22
		c-0.2,0.14-0.27,0.26-0.17,0.51c0.21,0.55,0.39,1.12,0.58,1.68c-0.02,0.09,0.07,0.31-0.17,0.14c-0.08-0.05-0.16-0.1-0.24-0.15
		c-0.48-0.07-0.81-0.4-1.18-0.66c-0.23-0.16-0.4-0.17-0.62,0.02c-0.34,0.28-0.69,0.55-1.14,0.64c-0.09,0.05-0.18,0.11-0.27,0.16
		c-0.05,0.03-0.11,0.11-0.16,0.03C49.74,53.9,49.78,53.82,49.79,53.75z"/>
	<path class="st4" d="M27.98,45.73c-0.6-0.44-1.12-0.8-1.62-1.19c-0.23-0.18-0.4-0.21-0.64-0.01c-0.48,0.39-1,0.74-1.57,1.15
		c0.04-0.44,0.21-0.77,0.3-1.11c0.11-0.37,0.38-0.78,0.3-1.1c-0.09-0.35-0.59-0.5-0.9-0.74c-0.28-0.22-0.58-0.42-0.97-0.71
		c0.75,0,1.39-0.02,2.03,0.01c0.29,0.01,0.42-0.08,0.5-0.35c0.18-0.62,0.39-1.24,0.63-1.96c0.23,0.72,0.45,1.33,0.63,1.96
		c0.08,0.28,0.2,0.37,0.49,0.35c0.64-0.02,1.27-0.01,2.03-0.01c-0.59,0.43-1.08,0.82-1.6,1.16c-0.28,0.18-0.34,0.35-0.22,0.67
		C27.59,44.43,27.76,45.03,27.98,45.73z"/>
	<path class="st4" d="M48.77,42.02c-0.62,0.45-1.13,0.85-1.67,1.21c-0.24,0.16-0.25,0.3-0.17,0.54c0.21,0.6,0.39,1.2,0.51,1.86
		c-0.51-0.37-1.02-0.72-1.51-1.11c-0.22-0.17-0.38-0.19-0.61-0.01c-0.51,0.4-1.05,0.77-1.65,1.21c0.22-0.69,0.38-1.29,0.61-1.88
		c0.13-0.34,0.05-0.51-0.23-0.7c-0.51-0.33-0.99-0.71-1.58-1.14c0.77,0,1.42-0.01,2.08,0.01c0.25,0.01,0.37-0.07,0.44-0.31
		c0.19-0.64,0.4-1.26,0.64-1.99c0.23,0.68,0.45,1.27,0.61,1.88c0.09,0.35,0.26,0.45,0.61,0.43C47.43,42,48.04,42.02,48.77,42.02z"/>
	<path class="st4" d="M20.06,48.2c0.2,0.64,0.41,1.29,0.6,1.94c0.06,0.22,0.21,0.22,0.38,0.22c0.66,0,1.31,0,1.99,0.08
		c-0.51,0.37-1.01,0.75-1.53,1.1c-0.26,0.17-0.3,0.34-0.19,0.62c0.2,0.53,0.36,1.07,0.54,1.61c0.01,0.07,0.04,0.15,0.02,0.19
		c-0.03,0.06-0.09-0.01-0.14-0.03c-0.1-0.05-0.19-0.11-0.28-0.17c-0.44-0.08-0.78-0.35-1.1-0.62c-0.28-0.23-0.49-0.19-0.73,0.01
		c-0.33,0.27-0.68,0.52-1.11,0.61c-0.08,0.05-0.16,0.1-0.24,0.15c-0.24,0.17-0.15-0.05-0.17-0.14c0.21-0.6,0.4-1.2,0.62-1.8
		c0.07-0.2-0.05-0.27-0.17-0.36c-0.53-0.39-1.06-0.77-1.57-1.24c0.57,0,1.15-0.04,1.72,0.01c0.45,0.04,0.63-0.14,0.73-0.55
		c0.13-0.55,0.32-1.08,0.49-1.62C19.96,48.06,20.01,48.17,20.06,48.2z"/>
	<path class="st4" d="M35.82,36.54c0.24,0.72,0.45,1.33,0.63,1.94c0.08,0.27,0.19,0.38,0.49,0.37c0.64-0.03,1.27-0.01,2.04-0.01
		c-0.61,0.44-1.12,0.83-1.64,1.19c-0.24,0.16-0.29,0.3-0.19,0.58c0.22,0.61,0.4,1.23,0.63,1.94c-0.6-0.43-1.13-0.79-1.63-1.2
		c-0.25-0.2-0.41-0.17-0.65,0.01c-0.5,0.39-1.03,0.75-1.63,1.19c0.23-0.71,0.41-1.34,0.63-1.95c0.1-0.27,0.05-0.42-0.19-0.58
		c-0.52-0.35-1.03-0.74-1.64-1.19c0.76,0,1.4-0.01,2.05,0.01c0.26,0.01,0.39-0.07,0.46-0.33C35.36,37.89,35.58,37.28,35.82,36.54z"
		/>
	<path class="st4" d="M45.61,66.67c0.23,0.69,0.45,1.27,0.6,1.87c0.09,0.36,0.27,0.44,0.61,0.43c0.61-0.03,1.21-0.01,1.95-0.01
		c-0.51,0.37-0.93,0.68-1.36,0.99c-0.59,0.43-0.59,0.43-0.36,1.14c0.16,0.49,0.32,0.97,0.47,1.46c0,0.01-0.01,0.02-0.03,0.08
		c-0.53-0.38-1.06-0.75-1.57-1.14c-0.23-0.18-0.39-0.21-0.63-0.01c-0.49,0.4-1.02,0.75-1.64,1.2c0.23-0.72,0.41-1.32,0.62-1.91
		c0.11-0.29,0.07-0.46-0.21-0.64c-0.53-0.34-1.02-0.73-1.63-1.17c0.77,0,1.41-0.02,2.05,0.01c0.29,0.01,0.41-0.1,0.49-0.37
		C45.17,67.98,45.38,67.37,45.61,66.67z"/>
	<path class="st4" d="M29.2,68.96c-0.58,0.42-1.05,0.79-1.56,1.12c-0.31,0.2-0.42,0.38-0.26,0.76c0.23,0.55,0.38,1.14,0.6,1.83
		c-0.63-0.46-1.16-0.83-1.68-1.22c-0.2-0.15-0.33-0.16-0.53,0c-0.53,0.41-1.08,0.8-1.7,1.24c0.23-0.71,0.43-1.34,0.65-1.97
		c0.09-0.24,0.07-0.39-0.17-0.54c-0.54-0.36-1.05-0.76-1.68-1.22c0.71,0,1.31-0.03,1.9,0.01c0.41,0.03,0.58-0.11,0.68-0.5
		c0.15-0.59,0.37-1.15,0.58-1.8c0.22,0.69,0.44,1.3,0.62,1.92c0.08,0.3,0.23,0.38,0.53,0.37C27.81,68.95,28.44,68.96,29.2,68.96z"/>
	<path class="st4" d="M33.87,75.86c0.23-0.73,0.43-1.38,0.65-2.01c0.08-0.23,0.03-0.35-0.16-0.48c-0.53-0.37-1.05-0.76-1.69-1.22
		c0.68,0,1.26-0.03,1.82,0.01c0.45,0.03,0.66-0.11,0.77-0.56c0.13-0.56,0.35-1.1,0.56-1.75c0.24,0.73,0.46,1.36,0.65,2
		c0.07,0.23,0.17,0.31,0.41,0.3c0.66-0.02,1.32-0.01,2.1-0.01c-0.63,0.46-1.16,0.86-1.7,1.23c-0.19,0.13-0.23,0.25-0.15,0.48
		c0.22,0.62,0.41,1.26,0.65,2c-0.56-0.41-1.06-0.74-1.52-1.12c-0.31-0.25-0.53-0.28-0.85-0.01C34.94,75.12,34.43,75.45,33.87,75.86z
		"/>
	<path class="st4" d="M20.32,59.29c0.27,1.34,0.27,1.34,1.63,1.34c0.36,0,0.71,0,1.07,0c0.01,0.03,0.02,0.05,0.03,0.08
		c-0.51,0.37-1.01,0.75-1.53,1.1c-0.25,0.17-0.32,0.32-0.21,0.61c0.22,0.6,0.4,1.21,0.62,1.92c-0.59-0.43-1.12-0.78-1.62-1.18
		c-0.25-0.2-0.42-0.2-0.67,0c-0.48,0.39-1,0.74-1.58,1.06c0.2-0.61,0.39-1.23,0.6-1.83c0.09-0.25,0.06-0.39-0.17-0.55
		c-0.54-0.36-1.05-0.76-1.68-1.22c0.74,0,1.37-0.02,2,0.01c0.31,0.01,0.49-0.07,0.55-0.4c0.07-0.32,0.19-0.64,0.29-0.95
		c0.1-0.28,0.2-0.56,0.31-0.87C20.16,58.69,20.15,59.03,20.32,59.29z"/>
	<path class="st4" d="M51.99,59.29c0.35,1.34,0.35,1.34,1.72,1.34c0.33,0,0.66,0,1.13,0c-0.58,0.42-1.04,0.8-1.55,1.11
		c-0.34,0.22-0.41,0.43-0.26,0.8c0.22,0.54,0.37,1.1,0.48,1.71c-0.44-0.31-0.88-0.63-1.31-0.94c-0.53-0.38-0.53-0.39-1.07,0
		c-0.45,0.32-0.9,0.65-1.42,1.03c0.2-0.62,0.33-1.19,0.56-1.71c0.21-0.47,0.07-0.72-0.33-0.97c-0.47-0.29-0.89-0.64-1.31-1.04
		c0.63,0,1.26-0.01,1.89,0.01c0.28,0.01,0.44-0.07,0.51-0.35c0.08-0.34,0.19-0.66,0.29-1c0.11-0.28,0.21-0.55,0.34-0.9
		C51.79,58.73,51.89,59.01,51.99,59.29z"/>
	<path class="st5" d="M18.5,53.74c0.43-0.32,0.87-0.64,1.29-0.97c0.13-0.1,0.23-0.11,0.37-0.01c0.42,0.33,0.86,0.65,1.29,0.98
		C20.47,53.75,19.48,53.74,18.5,53.74z"/>
	<path class="st5" d="M50.2,53.75c0.43-0.32,0.86-0.64,1.29-0.97c0.13-0.1,0.24-0.1,0.37,0c0.43,0.33,0.86,0.65,1.29,0.97
		C52.16,53.74,51.18,53.74,50.2,53.75z"/>
</g>
</svg>
