<?xml version="1.0" encoding="utf-8"?>
<!-- Generator: Adobe Illustrator 25.0.0, SVG Export Plug-In . SVG Version: 6.00 Build 0)  -->
<svg version="1.1" id="Layer_1" xmlns="http://www.w3.org/2000/svg" xmlns:xlink="http://www.w3.org/1999/xlink" x="0px" y="0px"
	 viewBox="0 0 100 100" style="enable-background:new 0 0 100 100;" xml:space="preserve">
<style type="text/css">
	.st0{fill:#DC0000;}
	.st1{fill:#FECD00;}
</style>
<g>
	<g>
		<path d="M0.01,33.34c0-10.92,0-21.85-0.01-32.77C0,0.09,0.06,0,0.34,0c33.11,0.01,66.21,0.01,99.32,0C99.94,0,100,0.09,100,0.57
			c-0.01,10.92-0.01,21.85-0.01,32.77c-0.12,0.27-0.29,0.32-0.47,0.34c-0.19,0.01-0.39,0.01-0.58,0.01c-32.62,0-65.25,0-97.87-0.01
			C0.71,33.68,0.31,33.88,0.01,33.34z"/>
		<path class="st0" d="M0.01,33.34c33.33,0,66.66,0,99.98,0c0,11.11,0,22.22,0,33.32c-0.12,0.27-0.29,0.32-0.47,0.34
			c-0.19,0.01-0.39,0.01-0.58,0.01c-32.62,0-65.25,0-97.87-0.01c-0.36,0-0.76,0.21-1.06-0.34C0.01,55.55,0.01,44.45,0.01,33.34z"/>
		<path class="st1" d="M0.01,66.66c33.33,0,66.66,0,99.98,0c0,10.92,0,21.85,0.01,32.77c0,0.48-0.06,0.57-0.34,0.57
			c-33.11-0.01-66.21-0.01-99.32,0C0.06,100,0,99.91,0,99.43C0.01,88.51,0.01,77.59,0.01,66.66z"/>
	</g>
</g>
</svg>
