<?xml version="1.0" encoding="utf-8"?>
<!-- Generator: Adobe Illustrator 25.0.0, SVG Export Plug-In . SVG Version: 6.00 Build 0)  -->
<svg version="1.1" id="Layer_1" xmlns="http://www.w3.org/2000/svg" xmlns:xlink="http://www.w3.org/1999/xlink" x="0px" y="0px"
	 viewBox="0 0 100 100" style="enable-background:new 0 0 100 100;" xml:space="preserve">
<style type="text/css">
	.st0{fill:#D61A04;}
	.st1{fill:#FEFEFE;}
</style>
<rect class="st0" width="100" height="100"/>
<g>
	<path class="st0" d="M49.98,80.3c-16.35,0-32.7,0-49.05,0.02c-0.63,0-0.77-0.11-0.77-0.76c0.02-19.43,0.02-38.85,0-58.28
		c0-0.59,0.05-0.79,0.74-0.79c32.79,0.02,65.58,0.02,98.37,0.01c0.57,0,0.72,0.11,0.72,0.71c-0.02,19.46-0.02,38.92,0,58.37
		c0,0.69-0.2,0.74-0.79,0.74C82.8,80.29,66.39,80.3,49.98,80.3z"/>
	<path class="st1" d="M56.06,63.29c0,2.09-0.02,4.17,0.01,6.26c0.01,0.59-0.12,0.81-0.76,0.81c-3.49-0.03-6.97-0.03-10.46,0
		c-0.63,0.01-0.77-0.2-0.77-0.8c0.02-4.11-0.01-8.22,0.03-12.33c0.01-0.71-0.19-0.88-0.88-0.87c-4.05,0.03-8.09,0-12.14,0.03
		c-0.74,0.01-1.01-0.14-1-0.95c0.05-3.36,0.05-6.72,0-10.08c-0.01-0.81,0.25-0.96,1-0.95c4.05,0.04,8.09,0,12.14,0.03
		c0.69,0.01,0.89-0.15,0.88-0.87c-0.04-4.08,0-8.15-0.03-12.23c-0.01-0.67,0.13-0.91,0.86-0.9c3.42,0.04,6.85,0.04,10.27,0
		c0.73-0.01,0.87,0.23,0.86,0.9c-0.03,4.08,0,8.15-0.03,12.23c-0.01,0.72,0.21,0.87,0.89,0.86c4.08-0.03,8.16,0,12.23-0.03
		c0.67,0,0.91,0.12,0.9,0.85c-0.04,3.42-0.04,6.85,0,10.27c0.01,0.73-0.23,0.86-0.9,0.86c-4.08-0.03-8.16,0-12.23-0.03
		c-0.68-0.01-0.91,0.14-0.89,0.86C56.1,59.25,56.06,61.27,56.06,63.29z"/>
</g>
</svg>
