<?xml version="1.0" encoding="utf-8"?>
<!-- Generator: Adobe Illustrator 25.0.0, SVG Export Plug-In . SVG Version: 6.00 Build 0)  -->
<svg version="1.1" id="angola" xmlns="http://www.w3.org/2000/svg" xmlns:xlink="http://www.w3.org/1999/xlink" x="0px" y="0px"
	 viewBox="0 0 100 100" style="enable-background:new 0 0 100 100;" xml:space="preserve">
<style type="text/css">
	.st0{fill:#CA222C;}
	.st1{fill:#FDCC18;}
	.st2{fill:#FCCC19;}
	.st3{fill:#FFCC17;}
	.st4{fill:#EE932A;}
	.st5{fill:#CE204A;}
	.st6{fill:#E87E32;}
	.st7{fill:#E5822C;}
	.st8{fill:#FCCD18;}
	.st9{fill:#F7CD1D;}
	.st10{fill:#775221;}
	.st11{fill:#D6BD2F;}
	.st12{fill:#5B401A;}
	.st13{fill:#916A28;}
	.st14{fill:#836426;}
	.st15{fill:#8E6A29;}
</style>
<g>
	<rect x="-0.7" y="-0.35" class="st0" width="100.7" height="100.7"/>
	<rect x="-0.7" y="51.57" width="100.7" height="48.78"/>
	<path class="st1" d="M72.89,51.81c-2.83,0.36-2.83,0.36-3.53,3.17c-0.07,0.28-0.07,0.6-0.2,0.84c-0.62,1.13-0.48,1.91,0.83,2.42
		c0.81,0.31,0.91,0.94,0.45,1.7c-0.51,0.85-0.91,1.75-1.39,2.62c-0.36,0.66-0.84,0.88-1.51,0.39c-1.02-0.74-1.79-0.53-2.44,0.56
		c-0.4,0.66-0.9,1.31-1.49,1.81c-0.89,0.76-0.77,1.41-0.06,2.17c0.46,0.49,0.94,1.02,0.18,1.67c-0.42,0.36-0.76,0.49-1.27,0.08
		c-1.3-1.07-2.65-2.09-4-3.11c-0.71-0.53-0.41-0.89,0.1-1.34c3.57-3.17,5.95-7.1,7.33-11.66c0.12-0.4,0.24-0.79,0.15-1.21
		c0.97-2.36,0.91-4.85,0.71-7.3c-0.36-4.6-1.88-8.82-4.65-12.55c-0.31-0.58-0.83-0.99-1.22-1.51c-2.92-3.49-6.64-5.81-10.86-7.38
		c-0.04-0.01-0.08-0.02-0.12-0.03c-2.34-0.63-2.69-1.36-1.77-3.6c0.19-0.46,0.43-0.6,0.95-0.49c0.77,0.16,1.52,0.33,2.25,0.65
		c1.5,0.67,1.83,0.61,2.56-0.79c0.47-0.89,0.95-1.01,1.75-0.5c0.48,0.3,1.03,0.51,1.54,0.78c1.7,0.92,1.71,0.93,1.09,2.74
		c-0.2,0.59-0.12,0.98,0.43,1.36c0.78,0.54,1.47,1.19,2.2,1.8c0.48,0.7,1.05,1.15,1.95,0.71c1.26-1.27,1.43-1.27,2.62,0.04
		c0.28,0.3,0.52,0.64,0.8,0.94c1.3,1.45,1.32,1.46,0.06,2.92c-0.41,0.48-0.47,0.87-0.12,1.43c0.58,0.94,1.17,1.91,1.57,2.94
		s1.1,1.21,1.95,0.9c1.1-0.41,1.56-0.03,1.82,1.03c0.22,0.91,0.63,1.78,0.94,2.67c0.24,0.68,0.15,1.1-0.7,1.36
		c-1.77,0.53-1.81,0.7-1.33,2.45c0.25,0.89,0.19,1.8,0.2,2.7c0.01,0.89,0.23,1.53,1.3,1.54c1.09,0.01,1.5,0.59,1.4,1.69
		C73.23,49.54,73.14,50.69,72.89,51.81z"/>
	<path class="st2" d="M50.73,68.24c-3.3-2.14-6.61-4.26-9.9-6.42c-2.46-1.62-5-3.15-6.43-5.94c-0.66-1.3-0.48-2.64-0.56-3.98
		c0.42-1.22,0.84-2.45,1.27-3.66c0.12-0.34,0.17-0.85,0.54-0.89c0.45-0.05,0.45,0.5,0.6,0.81c0.72,1.48,1.55,2.87,2.94,3.83
		c0.21,0.28,0.42,0.56,0.62,0.83c0.51,0.59,1.08,1.11,1.75,1.51l0,0c0.2,0.31,0.05,0.54-0.18,0.74c-0.18,0.16-0.41,0.3-0.18,0.58
		c4.22,3.06,8.32,6.26,12.44,9.43c4.42,3.39,8.9,6.72,13.25,10.2c0.55,0.44,1.18,0.89,0.63,1.74c-0.54,0.84-1.34,1.08-2.1,0.63
		l-0.02-0.02c-0.99-0.66-1.98-1.32-3.01-1.91c-1.82-1.17-3.63-2.34-5.45-3.51C54.76,71.06,52.65,69.79,50.73,68.24z"/>
	<path class="st3" d="M45.01,33.53c0.47-1.49,0.93-2.99,1.41-4.48c0.09-0.27,0.17-0.63,0.5-0.64c0.4-0.01,0.33,0.41,0.41,0.66
		c0.44,1.33,0.87,2.67,1.27,4.01c0.22,0.75,0.66,1.05,1.45,1.01c1.32-0.06,2.65-0.03,3.97-0.02c0.3,0,0.73-0.15,0.85,0.29
		c0.11,0.4-0.28,0.55-0.54,0.74c-1.01,0.77-1.98,1.62-3.04,2.31c-0.89,0.57-0.94,1.25-0.63,2.12c0.39,1.09,0.77,2.17,1.14,3.27
		c0.12,0.36,0.43,0.82-0.06,1.1c-0.36,0.2-0.67-0.08-0.98-0.32c-1.03-0.81-2.09-1.59-3.15-2.37c-0.55-0.4-1.07-0.33-1.57,0.12
		c-0.98,0.88-2.24,1.38-3.16,2.35c-0.25,0.27-0.72,0.32-1.22,0.53c0.18-1.62,0.81-2.97,1.34-4.32c0.51-1.31,0.21-2.1-0.88-2.8
		c-0.48-0.31-0.89-0.71-1.34-1.07c-0.52-0.43-1.59-0.69-1.4-1.37c0.21-0.75,1.23-0.3,1.9-0.35c0.82-0.07,1.65-0.05,2.48-0.01
		C44.34,34.31,44.75,34.08,45.01,33.53z"/>
	<path class="st4" d="M45.01,33.53c0.06,0.79-0.39,0.99-1.07,0.98c-1.47-0.01-2.94,0-4.43,0c0.07,0.88,1.03,0.87,1.25,1.5
		c-0.91-0.07-1.35-0.88-2.03-1.3c-0.17-0.1-0.36-0.24-0.27-0.49s0.33-0.21,0.53-0.21c1.48-0.01,2.96-0.03,4.43,0
		C44.01,34.03,44.54,33.91,45.01,33.53z"/>
	<path class="st5" d="M39.06,49.65c-0.04,0.28,0.05,0.73-0.44,0.66c-0.42-0.06-0.51-0.48-0.54-0.84c-0.03-0.33,0.12-0.54,0.49-0.53
		C39.02,48.96,39.04,49.29,39.06,49.65z"/>
	<path class="st6" d="M62.84,25.79c-0.96,0.61-1.61,0.37-1.95-0.71C61.5,25.42,62.03,25.99,62.84,25.79z"/>
	<path class="st7" d="M60.88,30.56c0.59,0.35,1.13,0.75,1.22,1.51C61.48,31.74,61.11,31.21,60.88,30.56z"/>
	<path class="st8" d="M53.7,72.73c-0.59,0.56-0.05,1.07,0.1,1.57c0.24,0.8,0.04,1.3-0.79,1.47c-1.05,0.21-1.97,0.83-3.06,0.96
		c-0.68,0.08-1.11-0.02-1.27-0.78c-0.25-1.19-0.96-1.65-2.17-1.31c-0.39,0.11-0.82,0.15-1.23,0.15c-1.54-0.02-2.68,0.38-2.65,2.23
		c0.01,0.49-0.32,0.71-0.83,0.67c-1.11-0.11-2.22-0.19-3.33-0.29c-0.79-0.07-1.24-0.42-1.07-1.28c0.22-1.12-0.22-1.69-1.36-1.82
		c-0.65-0.08-1.33-0.21-1.91-0.5c-1.11-0.56-1.73-0.04-2.1,0.89c-0.36,0.9-0.88,0.96-1.65,0.59c-0.52-0.25-1.06-0.45-1.59-0.67
		c-1.76-0.72-1.85-0.88-1.24-2.7c0.23-0.68,0.02-1.04-0.56-1.41c-2.5-1.62-2.46-1.62-0.62-3.93c0.59-0.74,0.93-0.72,1.68-0.18
		c1.7,1.21,3.46,2.35,5.52,2.9c4.27,1.74,8.73,1.78,13.21,1.32c1.09-0.11,2.15-0.56,3.18-0.94c0.91-0.34,1.67-0.28,2.46,0.18
		c0.5,0.29,1.01,0.55,1.49,0.89C55.16,71.6,55.11,72.02,53.7,72.73z"/>
	<path class="st9" d="M70.8,76.72c1.91,1.5,3.82,3.01,5.74,4.5c0.55,0.43,1.1,0.86,1.53,1.43c0.79,1.07,0.73,2.25-0.16,2.98
		c-0.73,0.61-2.22,0.45-2.85-0.55c-1.81-2.84-4.93-4-7.42-5.95c-0.53-0.21-0.45-0.63-0.29-1.01c0.33-0.8,0.83-1.53,1.5-2.04
		C69.68,75.41,70.2,76.31,70.8,76.72z"/>
	<path class="st10" d="M70.8,76.72c-1.63-0.73-1.6-0.71-2.88,0.93c-0.38,0.49-0.7,0.89-0.29,1.48c-0.86-0.06-0.35-0.83-0.64-1.19
		c-0.59,0.31-1.17,0.55-1.56-0.29c1.15,0.61,1.52-0.38,1.99-1.02c0.43-0.59-0.27-0.8-0.56-1.02c-4.58-3.53-9.18-7.04-13.78-10.55
		c-3.84-2.94-7.67-5.88-11.52-8.82c-0.22-0.17-0.5-0.27-0.75-0.4c-0.29-0.75,0.26-0.72,0.69-0.68c0.51,0.05,0.9,0.39,1.29,0.7
		c5.39,4.21,10.9,8.27,16.32,12.44c2.68,2.06,5.38,4.1,8.05,6.16c0.31,0.24,0.6,0.8,1.14,0.32C68.85,75.79,70.32,75.61,70.8,76.72z"
		/>
	<path class="st11" d="M68.29,74.78c-0.01,0.24,0.31,0.51,0.08,0.68c-0.35,0.26-0.62-0.16-0.84-0.32c-2.45-1.82-4.87-3.67-7.29-5.51
		c-5.46-4.16-10.92-8.33-16.38-12.5c-0.65-0.5-1.28-1.03-1.96-1.48c-0.38-0.25-0.88-0.67-1.1,0.2c-0.48-0.38-0.25-0.7,0.15-0.9
		c0.29-0.15,0.57-0.25,0.61-0.62c2.16,1.36,4.06,3.07,6.09,4.61c5.84,4.43,11.63,8.92,17.44,13.38
		C66.15,73.13,67.22,73.96,68.29,74.78z"/>
	<path class="st12" d="M53.7,72.73c1.21-0.95,1.22-0.96-0.07-1.78c-0.69-0.44-1.41-0.81-2.1-1.25c-0.41-0.26-0.75-0.15-1.16,0
		c-3.55,1.27-7.18,1.62-10.92,1.15c-2.04-0.25-4.06-0.52-5.88-1.57c0.71-0.21,1.27,0.27,1.88,0.47c2.05,0.67,4.19,0.84,6.31,0.93
		c2.75,0.12,5.49-0.24,8.11-1.14c0.54-0.19,1.08-0.28,1.65-0.34c-0.09-0.52-0.74-0.47-0.78-0.95c2.23,1.08,4.24,2.49,6.2,3.98
		c-0.23-0.07-0.51-0.07-0.68-0.21c-0.62-0.48-1.1-0.61-1.51,0.26C54.56,72.65,54.15,72.82,53.7,72.73z"/>
	<path class="st10" d="M62.38,75.73c1.16,0.39,2.15,1.05,3.01,1.91C64.25,77.22,63.25,76.58,62.38,75.73z"/>
	<path class="st11" d="M41.56,54.33c-0.84-0.2-1.43-0.7-1.75-1.51C40.47,53.23,41.08,53.71,41.56,54.33z"/>
	<path class="st13" d="M73.51,79.92c0.37,0.03,0.55,0.17,0.51,0.48c-0.05,0.34-0.28,0.49-0.61,0.46c-0.22-0.02-0.36-0.19-0.36-0.42
		C73.04,80.08,73.28,79.96,73.51,79.92z"/>
	<path class="st14" d="M75.55,81.68c-0.03,0.31-0.21,0.45-0.48,0.45c-0.33,0-0.54-0.17-0.53-0.51c0.01-0.28,0.17-0.45,0.46-0.44
		C75.32,81.19,75.51,81.37,75.55,81.68z"/>
	<path class="st15" d="M71.84,79.44c-0.35-0.01-0.49-0.14-0.51-0.37c-0.02-0.31,0.16-0.44,0.45-0.42c0.22,0.01,0.42,0.1,0.43,0.34
		C72.22,79.29,71.98,79.39,71.84,79.44z"/>
</g>
</svg>
